<?xml version="1.0" encoding="utf-8" ?><svg xmlns="http://www.w3.org/2000/svg" xmlns:xlink="http://www.w3.org/1999/xlink" width="880" height="880" viewBox="0 0 880 880"><path fill="#3BB3E4" transform="scale(0.859375 0.859375)" d="M173.616 203.278C186.314 202.413 199.381 202.99 212.116 203.025C240.445 203.102 268.799 203.712 297.123 203.51L297.034 367.954L356.539 368.026L356.477 333.68C356.486 310.509 356.664 289.18 373.676 271.35C384.651 259.847 399.262 253.674 415.138 253.425C430.56 253.182 446.142 258.895 457.172 269.818C465.767 278.329 471.224 289.228 473.496 301.065C475.274 310.325 474.671 320.338 474.659 329.739L474.604 368.918L474.538 511.029C476.533 511.001 480.582 510.541 482.134 511.724C479.509 512.854 475.936 512.856 473.092 512.927C460.246 513.247 447.289 512.584 434.429 512.532L350.477 512.505L72.9254 512.526L72.5165 282.933C82.0443 282.04 92.1614 282.712 101.77 282.73L162.989 282.956L163.313 229.548C163.37 221.428 162.437 212.395 163.681 204.383C166.2 202.855 170.688 203.318 173.616 203.278ZM165.082 283.001C174.125 282.985 183.638 283.633 192.616 282.888C193.742 282.906 194.517 282.794 195.435 283.518C195.873 307.501 195.447 331.568 195.471 355.56L195.457 510.938L295.517 511.004C294.901 482.97 295.484 454.814 295.501 426.765L295.896 204.865C283.339 205.521 270.516 204.941 257.939 204.863C226.978 204.673 195.786 203.866 164.855 205.052C163.772 215.285 164.799 226.407 164.783 236.746C164.76 251.341 164.084 265.974 164.49 280.568C164.517 281.551 164.64 282.125 165.082 283.001ZM74.485 284.514L74.38 438.806L74.3196 486.917C74.3228 494.867 74.7793 503.037 74.3385 510.961L155.152 510.952C167.956 510.945 181.295 510.106 194.027 511.006C193.835 485.693 194.847 287.194 193.578 284.812C193.537 284.734 193.446 284.695 193.381 284.637C183.084 284.386 172.723 284.486 162.424 284.611L74.485 284.514ZM297.129 369.506C296.471 416.605 297.893 463.773 297.004 510.859C317.735 511.011 338.465 511.043 359.196 510.953C366.783 510.958 379.508 511.938 386.501 510.878L386.508 410.149C386.555 396.63 386.228 382.995 386.583 369.49L297.129 369.506ZM412.116 255.282C397.053 256.208 383.575 262.663 373.606 274.055C350.857 300.054 360.663 336.447 358.219 367.878C368.306 368.1 378.412 367.76 388.487 368.025C388.664 398.426 388.02 428.887 387.978 459.302C387.941 469.526 387.958 479.75 388.026 489.974C388.092 496.575 388.522 503.149 387.966 509.737C387.932 510.142 387.91 510.548 387.879 510.953C397.62 511.362 407.321 510.956 417.058 511.023C435.572 511.032 454.599 510.173 473.049 511.336L472.919 366.298L472.984 329.472C473.002 320.015 473.593 309.94 471.795 300.634C469.679 289.677 463.692 279.135 455.786 271.328C445.009 260.53 430.25 254.661 415 255.109C414.037 255.129 413.075 255.187 412.116 255.282Z"/><path fill="#3BB3E4" transform="scale(0.859375 0.859375)" d="M103.848 362.923C111.571 363.143 119.35 362.959 127.08 362.97C127.341 369.799 128.61 412.79 126.94 415.688C119.292 415.758 111.644 415.742 103.997 415.64C103.596 398.09 103.918 380.483 103.848 362.923Z"/><path fill="#3BB3E4" transform="scale(0.859375 0.859375)" d="M103.972 429.078C111.462 429.846 119.555 429.312 127.086 429.072L127.145 481.917C124.723 483.272 107.998 482.447 104.033 482.424C103.684 464.666 103.881 446.84 103.972 429.078Z"/><path fill="#3BB3E4" transform="scale(0.859375 0.859375)" d="M141.026 429.065C148.307 430.317 157.084 429.455 164.54 429.408L164.498 482.564C156.812 482.408 149.102 482.526 141.414 482.522C140.774 464.724 141.767 446.876 141.026 429.065Z"/><path fill="#3BB3E4" transform="scale(0.859375 0.859375)" d="M141.343 363.009C149.086 363.116 156.847 362.988 164.592 362.968C164.784 380.62 164.744 398.274 164.473 415.925C156.799 415.744 149.122 415.73 141.447 415.885L141.343 363.009Z"/><path fill="#3BB3E4" transform="scale(0.859375 0.859375)" d="M141.023 297.868L164.522 297.926L164.476 349.1L141.18 349.12C141.282 332.036 141.229 314.951 141.023 297.868Z"/><path fill="#3BB3E4" transform="scale(0.859375 0.859375)" d="M103.858 297.94L127.473 297.969L127.435 349.251C119.648 349.13 111.77 348.935 103.994 349.338C103.66 332.218 103.846 315.064 103.858 297.94Z"/><path fill="#3BB3E4" transform="scale(0.859375 0.859375)" d="M347.258 383.213C355.138 383.994 363.942 383.743 371.838 383.155C371.034 400.29 371.739 417.672 371.944 434.819C364.974 435.759 354.344 434.928 347.012 434.921L346.969 401.395C346.964 395.471 346.477 389.075 347.258 383.213Z"/><path fill="#3BB3E4" transform="scale(0.859375 0.859375)" d="M346.937 447.919C355.271 447.857 363.625 447.676 371.955 447.964L372.002 497.929L347.514 498.092C346.877 491.713 347.199 485.113 347.198 478.708C347.246 468.444 347.159 458.18 346.937 447.919Z"/><path fill="#3BB3E4" transform="scale(0.859375 0.859375)" d="M309.841 383.485C317.9 383.532 325.958 383.526 334.017 383.468L334.014 434.739C325.843 434.596 317.67 434.601 309.499 434.754C309.97 417.691 309.812 400.555 309.841 383.485Z"/><path fill="#3BB3E4" transform="scale(0.859375 0.859375)" d="M309.606 448.013L333.969 448.04C334.182 464.696 333.855 481.353 334.087 498.008C325.877 497.898 317.666 497.908 309.456 498.037L309.606 448.013Z"/><path fill="#FE1033" transform="scale(0.859375 0.859375)" d="M375.125 727.958C385.383 736.607 392.917 736.272 405.557 736.086C404.57 747.468 402.9 758.829 401.374 770.149C412.511 770.576 423.768 770.218 434.916 770.19L498.006 770.022L551.416 770.129C562.654 770.132 573.984 770.462 585.203 769.911C586.006 770.312 586.624 770.541 587.143 771.312C587.559 771.929 587.292 772.155 587.112 772.812C584.947 774.515 581.462 774.635 578.78 774.79C569.808 775.307 560.652 774.471 551.656 774.379L495.575 773.94C499.712 788.273 504.852 802.371 509.785 816.446C513.962 815.442 518.38 814.782 522.672 814.573C538.6 813.858 554.163 819.476 565.963 830.198C578.098 841.523 585.312 857.152 586.059 873.734C586.672 890.516 581.058 906.401 569.546 918.721C558.492 930.549 544.031 937.584 527.768 938.106C511.765 938.62 496.44 933.288 484.727 922.234C471.251 909.516 465.439 893.695 464.978 875.434L427.113 875.447C427.12 878.837 426.8 882.421 426.056 885.729C424.482 892.731 420.616 898.909 414.368 902.625C408.893 905.825 402.368 906.707 396.24 905.076C390.226 903.474 384.789 899.325 381.754 893.878C378.45 887.948 378.729 881.915 380.579 875.585L371.165 875.478C370.432 887.606 367.896 899.629 361.564 910.137C353.675 923.229 340.068 933.058 325.256 936.709C309.501 940.53 292.874 937.937 279.03 929.5C265.099 921.063 255.068 907.461 251.124 891.659C247.195 875.288 249.859 858.029 258.542 843.605C266.912 829.984 280.61 819.629 296.27 816.032C312.146 812.386 327.656 815.239 341.374 823.902C345.002 815.75 349.18 806.456 354.567 799.339C345.16 790.237 340.659 781.51 338.754 768.569C340.247 768.348 341.962 767.831 343.381 768.48C345.467 767.636 372.153 768.4 376.992 768.37L375.125 727.958ZM425.416 871.424C430.221 872.266 435.663 871.836 440.537 871.815L465.295 871.667C465.497 865.629 467.214 859.047 469.331 853.411C475.887 835.96 489.145 824.67 505.817 817.212C500.861 802.888 496.147 788.482 491.677 773.999L438.472 773.976C425.306 773.976 412.037 773.587 398.902 774.545C398.997 774.689 399.089 774.835 399.185 774.977C403.833 781.83 414.303 787.486 420.76 793.065C425.176 796.881 429.247 801.134 430.979 806.866C434.492 818.49 430.137 833.965 428.757 845.809C427.819 853.856 427.309 862.084 425.855 870.052C425.723 870.776 425.744 870.587 425.416 871.424ZM382.408 871.632C383.958 856.403 386.357 841.2 388.332 826.014C379.275 816.537 367.444 809.787 358.502 800.334C352.964 808.19 349.207 817.431 344.849 825.975C360.478 836.767 367.362 853.204 370.746 871.281C370.781 871.468 370.811 871.656 370.844 871.843C374.666 871.742 378.594 871.443 382.408 871.632ZM343.035 829.202C336.013 840.572 329.402 852.318 323.073 864.089C324.825 866.553 326.543 868.873 327.49 871.786C331.546 872.499 336.512 872.013 340.66 871.981C349.487 871.913 358.328 871.715 367.154 871.906C363.395 852.49 357.987 842.105 343.035 829.202ZM339.176 827.282C326.683 819.385 312.364 816.666 297.905 819.92C283.168 823.344 270.386 832.464 262.357 845.287C254.283 858.093 251.182 874.173 254.572 888.994C258.231 904.351 267.822 917.634 281.249 925.937C294.044 933.906 309.522 936.351 324.151 932.715C338.546 929.169 350.942 920.047 358.609 907.358C364.373 897.733 366.655 886.629 367.087 875.516L341.666 875.421C337.458 875.411 332.556 874.998 328.423 875.688C328.057 877.769 327.671 879.76 326.807 881.701C325.078 885.588 321.954 889.149 317.825 890.51C313.494 891.938 308.041 891.802 303.94 889.729C300.438 887.959 298.027 884.932 296.848 881.213C295.41 876.733 295.935 871.855 298.293 867.784C300.418 864.086 304.037 861.001 308.217 859.951C312.316 858.921 315.943 860.059 319.427 862.227L331.495 840.891C334.046 836.424 336.977 831.922 339.176 827.282ZM507.066 821.049C496.926 824.986 488.043 831.599 481.363 840.183C471.466 852.735 467.172 868.806 469.489 884.622C471.545 899.715 479.537 913.365 491.693 922.546C503.485 931.485 518.247 935.925 533 933.848C548 931.624 561.507 923.546 570.563 911.384C580.072 898.723 583.572 882.956 581.317 867.362C579.247 852.388 571.268 838.865 559.162 829.811C544.134 818.619 528.599 817.508 510.688 820.178L523.084 860.174C528.305 860.394 533.217 861.387 536.863 865.465C539.877 868.836 541.134 873.711 540.68 878.161C540.281 882.066 538.512 885.679 535.443 888.169C532.101 890.881 527.614 891.986 523.371 891.487C519.487 891.029 515.86 889.121 513.46 886.004C510.763 882.502 509.97 877.909 510.565 873.594C511.196 869.023 513.731 865.34 517.397 862.618C518.001 862.176 518.616 861.749 519.243 861.338C517.491 857.089 516.525 852.264 515.215 847.848L507.066 821.049Z"/><path fill="#3BB3E4" transform="scale(0.859375 0.859375)" d="M375.125 727.958C385.383 736.607 392.917 736.272 405.557 736.086C404.57 747.468 402.9 758.829 401.374 770.149C397.82 769.821 391.328 768.735 388.296 770.93C387.554 771.467 387.689 771.902 387.531 772.738C388.032 773.656 387.821 773.684 388.931 774.037C392.076 775.038 395.692 773.97 398.902 774.545C398.997 774.689 399.089 774.835 399.185 774.977C403.833 781.83 414.303 787.486 420.76 793.065C425.176 796.881 429.247 801.134 430.979 806.866C434.492 818.49 430.137 833.965 428.757 845.809C427.819 853.856 427.309 862.084 425.855 870.052C425.723 870.776 425.744 870.587 425.416 871.424C421.909 879.857 423.533 888.487 416.454 895.676C412.692 899.52 407.521 901.658 402.143 901.592C396.743 901.533 391.592 899.306 387.851 895.41C381.444 888.695 382.25 880.145 382.408 871.632C383.958 856.403 386.357 841.2 388.332 826.014C379.275 816.537 367.444 809.787 358.502 800.334C357.837 795.772 351.375 791.174 348.866 787.123C345.217 781.231 343.967 775.3 343.381 768.48C345.467 767.636 372.153 768.4 376.992 768.37L375.125 727.958Z"/><path fill="#3BB3E4" transform="scale(0.859375 0.859375)" d="M523.084 860.174C528.305 860.394 533.217 861.387 536.863 865.465C539.877 868.836 541.134 873.711 540.68 878.161C540.281 882.066 538.512 885.679 535.443 888.169C532.101 890.881 527.614 891.986 523.371 891.487C519.487 891.029 515.86 889.121 513.46 886.004C510.763 882.502 509.97 877.909 510.565 873.594C511.196 869.023 513.731 865.34 517.397 862.618C518.001 862.176 518.616 861.749 519.243 861.338C520.413 865.386 520.998 869.556 522.446 873.547C523.205 875.64 524.333 878.766 526.451 879.769L527.047 879.198C528.175 873.138 524.984 865.891 523.084 860.174Z"/><path fill="#3BB3E4" transform="scale(0.859375 0.859375)" d="M328.423 875.688C328.057 877.769 327.671 879.76 326.807 881.701C325.078 885.588 321.954 889.149 317.825 890.51C313.494 891.938 308.041 891.802 303.94 889.729C300.438 887.959 298.027 884.932 296.848 881.213C295.41 876.733 295.935 871.855 298.293 867.784C300.418 864.086 304.037 861.001 308.217 859.951C312.316 858.921 315.943 860.059 319.427 862.227C317.359 865.732 314.498 869.521 314.398 873.703C315.023 874.953 315.311 875.421 316.674 875.892C319.605 876.905 325.285 876.043 328.423 875.688Z"/><path fill="#3BB3E4" transform="scale(0.859375 0.859375)" d="M323.073 864.089C324.825 866.553 326.543 868.873 327.49 871.786C324.955 871.264 322.023 871.501 319.428 871.466C320.658 869.014 321.873 866.555 323.073 864.089Z"/><path fill="#3BB3E4" transform="scale(0.859375 0.859375)" d="M777.947 379.5C812.785 379.946 847.683 379.015 882.509 379.917C882.546 388.147 881.178 396.427 882.95 404.582C886.406 420.484 900.894 428.214 902.736 445.911C903.467 460.672 902.364 475.364 902.396 490.118L902.636 591.631C902.64 611.193 902.07 630.96 902.77 650.5L759.998 650.413L760.209 480.378C760.234 469.256 758.56 448.674 761.29 438.741C762.943 432.73 766.392 427.936 769.977 422.938C779.772 409.285 780.089 395.81 777.947 379.5Z"/><path fill="#2492E4" transform="scale(0.859375 0.859375)" d="M777.947 379.5C812.785 379.946 847.683 379.015 882.509 379.917C882.546 388.147 881.178 396.427 882.95 404.582C886.406 420.484 900.894 428.214 902.736 445.911C897.002 448.879 891.254 451.632 884.68 449.571C881.167 448.469 878.106 446.31 875.27 444.02C870.804 448.207 866.435 450.592 860.092 450.415C854.182 450.25 850.22 447.786 846.19 443.751C840.968 447.884 836.269 451.13 829.217 450.381C824.336 449.863 820.247 447.343 816.525 444.31C811.227 448.22 805.656 451.495 798.764 450.465C793.964 449.748 790.474 446.973 787.096 443.689C783.141 447.496 779.519 450.436 773.7 450.404C769.015 450.378 764.985 448.522 760.657 447.023C760.656 451.887 761.719 477.815 760.209 480.378C760.234 469.256 758.56 448.674 761.29 438.741C762.943 432.73 766.392 427.936 769.977 422.938C779.772 409.285 780.089 395.81 777.947 379.5Z"/><path fill="#3BB3E4" transform="scale(0.859375 0.859375)" d="M671.915 828.346L925.987 828.45C925.897 843.882 928.108 875.99 924.358 889.485C922.808 895.062 920.062 899.861 916.021 904.01C904.318 913.96 892.764 914.337 877.928 914.411L755.633 914.452L722.569 914.43C714.893 914.422 706.505 914.963 698.968 913.478C692.493 912.202 686.533 908.492 681.919 903.867C669.351 891.268 671.767 873.993 671.908 857.697L671.915 828.346Z"/><path fill="#FE5140" transform="scale(0.859375 0.859375)" d="M390.06 641.311C394.055 642.619 398.331 642.812 402.428 641.871C406.21 644.039 412.576 641.666 415.677 643.9C414.849 652.842 413.447 661.719 412.417 670.639C411.507 678.515 411.005 686.546 409.837 694.372C419.014 694.13 428.202 694.466 437.381 694.456C444.377 694.449 452.429 693.546 459.238 694.904C463.054 695.665 466.702 697.338 469.56 700.014C473.401 703.611 475.604 708.972 475.637 714.22C475.652 716.497 475.523 718.786 475.414 721.06C482.969 721.049 490.547 720.912 498.099 721.068L497.989 724.855C489.898 724.734 481.806 724.744 473.716 724.884C468.098 731.683 463.827 734.955 454.862 735.847C448.882 736.443 442.651 736.134 436.642 736.124L405.557 736.086C392.917 736.272 385.383 736.607 375.125 727.958L376.992 768.37C372.153 768.4 345.467 767.636 343.381 768.48C341.962 767.831 340.247 768.348 338.754 768.569C331.884 767.855 324.609 768.31 317.703 768.338L279.847 768.499C279.895 759.105 280.82 749.56 281.342 740.172L285.232 676.708C285.831 667.108 287.923 651.38 286.584 642.537L352.72 642.396C364.834 642.384 378.208 643.582 390.06 641.311Z"/><path fill="#FE1033" transform="scale(0.859375 0.859375)" d="M375.125 727.958C369.068 718.082 364.046 707.694 358.861 697.346C355.112 689.865 350.627 682.145 348.326 674.076C347.489 671.139 347.157 668.203 347.776 665.182C348.834 660.023 352.269 655.451 356.767 652.765C361.159 650.143 366.869 649.336 371.818 650.635C381.233 653.105 386.071 663.084 390.594 670.804C394.753 678.572 398.763 686.419 402.623 694.34L409.837 694.372C419.014 694.13 428.202 694.466 437.381 694.456C444.377 694.449 452.429 693.546 459.238 694.904C463.054 695.665 466.702 697.338 469.56 700.014C473.401 703.611 475.604 708.972 475.637 714.22C475.652 716.497 475.523 718.786 475.414 721.06C482.969 721.049 490.547 720.912 498.099 721.068L497.989 724.855C489.898 724.734 481.806 724.744 473.716 724.884C468.098 731.683 463.827 734.955 454.862 735.847C448.882 736.443 442.651 736.134 436.642 736.124L405.557 736.086C392.917 736.272 385.383 736.607 375.125 727.958Z"/><path fill="white" transform="scale(0.859375 0.859375)" d="M364.916 653.523C366.768 653.436 368.708 653.522 370.498 654.027C373.882 654.981 376.725 657.238 379.036 659.821C386.667 668.35 394.657 687.549 400.687 698.296C413.916 698.727 451.745 695.593 462.145 699.788C466.096 701.381 469.231 705.164 470.753 709.06C472.544 713.648 472.255 718.002 470.185 722.418C467.701 727.715 463.794 729.965 458.515 731.865C448.908 733.205 438.683 732.503 428.978 732.519C417.797 732.537 406.311 733.059 395.174 732.246C391.695 731.992 387.021 731.695 383.878 730.075C380.908 728.544 378.466 725.478 376.573 722.765C372.332 716.69 369.391 709.812 366.003 703.252C361.462 694.46 356.136 685.609 352.894 676.245C351.247 671.488 350.358 666.911 352.793 662.21C355.335 657.305 359.973 655.225 364.916 653.523Z"/><path fill="#3BB3E4" transform="scale(0.859375 0.859375)" d="M390.594 670.804C400.797 663.07 407.832 653.782 415.677 643.9C414.849 652.842 413.447 661.719 412.417 670.639C411.507 678.515 411.005 686.546 409.837 694.372L402.623 694.34C398.763 686.419 394.753 678.572 390.594 670.804Z"/><path fill="#FE5140" transform="scale(0.859375 0.859375)" d="M709.244 745.18C710.392 745.095 711.543 745.05 712.694 745.046L831.109 745.009L865.222 744.897C874.128 744.87 883.672 744.199 892.42 746.034C900.596 747.749 907.589 752.067 913.464 757.938C927.294 771.762 925.718 792.518 925.692 810.496L888.75 810.487L671.723 810.572C671.356 793.681 670.132 775.071 680.955 760.859C687.954 751.669 697.972 746.755 709.244 745.18Z"/><path fill="#2492E4" transform="scale(0.859375 0.859375)" d="M661.953 126.387L665.142 126.48C676.057 126.523 687.766 129.652 696.303 136.753C697.432 137.531 698.605 138.265 699.595 139.219C710.805 148.031 716.053 159.103 719.925 172.542L720.693 175.318C725.651 194.289 722.968 214.448 713.221 231.462C705.184 245.194 692.04 254.713 676.67 258.603C672.889 259.559 669.094 260.265 665.238 260.832C665.086 261.226 664.915 261.697 664.713 262.061C664.058 263.239 663.938 263.422 662.702 263.723C661.344 262.818 661.06 261.581 660.533 260.122C647.747 257.412 639.709 257.611 628.711 249.085C614.372 237.967 606.736 221.298 604.625 203.548C602.365 184.533 606.347 165.263 618.459 150.08C629.691 136.001 644.272 128.348 661.953 126.387Z"/><path fill="#2492E4" transform="scale(0.859375 0.859375)" d="M720.693 175.318C725.651 194.289 722.968 214.448 713.221 231.462C705.184 245.194 692.04 254.713 676.67 258.603C672.889 259.559 669.094 260.265 665.238 260.832C664.012 251.814 664.798 239.69 665.392 230.527C683.086 211.431 703.433 194.639 720.693 175.318Z"/><path fill="#2492E4" transform="scale(0.859375 0.859375)" d="M699.595 139.219C710.805 148.031 716.053 159.103 719.925 172.542C711.464 176.639 701.303 188.826 694.477 195.544C684.75 205.011 675.087 214.544 665.49 224.143L665.281 172.589C670.462 166.697 676.226 161.43 681.793 155.915C687.506 150.256 693.142 144.039 699.595 139.219Z"/><path fill="#FE1033" transform="scale(0.859375 0.859375)" d="M661.953 126.387L665.142 126.48C676.057 126.523 687.766 129.652 696.303 136.753C697.432 137.531 698.605 138.265 699.595 139.219C693.142 144.039 687.506 150.256 681.793 155.915C676.226 161.43 670.462 166.697 665.281 172.589L665.49 224.143C675.087 214.544 684.75 205.011 694.477 195.544C701.303 188.826 711.464 176.639 719.925 172.542L720.693 175.318C703.433 194.639 683.086 211.431 665.392 230.527C664.798 239.69 664.012 251.814 665.238 260.832C665.086 261.226 664.915 261.697 664.713 262.061C664.058 263.239 663.938 263.422 662.702 263.723C661.344 262.818 661.06 261.581 660.533 260.122C661.345 253.558 661.052 246.806 661.046 240.2L661.001 210.135C651.477 199.877 641.427 189.874 631.513 179.988C627.408 175.894 622.754 172.086 619.002 167.675C617.769 166.225 616.497 164.739 616.217 162.801L616.828 162.084C617.062 162.068 617.294 162.03 617.528 162.036C619.106 162.073 620.101 162.836 621.261 163.796C625.987 167.709 630.062 172.749 634.36 177.141L660.985 204.023C661.181 186.819 661.02 169.599 660.99 152.394C660.977 144.54 660.31 136.059 661.165 128.277C661.26 127.416 661.395 127.043 661.953 126.387Z"/><path fill="#2492E4" transform="scale(0.859375 0.859375)" d="M665.142 126.48C676.057 126.523 687.766 129.652 696.303 136.753C689.004 142.447 682.32 149.097 675.859 155.707C672.483 159.16 669.204 162.988 665.478 166.044C665.456 152.856 666.463 139.633 665.142 126.48Z"/><path fill="#3BB3E4" transform="scale(0.859375 0.859375)" d="M671.002 589.561L670.258 589.552C659.412 589.365 648.333 584.677 640.795 576.849C633.035 568.815 628.801 558.017 629.032 546.85C629.532 526.956 642.003 523.572 644.404 510.572C645.91 502.416 641.138 495.343 639.082 487.781C635.712 475.383 639.976 460.811 649.355 452.07C655.993 445.904 664.812 442.63 673.866 442.972C683.083 443.284 691.785 447.301 698 454.115C704.895 461.701 708.421 471.757 707.772 481.988C707.225 491.845 700.017 500.506 701.084 510.277C701.924 517.974 708.744 523.965 711.941 530.755C719.46 546.723 712.506 568.507 699.83 579.817C692.869 586.029 684.224 589.261 674.965 589.83L674.975 621.626C674.988 630.388 676.418 640.841 673.673 649.228L672.209 649.13L673.604 649.309L672.155 648.926C670.831 640.75 671.075 632.405 671.076 624.146C671.169 612.618 671.144 601.089 671.002 589.561Z"/><path fill="#FE1033" transform="scale(0.859375 0.859375)" d="M671.002 589.561L671.013 508.661C671.014 501.222 671.094 493.775 671.004 486.337C670.946 481.613 670.584 476.735 670.871 472.025C670.993 470.03 671.222 467.298 672.517 465.678L673.439 465.68C674.881 467.375 674.948 469.771 675.115 471.914C676.283 486.925 675.238 502.474 675.148 517.537L674.965 589.83L674.975 621.626C674.988 630.388 676.418 640.841 673.673 649.228L672.209 649.13L673.604 649.309L672.155 648.926C670.831 640.75 671.075 632.405 671.076 624.146C671.169 612.618 671.144 601.089 671.002 589.561Z"/><path fill="#FE5140" transform="scale(0.859375 0.859375)" d="M527.784 683.442C528.86 677.195 530.336 671.312 535.776 667.343C538.949 665.001 542.935 664.042 546.826 664.684C551.183 665.425 554.884 668.149 557.321 671.778C559.743 675.386 560.503 679.288 561.433 683.447C568.878 683.449 577.199 684.144 584.556 683.156L584.492 738.774C584.469 747.487 583.301 762.095 585.203 769.911C573.984 770.462 562.654 770.132 551.416 770.129L498.006 770.022C497.834 754.967 497.828 739.911 497.989 724.855L498.099 721.068C497.582 708.529 498.014 695.943 497.883 683.396L527.784 683.442Z"/><path fill="#3BB3E4" transform="scale(0.859375 0.859375)" d="M827.848 151.245C835.931 151.725 843.123 153.795 849.48 159.005C856.649 164.88 861.491 173.656 862.288 182.919C863.231 193.877 857.961 203.599 851.106 211.736C843.689 220.539 834.724 228.113 826.557 236.213C818.787 243.919 811.671 253.225 802.579 259.366C797.279 262.945 791.083 265.502 784.666 265.996C775.096 266.733 765.827 263.173 758.59 257.007C768.018 248.547 775.943 238.548 785.306 230.055C791.23 230.284 813.009 232.101 817.131 228.78L817.01 228.055C813.838 225.544 793.29 226.974 788.03 227.09C795.889 220.003 803.273 212.444 810.865 205.077C817.666 204.886 833.515 206.484 839.147 204.005L839.222 203.225C836.287 201.098 817.569 202.496 813.173 202.564C817.391 198.366 821.679 194.239 826.036 190.184C832.443 184.227 839.14 178.056 843.987 170.74C832.895 178.129 819.467 192.56 810.08 202.414C810.117 197.255 811.202 179.061 809.674 175.422L808.844 175.165L807.805 175.763C806.065 181.616 807.368 198.162 807.475 205.028C800.223 211.479 793.727 219.99 785.921 225.592C785.766 219.729 786.634 203.001 785.083 198.846C784.723 197.882 784.741 197.469 783.762 197.017C781.316 202.17 782.892 222.038 783.085 228.983C774.686 238.218 764.635 246.165 756.801 255.891C751.321 249.083 747.732 241.78 747.295 232.948C746.721 221.325 750.791 212.809 758.472 204.311C765.363 196.687 773.15 189.819 780.383 182.512C795.037 167.708 805.303 152.448 827.848 151.245Z"/><path fill="#FE5140" transform="scale(0.859375 0.859375)" d="M139.386 634.84C153.23 635.282 178.767 633.072 190.862 636.482C195.252 637.72 199.45 640.094 202.615 643.397C206.66 647.545 208.796 653.188 208.511 658.974C208.199 664.816 205.399 670.162 200.963 673.935C190.678 682.682 173.901 681.138 161.28 681.114C154.761 681.101 147.984 681.353 141.495 680.739C140.762 680.669 140.032 680.587 139.302 680.493C139.548 665.287 139.372 650.051 139.386 634.84Z"/><path fill="#2492E4" transform="scale(0.859375 0.859375)" d="M139.302 680.493C130.867 680.365 122.408 680.12 113.973 680.2C105.766 680.278 96.8209 681.363 88.7631 679.571C84.8527 678.688 81.2587 676.752 78.3714 673.971C73.8511 669.607 71.7712 664.199 71.6538 657.991C71.542 652.084 73.3737 646.303 77.614 642.078C80.6949 639.008 84.7413 636.953 88.9279 635.867C101.842 632.518 125.319 634.608 139.386 634.84C139.372 650.051 139.548 665.287 139.302 680.493Z"/><path fill="#FE1033" transform="scale(0.859375 0.859375)" d="M386.597 598.816C393.264 595.354 401.198 595.347 407.871 598.798C416.486 603.254 421.405 612.612 420.189 622.235C418.973 631.858 411.881 639.699 402.428 641.871C398.331 642.812 394.055 642.619 390.06 641.311C381.211 638.416 374.962 630.495 374.205 621.215C373.449 611.934 378.333 603.106 386.597 598.816Z"/><path fill="white" transform="scale(0.859375 0.859375)" d="M394.538 600.22C405.028 598.719 414.763 605.969 416.329 616.45C417.896 626.931 410.707 636.711 400.236 638.343C389.672 639.99 379.786 632.723 378.205 622.149C376.625 611.574 383.953 601.734 394.538 600.22Z"/><path fill="#FE5140" transform="scale(0.859375 0.859375)" d="M386.597 598.816C383.405 597.906 380.419 596.546 378.718 593.524C377.32 591.04 377.09 587.567 377.915 584.861C378.587 582.659 380.281 580.339 382.41 579.346C388.894 576.324 416.684 576.345 423.469 579.071C426.014 580.094 428.211 581.858 429.303 584.42C430.417 587.034 430.159 590.569 428.911 593.1C427.8 595.352 424.946 597.186 422.591 597.843C417.803 599.18 412.696 598.159 407.871 598.798C401.198 595.347 393.264 595.354 386.597 598.816Z"/><path fill="#2492E4" transform="scale(0.859375 0.859375)" d="M546.235 587.209C553.239 585.577 560.243 589.913 561.905 596.909C563.568 603.905 559.261 610.929 552.272 612.621C545.241 614.323 538.165 609.985 536.493 602.946C534.821 595.908 539.19 588.851 546.235 587.209Z"/><path fill="#2492E4" transform="scale(0.859375 0.859375)" d="M564.377 628.228C568.996 627.525 573.634 629.373 576.504 633.059C579.374 636.744 580.029 641.694 578.216 645.999C576.403 650.304 572.405 653.294 567.762 653.816C560.776 654.602 554.445 649.652 553.523 642.682C552.601 635.712 557.427 629.286 564.377 628.228Z"/><path fill="#2492E4" transform="scale(0.859375 0.859375)" d="M527.587 620.534C528.877 620.546 530.208 620.542 531.472 620.83C534.404 621.498 537.07 623.392 538.577 626.002C539.946 628.342 540.274 631.148 539.48 633.74C538.396 637.272 535.922 639.122 532.771 640.762C531.259 640.978 529.579 641.135 528.065 640.875C525.544 640.437 523.334 638.937 521.996 636.756C520.436 634.176 520.166 630.985 520.962 628.108C522.024 624.271 524.213 622.402 527.587 620.534Z"/></svg>