<?xml version="1.0" encoding="utf-8" ?><svg xmlns="http://www.w3.org/2000/svg" xmlns:xlink="http://www.w3.org/1999/xlink" width="880" height="880" viewBox="0 0 880 880"><path transform="scale(0.859375 0.859375)" d="M202.679 85.1782L203.565 85.8118C222.269 89.0836 234.996 99.8097 245.767 115.088C256.862 130.828 265.899 148.792 272.224 166.972C274.428 176.159 278.785 194.104 283.062 201.897C284.041 182.256 280.083 157.989 288.211 139.845C294.486 125.838 306.053 116.81 320.091 111.39C333.733 107.222 348.475 108.697 362.555 108.852L392.899 108.95L477.897 108.935L567.643 108.872C583.234 108.874 599.117 108.022 614.673 109.113C622.434 109.657 629.709 111.389 636.619 115.046C648.787 121.487 656.857 131.809 660.741 144.93C664.57 157.861 662.661 173.616 662.625 186.993L662.65 231.691C662.673 272.025 663.365 312.421 662.791 352.746C662.618 379.015 661.733 405.557 662.879 431.798C678.964 427.788 697.166 427.173 711.892 435.958C723.906 443.124 727.707 454.574 737.238 463.609C746.286 472.186 760.129 471.269 763.665 485.45C764.911 490.445 764.879 495.654 765.015 500.77C765.322 512.259 766.823 524.301 773.532 534.033C784.098 549.36 808.983 552.7 800.397 576.72C800.562 576.766 800.725 576.816 800.891 576.859C808.234 578.749 820.589 577.866 828.463 577.922C851.931 578.089 875.378 577.592 898.843 577.522C913.537 577.478 940.029 575.7 952.992 580.058C962.429 583.23 969.73 589.516 974.936 597.978C978.549 603.849 980.132 610.632 980.656 617.446C981.92 633.846 981.012 650.797 981.011 667.278L980.852 762.066C980.803 775.852 980.631 789.653 980.763 803.437C980.881 815.815 982.645 830.128 979.676 842.207C977.057 852.867 969.583 863.14 960.156 868.779C950.918 874.304 941.244 875.018 930.708 875.06C936.249 894.799 942.54 914.602 947.367 934.513C962.076 934.234 978.316 932.706 992.844 935.105L993.373 935.948L994.195 935.612L993.636 935.304L993.618 935.934L994.198 935.629C992.619 936.951 988.729 937.04 986.66 937.154C969.476 938.1 951.982 937.251 934.762 937.121L853.025 936.978L298.101 937.142L117.987 937.035L66.9028 937.064C56.7597 937.146 46.3727 937.955 36.2603 937.065C34.6754 936.926 33.1888 936.717 31.6542 936.281L31.4018 935.752C33.2407 934.726 35.5108 934.423 37.5953 934.284C45.9051 933.731 54.7272 934.471 63.0946 934.478L121.638 934.48L132.187 897.661C134.193 890.432 135.757 882.499 138.541 875.545C127.903 875.346 117.23 875.518 106.587 875.504C88.9743 875.482 71.7095 876.407 57.9897 863.411C47.2557 853.244 43.5889 840.485 43.274 826.079C42.9903 813.098 43.4226 800.04 43.4352 787.047L43.3959 696.223L43.1515 646.705C43.1229 636.292 42.443 624.813 44.2059 614.558C45.771 605.491 50.0514 597.111 56.4811 590.529C70.8671 575.763 91.4834 577.428 110.424 577.47C121.721 577.518 133.019 577.502 144.316 577.423C125.305 544.485 113.641 506.335 106.193 469.236C89.481 385.145 91.7858 298.38 112.939 215.294C120.946 183.637 132.128 150.902 150.468 123.598C165.566 101.121 175.544 90.583 202.679 85.1782Z"/><path fill="#FEFBFB" transform="scale(0.859375 0.859375)" d="M320.091 111.39C333.733 107.222 348.475 108.697 362.555 108.852L392.899 108.95L477.897 108.935L567.643 108.872C583.234 108.874 599.117 108.022 614.673 109.113C622.434 109.657 629.709 111.389 636.619 115.046C648.787 121.487 656.857 131.809 660.741 144.93C664.57 157.861 662.661 173.616 662.625 186.993L662.65 231.691C662.673 272.025 663.365 312.421 662.791 352.746L660.472 353.949L660.509 432.48C645.446 438.985 634.04 447.997 627.907 463.589C627.003 465.915 626.127 468.251 625.277 470.597C617.44 473.268 609.778 475.877 605.845 483.875C599.582 496.609 606.819 512.028 603.005 525.581C597.507 545.118 563.954 551.019 572.615 575.149C577.956 590.026 591.636 597.043 583.35 614.962C574.08 635.011 543.109 638.897 554.263 669.421C555.316 672.302 556.761 675.094 558.136 677.835C544.644 687.084 532.378 696.602 521.728 709.188C520.467 711.076 519.539 712.477 517.508 713.584L517.543 838.174L517.66 867.753C517.731 876.686 518.323 886.129 516.694 894.939C514.899 904.665 510.259 913.64 503.362 920.729C490.299 934.114 477.747 934.473 460.018 934.666L383.294 934.9C365.546 934.941 338.252 936.796 321.686 932.558C314.094 930.616 306.82 925.697 301.294 920.228C292.566 911.591 287.61 901.233 286.09 889.084C285.026 880.575 285.457 871.799 285.483 863.236L285.602 823.665L285.512 695.596L285.503 255.474L285.455 202.97C285.363 184.778 282.876 157.227 290.282 140.769C296.316 127.36 307.749 118.462 321.232 113.316L320.091 111.39Z"/><path fill="#FEFBFB" transform="scale(0.859375 0.859375)" d="M521.728 709.188C519.104 702.327 520.857 625.989 520.856 611.966C521.643 517.601 521.549 423.23 520.575 328.867C520.368 312.46 519.261 294.203 531.701 281.646C537.027 276.27 544.106 272.694 551.491 271.176C563.761 268.654 577.02 270.457 589.465 270.506L660.102 270.53L659.997 312.751C659.986 320.918 659.328 329.687 660.427 337.762C660.533 343.157 660.548 348.554 660.472 353.949L660.509 432.48C645.446 438.985 634.04 447.997 627.907 463.589C627.003 465.915 626.127 468.251 625.277 470.597C617.44 473.268 609.778 475.877 605.845 483.875C599.582 496.609 606.819 512.028 603.005 525.581C597.507 545.118 563.954 551.019 572.615 575.149C577.956 590.026 591.636 597.043 583.35 614.962C574.08 635.011 543.109 638.897 554.263 669.421C555.316 672.302 556.761 675.094 558.136 677.835C544.644 687.084 532.378 696.602 521.728 709.188Z"/><path fill="#FEFBFB" transform="scale(0.859375 0.859375)" d="M320.091 111.39C333.733 107.222 348.475 108.697 362.555 108.852L392.899 108.95L477.897 108.935L567.643 108.872C583.234 108.874 599.117 108.022 614.673 109.113C622.434 109.657 629.709 111.389 636.619 115.046C648.787 121.487 656.857 131.809 660.741 144.93C664.57 157.861 662.661 173.616 662.625 186.993L662.65 231.691C662.673 272.025 663.365 312.421 662.791 352.746L660.472 353.949C660.548 348.554 660.533 343.157 660.427 337.762C661.013 321.294 660.477 304.617 660.473 288.129L660.669 202.976L379.385 202.961C348.125 203.031 316.686 202.165 285.455 202.97C285.363 184.778 282.876 157.227 290.282 140.769C296.316 127.36 307.749 118.462 321.232 113.316L320.091 111.39Z"/><defs><linearGradient id="gradient_0" gradientUnits="userSpaceOnUse" x1="510.95181" y1="94.437134" x2="477.48514" y2="324.76227"><stop offset="0" stop-color="black"/><stop offset="1" stop-color="#190704"/></linearGradient></defs><path fill="url(#gradient_0)" transform="scale(0.859375 0.859375)" d="M320.091 111.39C333.733 107.222 348.475 108.697 362.555 108.852L392.899 108.95L477.897 108.935L567.643 108.872C583.234 108.874 599.117 108.022 614.673 109.113C622.434 109.657 629.709 111.389 636.619 115.046C648.787 121.487 656.857 131.809 660.741 144.93C664.57 157.861 662.661 173.616 662.625 186.993L662.65 231.691C662.673 272.025 663.365 312.421 662.791 352.746L660.472 353.949C660.548 348.554 660.533 343.157 660.427 337.762C661.013 321.294 660.477 304.617 660.473 288.129L660.669 202.976C660.348 186.325 662.339 159.798 658.099 144.636C654.712 132.938 646.821 123.062 636.16 117.176C628.925 113.197 621.144 111.798 612.993 111.243C598.963 110.287 584.529 111.019 570.447 111.021L489.888 111.02L387.449 111.027L358.221 111.013C345.751 110.92 333.396 109.88 321.232 113.316L320.091 111.39Z"/><path fill="#8AB9E5" transform="scale(0.859375 0.859375)" d="M408.836 139.776C419.178 137.358 429.521 143.784 431.935 154.127C434.349 164.469 427.919 174.81 417.575 177.22C407.237 179.629 396.904 173.203 394.491 162.866C392.078 152.529 398.5 142.192 408.836 139.776Z"/><path fill="#F57A3E" transform="scale(0.859375 0.859375)" d="M345.679 139.764C356.006 138.755 365.219 146.251 366.333 156.566C367.446 166.882 360.045 176.171 349.741 177.389C342.982 178.189 336.314 175.296 332.279 169.815C328.244 164.333 327.464 157.107 330.236 150.891C333.008 144.674 338.905 140.425 345.679 139.764Z"/><path fill="#FED4CB" transform="scale(0.859375 0.859375)" d="M285.455 202.97C316.686 202.165 348.125 203.031 379.385 202.961L660.669 202.976L660.473 288.129C660.477 304.617 661.013 321.294 660.427 337.762C659.328 329.687 659.986 320.918 659.997 312.751L660.102 270.53L589.465 270.506C577.02 270.457 563.761 268.654 551.491 271.176C544.106 272.694 537.027 276.27 531.701 281.646C519.261 294.203 520.368 312.46 520.575 328.867C521.549 423.23 521.643 517.601 520.856 611.966C520.857 625.989 519.104 702.327 521.728 709.188C520.467 711.076 519.539 712.477 517.508 713.584C516.084 706.523 517.074 698.431 517 691.243L516.133 639.886C515.762 610.382 516.044 580.84 516.038 551.333L516.014 386.049L516.046 323.433C516.057 312.06 517.217 299.395 515.137 288.226C513.673 280.363 509.583 273.216 503.987 267.559C497.903 261.409 490.822 257.842 482.315 256.378C473.879 254.926 464.986 255.518 456.45 255.578L420.524 255.778L285.503 255.474L285.455 202.97Z"/><path transform="scale(0.859375 0.859375)" d="M320.621 499.751C320.484 473.559 321.007 451.781 340.64 432.056C352.633 420.039 368.946 413.335 385.924 413.448C403.505 413.495 419.75 421.002 431.976 433.49C452.18 454.126 451.316 476.227 451.285 503.191C451.271 515.612 451.531 528.065 451.336 540.484C450.947 565.157 445.774 577.473 428.644 595.193C428.359 615.954 427.874 636.744 428.742 657.498C449.069 662.615 466.423 671.321 484.002 682.522C487.109 684.502 493.652 688.098 495.154 691.508C495.398 692.061 495.393 692.491 495.439 693.061C493.74 701.816 494.782 710.677 494.834 719.525L494.888 767.432C494.908 780.853 496.822 801.946 492.917 814.246C490.36 822.298 484.201 829.559 477.31 834.299C476.105 835.127 474.842 835.873 473.581 836.611L471.777 837.207C470.347 837.831 468.886 838.232 467.357 838.541C458.025 840.422 447.516 839.696 437.988 839.737L394.486 839.902L357.597 840.044C350.308 840.067 342.622 840.494 335.384 839.577C330.072 838.904 324.641 837.189 320.232 834.09C311.203 827.741 307.786 818.065 305.873 807.653C305.224 804.696 305.457 801.685 305.864 798.715C304.14 792.58 305.323 778.079 305.375 770.911L305.314 702.992C305.335 690.269 306.857 676.243 304.556 663.731C306.208 660.891 309.717 659.972 312.728 659.156C319.386 657.352 326.286 656.512 332.961 654.797C333.502 617.4 333.544 579.997 333.089 542.599C325.278 542.001 318.44 540.471 312.945 534.296C308.873 529.72 306.633 523.649 307.231 517.509C307.797 511.688 310.942 506.537 315.482 502.922C317.083 501.647 318.802 500.675 320.621 499.751Z"/><path fill="#8AB9E5" transform="scale(0.859375 0.859375)" d="M333.416 658.569C338.771 674.388 344.907 687.646 360.606 695.508C371.668 701.047 384.424 701.444 396.071 697.448C406.655 693.817 417.544 685.241 422.686 675.155C424.132 672.318 427.083 660.631 429.334 659.751C433.129 665.869 438.646 696.307 440.623 705.197L461.211 794.445L468.052 822.729C469.227 827.494 470.162 832.578 471.777 837.207C470.347 837.831 468.886 838.232 467.357 838.541C458.025 840.422 447.516 839.696 437.988 839.737L394.486 839.902L357.597 840.044C350.308 840.067 342.622 840.494 335.384 839.577C330.072 838.904 324.641 837.189 320.232 834.09C311.203 827.741 307.786 818.065 305.873 807.653C309.183 801.272 313.708 768.366 315.418 758.902C321.452 725.505 328.195 692.096 333.416 658.569Z"/><path fill="#F57A3E" transform="scale(0.859375 0.859375)" d="M473.581 836.611C470.3 820.469 466.183 804.54 462.383 788.517L444.342 711.78L437.396 682.005C435.773 675.016 433.878 667.989 433.157 660.839C445.555 664.089 457.932 669.673 469.029 676.078C473.903 678.891 492.079 692.367 495.439 693.061C493.74 701.816 494.782 710.677 494.834 719.525L494.888 767.432C494.908 780.853 496.822 801.946 492.917 814.246C490.36 822.298 484.201 829.559 477.31 834.299C476.105 835.127 474.842 835.873 473.581 836.611Z"/><path fill="#F57A3E" transform="scale(0.859375 0.859375)" d="M304.556 663.731C312.691 663.766 323.932 659.27 331.929 656.983C326.315 690.463 320.33 723.88 313.974 757.228L308.658 785.056C307.796 789.513 307.204 794.393 305.864 798.715C304.14 792.58 305.323 778.079 305.375 770.911L305.314 702.992C305.335 690.269 306.857 676.243 304.556 663.731Z"/><path fill="#FEFBFB" transform="scale(0.859375 0.859375)" d="M438.775 447.357C439.936 447.839 440.529 448.578 441.235 449.581C445.321 455.383 447.111 463.622 448.087 470.525C449.995 484.024 448.942 498.046 448.97 511.649C449.004 527.599 450.714 544.064 447.732 559.854C445.066 573.967 435.602 587.294 423.789 595.304C412.05 603.281 397.607 606.228 383.682 603.487C367.28 600.319 356.019 590.749 346.797 577.274C339.438 564.737 339.405 551.876 339.499 537.789C335.638 539.157 331.554 539.971 327.445 539.562C321.982 539.019 317.178 536.166 313.756 531.912C310.437 527.786 308.983 522.218 309.702 516.989C310.935 508.015 317.26 502.615 325.991 501.43C335.209 500.18 344.467 501.546 353.695 499.638C381.031 493.984 416.519 464.397 438.775 447.357Z"/><path transform="scale(0.859375 0.859375)" d="M378.282 508.217C381.943 507.273 385.678 509.469 386.633 513.127C387.589 516.785 385.404 520.527 381.749 521.493C378.078 522.464 374.317 520.268 373.357 516.594C372.398 512.92 374.605 509.165 378.282 508.217Z"/><path transform="scale(0.859375 0.859375)" d="M423.1 507.81C426.851 507.349 430.264 510.02 430.718 513.771C431.171 517.523 428.493 520.931 424.74 521.376C420.999 521.821 417.603 519.152 417.151 515.411C416.699 511.671 419.361 508.27 423.1 507.81Z"/><path transform="scale(0.859375 0.859375)" d="M401.443 520.187C401.817 520.318 402.25 520.442 402.582 520.672C404.828 522.225 406.472 526.867 407.194 529.526C408.548 534.518 409.374 540.232 406.537 544.862C404.613 548.001 402.02 548.66 398.631 549.435C398.145 549.101 397.813 548.623 397.434 548.176C397.949 546.265 403.694 545.261 405.389 543.032C408.935 538.368 402.406 526.211 401.528 520.778C401.496 520.581 401.472 520.384 401.443 520.187Z"/><path transform="scale(0.859375 0.859375)" d="M388.488 562.677C391.039 563.231 393.394 566.181 395.275 567.993C397.428 567.742 400.424 566.938 402.532 567.389C403.452 567.586 403.472 568.111 403.917 568.861C402.718 569.312 401.491 569.8 400.241 570.086C397.541 570.706 394.022 570.192 391.758 568.56C389.608 567.011 388.916 565.209 388.488 562.677Z"/><path fill="#FEFBFB" transform="scale(0.859375 0.859375)" d="M336.001 540.836C336.751 541.595 337.082 541.891 337.305 542.98C337.779 545.292 337.537 548.072 337.586 550.44C337.683 555.209 337.971 560.019 338.983 564.694C339.829 568.601 341.614 572.53 343.495 576.041C350.679 589.606 362.974 599.749 377.658 604.223C395.1 609.476 410.941 605.1 426.48 596.654C426.396 607.909 426.405 619.165 426.507 630.42C426.557 641.117 427.448 652.58 424.777 663.026C423.147 669.403 420.268 674.751 416.554 680.136C413.237 684.362 409.214 687.982 404.663 690.837C394.521 697.301 382.196 699.389 370.491 696.625C358.963 693.931 349.239 686.471 343.035 676.472C339.301 670.367 336.889 663.548 335.952 656.454C334.793 648.115 335.144 639.514 335.217 631.116L335.527 595.012C335.537 581.34 333.196 553.066 336.001 540.836Z"/><path fill="#F57A3E" transform="scale(0.859375 0.859375)" d="M381.776 415.688C385.05 415.297 388.503 415.384 391.776 415.76C411.835 418.062 426.093 429.514 438.357 444.826C416.782 461.385 394.988 476.898 371.389 490.464C355.068 499.337 340.914 499.005 323.046 499.07C322.869 477.452 323.172 457.403 337.059 439.54C348.368 424.993 363.792 417.925 381.776 415.688Z"/><path fill="#FED4CB" transform="scale(0.859375 0.859375)" d="M144.316 577.423C156.696 578.438 169.199 577.924 181.607 577.732C188.15 577.631 195.12 577.006 201.575 578.199L203.477 577.971C230.001 577.501 256.531 577.512 283.055 578.005C283.098 608.607 282.567 639.322 283.241 669.911C226.848 694.956 182.684 741.337 160.429 798.888C155.842 811.079 152.846 823.665 149.408 836.202C145.813 849.317 141.931 862.378 138.541 875.545C127.903 875.346 117.23 875.518 106.587 875.504C88.9743 875.482 71.7095 876.407 57.9897 863.411C47.2557 853.244 43.5889 840.485 43.274 826.079C42.9903 813.098 43.4226 800.04 43.4352 787.047L43.3959 696.223L43.1515 646.705C43.1229 636.292 42.443 624.813 44.2059 614.558C45.771 605.491 50.0514 597.111 56.4811 590.529C70.8671 575.763 91.4834 577.428 110.424 577.47C121.721 577.518 133.019 577.502 144.316 577.423Z"/><path fill="#8AB9E5" transform="scale(0.859375 0.859375)" d="M144.316 577.423C125.305 544.485 113.641 506.335 106.193 469.236C89.481 385.145 91.7858 298.38 112.939 215.294C120.946 183.637 132.128 150.902 150.468 123.598C165.566 101.121 175.544 90.583 202.679 85.1782C201.405 86.2865 201.354 86.3135 201.207 87.9691C200.685 93.8314 201.105 100.049 201.126 105.947L201.253 141.371L201.499 252.05L158.981 198.775C151.852 189.827 145.091 179.937 137.37 171.555C136.032 170.103 134.755 169.138 133.074 168.124C136.548 175.406 142.14 181.537 147.107 187.844C154.03 196.646 161.018 205.398 168.07 214.098C179.149 227.88 189.625 242.242 201.495 255.364L201.459 347.989C185.286 327.726 169.309 307.309 153.529 286.739C143.892 274.232 134.944 260.159 123.204 249.56C127.191 258.838 134.485 266.192 140.637 274.085L163.642 303.729L187.903 334.888C192.295 340.485 196.544 346.569 201.49 351.675L201.362 444.94C182.734 421.18 164.753 396.86 146.293 372.958C141.167 366.32 130.772 350.923 124.788 346.589L124.048 346.043C123.899 345.935 123.747 345.832 123.596 345.726C127.005 354.054 146.947 378.328 153.5 386.872C169.328 407.509 184.783 428.824 201.472 448.773L201.476 543.998C185.436 523.032 169.555 501.944 153.835 480.736C147.379 472.049 133.675 451.283 126.568 445.428L125.967 445.547C126.626 448.382 128.36 451.205 129.986 453.61C134.927 460.915 141.006 467.53 146.289 474.603C164.584 499.094 183.441 523.252 201.504 547.9C201.454 557.994 201.28 568.108 201.575 578.199C195.12 577.006 188.15 577.631 181.607 577.732C169.199 577.924 156.696 578.438 144.316 577.423Z"/><path fill="#FED4CB" transform="scale(0.859375 0.859375)" d="M800.397 576.72C800.562 576.766 800.725 576.816 800.891 576.859C808.234 578.749 820.589 577.866 828.463 577.922C851.931 578.089 875.378 577.592 898.843 577.522C913.537 577.478 940.029 575.7 952.992 580.058C962.429 583.23 969.73 589.516 974.936 597.978C978.549 603.849 980.132 610.632 980.656 617.446C981.92 633.846 981.012 650.797 981.011 667.278L980.852 762.066C980.803 775.852 980.631 789.653 980.763 803.437C980.881 815.815 982.645 830.128 979.676 842.207C977.057 852.867 969.583 863.14 960.156 868.779C950.918 874.304 941.244 875.018 930.708 875.06C928.346 862.652 922.907 846.569 919.455 834.075C914.455 815.98 909.532 797.798 902.105 780.513C884.903 740.476 853.714 707.134 819.309 681.206C839.788 633.562 797.141 636.547 790.164 609.984C786.924 597.651 794.483 586.804 800.397 576.72Z"/><path fill="#8AB9E5" transform="scale(0.859375 0.859375)" d="M272.224 166.972C274.428 176.159 278.785 194.104 283.062 201.897C282.771 206.975 283.156 212.204 283.161 217.3L282.962 249.15C272.061 260.073 262.874 273.21 253.237 285.238C236.512 306.115 219.567 326.688 203.584 348.158L203.668 255.125C216.109 240.872 227.174 225.058 238.864 210.159C249.414 196.711 261.088 183.634 270.927 169.692C271.554 168.804 271.882 167.992 272.224 166.972Z"/><path fill="#8AB9E5" transform="scale(0.859375 0.859375)" d="M203.565 85.8118C222.269 89.0836 234.996 99.8097 245.767 115.088C256.862 130.828 265.899 148.792 272.224 166.972C269.316 168.092 266.637 171.517 264.614 173.82C254.722 185.078 246.022 197.418 236.867 209.271C225.861 223.522 214.519 237.492 203.748 251.929C203.138 231.946 203.5 211.859 203.495 191.866L203.565 85.8118Z"/><path fill="#8AB9E5" transform="scale(0.859375 0.859375)" d="M282.944 450.081L283.055 578.005C256.531 577.512 230.001 577.501 203.477 577.971L203.513 548.592L282.944 450.081Z"/><path fill="#8AB9E5" transform="scale(0.859375 0.859375)" d="M737.601 650.777C743.045 651.675 748.847 652.368 754.067 654.194C766.411 656.945 779.548 660.661 790.468 667.124C846.217 695.035 888.607 743.934 908.324 803.08C914.468 821.569 918.917 840.724 924.131 859.499C931.06 884.449 938.621 909.392 944.936 934.495L861.643 934.488C859.744 913.169 855.07 891.843 851.835 870.675L842.781 811.26C841.193 801.126 839.794 790.843 837.768 780.789C837.399 778.959 836.983 777.2 836.039 775.575C834.813 778.277 836.019 784.782 836.38 787.744C837.65 798.172 839.898 808.523 841.525 818.907L853.205 893.602C855.344 907.146 858.158 920.828 859.203 934.502L788.964 934.509L588.03 934.5L487.919 934.443C493.895 930.74 499.949 927.178 504.939 922.157C511.563 915.557 516.13 907.177 518.084 898.032C520.307 887.426 519.907 876.408 519.922 865.625L519.93 832.62L519.928 714.756C538.398 692.022 561.414 676.459 587.99 664.659C598.666 660.426 609.612 656.91 620.756 654.134C627.367 652.626 634.044 651.704 640.776 650.936C641.943 666.229 645.742 678.484 657.777 688.713C667.277 696.786 679.494 701.307 692.019 700.274C704.829 699.192 716.674 693.032 724.916 683.166C732.991 673.504 735.797 662.951 737.601 650.777Z"/><path fill="#FEFBFB" transform="scale(0.859375 0.859375)" d="M790.468 667.124C846.217 695.035 888.607 743.934 908.324 803.08C914.468 821.569 918.917 840.724 924.131 859.499C931.06 884.449 938.621 909.392 944.936 934.495L861.643 934.488C859.744 913.169 855.07 891.843 851.835 870.675L842.781 811.26C841.193 801.126 839.794 790.843 837.768 780.789C837.399 778.959 836.983 777.2 836.039 775.575C834.813 778.277 836.019 784.782 836.38 787.744C837.65 798.172 839.898 808.523 841.525 818.907L853.205 893.602C855.344 907.146 858.158 920.828 859.203 934.502L788.964 934.509C787.719 921.049 788.812 907.108 788.725 893.582C788.35 866.73 788.362 839.874 788.762 813.023C790.952 807.492 791.456 802.645 790.415 796.812C790.948 787.195 790.07 777.009 790.019 767.32C789.672 743.955 789.652 720.585 789.96 697.219C790.043 687.329 789.194 676.914 790.468 667.124Z"/><path fill="#FEFBFB" transform="scale(0.859375 0.859375)" d="M737.601 650.777C743.045 651.675 748.847 652.368 754.067 654.194C766.411 656.945 779.548 660.661 790.468 667.124C789.194 676.914 790.043 687.329 789.96 697.219C789.652 720.585 789.672 743.955 790.019 767.32C790.07 777.009 790.948 787.195 790.415 796.812C791.456 802.645 790.952 807.492 788.762 813.023C785.041 817.139 780.931 820.263 775.269 821.051C770.444 821.723 765.236 820.497 761.341 817.537C755.727 813.271 754.748 807.402 753.775 800.881C737.248 802.775 714.553 801.003 697.37 800.87C671.918 800.673 646.426 801.593 620.993 801.275C620.608 771.548 620.512 741.818 620.705 712.089C620.753 692.777 621.238 673.442 620.756 654.134C627.367 652.626 634.044 651.704 640.776 650.936C641.943 666.229 645.742 678.484 657.777 688.713C667.277 696.786 679.494 701.307 692.019 700.274C704.829 699.192 716.674 693.032 724.916 683.166C732.991 673.504 735.797 662.951 737.601 650.777Z"/><path fill="#8AB9E5" transform="scale(0.859375 0.859375)" d="M754.067 654.194C766.411 656.945 779.548 660.661 790.468 667.124C789.194 676.914 790.043 687.329 789.96 697.219C789.652 720.585 789.672 743.955 790.019 767.32C790.07 777.009 790.948 787.195 790.415 796.812C791.456 802.645 790.952 807.492 788.762 813.023C785.041 817.139 780.931 820.263 775.269 821.051C770.444 821.723 765.236 820.497 761.341 817.537C755.727 813.271 754.748 807.402 753.775 800.881L754.5 797.863C754.829 779.147 754.538 760.371 754.535 741.649C754.641 712.497 754.485 683.344 754.067 654.194Z"/><path transform="scale(0.859375 0.859375)" d="M754.5 797.863C758.322 803.494 757.009 810.756 762.758 815.894C765.47 818.317 768.919 818.997 772.469 818.766C792.961 817.433 784.672 802.903 789.793 797.437C789.994 797.223 790.208 797.02 790.415 796.812C791.456 802.645 790.952 807.492 788.762 813.023C785.041 817.139 780.931 820.263 775.269 821.051C770.444 821.723 765.236 820.497 761.341 817.537C755.727 813.271 754.748 807.402 753.775 800.881L754.5 797.863Z"/><path transform="scale(0.859375 0.859375)" d="M769.092 755.74C774.244 754.012 779.83 756.732 781.646 761.853C783.462 766.974 780.838 772.606 775.749 774.509C772.378 775.77 768.59 775.114 765.839 772.794C763.089 770.474 761.804 766.85 762.478 763.316C763.152 759.781 765.681 756.885 769.092 755.74Z"/><path fill="#FEFBFB" transform="scale(0.859375 0.859375)" d="M587.99 664.659C588.006 677.766 589.139 798.767 587.399 803.378C587.501 807.255 587.654 810.993 588.327 814.818C586.894 827.653 587.978 840.535 588.023 853.401C588.118 880.404 588.516 907.505 588.03 934.5L487.919 934.443C493.895 930.74 499.949 927.178 504.939 922.157C511.563 915.557 516.13 907.177 518.084 898.032C520.307 887.426 519.907 876.408 519.922 865.625L519.93 832.62L519.928 714.756C538.398 692.022 561.414 676.459 587.99 664.659Z"/><path transform="scale(0.859375 0.859375)" d="M587.399 803.378L588.312 802.78C591.906 806.12 589.085 823.879 604.811 823.129C608.425 822.957 612.16 821.817 614.64 819.066C618.374 814.923 618.534 803.352 620.819 801.892C622.003 803.163 622.366 803.975 622.3 805.74C622.07 811.809 619.534 818.173 614.932 822.216C612.192 824.623 606.732 825.745 603.193 825.464C598.687 825.106 594.372 822.704 591.438 819.293C590.264 817.929 589.272 816.349 588.327 814.818C587.654 810.993 587.501 807.255 587.399 803.378Z"/><path transform="scale(0.859375 0.859375)" d="M601.479 755.234C605.194 754.448 609.043 755.737 611.534 758.602C614.025 761.468 614.767 765.459 613.471 769.027C612.176 772.596 609.047 775.182 605.298 775.783C599.698 776.68 594.404 772.947 593.367 767.371C592.331 761.794 595.931 756.409 601.479 755.234Z"/><path fill="#F57A3E" transform="scale(0.859375 0.859375)" d="M282.568 672.529C283.264 673.499 283.375 674.353 283.435 675.515C283.712 680.807 283.313 686.272 283.256 691.58C283.141 701.737 283.097 711.895 283.122 722.052L283.175 829.749L283.007 860.364C282.909 871.587 282.388 883.077 284.561 894.144C287.247 907.823 294.796 919.02 306.177 927.009C310.053 929.73 314.268 931.867 318.198 934.491C280.753 935.589 243.296 934.533 205.845 934.482C210.551 899.417 215.049 864.323 219.337 829.204L223.901 792.77C224.571 787.599 225.661 782.444 226.151 777.26C226.354 775.11 226.803 771.398 225.894 769.453C222.628 773.338 220.334 802.326 219.474 809.121C215.152 797.391 211.761 785.257 208.058 773.318L207.179 772.656C204.545 775.322 218.489 810.267 218.409 818.325C218.286 830.629 215.321 843.585 213.732 855.825L203.573 934.484L124.09 934.477C133.369 904.921 141.25 874.687 149.414 844.796C153.089 831.343 156.13 817.719 160.694 804.525C177.57 755.734 212.436 714.018 256.027 686.765C264.596 681.408 273.482 676.94 282.568 672.529Z"/><path fill="#FEFBFB" transform="scale(0.859375 0.859375)" d="M644.246 444.366C645.273 447.605 645.417 451.351 645.909 454.723C647.424 465.096 651.625 473.412 659.224 480.633C680.472 500.821 709.323 500.148 736.51 499.562C744.206 499.397 752.479 500.109 758.244 505.867C762.095 509.713 763.631 514.899 763.505 520.253C763.379 525.676 761.227 530.838 757.245 534.553C751.135 540.252 743.32 540.289 735.499 540.121L735.498 610.45C735.518 625.984 737.126 648.378 733.51 662.998C731.485 671.183 726.816 678.95 720.844 684.863C711.922 693.661 699.868 698.551 687.338 698.455C675.051 698.24 663.483 692.489 655.125 683.615C641.394 669.036 642.369 650.388 642.888 631.688L643.015 595.213C653.954 603.682 668.635 607.828 682.358 606.081C697.202 604.272 710.69 596.556 719.774 584.678C728.265 573.591 735.844 552.729 733.673 538.71C733.514 537.683 733.587 537.269 732.709 536.639C731.141 539.357 731.561 545.665 731.297 548.987C729.977 565.608 722.394 581.595 709.569 592.4C699.21 601.271 685.722 605.609 672.134 604.44C658.91 603.29 645.814 596.75 637.289 586.534C632.243 580.449 628.77 573.217 627.176 565.474C623.929 550.358 625.858 534.119 625.792 518.743C625.738 506.238 624.754 493.482 625.902 481.016C627.277 466.077 632.618 454.065 644.246 444.366Z"/><path transform="scale(0.859375 0.859375)" d="M648.216 507.777C651.184 506.538 654.595 507.93 655.847 510.893C657.099 513.855 655.721 517.272 652.765 518.537C649.79 519.81 646.347 518.422 645.087 515.441C643.827 512.461 645.23 509.024 648.216 507.777Z"/><path transform="scale(0.859375 0.859375)" d="M689.106 507.762C692.058 506.49 695.482 507.848 696.761 510.797C698.04 513.746 696.691 517.174 693.745 518.46C690.789 519.751 687.346 518.396 686.063 515.436C684.779 512.477 686.143 509.037 689.106 507.762Z"/><path transform="scale(0.859375 0.859375)" d="M665.755 519.874C669.89 524.707 658.398 536.744 659.633 542.722C660.768 548.219 668.897 544.791 672.276 546.959C672.904 547.362 672.743 547.803 672.822 548.472C669.223 548.603 665.152 549.016 661.828 547.392C660.02 546.508 658.627 545.067 658.08 543.102C656.218 536.421 662.712 525.806 665.755 519.874Z"/><path transform="scale(0.859375 0.859375)" d="M669.978 560.87C671.284 561.399 672.512 561.831 673.296 563.107C674.739 565.456 673.52 568.53 672.835 570.954C671.214 570.64 669.601 570.237 668.758 568.662C667.491 566.296 669.069 563.072 669.978 560.87Z"/><path fill="#8AB9E5" transform="scale(0.859375 0.859375)" d="M282.063 350.361L282.548 350.641C283.902 357.083 283.14 368.469 283.194 375.579C283.262 399.182 283.167 422.786 282.908 446.388C274.34 458.663 264.122 470.165 254.702 481.827L204.539 543.826L204.32 543.687C203.877 543.038 203.704 542.579 203.632 541.789C202.739 532.002 203.521 521.424 203.529 511.573L203.573 449.331L282.063 350.361Z"/><path fill="#8AB9E5" transform="scale(0.859375 0.859375)" d="M282.283 252.843C283.386 254.057 283.333 256.835 283.394 258.496C283.702 266.888 283.021 275.406 282.994 283.823L282.939 345.88C256.878 379.112 230.151 411.789 204.25 445.149C203.108 443.879 203.273 439.887 203.219 438.092C202.975 429.868 203.482 421.534 203.5 413.292L203.564 351.397C213.955 337.336 225.152 323.833 236.102 310.204L282.283 252.843Z"/><path fill="#FEFBFB" transform="scale(0.859375 0.859375)" d="M830.241 89.219C909.537 86.3039 976.178 148.228 979.083 227.523C981.987 306.819 920.054 373.452 840.758 376.346C761.478 379.239 694.86 317.321 691.956 238.04C689.052 158.76 750.961 92.1335 830.241 89.219Z"/><path transform="scale(0.859375 0.859375)" d="M723.546 150.275C734.047 149.434 744.746 150.126 755.264 150.47C756.499 155.644 757.159 161.017 758.01 166.268C795.986 166.932 834.107 166.39 872.095 166.283C889.557 166.233 907.378 165.234 924.783 166.466L906.509 268.614L903.707 284.655C890.319 285.099 876.813 284.748 863.413 284.768C834.512 284.916 805.61 284.827 776.711 284.501C773.396 272.521 771.887 259.654 769.767 247.405L760.026 190.972C757.86 178.22 755.995 165.39 753.217 152.754C746.687 152.556 727.932 154.651 722.998 151.924C722.314 151.545 722.492 151.588 722.22 150.812L723.546 150.275Z"/><path fill="#FEFBFB" transform="scale(0.859375 0.859375)" d="M765.298 205.101C789.864 204.963 814.432 204.975 838.998 205.136L839.12 246.423L772.158 246.243C768.707 233.767 766.327 217.996 765.298 205.101Z"/><path fill="#FEFBFB" transform="scale(0.859375 0.859375)" d="M841.606 205.18C866.197 204.837 890.826 205.11 915.42 205.122L909.384 240.133C908.942 242.226 908.591 244.34 908.213 246.446C885.981 246.555 863.748 246.465 841.518 246.175C840.751 232.52 840.781 218.831 841.606 205.18Z"/><path fill="#FEFBFB" transform="scale(0.859375 0.859375)" d="M758.378 168.53L838.976 168.509C839.221 179.983 839.968 191.386 838.898 202.84L764.716 202.905C761.598 191.861 760.294 179.85 758.378 168.53Z"/><path fill="#FEFBFB" transform="scale(0.859375 0.859375)" d="M841.469 168.526L921.681 168.51C921.232 178.551 918.564 188.873 916.614 198.733L915.782 202.704C891.026 202.492 866.238 202.89 841.476 202.878L841.469 168.526Z"/><path fill="#FEFBFB" transform="scale(0.859375 0.859375)" d="M841.415 248.508L907.751 248.523C905.75 258.308 904.315 268.268 902.641 278.117L901.801 282.499C881.661 282.534 861.52 282.464 841.38 282.288C841.2 271.04 841.392 259.759 841.415 248.508Z"/><path fill="#FEFBFB" transform="scale(0.859375 0.859375)" d="M772.428 248.514L839.025 248.515L838.982 282.46C818.91 282.185 798.796 282.597 778.734 281.953C775.505 271.216 774.61 259.525 772.428 248.514Z"/><path transform="scale(0.859375 0.859375)" d="M801.205 299.78C809.601 298.672 817.309 304.569 818.436 312.963C819.564 321.356 813.684 329.078 805.294 330.224C796.875 331.375 789.123 325.472 787.992 317.051C786.861 308.63 792.782 300.891 801.205 299.78Z"/><path transform="scale(0.859375 0.859375)" d="M881.841 299.771C890.241 298.791 897.837 304.826 898.782 313.23C899.727 321.635 893.659 329.206 885.251 330.114C876.893 331.018 869.378 324.995 868.439 316.641C867.5 308.287 873.491 300.746 881.841 299.771Z"/><path transform="scale(0.859375 0.859375)" d="M948.025 328.28C948.745 328.468 948.435 328.432 949.15 328.449C950.651 328.486 951.097 328.334 952.232 329.328L951.574 330.237L951.23 330.387L951.256 329.93C950.028 330.223 949.772 330.304 948.579 329.942L948.025 328.28Z"/></svg>