<?xml version="1.0" encoding="utf-8" ?><svg xmlns="http://www.w3.org/2000/svg" xmlns:xlink="http://www.w3.org/1999/xlink" width="880" height="880" viewBox="0 0 880 880"><path transform="scale(0.859375 0.859375)" d="M483.48 448.826C480.138 448.621 473.658 448.915 471.034 446.673C469.54 445.397 469.185 442.586 468.964 440.73C465.21 409.17 466.045 366.759 486.448 340.918C494.236 331.054 505.804 323.826 518.403 322.409C530.715 321.045 543.063 324.651 552.706 332.426C569.74 346.132 577.906 368.08 580.16 389.26C580.885 396.071 582.365 411.415 577.481 416.934C573.137 421.844 561.716 421.266 555.58 421.535C555.383 429.988 555.518 438.476 555.498 446.934C568.949 445.77 583.114 446.481 596.646 446.432C610.922 446.38 625.818 445.571 640.022 446.725C641.966 446.883 643.837 447.127 645.572 448.066L645.638 448.797C642.598 451 638.608 450.505 635.034 450.521C634.939 460.521 634.937 470.522 635.029 480.523C642.33 480.482 649.661 479.643 656.949 480.354C659.04 480.558 661.468 480.667 662.863 482.351L662.23 483.396C660.073 484.447 657.377 484.337 655.01 484.502C655.111 493.461 655.894 503.636 654.646 512.469C651.164 514.526 643.828 513.606 639.773 513.568C639.524 524.916 639.625 536.293 639.616 547.645C645.274 547.348 658.213 546.109 662.668 549.489L662.716 550.39C660.175 552.804 655.772 552.104 652.452 552.1C651.106 600 652.013 648.168 652.068 696.094C643.113 696.012 634.102 696.032 625.158 696.482L625.075 886.334C614.899 886.762 604.667 886.531 594.483 886.5C593.695 901.649 594.261 916.939 594.49 932.101C612.805 942.749 631.998 951.807 650.111 962.855C658.145 963.121 680.556 964.107 687.477 962.493C691.874 961.467 696.087 958.305 699.85 955.924C720.792 942.678 739.278 926.766 758.164 910.837C753.05 907.461 748.602 903.112 744.82 898.312C730.09 879.617 726.058 856.26 728.911 833.033C733.207 798.049 756.977 772.986 780.782 749.378C789.923 740.313 799.122 730.973 809.261 723.015C810.421 721.815 812.015 720.964 813.423 720.06C818.702 716.308 823.713 711.899 828.413 707.442C852.08 684.998 851.324 663.133 857.885 633.766C860.174 622.992 863.834 612.885 870.845 604.235C879.37 593.686 891.778 587.006 905.278 585.697C918.169 584.468 931.415 588.1 941.408 596.443C951.382 604.771 957.185 616.694 958.312 629.548C960.113 647.285 957.826 665.807 954.45 683.217C942.417 745.269 910.993 810.474 871.046 859.35C851.101 883.754 821.924 914.448 788.977 917.725C779.015 918.716 770.712 916.929 761.6 913.019C741.505 931.197 720.374 949.015 696.794 962.55C720.148 963.526 743.807 962.873 767.2 962.93L907.348 962.926C917.576 962.948 927.803 962.893 938.03 962.764C943.523 962.675 949.104 962.25 954.587 962.411C956.269 962.46 958.3 962.469 959.673 963.569C960.31 964.08 960.086 964.472 960.094 965.213L959.284 965.967C952.657 967.938 923.844 966.48 914.773 966.471L805.438 966.512L272.73 966.542C267.205 966.506 258.916 967.291 253.729 965.658L253.444 964.865C253.568 964.724 253.677 964.568 253.817 964.443C255.231 963.174 257.754 963.052 259.565 962.941C274.371 962.031 290.991 962.971 305.991 963.013C343.606 963.118 381.363 963.79 418.961 962.985C419.571 952.171 419.177 941.238 419.135 930.408L419.044 886.48C409.324 885.877 397.593 885.974 387.855 886.454C389.394 866.894 393.365 847.18 396.339 827.782C403.225 783.862 410.395 739.988 417.848 696.161L440.89 556.279C444.472 534.624 447.075 511.971 451.681 490.583C456.052 470.288 466.529 459.795 483.48 448.826ZM478.226 934.376C491.829 941.465 505.537 948.35 519.345 955.029C523.756 957.15 528.868 960.344 533.579 961.468C533.917 961.311 534.309 961.223 534.577 960.964C534.214 960.568 532.949 959.463 532.813 959.036C532.618 958.426 533.232 919.942 533.405 916.238C533.866 906.316 534.155 896.528 534.011 886.588C515.543 886.442 496.97 886.158 478.508 886.556C478.188 902.511 478.232 918.421 478.226 934.376Z"/><path fill="#88AFF3" transform="scale(0.859375 0.859375)" d="M857.885 633.766L859.412 635.275C860.703 635.008 860.971 634.915 861.822 633.799C863.88 631.1 864.669 625.054 865.838 621.668C870.98 606.453 883.5 594.893 899.076 590.979C907.652 588.937 916.6 589.049 925.122 591.306C923.56 619.919 917.141 648.151 908.902 675.527C880.833 768.799 829.627 845.292 758.164 910.837C753.05 907.461 748.602 903.112 744.82 898.312C730.09 879.617 726.058 856.26 728.911 833.033C733.207 798.049 756.977 772.986 780.782 749.378C789.923 740.313 799.122 730.973 809.261 723.015C810.421 721.815 812.015 720.964 813.423 720.06C818.702 716.308 823.713 711.899 828.413 707.442C852.08 684.998 851.324 663.133 857.885 633.766Z"/><path transform="scale(0.859375 0.859375)" d="M813.423 720.06C813.665 737.511 811.344 754.59 810.087 771.96C809.468 780.53 809.691 795.015 807.355 802.995C807.029 804.105 806.602 804.651 805.882 805.524L804.906 805.761C803.024 803.774 803.306 799.17 803.373 796.544C803.638 786.133 805.213 775.648 806.087 765.266C807.272 751.197 807.941 737.066 809.261 723.015C810.421 721.815 812.015 720.964 813.423 720.06Z"/><path fill="#88AFF3" transform="scale(0.859375 0.859375)" d="M929.201 593.199C939.061 598.612 947.537 606.736 951.464 617.506C952.816 621.214 953.508 625.053 955.115 628.685C956.253 629.544 956.914 629.43 958.312 629.548C960.113 647.285 957.826 665.807 954.45 683.217C942.417 745.269 910.993 810.474 871.046 859.35C851.101 883.754 821.924 914.448 788.977 917.725C779.015 918.716 770.712 916.929 761.6 913.019C780.628 894.616 799.132 876.121 816.11 855.775C879.224 781.533 918.618 690.066 929.201 593.199Z"/><path fill="#F6E4BB" transform="scale(0.859375 0.859375)" d="M469.019 590.614C468.849 586.772 468.502 582.475 469.383 578.716C469.381 582.64 469.301 586.62 469.642 590.53C470.14 596.233 471.237 601.907 471.348 607.637C471.5 615.455 471.005 623.291 470.987 631.111L471.001 696.513C494.558 696.261 518.118 696.258 541.675 696.505C548.97 706.476 555.947 715.561 568.973 717.604C577.567 718.912 586.327 716.742 593.317 711.574C598.495 707.743 602.188 702.506 604.444 696.496L621.557 696.534L621.561 882.487L391.833 882.457C401.788 816.547 412.202 750.707 423.076 684.943C428.345 653.013 433.36 620.967 439.188 589.137C442.637 591.752 463.433 590.494 469.019 590.614Z"/><path fill="#FEFEFE" transform="scale(0.859375 0.859375)" d="M504.712 469.15C506.326 468.912 508.126 468.883 509.76 468.865C518.484 468.77 527.533 473.05 533.634 479.164C538.055 483.594 540.961 489.022 542.308 495.125C544.842 506.613 543.068 519.136 543.041 530.836L543.467 586.659L574.358 634.237C581.123 644.608 588.105 654.785 594.101 665.634C581.973 672.977 569.254 679.594 556.782 686.343L542.874 693.96C531.33 678.119 520.431 661.869 509.234 645.789C497.123 628.397 484.747 611.227 473.051 593.549L473.054 537.259C473.025 525.151 471.86 512.326 473.875 500.371C474.903 494.268 477.108 488.392 480.699 483.327C486.517 475.122 494.953 470.785 504.712 469.15Z"/><path fill="#0580F9" transform="scale(0.859375 0.859375)" d="M537.956 886.495L590.685 886.508L590.64 933.806C605.805 945.023 625.202 950.626 640.168 961.613L640.238 962.447C625.446 962.816 610.786 962.524 596 962.522C576.668 962.519 557.358 962.726 538.023 962.477C537.373 937.154 537.35 911.819 537.956 886.495Z"/><path fill="#0580F9" transform="scale(0.859375 0.859375)" d="M422.64 886.501L474.525 886.508L474.501 936.91C482.382 940.687 520.325 957.648 524.209 962.411C490.511 963.083 456.698 962.505 422.988 962.505C422.719 937.171 422.603 911.836 422.64 886.501Z"/><path fill="#FEFEFE" transform="scale(0.859375 0.859375)" d="M439.188 589.137L449.322 527.336C451.599 512.843 452.541 497.381 457.517 483.514C460.439 475.372 465.142 467.985 471.283 461.892C489.103 444.277 512.158 448.626 534.81 450.324C540.366 450.74 546.006 450.603 551.576 450.605C551.488 456.145 550.562 461.673 550.435 467.246C550.515 469.177 550.622 471.107 550.584 473.04L551.005 472.735C551.018 472.642 551.026 472.548 551.043 472.456C551.162 471.789 551.325 471.119 551.466 470.458L551.461 480.386L550.461 480.15C547.164 480.679 543.826 480.462 540.502 480.373C531.247 471.326 521.973 465.089 508.576 465.161C498.286 465.216 488.7 469.185 481.496 476.555C476.574 481.594 473.091 487.859 471.407 494.699C468.531 505.963 469.454 518.269 469.462 529.818C469.473 546.095 469.806 562.447 469.383 578.716C468.502 582.475 468.849 586.772 469.019 590.614C463.433 590.494 442.637 591.752 439.188 589.137Z"/><path fill="#605E62" transform="scale(0.859375 0.859375)" d="M550.461 480.15C549.716 476.016 549.833 471.386 550.435 467.246C550.515 469.177 550.622 471.107 550.584 473.04L551.005 472.735C551.018 472.642 551.026 472.548 551.043 472.456C551.162 471.789 551.325 471.119 551.466 470.458L551.461 480.386L550.461 480.15Z"/><path fill="#FEFEFE" transform="scale(0.859375 0.859375)" d="M542.786 331.297C543.353 331.352 543.601 331.357 544.123 331.463C551.698 332.998 559.812 344.05 563.764 350.13C575.988 368.938 579.797 392.78 575.249 414.59C565.764 418.12 556.518 418.617 546.646 416.244C540.998 414.785 535.715 411.722 530.833 408.622L530.737 392.547C525.046 392.484 520.077 391.732 515.779 387.591C512.515 384.445 510.659 380.115 510.632 375.582C510.619 371.311 512.359 367.221 515.447 364.269C519.866 360.051 525.226 359.569 531.009 359.556C532.974 349.013 535.42 339.409 542.786 331.297Z"/><path fill="#ECBC5B" transform="scale(0.859375 0.859375)" d="M548.339 513.734L635.965 513.752C636.381 525.11 637.103 536.67 635.811 547.992L547.115 547.909C547.088 540.222 546.088 520.239 547.333 514.184L548.339 513.734Z"/><path fill="#F25E4C" transform="scale(0.859375 0.859375)" d="M543.344 484.41C579.349 483.792 615.497 484.304 651.512 484.51C651.545 493.147 651.471 501.784 651.292 510.419C636.733 510.745 622.085 510.264 607.519 510.124C587.367 509.972 567.215 509.923 547.063 509.978C547.045 500.781 546.188 493.171 543.344 484.41Z"/><path fill="#FEFEFE" transform="scale(0.859375 0.859375)" d="M554.143 450.512C579.803 450.328 605.56 449.665 631.212 450.38C631.582 460.155 632.365 470.802 630.794 480.471L577.821 480.512C569.173 480.516 560.063 481.069 551.461 480.386L551.466 470.458C551.558 463.678 552.33 457.06 554.143 450.512Z"/><path fill="#FEFEFE" transform="scale(0.859375 0.859375)" d="M547.22 552.202C556.86 551.708 566.644 551.937 576.302 551.868L648.484 552.026C648.634 559.8 648.982 567.727 648.323 575.483L546.895 575.475C546.242 567.861 546.093 559.752 547.22 552.202Z"/><path fill="#ECBC5B" transform="scale(0.859375 0.859375)" d="M595.755 668.954C595.986 669.031 596.237 669.062 596.448 669.184C598.869 670.583 600.435 675.167 601.238 677.76C603.463 684.947 602.777 692.492 599.141 699.102C595.419 705.808 589.196 710.77 581.829 712.906C573.358 715.353 565.757 713.58 558.257 709.442C553.264 706.026 549.533 701.488 546.119 696.554C562.58 687.198 579.36 678.435 595.755 668.954Z"/><path fill="#FEFEFE" transform="scale(0.859375 0.859375)" d="M530.971 413.607C537.745 417.181 544.538 419.393 551.93 421.241L551.971 446.953L530.988 446.985L530.971 413.607Z"/><path transform="scale(0.859375 0.859375)" d="M710.248 213.246C704.501 199.831 699.221 186.087 699.039 171.281C698.837 154.912 705.003 137.37 716.604 125.609C728.036 114.196 743.551 107.82 759.704 107.897C775.262 107.897 790.183 114.073 801.19 125.068C813.968 137.842 818.014 154.335 818.012 171.878C816.225 198.95 799.217 219.142 779.792 236.49C792.494 257.402 795.989 278.763 790.246 302.653C785.934 320.59 773.887 345.073 760.98 358.536C741.449 378.131 720.425 393.124 691.498 393.103C677.727 393.092 665.069 388.766 654.427 379.978C647.433 390.542 640.27 400.993 632.943 411.328C629.587 416.036 626.334 420.985 622.515 425.333C621.339 426.673 620.71 427.186 618.9 427.313L618.539 426.455C620.069 420.027 635.625 401.088 640.35 394.349C645.143 387.493 649.771 380.522 654.228 373.443C649.744 363.923 643.899 335.436 645.419 324.512C643.403 324.657 641.298 324.967 639.602 323.663C639.432 322.935 639.197 322.796 639.68 322.127C641.005 320.295 643.401 320.196 645.455 319.87C645.008 304.144 645.997 288.409 648.412 272.862C649.817 263.87 652.076 254.944 653.233 245.931L654.415 242.05C656.196 236.265 657.021 229.924 658.482 224.013C661.787 210.646 665.742 196.987 670.693 184.131C684.762 192.287 697.042 203.757 710.248 213.246Z"/><path fill="#F6E4BB" transform="scale(0.859375 0.859375)" d="M710.248 213.246C704.501 199.831 699.221 186.087 699.039 171.281C698.837 154.912 705.003 137.37 716.604 125.609C728.036 114.196 743.551 107.82 759.704 107.897C775.262 107.897 790.183 114.073 801.19 125.068C813.968 137.842 818.014 154.335 818.012 171.878C816.963 172.21 816.261 172.247 815.524 173.099L814.455 174.333C813.275 175.703 811.856 176.783 810.183 177.494C804.121 180.072 796.412 181.105 789.993 182.887C775.772 186.836 761.654 191.105 747.397 194.944C750.645 186.169 771.385 137.869 769.101 132.863C766.71 133.654 765.289 136.438 764.233 138.628C761.991 143.278 760.978 148.622 759.197 153.494C754.805 165.501 750.079 177.433 745.391 189.327C732.146 222.923 717.612 255.659 702.311 288.356C693.266 279.749 684.33 271.026 675.508 262.19C668.666 255.315 662.275 247.793 654.415 242.05C656.196 236.265 657.021 229.924 658.482 224.013C661.787 210.646 665.742 196.987 670.693 184.131C684.762 192.287 697.042 203.757 710.248 213.246Z"/><path fill="#F6E4BB" transform="scale(0.859375 0.859375)" d="M692.546 316.262C724.438 309.959 756.127 302.273 787.964 295.615C784.522 311.371 778.436 326.429 769.963 340.151C766.729 345.279 762.565 349.713 759.653 355.058C759.638 356.566 760.244 357.241 760.98 358.536C741.449 378.131 720.425 393.124 691.498 393.103C677.727 393.092 665.069 388.766 654.427 379.978C657.813 373.328 662.916 367.149 666.762 360.688C675.519 345.978 683.74 330.95 692.546 316.262Z"/><path fill="#F6E4BB" transform="scale(0.859375 0.859375)" d="M653.233 245.931C669.642 260.51 685.145 276.713 700.599 292.32C690.722 311.414 680.333 330.239 669.444 348.774C664.595 357.038 658.649 364.982 654.228 373.443C649.744 363.923 643.899 335.436 645.419 324.512C643.403 324.657 641.298 324.967 639.602 323.663C639.432 322.935 639.197 322.796 639.68 322.127C641.005 320.295 643.401 320.196 645.455 319.87C645.008 304.144 645.997 288.409 648.412 272.862C649.817 263.87 652.076 254.944 653.233 245.931Z"/><path transform="scale(0.859375 0.859375)" d="M645.455 319.87C647.016 319.982 648.276 319.931 649.546 320.97C649.786 322.06 649.959 321.755 649.406 322.545C648.397 323.986 647.021 324.165 645.419 324.512C643.403 324.657 641.298 324.967 639.602 323.663C639.432 322.935 639.197 322.796 639.68 322.127C641.005 320.295 643.401 320.196 645.455 319.87Z"/><path fill="#F6E4BB" transform="scale(0.859375 0.859375)" d="M812.534 181.136L812.962 181.986C812.496 185.453 810.88 188.926 809.575 192.159C802.188 210.467 789.347 223.307 774.663 235.95C787.255 253.421 790.27 270.543 788.409 291.752C779.429 293.912 770.172 295.394 761.117 297.271C743.184 301.051 725.291 305.015 707.439 309.163C703.253 310.187 699.088 311.153 694.848 311.933C696.901 306.992 699.681 302.186 702.074 297.39C706.372 288.703 710.581 279.972 714.7 271.199C725.572 247.514 735.821 223.547 745.435 199.325C767.896 193.617 789.981 186.512 812.534 181.136Z"/><path fill="#88AFF3" transform="scale(0.859375 0.859375)" d="M161.797 329.129C161.502 329.01 161.204 328.9 160.913 328.773C148.213 323.215 138.48 311.386 133.904 298.482C130.377 288.537 129.572 277.871 130.25 267.399C132.224 236.868 147.897 193.778 160.915 166.249C177.898 130.334 220.527 65.2607 259.506 51.5815C271.326 47.4331 282.955 48.6789 294.125 54.1025C305.349 59.6673 313.932 69.4252 318.02 81.2672C327.424 108.551 316.508 134.92 292.934 150.433C287.753 153.843 269.586 161.999 267.314 166.646C267.597 167.749 267.602 168.123 268.576 168.822C273.573 172.408 285.501 170.605 291.207 169.704C285.976 176.634 279.05 181.289 272.997 187.365C267.692 192.69 266.058 198.252 266.047 205.541L265.97 209.46C263.041 247.518 262.949 289.741 231.213 316.802C216.501 329.346 198.322 335.237 179.069 333.564C174.472 333.165 169.727 332.513 165.37 330.942C163.638 343.278 163.437 357.426 163.212 369.889C163.076 377.386 163.462 384.818 162.08 392.222L160.54 392.447C156.452 380.084 160.823 344.087 161.797 329.129Z"/><path fill="#88AFF3" transform="scale(0.859375 0.859375)" d="M180.832 247.875C190.639 244.613 199.989 239.59 209.398 235.33L265.97 209.46C263.041 247.518 262.949 289.741 231.213 316.802C216.501 329.346 198.322 335.237 179.069 333.564C174.472 333.165 169.727 332.513 165.37 330.942C167.613 321.869 167.959 311.202 169.432 301.845C172.26 283.663 176.065 265.647 180.832 247.875Z"/><path transform="scale(0.859375 0.859375)" d="M161.797 329.129C168.593 244.743 199.769 164.152 251.532 97.1617C255.902 91.5303 268.883 73.884 275.404 73.0541L275.809 73.7008C275.291 75.9368 273.894 77.7793 272.494 79.557C267.352 86.0851 261.313 91.9442 255.905 98.2624C248.303 107.145 241.424 116.772 234.965 126.508C218.613 151.124 205.038 177.475 194.488 205.08C189.793 217.583 185.965 230.375 182.027 243.13C189.624 240.188 197.046 236.55 204.479 233.21L240.273 217.051C248.775 213.116 257.23 208.723 266.047 205.541L265.97 209.46L209.398 235.33C199.989 239.59 190.639 244.613 180.832 247.875C176.065 265.647 172.26 283.663 169.432 301.845C167.959 311.202 167.613 321.869 165.37 330.942C163.638 343.278 163.437 357.426 163.212 369.889C163.076 377.386 163.462 384.818 162.08 392.222L160.54 392.447C156.452 380.084 160.823 344.087 161.797 329.129Z"/><path transform="scale(0.859375 0.859375)" d="M310.441 414.047C309.787 408.163 309.819 402.443 311.03 396.625C313.626 384.697 320.876 374.298 331.17 367.737C342.141 360.623 354.873 358.847 367.482 361.561C379.623 365.87 389.547 374.838 395.06 386.481C407.333 412.614 395.654 453.603 386.077 479.509C382.899 488.105 378.99 496.803 374.547 504.825C369.958 513.112 353.407 534.201 352.986 541.33C359.532 537.595 366.545 534.451 373.358 531.228C371.817 535.597 370.222 539.947 368.574 544.277C353.176 584.183 328.651 622.709 288.002 640.572C267.217 649.707 240.039 654.176 218.351 645.816C206.357 619.155 205.54 580.038 213.798 552.572C215.653 546.307 218.024 540.206 220.886 534.332C225.139 525.674 238.149 504.253 246.605 499.726C248.27 499.977 248.41 500.395 249.549 501.573C261.308 515.652 271.618 531.027 283.554 544.886C280.936 538.331 279.912 530.732 278.472 523.835C275.453 509.372 272.807 494.503 268.723 480.297C287.314 467.583 302.167 450.793 308.258 428.647C309.497 424.144 309.197 419.288 310.265 414.768L310.441 414.047Z"/><path fill="#F6E4BB" transform="scale(0.859375 0.859375)" d="M310.441 414.047C311.707 413.519 313.034 413.187 313.746 411.932C314.618 407.505 313.908 402.899 314.302 398.423C315.219 388.02 323.627 377.361 331.983 371.701C341.632 365.167 352.109 363.775 363.503 364.072C362.34 379.672 360.934 395.062 358.122 410.472C345.762 478.225 312.597 538.587 268.628 590.956C254.063 608.304 238.556 625.96 221.395 640.778L220.87 641.227C208.463 610.821 208.927 572.434 221.639 542.22C228.142 526.764 237.783 513.427 249.549 501.573C261.308 515.652 271.618 531.027 283.554 544.886C280.936 538.331 279.912 530.732 278.472 523.835C275.453 509.372 272.807 494.503 268.723 480.297C287.314 467.583 302.167 450.793 308.258 428.647C309.497 424.144 309.197 419.288 310.265 414.768L310.441 414.047Z"/><path fill="#F6E4BB" transform="scale(0.859375 0.859375)" d="M367.482 361.561C379.623 365.87 389.547 374.838 395.06 386.481C407.333 412.614 395.654 453.603 386.077 479.509C382.899 488.105 378.99 496.803 374.547 504.825C369.958 513.112 353.407 534.201 352.986 541.33C352.248 542.217 291.692 574.342 284.621 578.203C293.6 563.845 304.589 550.792 313.394 536.319C345.396 483.722 366.121 423.401 367.482 361.561Z"/><path fill="#F6E4BB" transform="scale(0.859375 0.859375)" d="M365.081 539.459L365.776 540.237C365.761 540.491 365.754 540.747 365.729 541C365.291 545.529 361.645 551.594 359.768 555.739C348.468 580.696 334.602 604.347 312.592 621.435C287.459 640.948 259.233 648.767 227.691 644.832C226.416 644.417 225.836 644.448 225.067 643.314C226.758 638.88 241.548 626.381 245.612 622.311C251.322 616.547 256.776 610.534 261.958 604.291C266.788 598.5 271.394 592.198 277.112 587.256C285.843 579.711 297.685 575.444 307.814 570.025C326.802 559.649 345.892 549.46 365.081 539.459Z"/><path fill="#ECBC5B" transform="scale(0.859375 0.859375)" d="M281.719 824.2C277.249 829.744 272.133 834.432 265.797 837.77C250.701 845.725 230.886 843.002 215.253 838.17C163.883 822.292 101.239 773.151 76.3213 725.141C68.6197 710.303 63.4036 692.433 68.7334 675.94C72.1538 665.611 79.5259 657.057 89.237 652.15C98.8176 647.331 109.925 646.532 120.096 649.93C140.071 656.807 142.091 667.947 150.416 684.934C158.771 701.985 170.917 701.775 186.89 707.687C187.89 708.057 189.242 708.561 189.925 709.442C192.581 712.866 197.216 732.016 198.961 737.281C201.108 743.955 203.687 750.483 206.68 756.822C209.523 742.083 208.118 727.222 205.293 712.605C210.37 714.499 215.513 716.218 220.576 718.147C245.837 727.77 271.364 743.961 282.692 769.513C289.872 785.707 289.67 804.034 283.335 820.483C294.354 822.745 305.31 824.949 316.509 826.162C321.733 826.728 332.363 825.403 336.612 827.83L337.013 828.648C336.428 829.679 336.226 829.982 335.004 830.393C327.97 832.759 290.423 826.299 281.719 824.2Z"/><path transform="scale(0.859375 0.859375)" d="M281.719 824.2C268.484 821.995 255.042 817.698 242.442 813.132C197.101 796.697 155.762 770.806 123.569 734.626C116.106 726.24 85.4024 686.727 86.6037 677.948C86.7061 677.2 86.8214 677.37 87.5365 676.829C91.8475 677.928 98.2586 693.046 100.823 697.304C130.481 746.566 179.124 783.447 232.101 804.611C248.826 811.293 265.869 816.16 283.335 820.483C294.354 822.745 305.31 824.949 316.509 826.162C321.733 826.728 332.363 825.403 336.612 827.83L337.013 828.648C336.428 829.679 336.226 829.982 335.004 830.393C327.97 832.759 290.423 826.299 281.719 824.2Z"/><path fill="#F25E4C" transform="scale(0.859375 0.859375)" d="M783.997 539.316C776.935 530.114 772.986 521.453 774.497 509.638C777.744 484.254 813.833 449.162 833.722 434.015C853.328 419.083 889.212 394.346 914.452 397.793C923.846 399.076 932.028 404.185 937.646 411.779C943.327 419.46 945.542 428.364 944.024 437.792C942.55 447.443 937.183 456.068 929.175 461.653C917.521 469.903 900.085 470.248 886.551 467.873C892.856 474.052 899.214 478.991 907.303 482.612L841.476 490.291C851.837 495.545 866.7 499.519 878.37 498.088C866.723 518.899 853.895 541.926 829.283 548.932C816.503 552.569 802.412 551.563 790.799 544.881C789.486 544.108 788.193 543.3 786.922 542.459C783.309 549.539 779.854 556.804 776.828 564.155C775.27 567.938 774.35 571.868 772.33 575.451C771.392 577.117 770.204 579.601 768.306 580.131C765.545 572.84 780.887 548.064 783.858 539.722C783.906 539.587 783.951 539.452 783.997 539.316Z"/><path transform="scale(0.859375 0.859375)" d="M783.997 539.316C805.258 492.992 845.928 452.359 890.137 427.671C897.441 423.592 904.832 419.232 912.698 416.322C914.644 415.603 916.517 414.867 918.62 415.169L919.189 415.908C918.697 417.971 917.622 418.836 915.877 419.875C911.992 422.187 907.458 423.452 903.359 425.354C896.663 428.459 890.114 432.334 883.789 436.132C842.003 461.59 808.387 498.489 786.922 542.459C783.309 549.539 779.854 556.804 776.828 564.155C775.27 567.938 774.35 571.868 772.33 575.451C771.392 577.117 770.204 579.601 768.306 580.131C765.545 572.84 780.887 548.064 783.858 539.722C783.906 539.587 783.951 539.452 783.997 539.316Z"/><path fill="#ECBC5B" transform="scale(0.859375 0.859375)" d="M139.474 898.104C144.683 897.871 149.885 897.764 155.036 898.718C166.529 900.848 176.157 907.106 182.753 916.779C186.949 922.934 193.208 935.574 191.399 943.141C190.924 945.127 190.021 945.737 188.407 946.744C187.688 946.894 186.981 947.029 186.255 947.14C174.825 948.888 163.831 946.767 154.462 939.761C144.737 932.488 139.228 920.978 137.614 909.115C137.083 905.21 136.995 901.349 139.474 898.104Z"/><path fill="#459A75" transform="scale(0.859375 0.859375)" d="M868.782 245.618C874.872 245.288 880.422 245.301 886.354 246.873C897.177 249.742 906.219 256.357 911.757 266.15C914.926 271.755 919.412 283.615 917.356 289.971C916.797 291.7 915.905 292.001 914.389 292.708C907.693 293.548 900.97 293.455 894.427 291.666C884.276 288.92 875.682 282.155 870.628 272.933C867.413 267.11 862.894 253.664 864.751 247.244C866.115 245.92 866.949 245.982 868.782 245.618Z"/><path fill="#88AFF3" transform="scale(0.859375 0.859375)" d="M575.311 55.7006C579.206 55.0437 584.633 55.5057 588.264 57.0612C588.893 57.8281 589.021 58.0196 589.203 59.0047C590.885 68.1269 588.021 79.2508 582.754 86.777C575.752 96.7832 564.744 101.27 553.124 103.413C548.272 103.785 543.559 103.66 538.709 103.435C538.975 91.2092 540.064 79.1781 548.065 69.3082C554.998 60.756 564.57 56.8091 575.311 55.7006Z"/><path fill="#F25E4C" transform="scale(0.859375 0.859375)" d="M437.355 205.155C442.742 204.472 448.244 205.234 453.521 206.299C453.531 215.83 451.803 225.64 446.495 233.73C440.113 243.459 429.594 249.283 418.384 251.543C412.472 252.658 406.795 252.038 400.946 250.905C402.369 239.676 404.253 228.87 411.192 219.574C417.638 210.938 426.9 206.656 437.355 205.155Z"/><path fill="#F25E4C" transform="scale(0.859375 0.859375)" d="M87.4357 442.69C90.6091 442.57 93.8108 442.407 96.9847 442.56C108.38 443.109 119.959 447.25 127.746 455.826C133.843 462.541 139.962 475.259 139.148 484.425C138.994 486.156 138.751 486.565 137.397 487.622C136.068 487.877 134.728 488.071 133.381 488.203C121.532 489.41 110.5 487.178 101.156 479.457C92.3785 472.205 87.3865 461.392 86.3786 450.154C86.1733 447.865 85.8695 444.537 87.4357 442.69Z"/></svg>