<svg xmlns="http://www.w3.org/2000/svg" xmlns:xlink="http://www.w3.org/1999/xlink" width="32" height="32" viewBox="0 0 32 32">
  <defs>
    <linearGradient id="linear-gradient" x1="0.905" y1="0.056" x2="0.05" y2="0.955" gradientUnits="objectBoundingBox">
      <stop offset="0" stop-color="#ffd9fb"/>
      <stop offset="1" stop-color="#98dfff"/>
    </linearGradient>
    <linearGradient id="linear-gradient-2" x1="0.5" x2="0.5" y2="1" gradientUnits="objectBoundingBox">
      <stop offset="0" stop-color="#ff52f2"/>
      <stop offset="1" stop-color="#00abff"/>
    </linearGradient>
  </defs>
  <g id="logo-light" transform="translate(-6 -63)">
    <rect id="Rectangle_41" data-name="Rectangle 41" width="32" height="32" rx="6" transform="translate(6 63)" fill="url(#linear-gradient)"/>
    <g id="Union_8" data-name="Union 8" transform="translate(14.688 67)" stroke-linecap="round" stroke-linejoin="round" fill="url(#linear-gradient-2)">
      <path d="M 7.439399719238281 25.50020027160645 C 4.971619606018066 25.50020027160645 2.899929761886597 24.72052955627441 1.281859755516052 23.18284034729004 C -0.3569202721118927 21.63627052307129 -1.188500285148621 19.66651916503906 -1.188500285148621 17.32950019836426 C -1.188500285148621 14.63389778137207 -0.2093021273612976 12.61692905426025 1.724387288093567 11.32439994812012 C 1.220167279243469 10.74487495422363 0.7213075160980225 10.11973762512207 0.3148297369480133 9.41387939453125 C -0.2776802778244019 8.384969711303711 -0.5657002925872803 7.362289905548096 -0.5657002925872803 6.287399768829346 C -0.5657002925872803 4.08282995223999 0.2037697285413742 2.212639808654785 1.721339702606201 0.7287997007369995 C 3.246839761734009 -0.7505402565002441 5.159279823303223 -1.499900221824646 7.406999588012695 -1.499900221824646 C 9.647109985351562 -1.499900221824646 11.54475975036621 -0.7493102550506592 13.04721927642822 0.731029748916626 C 14.5526294708252 2.201759815216064 15.31669998168945 4.076839923858643 15.31669998168945 6.302699565887451 C 15.31669998168945 8.391116142272949 14.18724632263184 9.901401519775391 12.997145652771 11.32281875610352 C 13.75464630126953 11.88115692138672 14.37804698944092 12.5994815826416 14.85497951507568 13.46472930908203 C 15.48911952972412 14.59247970581055 15.81169986724854 15.87796974182129 15.81169986724854 17.28179931640625 C 15.81169986724854 19.66604995727539 15.01532936096191 21.6542797088623 13.44470977783203 23.19125938415527 C 11.87802982330322 24.7234001159668 9.857589721679688 25.50020027160645 7.439399719238281 25.50020027160645 Z M 4.947610855102539 19.54865264892578 C 5.602608680725098 20.21102523803711 6.375907897949219 20.53299903869629 7.311599731445312 20.53299903869629 C 8.252999305725098 20.53299903869629 9.001679420471191 20.22241020202637 9.667739868164062 19.5555591583252 C 10.33292007446289 18.88084030151367 10.64379978179932 18.12557983398438 10.64379978179932 17.18099975585938 C 10.64379978179932 16.22830009460449 10.33364963531494 15.47404956817627 9.667739868164062 14.80733966827393 C 9.000949859619141 14.14056015014648 8.252200126647949 13.82989978790283 7.311599731445312 13.82989978790283 C 6.391719818115234 13.82989978790283 5.619969844818115 14.15067005157471 4.952259540557861 14.81054019927979 C 4.289269924163818 15.47433948516846 3.979399681091309 16.2131404876709 3.979399681091309 17.13329887390137 C 3.979399681091309 18.09163665771484 4.287097930908203 18.85925102233887 4.947610855102539 19.54865264892578 Z M 5.305086135864258 8.404132843017578 L 5.717399597167969 8.81818962097168 L 5.752659797668457 8.853679656982422 C 6.163701057434082 9.267359733581543 6.919562816619873 10.02805709838867 7.403647422790527 10.49350261688232 C 7.735742092132568 10.16040325164795 8.188885688781738 9.687996864318848 8.521269798278809 9.341479301452637 L 8.596670150756836 9.26298999786377 C 8.914166450500488 8.932487487792969 9.214421272277832 8.619924545288086 9.429390907287598 8.404425621032715 C 10.02124691009521 7.705934524536133 10.30900001525879 7.023585796356201 10.30900001525879 6.318899631500244 C 10.30900001525879 5.496799945831299 10.03409004211426 4.83899974822998 9.443849563598633 4.248749732971191 C 8.853690147399902 3.657819747924805 8.196539878845215 3.382699728012085 7.375499725341797 3.382699728012085 C 6.553849697113037 3.382699728012085 5.896409511566162 3.657819747924805 5.306489944458008 4.248519897460938 C 4.716699600219727 4.839089870452881 4.441999912261963 5.481809616088867 4.441999912261963 6.271199703216553 C 4.441999912261963 7.034961700439453 4.716305255889893 7.713123321533203 5.305086135864258 8.404132843017578 Z M 7.311599731445312 7.944799900054932 C 6.484549522399902 7.944799900054932 5.811699867248535 7.271949768066406 5.811699867248535 6.444899559020996 C 5.811699867248535 5.617849826812744 6.484549522399902 4.944999694824219 7.311599731445312 4.944999694824219 C 8.138649940490723 4.944999694824219 8.81149959564209 5.617849826812744 8.81149959564209 6.444899559020996 C 8.81149959564209 7.271949768066406 8.138649940490723 7.944799900054932 7.311599731445312 7.944799900054932 Z" stroke="none"/>
      <path d="M 7.439399719238281 25.00020027160645 C 9.722700119018555 25.00020027160645 11.62529945373535 24.27120018005371 13.09499931335449 22.83390045166016 C 14.56559944152832 21.39480018615723 15.31169986724854 19.52639961242676 15.31169986724854 17.28179931640625 C 15.31169986724854 15.9650993347168 15.01019954681396 14.76089954376221 14.41709995269775 13.70609951019287 C 13.88429927825928 12.73950004577637 13.15799999237061 11.97449970245361 12.25529956817627 11.42729949951172 L 12.28769969940186 11.38859939575195 C 13.58819961547852 9.851399421691895 14.81669998168945 8.398799896240234 14.81669998168945 6.302699565887451 C 14.81669998168945 4.216499805450439 14.10299968719482 2.461499691009521 12.69629955291748 1.087199687957764 C 11.29049968719482 -0.2979002594947815 9.511199951171875 -0.9999002814292908 7.406999588012695 -0.9999002814292908 C 5.293799877166748 -0.9999002814292908 3.498299837112427 -0.2979002594947815 2.070899724960327 1.086299777030945 C 0.6533997058868408 2.472299814224243 -0.06570027023553848 4.221899509429932 -0.06570027023553848 6.287399768829346 C -0.06570027023553848 8.474399566650391 1.250999689102173 10.05480003356934 2.494799613952637 11.43989944458008 C 0.3824997246265411 12.61259937286377 -0.6885002851486206 14.59259986877441 -0.6885002851486206 17.32950019836426 C -0.6885002851486206 19.5236988067627 0.09089972823858261 21.37139892578125 1.626299738883972 22.82040023803711 C 3.148199796676636 24.26669883728027 5.103899955749512 25.00020027160645 7.439399719238281 25.00020027160645 M 7.311599731445312 13.32989978790283 C 8.378999710083008 13.32989978790283 9.265500068664551 13.69799995422363 10.02149963378906 14.45399951934814 C 10.7765998840332 15.21000003814697 11.14379978179932 16.10190010070801 11.14379978179932 17.18099975585938 C 11.14379978179932 18.25110054016113 10.7765998840332 19.14299964904785 10.02149963378906 19.90889930725098 C 9.265500068664551 20.66580009460449 8.378999710083008 21.03299903869629 7.311599731445312 21.03299903869629 C 6.233399868011475 21.03299903869629 5.342399597167969 20.660400390625 4.589099884033203 19.8971996307373 C 3.842099666595459 19.11870002746582 3.479399681091309 18.2150993347168 3.479399681091309 17.13329887390137 C 3.479399681091309 16.08659934997559 3.846599817276001 15.21000003814697 4.600799560546875 14.45489978790283 C 5.366699695587158 13.69799995422363 6.25409984588623 13.32989978790283 7.311599731445312 13.32989978790283 M 7.375499725341797 2.882699728012085 C 8.324999809265137 2.882699728012085 9.116999626159668 3.213899612426758 9.797399520874023 3.895199775695801 C 10.47779941558838 4.575599670410156 10.80900001525879 5.368499755859375 10.80900001525879 6.318899631500244 C 10.80900001525879 7.269299507141113 10.36709976196289 8.075699806213379 9.797399520874023 8.743499755859375 C 9.56879997253418 8.972099304199219 9.234899520874023 9.320399284362793 8.882100105285645 9.687600135803223 C 8.395199775695801 10.19519996643066 7.694999694824219 10.92509937286377 7.410599708557129 11.18340015411377 C 7.034399509429932 10.85400009155273 5.928299903869629 9.739799499511719 5.363099575042725 9.170999526977539 L 4.937399864196777 8.743499755859375 C 4.339799880981445 8.046899795532227 3.941999673843384 7.263899803161621 3.941999673843384 6.271199703216553 C 3.941999673843384 5.35319995880127 4.273199558258057 4.575599670410156 4.952699661254883 3.895199775695801 C 5.633099555969238 3.213899612426758 6.425999641418457 2.882699728012085 7.375499725341797 2.882699728012085 M 7.311599731445312 7.444799900054932 C 7.864199638366699 7.444799900054932 8.31149959564209 6.997499942779541 8.31149959564209 6.444899559020996 C 8.31149959564209 5.893199920654297 7.864199638366699 5.444999694824219 7.311599731445312 5.444999694824219 C 6.758999824523926 5.444999694824219 6.311699867248535 5.893199920654297 6.311699867248535 6.444899559020996 C 6.311699867248535 6.997499942779541 6.758999824523926 7.444799900054932 7.311599731445312 7.444799900054932 M 7.439399719238281 26.00020027160645 C 4.839119911193848 26.00020027160645 2.65153980255127 25.17424964904785 0.9374297261238098 23.54528045654297 C -0.8041602969169617 21.90169906616211 -1.688500285148621 19.80961036682129 -1.688500285148621 17.32950019836426 C -1.688500285148621 15.79975986480713 -1.379020214080811 14.45162963867188 -0.7686502933502197 13.32256984710693 C -0.332045704126358 12.51494598388672 0.2579694390296936 11.8175745010376 0.9926134943962097 11.23921012878418 C -0.005616975482553244 10.03474903106689 -1.06570029258728 8.410331726074219 -1.06570029258728 6.287399768829346 C -1.06570029258728 3.943209648132324 -0.2456102669239044 1.952749729156494 1.371779680252075 0.3712897300720215 C 2.995279788970947 -1.203080296516418 5.024829864501953 -1.999900221824646 7.406999588012695 -1.999900221824646 C 9.783100128173828 -1.999900221824646 11.79881000518799 -1.200910329818726 13.39813995361328 0.3748697340488434 C 15.00195980072021 1.941739678382874 15.81669998168945 3.937139749526978 15.81669998168945 6.302699565887451 C 15.81669998168945 8.368419647216797 14.82769966125488 9.870522499084473 13.70646572113037 11.24954700469971 C 14.33747959136963 11.79422378540039 14.86820220947266 12.4537525177002 15.29116153717041 13.22027492523193 C 15.96837902069092 14.42641735076904 16.31169891357422 15.79281806945801 16.31169891357422 17.28179931640625 C 16.31169891357422 19.80558013916016 15.46475982666016 21.91404914855957 13.79440975189209 23.54862022399902 C 12.13090991973877 25.17543983459473 9.992859840393066 26.00020027160645 7.439399719238281 26.00020027160645 Z M 5.305517673492432 19.1994800567627 C 5.86884069442749 19.76807403564453 6.506506443023682 20.03299903869629 7.311599731445312 20.03299903869629 C 8.110651969909668 20.03299903869629 8.746340751647949 19.7696533203125 9.311966896057129 19.2042121887207 C 9.879441261291504 18.62748146057129 10.14379978179932 17.98447227478027 10.14379978179932 17.18099975585938 C 10.14379978179932 16.36947059631348 9.880119323730469 15.72749996185303 9.313969612121582 15.16068935394287 C 8.747309684753418 14.59401988983154 8.110909461975098 14.32989978790283 7.311599731445312 14.32989978790283 C 6.52026891708374 14.32989978790283 5.883020401000977 14.59478759765625 5.306396007537842 15.16352844238281 C 4.742221832275391 15.72921085357666 4.479399681091309 16.35522270202637 4.479399681091309 17.13329887390137 C 4.479399681091309 17.95305061340332 4.741981506347656 18.60984420776367 5.305517673492432 19.1994800567627 Z M 5.673370838165283 8.065376281738281 L 6.107339859008789 8.501259803771973 C 6.426071643829346 8.82203483581543 6.953615665435791 9.352957725524902 7.395973682403564 9.788163185119629 C 7.661233425140381 9.515781402587891 7.946334362030029 9.218558311462402 8.160429954528809 8.995359420776367 L 8.236089706420898 8.916599273681641 C 8.54814338684082 8.591766357421875 8.84363842010498 8.284167289733887 9.06071949005127 8.066033363342285 C 9.564170837402344 7.467158794403076 9.809000015258789 6.895346164703369 9.809000015258789 6.318899631500244 C 9.809000015258789 5.638099670410156 9.580629348754883 5.092639923095703 9.090290069580078 4.602309703826904 C 8.599849700927734 4.111209869384766 8.055109977722168 3.882699728012085 7.375499725341797 3.882699728012085 C 6.695279598236084 3.882699728012085 6.15024995803833 4.111209869384766 5.660269737243652 4.601839542388916 C 5.170239925384521 5.092529773712158 4.941999912261963 5.622979640960693 4.941999912261963 6.271199703216553 C 4.941999912261963 6.912899017333984 5.167823791503906 7.467574596405029 5.673370838165283 8.065376281738281 Z M 7.311599731445312 8.444799423217773 C 6.208849906921387 8.444799423217773 5.311699867248535 7.54764986038208 5.311699867248535 6.444899559020996 C 5.311699867248535 5.34214973449707 6.208849906921387 4.444999694824219 7.311599731445312 4.444999694824219 C 8.414349555969238 4.444999694824219 9.31149959564209 5.34214973449707 9.31149959564209 6.444899559020996 C 9.31149959564209 7.54764986038208 8.414349555969238 8.444799423217773 7.311599731445312 8.444799423217773 Z" stroke="none" fill="#fff"/>
    </g>
  </g>
</svg>
