<svg xmlns="http://www.w3.org/2000/svg" xmlns:xlink="http://www.w3.org/1999/xlink" width="800" height="800" viewBox="0 0 800 800">
  <defs>
    <clipPath id="clip-Custom_Size_1">
      <rect width="800" height="800"/>
    </clipPath>
  </defs>
  <g id="Custom_Size_1" data-name="Custom Size – 1" clip-path="url(#clip-Custom_Size_1)">
    <g id="female" transform="translate(-13.731 -10.434)">
      <path id="Path_34" data-name="Path 34" d="M176.232,526.125c-.75-12.907-.2-26.124-.2-39.068l.013-72.124.007-150.254q.3-51.895-.324-103.789c-.374-27.131,5.4-51.326,25.017-71.3a87.049,87.049,0,0,1,51.447-25.914,138.486,138.486,0,0,1,16.19-.738l233.43-.16,61.335-.045c15.917-.069,32.633-1.282,48.335,1.689a86.3,86.3,0,0,1,44.58,23.686c29.731,29.4,26.509,63.826,26.665,101.955l.021,44.255c.016,9.417-.216,18.906.349,28.308a63.278,63.278,0,0,0-.486,6.462l.492.486c8.788-7,16.552-15.991,24.374-24.061,3.4-3.512,6.844-7.652,10.948-10.343a11.236,11.236,0,0,1,7.44-2.047,11.041,11.041,0,0,1,4.959,1.989c5.084,3.451,16.633,15.392,20.49,20.5,2.048,2.713,4.048,6.2,3.677,9.736-.311,2.972-3.951,7.071-5.881,9.294-5.766,6.641-12.293,12.633-18.562,18.789l-23.715,23.52-15.135,15c-2.905,2.918-5.778,6.274-8.968,8.848-.751,8.232-.151,17-.129,25.292l.117,48.763c.055,47.384-.58,94.87.15,142.244,3.442-.13,6.907-.249,10.351-.216a91.92,91.92,0,0,1,65.157,27.7c15.725,16.092,25.523,39.124,25.093,61.795-.442,23.286-10.539,46.939-27.342,63.087C734.158,730.576,712,734.6,682.81,734.047q-.1,9.893-.047,19.788l98.4-.227c1.613,0,3.612-.124,4.78,1.193.554.626.416.331.393,1.17a3.131,3.131,0,0,1-1.6.861c-4.85,1.281-24.5.368-30.818.351l-76.115-.008-475.529,0-71.518-.368c-14.82,0-29.93.618-44.715-.134a4.3,4.3,0,0,1-2.354-.69l-.1-.62a3.375,3.375,0,0,1,.755-.978c1.049-.836,2.918-1.013,4.2-1.072,7.4-.344,15.046.119,22.48.063l65.027-.234-.016-83.639a96.735,96.735,0,0,1-14.429-5.527c-17.117-8.512-30.04-24.22-36.068-42.27-6.246-18.706-4.26-39.721,4.67-57.219C139.816,545.64,156.292,532.624,176.232,526.125Z" transform="translate(-4.04 0)"/>
      <path id="Path_35" data-name="Path 35" d="M733.73,283.662l.492.486c8.788-7,16.552-15.991,24.374-24.061,3.4-3.512,6.844-7.652,10.948-10.343a11.236,11.236,0,0,1,7.44-2.047,11.041,11.041,0,0,1,4.959,1.989c5.084,3.451,16.633,15.392,20.49,20.5,2.048,2.713,4.048,6.2,3.677,9.736-.311,2.972-3.951,7.071-5.881,9.294-5.766,6.641-12.293,12.633-18.562,18.789l-23.715,23.52-15.135,15c-2.905,2.918-5.778,6.274-8.968,8.848q.173-25.532.026-51.064C733.848,297.732,732.788,290.111,733.73,283.662Z" transform="translate(-55.156 -14.57)" fill="#b2c8f3"/>
      <path id="Path_36" data-name="Path 36" d="M270.926,66.766c29.866-1,59.971-.009,89.86.042q108.733.48,217.466-.161c32.435-.486,58.1-.161,82.981,24.184a83.974,83.974,0,0,1,24.5,47.281c1.451,9.047,1.258,18.365,1.264,27.5l-.007,30.319,0,104.452.348,386.672c-9.649-4.408-18.725-10.08-28.294-14.685-15.454-7.439-31.361-12.786-47.731-17.757,7.319-20.452,10.785-31.832,3.379-53.111-2.052-5.9-3.847-12.081-3.179-18.4.875-8.272,4.926-15.159,8.42-22.518a63.787,63.787,0,0,0,6.407-29.262,60.648,60.648,0,0,0-2.524-15.733c-3.083-10.216-8.329-19.615-7.419-30.635,1.571-19.014,17.187-29.977,17.25-52.206.07-24.661-16.122-35.81-19.178-57.158-1.466-10.238,1.975-19.078,4.029-28.885a74.489,74.489,0,0,0,.587-28.254c-1.6-9.1-5.679-17.82-12.694-24.025-1.855-1.64-4.5-2.983-5.8-5.115-1.6-2.613-2.642-5.887-3.825-8.725q-2.887-7.03-6.177-13.885a154.914,154.914,0,0,0-278.33-3.855,133.376,133.376,0,0,0-6.067,13.957c-1.451,3.852-2.726,8.2-4.774,11.763-1.566,2.727-4.1,4.714-6.363,6.824a40.384,40.384,0,0,0-12.321,22.047,68.565,68.565,0,0,0,.153,25.6c2.306,12.314,6.536,23.292,4.08,36.059-2.636,13.7-12.343,24.232-16.607,37.258a51.053,51.053,0,0,0,2.627,37.5c2.322,4.817,5.376,9.253,7.768,14.033,12.5,24.978-5.965,42.624-5.131,67.427a61.57,61.57,0,0,0,4.127,20.328c4.826,12.492,13.148,23.022,10.58,37.242-1.069,5.918-4.045,11.231-5.9,16.908-5.474,16.717.345,32.028,7.96,46.916-39.335,11.314-79.612,31.472-104.229,65.309-.316-15.684-.071-31.406-.064-47.1l.033-85.789.049-257.471V202.8l-.084-34.148c-.075-10.02-.489-20.244.841-30.2a82.7,82.7,0,0,1,20.09-43.2C225.12,77.247,247.088,68.14,270.926,66.766Z" transform="translate(-12.252 -0.306)" fill="#fefefe"/>
      <path id="Path_37" data-name="Path 37" d="M317.383,112.743a16.49,16.49,0,1,1-12.837,19.37A16.491,16.491,0,0,1,317.383,112.743Z" transform="translate(-21.398 -3.931)" fill="#f8aa8c"/>
      <path id="Path_38" data-name="Path 38" d="M258.028,112.775a16.369,16.369,0,1,1-13.246,9.816A16.369,16.369,0,0,1,258.028,112.775Z" transform="translate(-16.617 -3.952)" fill="#4666c9"/>
      <path id="Path_39" data-name="Path 39" d="M378.3,113.2a16.261,16.261,0,1,1-12.259,19.33A16.261,16.261,0,0,1,378.3,113.2Z" transform="translate(-26.231 -3.961)" fill="#f57a3e"/>
      <path id="Path_40" data-name="Path 40" d="M451.2,190.513c22.985-1.155,47.01,4.011,67.948,13.355A155.258,155.258,0,0,1,593.017,272.7c4.906,9.251,8.649,19.019,12.389,28.78,19.329,13.456,22.244,33.078,17.511,55.106-2.022,9.411-5.284,17.793-4.2,27.623,1.607,14.533,10.558,25.35,15.719,38.51,5.726,14.6,4.48,30.162-2.749,43.986-4.5,8.6-9.811,16.98-10.778,26.868-1.62,16.563,9.128,30.35,9.722,47.909.434,12.824-3.489,22.429-8.984,33.668-2.4,4.9-4.638,9.866-5.363,15.326-1.058,7.96.588,14.864,3.133,22.357,6.768,19.93,4.13,32.017-4.128,51.022-24.069-6.6-48.4-9.459-73.247-11.175l.037-122.526c17.737-24.975,28.619-46.022,34.954-76.327,4.5-21.543,3.124-41.021,3.461-62.681.109-7.048,1.66-17.344-.239-24-1.964-6.884-8.268-16.68-11.881-23.248-9.594-17.439-19.13-35.473-30.012-52.129-.032.025-.063.05-.1.074-3.271,2.358-5.346,6.067-8.184,8.906a31.318,31.318,0,0,1-14.86,8.135c-8.289,2.007-17.364,1.1-25.824,1.051l-29.49-.032c-14.988,0-30.046.421-45.022.161-10.136-.175-20.737-1.9-27.851-9.854-2.411-2.7-4.169-5.882-6.719-8.474-.107-.109-.218-.215-.326-.323-3.512,4.562-6.4,9.715-9.384,14.632q-7.266,11.98-14.383,24.048c-5.48,9.264-13.189,20.806-17.44,30.368a21.663,21.663,0,0,0-1.8,7.706c-.6,9.828.173,19.928.217,29.783.058,12.595-.46,25.246.667,37.811,3,33.46,16.431,73.154,39.107,98.406l.208,73.176c.015,12.8-1.835,37,1.514,48.443a247.942,247.942,0,0,0-76.079,9.858c-10.348-16.409-13.168-31.878-6.6-50.2,2.83-7.9,5.566-15.451,4.334-23.979-.9-6.2-3.48-11.651-6.2-17.223-5.379-11.015-9.143-21.1-8.734-33.588.536-16.35,10.924-30.824,9.607-47.34-1.6-20.1-17.712-30.625-17.124-53.35.546-21.143,18.285-35.966,19.6-56.9.782-12.5-4.375-24.357-5.352-36.726-1.021-12.917.368-27.721,9.981-37.392,3.432-3.454,7.409-6.363,9.644-10.815,2.674-5.331,4.089-11.329,6.446-16.828,6.025-14.055,14.694-26.949,24.608-38.54a150.322,150.322,0,0,1,81.825-48.763A194.064,194.064,0,0,1,451.2,190.513Z" transform="translate(-19.326 -10.063)" fill="#f8aa8c"/>
      <path id="Path_41" data-name="Path 41" d="M469.943,208.382a90.289,90.289,0,0,1,10.845.892,139.786,139.786,0,0,1,64.533,25.067c19.126,13.595,34.189,30.713,46.04,50.924,2.63,4.485,5.955,9.605,6.834,14.778-2.495.157-3.409-.363-4.934-2.394-2.883-3.837-4.508-9.307-6.959-13.541a142.3,142.3,0,0,0-87.418-67.291,114.3,114.3,0,0,0-13.794-3.139c-2.937-.432-12.31-.458-14.208-2.088C469.863,210.715,470.043,209.6,469.943,208.382Z" transform="translate(-34.435 -11.482)" fill="#fefefe"/>
      <path id="Path_42" data-name="Path 42" d="M543.245,304.728c4.32,8.987,9.817,17.4,14.809,26.018,5.4,9.327,10.424,18.862,15.66,28.278,3.4,6.119,8.234,11.63,9.421,18.721,1.021,6.1.267,12.589.188,18.741q-.081,13.955,0,27.911c.041,49.137-18.028,93.979-52.794,128.811-13.284,12.44-29.515,22.124-47.3,26.375-23.752,5.677-49.418.557-70.03-12.226-34.676-21.507-54.949-60.806-63.886-99.535a166.769,166.769,0,0,1-3.979-26.6c-.942-12.28-.31-24.69-.316-36.995,0-8.319-1.626-24.277.768-31.8,2.51-7.884,8.5-15.468,12.739-22.6q13.187-22.614,26.937-44.893a49.923,49.923,0,0,0,7.876,8.948,29.441,29.441,0,0,0,12.371,6.32c8.261,1.734,17.066,1.114,25.463,1.108l31.781-.017,32.98.026c6.567.006,13.3.3,19.835-.25C528.234,320.019,535.4,313.955,543.245,304.728Z" transform="translate(-24.564 -19.061)" fill="#fefefe"/>
      <path id="Path_43" data-name="Path 43" d="M410.317,393.359a9.736,9.736,0,1,1-7.079,11.851A9.737,9.737,0,0,1,410.317,393.359Z" transform="translate(-29.163 -26.011)"/>
      <path id="Path_44" data-name="Path 44" d="M537.551,393.391a9.631,9.631,0,1,1-8.028,11A9.631,9.631,0,0,1,537.551,393.391Z" transform="translate(-39.113 -26.027)"/>
      <path id="Path_45" data-name="Path 45" d="M402.892,368.843c6.388-.46,13.069.391,19.4,1.34,3.584.538,12.227,1.522,14.473,4.566a5.207,5.207,0,0,1-3.451.586c-3.557-.189-7.176-1.361-10.667-2.07-4-.812-8.015-1.336-12.065-1.8-7-.068-14.113.15-20.962,1.759-2.924.687-5.725,1.827-8.659,2.466-1.411.308-3.733.938-5.006.106l.315-.77C380.91,370.708,396.4,369.362,402.892,368.843Z" transform="translate(-27.041 -24.095)"/>
      <path id="Path_46" data-name="Path 46" d="M451.818,412.776a11.383,11.383,0,0,1,4.724,3.17c12.559,12.313,8.534,41.156,8.856,57.874.241,12.508,8.655,5.219,12.933,9.362l.006.849c-3.469.342-7.318.836-10.543-.815a6.3,6.3,0,0,1-3.4-4.181c-1.394-4.5-.966-9.674-.88-14.337.174-9.468,1.337-23.117-.581-32.234C460.779,422.215,454.252,419.641,451.818,412.776Z" transform="translate(-33.009 -27.561)"/>
      <path id="Path_47" data-name="Path 47" d="M536.211,369.263c7.986-.847,24.249,1.213,31.229,5.04a2.712,2.712,0,0,1,1.386,1.842l-.637.531c-4.022.056-8.849-2.177-12.824-3.143a76.874,76.874,0,0,0-10.027-1.615c-12.415-.783-21.53,1.979-33.349,3.47a2.6,2.6,0,0,1-2.4-.485l.442-.77C515.45,370.157,529.435,369.859,536.211,369.263Z" transform="translate(-37.554 -24.123)"/>
      <path id="Path_48" data-name="Path 48" d="M442.4,513.242c2.831,1.537,4.973,6.61,6.958,9.189,4.185,5.44,12.59,8.94,19.282,9.77,10.04,1.244,20.977-2.685,27.433-10.591,1.858-2.276,3.067-5.474,5.377-7.279l.675.1.3,1.093a45.614,45.614,0,0,1-6.811,9.508,32.491,32.491,0,0,1-23.35,9.209,35.186,35.186,0,0,1-24.534-10.129C444.884,521.209,442.389,517.425,442.4,513.242Z" transform="translate(-32.268 -35.465)"/>
      <path id="Path_49" data-name="Path 49" d="M532.5,694.3c6.685,1.4,13.659,1.417,20.452,1.974,7.114.584,14.246,1.561,21.3,2.649a300.8,300.8,0,0,1,80.29,23.688c11.234,5.184,22.033,11.195,32.893,17.109v63.759c-14.957-.3-29.958-.063-44.919-.059l-81.719,0-252.15,0-120.441-.179q-.082-13.3.019-26.6c4.163-6.942,10.431-13.8,16.168-19.515,32.657-32.543,87.258-52,132.215-57.555,12.075-1.492,24.45-1.64,36.608-1.648a101.817,101.817,0,0,0,12.027,12.393c20.518,17.624,48.122,25.5,74.895,23.288a101.224,101.224,0,0,0,60.233-26.088A148.842,148.842,0,0,0,532.5,694.3Z" transform="translate(-12.268 -49.709)" fill="#4666c9"/>
      <path id="Path_50" data-name="Path 50" d="M547.053,563.69c1.442,1.546.846,105.93.846,116.28a103.6,103.6,0,0,1-31.112,28,100.156,100.156,0,0,1-76.221,9.632c-17.976-4.771-41.4-17.386-50.934-33.821-3.094-8.685-1.263-35.68-1.238-46.063l.288-70.211c4.186,3.846,8,8.093,12.265,11.846,19.474,17.144,45.715,27.059,71.767,25.32C502.646,602.675,527.833,585.719,547.053,563.69Z" transform="translate(-27.975 -39.434)" fill="#fefefe"/>
      <path id="Path_51" data-name="Path 51" d="M734.124,601.214c27.4-.7,50.148,4.729,71,23.487a83.937,83.937,0,0,1,27.691,58.919c1.161,25.682-8.8,47.675-25.85,66.431q-1.22,1.268-2.539,2.434c-20.959,18.565-43.312,23.547-70.548,22l-.023-125c0-8.737.069-17.479-.054-26.216C733.7,616.151,732.774,608.206,734.124,601.214Z" transform="translate(-55.161 -42.381)" fill="#fefefe"/>
      <path id="Path_52" data-name="Path 52" d="M179.406,707.6a83.737,83.737,0,0,1-15.419-6.158,71.53,71.53,0,0,1-34.024-42.38,74.067,74.067,0,0,1,49.447-91.47l.04,18.723-.025,63.468c.006,13.326-.226,26.7.127,40.018Q179.623,698.7,179.406,707.6Z" transform="translate(-7.457 -39.741)" fill="#fefefe"/>
      <path id="Path_53" data-name="Path 53" d="M180.885,587.917l-.025,63.468c.006,13.326-.226,26.7.127,40.018q-1.31-.553-2.6-1.161c-13.615-6.455-24.9-16.828-30.024-31.249a57.445,57.445,0,0,1,2.553-43.441C157,603.081,167.676,592.536,180.885,587.917Z" transform="translate(-8.892 -41.34)" fill="#f57a3e"/>
      <path id="Path_54" data-name="Path 54" d="M76.586,218.875A38.663,38.663,0,1,1,40.8,260.237,38.662,38.662,0,0,1,76.586,218.875Z" transform="translate(-0.666 -12.299)"/>
      <path id="Path_55" data-name="Path 55" d="M75.257,220.658a37.154,37.154,0,1,1-32.61,41.027A37.154,37.154,0,0,1,75.257,220.658Z" transform="translate(-0.801 -12.427)" fill="#fefefe"/>
      <path id="Path_56" data-name="Path 56" d="M77.864,237.83a21.45,21.45,0,1,1-18.351,24.142A21.45,21.45,0,0,1,77.864,237.83Z" transform="translate(-2.131 -13.783)" fill="#f57a3e"/>
      <path id="Path_57" data-name="Path 57" d="M733.889,197.206c7.794-8.655,16.209-16.653,24.375-24.942,5.116-5.195,10.105-11.166,15.853-15.636,2.013-1.566,4.595-3.193,7.182-3.429,3.255-.3,7.832,3.6,10.109,5.711,4.383,4.064,15.226,14.46,18.183,19a14.332,14.332,0,0,1,2.687,7.56,9.545,9.545,0,0,1-2.175,6.021c-5.386,7.317-15.154,16.135-21.727,22.82L759.94,243.405c-8.626,8.694-17.514,17.236-25.682,26.364-.565-9.4-.333-18.892-.349-28.308Z" transform="translate(-55.198 -7.139)" fill="#f8aa8c"/>
      <path id="Path_58" data-name="Path 58" d="M786.462,447.413c13.046-.484,26.229-.106,39.291-.112q9.567,17.636,19.62,35-.305.608-.624,1.21c-1.805,3.366-17.915,31.505-19.256,32.317a4.517,4.517,0,0,1-1.047.323c-8.654-.608-17.609-.146-26.294-.107-3.639.016-7.817.462-11.351-.356-3.808-3.195-16.664-26.977-20.332-33.279C772.679,470.534,779.89,459.107,786.462,447.413Z" transform="translate(-57.762 -30.267)"/>
      <path id="Path_59" data-name="Path 59" d="M787.791,449.035l37.23-.006c5.962,11.276,12.387,22.35,18.631,33.473-2.383,4.856-5.363,9.49-8.1,14.157-3.562,6.078-7,12.246-10.964,18.073l-37.2-.009c-6.713-10.6-12.77-21.485-18.87-32.443C774.929,471.163,780.721,459.758,787.791,449.035Z" transform="translate(-57.924 -30.413)" fill="#fefefe"/>
      <path id="Path_60" data-name="Path 60" d="M805.256,464.725a18.5,18.5,0,1,1-15.879,20.767A18.5,18.5,0,0,1,805.256,464.725Z" transform="translate(-59.552 -31.635)" fill="#f57a3e"/>
      <path id="Path_61" data-name="Path 61" d="M131.115,405.6l.326.37a9.279,9.279,0,0,1-2.5,3.447c-7.656,8.05-15.778,15.639-23.648,23.474q-19.874,20.145-40.037,40-9.559,9.431-18.925,19.053c-4.377,4.462-8.706,9.158-13.5,13.174l-.592-.555c1.121-3.07,17.37-17.592,20.7-20.891L105.5,430.83C113.233,423.034,122.54,412.067,131.115,405.6Z" transform="translate(0 -26.996)" fill="#eaeaea"/>
      <path id="Path_62" data-name="Path 62" d="M83.328,514.736l.327.453c-3.312,5.447-28.96,29.5-34.721,34.828l-.4-.6C50.313,545.427,78.541,518.483,83.328,514.736Z" transform="translate(-1.283 -35.582)" fill="#eaeaea"/>
      <path id="Path_63" data-name="Path 63" d="M151.046,447.643a2.894,2.894,0,0,1,.424.652c-4.831,6.185-11.135,11.785-16.713,17.328-5,4.971-9.964,10.507-15.478,14.885l-.455-.66C120.8,475.765,146.622,450.718,151.046,447.643Z" transform="translate(-6.812 -30.304)" fill="#eaeaea"/>
      <path id="Path_64" data-name="Path 64" d="M55.78,525.3l.444-.128c.634.778.266,2.522.209,3.557C55.738,527.881,55.865,526.4,55.78,525.3Z" transform="translate(-1.853 -36.403)"/>
    </g>
  </g>
</svg>
