<?xml version="1.0" encoding="utf-8" ?><svg xmlns="http://www.w3.org/2000/svg" xmlns:xlink="http://www.w3.org/1999/xlink" width="880" height="880" viewBox="0 0 880 880"><path transform="scale(0.859375 0.859375)" d="M452.446 598.585C451.882 547.856 452.472 497.034 452.505 446.297L452.477 405.461C452.431 396.29 451.596 386.191 453.201 377.154C454.884 367.349 459.492 358.282 466.419 351.141C477.25 339.765 490.433 336.251 505.741 335.973C558.352 335.019 611.15 335.865 663.778 335.868L709.002 335.841C719.832 335.795 730.861 334.933 741.577 336.898C750.559 338.546 759.039 343.435 765.527 349.777C772.332 356.416 777.128 364.84 779.363 374.08C782.879 388.619 781.032 403.946 781.05 418.752L781.498 478.933C805.664 469.945 831.69 470.081 855.243 480.951C877.585 491.261 894.757 511.502 903.005 534.53C912.864 562.052 907.436 588.495 895.715 614.284C915.574 627.863 929.273 647.926 933.722 671.657C938.664 697.691 932.965 724.619 917.901 746.42C902.376 768.951 877.101 783.246 850.446 787.998C842.48 789.418 834.291 789.599 826.219 789.425C826.062 806.764 825.769 824.16 826.2 841.496C845.742 841.485 865.487 840.943 885.004 841.833C881.466 851.682 878.551 861.817 875.285 871.768L853.826 937.191C875.681 937.321 897.536 937.332 919.391 937.224C930.811 937.2 942.348 936.622 953.748 937.292C955.184 937.376 956.794 937.434 957.98 938.321L957.697 938.901C951.42 940.705 943.742 939.608 937.25 939.58L911.978 939.586L789.513 939.604L228.741 939.593L112.495 939.607C97.3897 939.604 82.0334 940.538 66.9692 940.044C65.0527 939.981 63.3768 939.733 61.5841 939.024L61.0251 938.401L61.3926 937.671C64.8455 936.799 69.3982 937.049 72.9874 937.036C80.5216 913.496 86.6682 889.413 94.6176 866.029C102.214 842.071 109.63 818.057 116.865 793.987C123.799 771.203 129.014 746.592 141.892 726.3C156.82 702.777 183.334 681.377 210.936 675.237C211.201 674.591 211.534 673.962 211.838 673.333C216.112 670.962 231.483 672.168 236.506 673.231C243.868 672.744 251.363 673.088 258.743 673.174C258.18 659.886 259.709 646.474 258.443 633.185C257.053 632.502 255.702 631.742 254.397 630.91C251.217 628.859 247.843 625.283 247.104 621.448C244.896 609.996 259.974 605.82 262.114 601.768C262.215 601.577 262.269 601.365 262.347 601.163C261.981 588.943 262.43 576.698 271.315 567.305C277.799 560.45 286.363 557.775 295.598 557.638C305.117 557.497 314.759 560.327 321.697 567.077C331.352 576.47 331.593 588.732 331.669 601.347C331.794 601.453 331.908 601.573 332.044 601.666C336.045 604.404 347.187 603.212 349.259 608.076C348.735 609.143 348.289 609.453 347.131 609.808C344.612 610.582 341.818 610.308 339.301 609.72C337.539 609.308 336.12 609.41 334.565 610.397C333.734 610.925 333.664 611.359 333.226 612.205C333.31 619.333 348.918 629.577 342.806 636.105C340.07 639.026 333.539 638.559 329.848 638.461C327.365 645.553 322.149 651.357 315.363 654.582C312.102 656.165 308.679 657.019 305.149 657.758C304.718 662.986 305.154 668.311 304.591 673.492C312.457 673.347 320.704 672.886 328.525 673.513C328.638 673.322 328.755 673.133 328.866 672.94C329.286 672.208 329.614 671.476 329.945 670.701C332.813 669.64 348.229 669.375 350.929 670.742C351.46 671.01 351.37 671.436 351.478 671.98C351.684 673.02 351.8 674.017 351.88 675.074C375.274 681.766 393.744 694.83 405.703 716.352C410.288 724.606 413.249 733.279 415.414 742.446C416.402 746.627 417.053 751.086 418.539 755.113C424.034 741.509 427.911 726.449 431.611 712.241C429.27 705.01 418.077 672.79 418.095 669.039C418.097 668.54 418.382 667.919 418.603 667.481C420.766 663.199 426.643 660.179 431.023 658.669C431.081 647.697 431.071 636.725 430.993 625.754C430.96 619.849 430.529 613.715 431.121 607.84C431.341 605.647 431.711 602.202 433.352 600.56C437.142 596.765 447.387 598.308 452.446 598.585ZM149.974 887.092C142.842 903.482 137.373 920.737 129.918 936.934C147.1 937.067 164.293 936.839 181.472 937.14C180.907 920.622 181.34 903.942 181.255 887.402C181.188 874.366 180.414 860.834 181.37 847.859C181.39 834.414 180.952 820.971 180.979 807.533C176.244 821.809 170.356 835.718 165.014 849.777C160.553 861.519 155.805 876.244 149.974 887.092ZM782.022 841.503C795.986 841.5 809.998 841.246 823.956 841.544L823.963 808.259C823.964 801.851 824.236 795.257 823.749 788.87C809.12 788.153 795.432 786.051 781.755 780.559C782.018 800.86 781.448 821.214 782.022 841.503Z"/><path fill="#63B6FF" transform="scale(0.859375 0.859375)" d="M262.347 601.163C261.981 588.943 262.43 576.698 271.315 567.305C277.799 560.45 286.363 557.775 295.598 557.638C305.117 557.497 314.759 560.327 321.697 567.077C331.352 576.47 331.593 588.732 331.669 601.347C331.794 601.453 331.908 601.573 332.044 601.666C336.045 604.404 347.187 603.212 349.259 608.076C348.735 609.143 348.289 609.453 347.131 609.808C344.612 610.582 341.818 610.308 339.301 609.72C337.539 609.308 336.12 609.41 334.565 610.397C333.734 610.925 333.664 611.359 333.226 612.205C333.31 619.333 348.918 629.577 342.806 636.105C340.07 639.026 333.539 638.559 329.848 638.461C327.365 645.553 322.149 651.357 315.363 654.582C312.102 656.165 308.679 657.019 305.149 657.758C304.718 662.986 305.154 668.311 304.591 673.492C312.457 673.347 320.704 672.886 328.525 673.513C328.638 673.322 328.755 673.133 328.866 672.94C329.286 672.208 329.614 671.476 329.945 670.701C332.813 669.64 348.229 669.375 350.929 670.742C351.46 671.01 351.37 671.436 351.478 671.98C351.684 673.02 351.8 674.017 351.88 675.074C375.274 681.766 393.744 694.83 405.703 716.352C410.288 724.606 413.249 733.279 415.414 742.446C416.402 746.627 417.053 751.086 418.539 755.113C417.832 761.159 415.198 767.706 413.334 773.524C404.826 775.347 383.951 789.141 379.277 796.486C376.937 800.165 375.957 804.736 374.787 808.899C372.829 812.632 373.343 816.533 374.201 820.528C371.736 825.665 374.09 840.183 374.027 846.646C375.652 856.607 374.549 868.715 374.497 878.945C374.294 898.146 374.303 917.349 374.522 936.55C378.207 936.627 382.094 936.466 385.743 936.909C364.473 937.834 342.816 936.994 321.513 936.984L181.472 937.14C180.907 920.622 181.34 903.942 181.255 887.402C181.188 874.366 180.414 860.834 181.37 847.859C181.39 834.414 180.952 820.971 180.979 807.533C176.244 821.809 170.356 835.718 165.014 849.777C160.553 861.519 155.805 876.244 149.974 887.092C148.912 886.745 148.037 886.563 146.921 886.494C141.92 883.884 136.167 882.301 130.837 880.45C119.488 876.509 107.809 872.802 96.9514 867.643L94.6176 866.029C102.214 842.071 109.63 818.057 116.865 793.987C123.799 771.203 129.014 746.592 141.892 726.3C156.82 702.777 183.334 681.377 210.936 675.237C211.201 674.591 211.534 673.962 211.838 673.333C216.112 670.962 231.483 672.168 236.506 673.231C243.868 672.744 251.363 673.088 258.743 673.174C258.18 659.886 259.709 646.474 258.443 633.185C257.053 632.502 255.702 631.742 254.397 630.91C251.217 628.859 247.843 625.283 247.104 621.448C244.896 609.996 259.974 605.82 262.114 601.768C262.215 601.577 262.269 601.365 262.347 601.163Z"/><path fill="#FF4662" transform="scale(0.859375 0.859375)" d="M210.936 675.237L210.91 736.472C211.082 770.447 215.669 815.216 189.359 841.374C186.944 843.775 184.205 845.972 181.37 847.859C181.39 834.414 180.952 820.971 180.979 807.533C176.244 821.809 170.356 835.718 165.014 849.777C160.553 861.519 155.805 876.244 149.974 887.092C148.912 886.745 148.037 886.563 146.921 886.494C141.92 883.884 136.167 882.301 130.837 880.45C119.488 876.509 107.809 872.802 96.9514 867.643L94.6176 866.029C102.214 842.071 109.63 818.057 116.865 793.987C123.799 771.203 129.014 746.592 141.892 726.3C156.82 702.777 183.334 681.377 210.936 675.237Z"/><path transform="scale(0.859375 0.859375)" d="M262.347 601.163C261.981 588.943 262.43 576.698 271.315 567.305C277.799 560.45 286.363 557.775 295.598 557.638C305.117 557.497 314.759 560.327 321.697 567.077C331.352 576.47 331.593 588.732 331.669 601.347C331.794 601.453 331.908 601.573 332.044 601.666C336.045 604.404 347.187 603.212 349.259 608.076C348.735 609.143 348.289 609.453 347.131 609.808C344.612 610.582 341.818 610.308 339.301 609.72C337.539 609.308 336.12 609.41 334.565 610.397C333.734 610.925 333.664 611.359 333.226 612.205C333.31 619.333 348.918 629.577 342.806 636.105C340.07 639.026 333.539 638.559 329.848 638.461C327.365 645.553 322.149 651.357 315.363 654.582C312.102 656.165 308.679 657.019 305.149 657.758C304.718 662.986 305.154 668.311 304.591 673.492C312.457 673.347 320.704 672.886 328.525 673.513L329.257 675.916C324.698 676.135 320.08 676.018 315.513 676.048C315.599 689.32 315.278 703.749 307.097 714.924C302.349 721.409 295.448 725.602 287.471 726.704C278.865 727.893 269.579 726.102 262.606 720.744C248.606 709.985 249.338 691.658 247.398 675.837C243.214 675.8 237.595 676.33 233.675 674.76C234.587 673.678 235.191 673.572 236.506 673.231C243.868 672.744 251.363 673.088 258.743 673.174C258.18 659.886 259.709 646.474 258.443 633.185C257.053 632.502 255.702 631.742 254.397 630.91C251.217 628.859 247.843 625.283 247.104 621.448C244.896 609.996 259.974 605.82 262.114 601.768C262.215 601.577 262.269 601.365 262.347 601.163Z"/><path fill="#FF4662" transform="scale(0.859375 0.859375)" d="M262.347 601.163C261.981 588.943 262.43 576.698 271.315 567.305C277.799 560.45 286.363 557.775 295.598 557.638C305.117 557.497 314.759 560.327 321.697 567.077C331.352 576.47 331.593 588.732 331.669 601.347C327.832 599.871 322.606 600.486 318.511 600.529C318.562 594.988 317.755 589.822 314.127 585.407C311.301 581.935 307.19 579.753 302.731 579.356C298.292 578.946 293.878 580.37 290.516 583.297C285.055 588.024 284.294 594.203 283.887 600.942C276.707 600.693 269.52 600.767 262.347 601.163Z"/><path fill="#FEFEFE" transform="scale(0.859375 0.859375)" d="M273.554 603.27C292.176 602.515 310.933 603.187 329.558 603.54C329.81 610.301 330.187 617.12 329.999 623.883C329.752 632.783 327.964 640.999 321.076 647.298C314.566 653.252 305.48 655.472 296.876 654.056C294.027 653.587 291.194 652.552 288.309 652.433L288.468 653.231C292.19 656.667 297.143 657.286 301.985 657.837C302.05 663.73 302.149 669.622 302.283 675.513C305.955 675.726 309.648 675.765 313.325 675.868C313.937 688.393 312.603 700.758 306.208 711.755C305.114 713.326 303.867 714.916 302.528 716.29C297.336 721.619 290.436 724.441 283.023 724.53C275.044 724.627 267.38 722.238 261.685 716.406C251.572 706.051 250.497 689.642 250.498 675.993L261.034 675.986C261.036 668.154 259.348 640.833 261.454 634.809C262.384 633.618 263.425 633.488 264.817 633.138L265.419 632.992L265.779 632.368C262.834 629.537 257.667 630.547 254.229 628.224C252.224 626.87 250.954 624.94 250.588 622.539C248.151 606.592 259.36 612.276 264.976 604.376C265.096 604.207 265.211 604.033 265.329 603.861C267.819 603.012 270.932 603.314 273.554 603.27Z"/><path transform="scale(0.859375 0.859375)" d="M287.501 613.796C288.651 613.377 289.936 613.609 290.868 614.402C291.799 615.195 292.232 616.427 292.002 617.628C291.772 618.83 290.915 619.815 289.756 620.208C287.993 620.807 286.076 619.874 285.458 618.117C284.84 616.36 285.751 614.433 287.501 613.796Z"/><path transform="scale(0.859375 0.859375)" d="M258.969 615.775C260.626 615.091 262.527 615.843 263.266 617.476C264.005 619.11 263.316 621.035 261.708 621.828C260.619 622.364 259.325 622.265 258.331 621.568C257.337 620.872 256.802 619.689 256.935 618.483C257.068 617.277 257.847 616.239 258.969 615.775Z"/><path transform="scale(0.859375 0.859375)" d="M315.216 613.776C316.265 613.189 317.55 613.218 318.571 613.852C319.592 614.486 320.188 615.625 320.126 616.826C320.065 618.026 319.356 619.098 318.275 619.625C316.669 620.407 314.732 619.77 313.904 618.187C313.076 616.604 313.657 614.649 315.216 613.776Z"/><path transform="scale(0.859375 0.859375)" d="M302.386 618.707C302.747 618.936 303.237 619.206 303.535 619.535C305.627 621.837 305.383 626.95 305.224 629.835C304.622 629.553 304.146 629.257 303.695 628.746C301.52 626.283 302.161 621.755 302.386 618.707Z"/><path transform="scale(0.859375 0.859375)" d="M303.865 633.207C305.087 633.209 306.464 633.108 307.651 633.41C308.55 633.638 308.632 633.689 309.143 634.491C308.011 635.561 306.702 635.511 305.232 635.657C303.494 635.727 301.482 635.973 299.83 635.343C298.764 634.937 299.086 635.23 298.676 634.274C300.214 633.204 302.059 633.31 303.865 633.207Z"/><path fill="#FF4662" transform="scale(0.859375 0.859375)" d="M351.88 675.074C375.274 681.766 393.744 694.83 405.703 716.352C410.288 724.606 413.249 733.279 415.414 742.446C416.402 746.627 417.053 751.086 418.539 755.113C417.832 761.159 415.198 767.706 413.334 773.524C404.826 775.347 383.951 789.141 379.277 796.486C376.937 800.165 375.957 804.736 374.787 808.899C372.829 812.632 373.343 816.533 374.201 820.528C371.736 825.665 374.09 840.183 374.027 846.646C370.81 843.856 368.112 840.948 365.735 837.402C346.644 808.908 351.631 750.137 351.551 716.336L351.447 689.972C351.43 685.238 350.936 679.701 351.88 675.074Z"/><path fill="#FF4662" transform="scale(0.859375 0.859375)" d="M233.675 674.76C237.595 676.33 243.214 675.8 247.398 675.837C249.338 691.658 248.606 709.985 262.606 720.744C269.579 726.102 278.865 727.893 287.471 726.704C295.448 725.602 302.349 721.409 307.097 714.924C315.278 703.749 315.599 689.32 315.513 676.048C320.08 676.018 324.698 676.135 329.257 675.916C328.267 682.96 328.941 690.713 328.954 697.841C328.987 714.732 329.424 731.753 328.924 748.628C328.808 752.528 328.82 759.099 325.844 761.917C323.86 762.658 321.942 763.017 319.833 763.127C307.012 763.798 293.835 762.967 280.979 762.952C271.25 762.941 243.293 764.393 235.813 762.386C234.099 760.81 233.841 758.43 233.624 756.173C232.914 748.757 233.673 740.965 233.826 733.501C233.954 721.838 234.009 710.174 233.99 698.51C234.002 690.876 234.415 682.986 233.736 675.389L233.675 674.76Z"/><path transform="scale(0.859375 0.859375)" d="M251.748 797.73C275.251 796.989 298.895 797.805 322.413 797.926C322.272 811.084 322.509 824.263 322.6 837.423C322.66 846.191 323.227 855.311 321.671 863.971C319.489 876.121 313.315 885.508 303.196 892.469C295.966 896.752 288.514 899.53 280.017 899.503C269.522 899.469 258.482 894.961 251.096 887.479C245.982 882.299 242.405 875.555 240.69 868.499C237.974 857.323 239.342 844.706 239.438 833.266L239.503 798.015L251.748 797.73Z"/><path fill="#63B6FF" transform="scale(0.859375 0.859375)" d="M242.135 800.605C267.914 800.409 293.72 800.753 319.503 800.812C319.463 810.042 319.488 819.272 319.577 828.502C319.747 841.307 321.365 855.983 317.788 868.341C315.851 875.035 312.493 880.407 307.815 885.506C307.291 886.024 306.751 886.527 306.196 887.012C298.154 894.106 287.28 897.201 276.704 896.447C267.063 895.759 257.965 891.468 251.662 884.082C238.24 868.353 241.696 845.286 241.999 826.142C242.135 817.62 241.449 809.119 242.135 800.605Z"/><path transform="scale(0.859375 0.859375)" d="M336.421 762.74C338.238 762.039 340.293 762.386 341.778 763.645C343.264 764.904 343.943 766.874 343.55 768.782C343.156 770.689 341.752 772.228 339.889 772.796C337.149 773.631 334.24 772.148 333.307 769.44C332.373 766.733 333.75 763.772 336.421 762.74Z"/><path fill="#FEFEFE" transform="scale(0.859375 0.859375)" d="M336.824 765.26C337.714 764.712 338.832 764.692 339.741 765.208C340.65 765.724 341.206 766.695 341.191 767.74C341.177 768.785 340.594 769.739 339.671 770.23C338.305 770.956 336.61 770.467 335.84 769.124C335.071 767.782 335.507 766.071 336.824 765.26Z"/><path transform="scale(0.859375 0.859375)" d="M221.076 762.755C223.692 761.715 226.658 762.975 227.724 765.581C228.79 768.187 227.559 771.165 224.963 772.257C222.332 773.364 219.303 772.111 218.222 769.469C217.141 766.827 218.423 763.811 221.076 762.755Z"/><path fill="#D9E3F0" transform="scale(0.859375 0.859375)" d="M222.189 764.832C223.628 764.543 225.048 765.407 225.452 766.819C225.856 768.23 225.109 769.715 223.734 770.231C222.742 770.603 221.624 770.387 220.842 769.671C220.06 768.954 219.747 767.86 220.031 766.838C220.315 765.817 221.149 765.042 222.189 764.832Z"/><path transform="scale(0.859375 0.859375)" d="M338.296 741.272C339.879 741.586 341.391 742.076 342.538 743.264C343.656 744.421 344.156 745.914 343.999 747.525C343.757 750.022 342.334 751.332 340.45 752.794C338.732 752.593 336.955 752.339 335.725 750.981C334.675 749.819 334.271 748.539 334.457 746.979C334.777 744.304 336.301 742.897 338.296 741.272Z"/><path fill="#FEFEFE" transform="scale(0.859375 0.859375)" d="M337.603 744.809C338.443 744.301 339.492 744.29 340.343 744.781C341.193 745.271 341.709 746.185 341.691 747.167C341.672 748.148 341.12 749.042 340.252 749.499C338.963 750.178 337.367 749.709 336.651 748.44C335.934 747.171 336.356 745.563 337.603 744.809Z"/><path transform="scale(0.859375 0.859375)" d="M220.63 741.793C223.237 740.809 226.152 742.096 227.181 744.685C228.211 747.274 226.976 750.211 224.405 751.286C222.701 751.998 220.746 751.736 219.29 750.599C217.835 749.463 217.106 747.63 217.383 745.804C217.661 743.978 218.902 742.445 220.63 741.793Z"/><path fill="#FEFEFE" transform="scale(0.859375 0.859375)" d="M221.397 744.17C222.314 743.821 223.348 744.002 224.092 744.641C224.836 745.281 225.171 746.276 224.963 747.235C224.756 748.194 224.04 748.963 223.098 749.238C221.72 749.64 220.27 748.883 219.813 747.522C219.355 746.16 220.055 744.681 221.397 744.17Z"/><path fill="#63B6FF" transform="scale(0.859375 0.859375)" d="M781.498 478.933C805.664 469.945 831.69 470.081 855.243 480.951C877.585 491.261 894.757 511.502 903.005 534.53C912.864 562.052 907.436 588.495 895.715 614.284C915.574 627.863 929.273 647.926 933.722 671.657C938.664 697.691 932.965 724.619 917.901 746.42C902.376 768.951 877.101 783.246 850.446 787.998C842.48 789.418 834.291 789.599 826.219 789.425C827.07 778.409 826.512 766.979 826.514 755.918L826.504 695.489C833.847 687.169 840.703 678.27 847.764 669.699C854.484 661.542 861.577 653.556 867.965 645.142C869.196 643.521 871.479 641.06 871.193 638.939L870.26 639.029C863.621 643.61 856.067 655.277 850.841 661.787L826.528 691.755L826.461 608.354C826.475 595.822 826.962 583.18 826.658 570.666C826.611 568.715 826.332 565.335 824.887 563.941C823.53 565.705 823.581 568.993 823.487 571.21C822.922 584.529 823.676 598.11 823.817 611.452C824.098 637.952 824.383 664.618 823.845 691.109C810.793 668.232 795.927 646.501 781.722 624.343C781.273 608.771 781.455 593.146 781.401 577.567L781.498 478.933Z"/><path fill="#FEFEFE" transform="scale(0.859375 0.859375)" d="M420.403 669.141C423.8 665.083 426.972 662.939 431.941 661.138C429.942 665.25 426.329 670.915 427.868 675.596C430.421 683.363 449.259 703.794 456.589 707.315C458.257 708.117 460.152 708.161 461.875 707.494C463.815 706.744 465.554 705.08 466.997 703.614C475.561 707.673 483.264 709.001 492.676 709.547L472.473 780.363C468.529 794.453 463.549 817.674 457.026 829.709C452.992 837.02 446.973 843.042 439.663 847.079C429.588 852.726 417.667 854.09 406.576 850.865C395.402 847.704 386.352 840.244 380.792 830.093C377.127 823.403 375.625 816.411 374.787 808.899C375.957 804.736 376.937 800.165 379.277 796.486C383.951 789.141 404.826 775.347 413.334 773.524C411.303 779.662 403.111 800.613 405.324 806.025C405.379 806.16 405.466 806.28 405.536 806.407C406.762 805.552 407.26 803.842 407.731 802.474C409.937 796.066 411.284 789.226 413.271 782.712C420.236 759.143 427.436 735.644 434.87 712.219C431.327 704.947 429.377 697.285 427.031 689.581C424.879 682.749 422.669 675.936 420.403 669.141Z"/><path fill="#FEFEFE" transform="scale(0.859375 0.859375)" d="M374.201 820.528C379.077 833.826 386.082 844.916 399.375 851.03C410.369 856.087 423.609 856.314 434.873 851.983C441.747 849.339 447.381 845.136 452.949 840.409C453.067 850.789 453.096 861.169 453.036 871.55C452.999 891.274 452.368 910.658 467.592 925.473C472.385 930.137 477.877 933.395 483.824 936.358C466.272 938.31 446.504 937.207 428.711 937.042C414.438 936.909 399.99 937.49 385.743 936.909C382.094 936.466 378.207 936.627 374.522 936.55C374.303 917.349 374.294 898.146 374.497 878.945C374.549 868.715 375.652 856.607 374.027 846.646C374.09 840.183 371.736 825.665 374.201 820.528Z"/><path fill="#FEFEFE" transform="scale(0.859375 0.859375)" d="M96.9514 867.643C107.809 872.802 119.488 876.509 130.837 880.45C136.167 882.301 141.92 883.884 146.921 886.494C140.935 903.496 133.886 920.214 127.267 936.982L76.0224 937.252C81.7707 913.619 90.3767 890.994 96.9514 867.643Z"/><path fill="#FEFEFE" transform="scale(0.859375 0.859375)" d="M455.012 598.633L455.009 446.113L454.944 405.921C454.906 396.161 454.209 386.049 455.924 376.395C457.49 367.577 462.624 358.487 468.946 352.215C480.949 340.309 495.7 337.937 511.971 338.102L668.233 338.33L708.944 338.319C719.605 338.321 731.047 337.64 741.535 339.76C750.156 341.503 758.62 346.535 764.758 352.754C772.072 360.165 776.882 370.579 778.149 380.889C779.056 388.264 778.708 395.963 778.711 403.392L778.716 438.164L778.965 549.499L779.089 795.7L779.089 858.528C779.135 868.56 779.542 878.614 779.401 888.642C779.201 902.969 776.993 915.459 766.313 925.814C755.939 935.872 743.328 937.798 729.434 937.451C674.304 936.075 618.979 936.958 563.822 937.021C546.709 937.041 529.574 937.749 512.467 937.297C505.824 937.122 498.894 937.153 492.353 935.901C483.349 934.177 474.821 929.352 468.484 922.769C463.564 917.709 459.986 911.5 458.076 904.705C453.721 889.501 455.631 854.429 455.632 836.837C464.895 822.774 468.08 805.477 472.502 789.43C474.179 783.344 476.56 776.828 477.636 770.651C483.615 753.551 488.063 735.541 493.138 718.123C495.843 706.372 498.075 707.901 502.917 699.083C508.591 688.748 506.784 674.906 500.767 665.153C497.427 659.739 492.827 655.33 487.519 651.861L487.592 621.77C487.614 616.996 488.187 611.687 487.444 606.981C487.07 604.614 486.311 602.03 484.515 600.336C480.988 597.012 460.662 598.753 455.012 598.633Z"/><path fill="#FF4662" transform="scale(0.859375 0.859375)" d="M493.138 718.123C494.446 719.107 495.872 719.132 497.492 719.213C504.667 719.575 511.998 719.144 519.185 719.134L566.776 719.109L700.105 719.343C708.586 719.348 717.075 719.509 725.553 719.459C735.126 719.402 750.695 717.847 759.55 720.542C764.627 722.087 767.105 726.942 767.847 731.858C769.065 739.943 769.676 757.789 764.75 764.4C761.794 768.368 758.109 769.574 753.358 770.179C744.797 771.269 735.453 770.372 726.795 770.292L682.629 770.237L529.75 770.242C512.436 770.401 494.926 769.909 477.636 770.651C483.615 753.551 488.063 735.541 493.138 718.123Z"/><path fill="#63B6FF" transform="scale(0.859375 0.859375)" d="M533.065 500.098C537.962 497.093 543.052 494.914 548.746 493.955C558.772 492.267 569.106 493.238 579.215 493.373C594.997 493.583 610.79 493.396 626.573 493.454C638.679 493.499 651.273 494.359 663.258 492.517C663.981 493.633 664.161 494.194 665.39 494.757C656.181 497.605 647.995 504.189 643.452 512.719C640.661 517.96 639.355 523.63 638.687 529.497C636.731 546.664 637.894 564.152 637.94 581.388L637.941 669.9L555.5 669.973C542.329 669.939 529.25 669.115 516.065 669.544L514.784 669.249C512.469 665.583 513.945 553.564 513.973 540.166C509.507 540.055 504.859 539.978 500.479 540.984C493.991 542.473 488.046 545.869 484.667 551.785C483.577 553.692 482.762 555.853 481.518 557.655C480.875 558.585 480.914 558.669 479.753 558.867C479.589 558.403 479.501 558.265 479.527 557.705C479.709 553.725 483.558 548.332 486.292 545.631C494.029 537.989 503.636 537.455 513.822 537.497C514.058 532.636 514.367 527.894 515.63 523.173C518.293 513.219 524.116 505.211 533.065 500.098Z"/><path transform="scale(0.859375 0.859375)" d="M533.065 500.098C533.33 501 533.726 501.445 533.282 502.324C532.523 503.825 530.525 505.091 529.268 506.251C524.659 510.505 520.944 515.307 518.839 521.274C514.633 533.198 516.563 565.938 516.561 580.112C516.557 599.894 516.341 619.697 516.577 639.477C516.675 647.672 518.115 662.19 516.065 669.544L514.784 669.249C512.469 665.583 513.945 553.564 513.973 540.166C509.507 540.055 504.859 539.978 500.479 540.984C493.991 542.473 488.046 545.869 484.667 551.785C483.577 553.692 482.762 555.853 481.518 557.655C480.875 558.585 480.914 558.669 479.753 558.867C479.589 558.403 479.501 558.265 479.527 557.705C479.709 553.725 483.558 548.332 486.292 545.631C494.029 537.989 503.636 537.455 513.822 537.497C514.058 532.636 514.367 527.894 515.63 523.173C518.293 513.219 524.116 505.211 533.065 500.098Z"/><path fill="#63B6FF" transform="scale(0.859375 0.859375)" d="M725.114 813.768C734.682 813.447 757.98 810.81 764.89 817.635C769.574 822.26 768.89 832.871 768.916 838.922C768.944 845.745 769.076 856.678 763.74 861.76C761.237 864.145 752.925 864.077 749.554 864.243C739.986 864.713 730.331 864.239 720.752 864.226L668.695 864.417L514.375 864.496C504.625 864.718 481.417 866.96 474.535 860.324C471.561 857.456 471.505 851.644 471.357 847.755C471.033 839.229 470.126 823.351 476.453 816.937C479.082 814.272 484.682 814.264 488.249 814.04C497.429 813.464 506.778 813.969 515.978 813.99L567.595 814.016L725.114 813.768Z"/><path transform="scale(0.859375 0.859375)" d="M663.258 492.517C674.457 490.734 685.14 493.202 694.345 499.95C705.092 507.829 711.131 519.704 713.015 532.719C713.246 534.306 713.457 535.896 713.645 537.488C723.738 537.498 733.992 537.312 741.61 545.19C745.52 549.233 747.674 554.406 748.603 559.882C750.723 572.386 749.067 586.532 749.067 599.209C749.068 620.733 749.857 642.54 749.068 664.03C749.005 665.748 748.968 667.276 748.215 668.857L747.59 668.778C747.022 667.601 746.625 666.609 746.53 665.294C745.88 656.235 746.571 646.66 746.594 637.536L746.598 586.458C746.692 577.067 748.252 565.876 745.531 556.842C743.468 549.994 738.525 543.962 731.639 541.613C725.987 539.686 719.413 540.293 713.538 540.529L713.966 627.319C713.964 638.868 714.816 657.317 713.161 668.237L712.481 668.884C710.932 667.45 711.126 664.463 711.043 662.43C710.545 650.187 711.388 637.849 711.387 625.588L711.142 540.514L697.364 540.502C694.843 547.877 691.06 554.096 683.864 557.799C681.348 559.093 677.15 560.624 674.333 559.734L673.925 558.996C676.704 554.769 688.467 557.772 694.672 540.52L665.386 540.476C661.317 540.442 656.588 540.838 652.593 540.204C651.322 540.002 650.559 539.525 649.617 538.683C648.115 535.766 648.957 532.728 649.924 529.738C651.95 523.47 655.895 518.17 661.867 515.177C668.012 512.114 675.14 511.689 681.605 513.999C687.7 516.217 692.653 520.785 695.356 526.681C696.962 530.194 697.469 533.755 697.759 537.565L710.898 537.575C709.481 523.85 705.356 512.22 694.298 503.33C686.374 496.961 676.636 493.616 666.455 494.613C666.098 494.648 665.745 494.705 665.39 494.757C664.161 494.194 663.981 493.633 663.258 492.517Z"/><path fill="#FEFEFE" transform="scale(0.859375 0.859375)" d="M669.39 515.556C676.057 515.304 682.23 515.935 687.57 520.401C692.934 524.886 694.589 530.833 695.257 537.496L676.661 537.511C671.827 537.674 657.165 539.225 653.24 537.341C652.153 536.82 651.451 536.169 651.117 534.977C650.492 532.752 652.254 529.647 653.322 527.754C657.056 521.137 662.16 517.571 669.39 515.556Z"/><path transform="scale(0.859375 0.859375)" d="M553.898 455.753C557.834 454.674 562.046 455.815 564.898 458.735C567.749 461.654 568.792 465.892 567.62 469.801C566.448 473.71 563.247 476.676 559.259 477.545C553.316 478.842 547.421 475.167 545.968 469.26C544.515 463.353 548.031 457.363 553.898 455.753Z"/><path fill="#FF4662" transform="scale(0.859375 0.859375)" d="M637.427 403.237C641.304 402.204 645.437 403.341 648.239 406.213C651.041 409.085 652.078 413.244 650.95 417.095C649.823 420.945 646.707 423.889 642.798 424.796C636.889 426.166 630.973 422.544 629.507 416.659C628.04 410.773 631.566 404.799 637.427 403.237Z"/><path fill="#63B6FF" transform="scale(0.859375 0.859375)" d="M781.722 629.363C796.107 651.108 810.092 673.115 823.67 695.373C824.444 726.533 823.132 757.732 823.749 788.87C809.12 788.153 795.432 786.051 781.755 780.559C781.362 748.743 781.919 716.98 781.997 685.172C782.043 666.594 781.424 647.921 781.722 629.363Z"/><path fill="#FEFEFE" transform="scale(0.859375 0.859375)" d="M467.016 648.689C474.953 647.909 484.57 652.031 490.582 657C498.132 663.172 502.835 672.158 503.602 681.88C504.456 692.573 500.308 699.693 493.62 707.507C484.793 706.883 476.416 704.534 467.935 702.183C469.919 698.72 471.209 696.118 471.387 692.025L470.851 691.888C467.349 695.455 466.369 700.861 462.528 704.265C461.214 705.429 459.516 706.399 457.693 706.049C454.704 705.475 451.774 701.291 450.573 698.701C449.481 696.344 451.52 692.524 452.485 690.325C454.754 686.711 458.167 684.242 459.666 680.069L459.148 679.756C452.763 683.24 450.071 689.267 447.47 695.675C444.403 692.881 441.436 689.724 439.961 685.773C435.576 674.034 448.618 672.109 450.887 666.838L450.327 666.367C448.399 666.563 446.764 667.164 445.142 668.247C439.54 671.985 437.869 677.898 436.614 684.103C433.866 681.127 431.306 677.796 430.653 673.69C430.085 670.113 431.2 666.711 433.314 663.83C440.455 654.099 455.732 650.173 467.016 648.689Z"/><path fill="#63B6FF" transform="scale(0.859375 0.859375)" d="M433.887 611.549C450.976 611.344 468.085 611.516 485.175 611.515C485.232 624.381 485.181 637.248 485.023 650.113C481.697 648.885 478.365 647.864 474.948 646.919C474.475 646.812 474.43 646.794 473.87 646.718C459.277 644.754 445.041 651.151 433.553 659.524C433.492 643.614 432.877 627.427 433.887 611.549Z"/><path transform="scale(0.859375 0.859375)" d="M142.348 138.527L145.303 138.621C159.872 139.487 175.419 139.523 190.003 138.694L192.973 138.501C201.098 139.187 210.267 139.725 218.364 138.667C219.664 138.626 221.107 138.402 222.345 138.81C242.423 138.364 261.96 137.081 277.556 151.985C278.386 152.778 278.076 152.464 278.818 153.301C284.206 159.495 288 166.517 289.144 174.715C290.924 187.462 289.948 200.662 289.89 213.504L289.778 279.335L289.867 400.901L289.768 439.989C289.767 448.72 290.069 457.544 289.461 466.255C288.768 476.179 285.428 484.777 279.198 492.537C275.539 496.789 271.669 499.938 266.961 503.002C265.364 504.042 263.466 504.933 261.973 506.088L259.909 506.628C247.618 510.695 220.165 508.437 206.25 508.13C201.805 508.032 197.177 508.447 192.768 508.093L190.793 508.509C188.373 508.133 185.526 508.281 183.058 508.193L179.797 508.06C165.221 508.841 150.049 508.639 135.464 508.059C122.855 507.557 114.854 502.15 106.459 493.079C103.937 489.762 101.806 486.516 100.13 482.689C97.8666 477.413 96.5292 471.786 96.1768 466.055C95.1005 449.512 95.8746 432.746 95.9253 416.174L95.9825 332.708L95.9907 227.048C95.9885 212.593 95.0397 198.06 95.6225 183.624C95.86 177.742 96.5779 171.596 98.7751 166.089C103.033 155.418 111.09 148.165 121.467 143.626C127.514 140.155 135.635 139.814 142.348 138.527Z"/><path fill="#63B6FF" transform="scale(0.859375 0.859375)" d="M106.459 493.079C103.937 489.762 101.806 486.516 100.13 482.689C97.8666 477.413 96.5292 471.786 96.1768 466.055C95.1005 449.512 95.8746 432.746 95.9253 416.174L95.9825 332.708L95.9907 227.048C95.9885 212.593 95.0397 198.06 95.6225 183.624C95.86 177.742 96.5779 171.596 98.7751 166.089C103.033 155.418 111.09 148.165 121.467 143.626C115.393 151.083 110.198 155.967 108.092 165.786C107.398 169.025 107.144 173.045 105.834 176.05C105.414 177.787 104.996 178.695 106.018 180.379C106.25 180.763 106.517 181.126 106.773 181.495L106.768 232.082C106.783 240.727 107.64 250.443 106.301 258.978C105.967 260.883 105.862 262.013 106.699 263.837C105.958 282.903 106.572 302.195 106.556 321.287C106.55 328.581 107.213 336.689 106.367 343.909C106.15 345.653 106.098 346.684 106.739 348.336C134.919 376.725 162.13 406.043 189.977 434.759L190.343 481.35C190.369 490.474 189.737 499.409 190.793 508.509C188.373 508.133 185.526 508.281 183.058 508.193L179.797 508.06C165.221 508.841 150.049 508.639 135.464 508.059C122.855 507.557 114.854 502.15 106.459 493.079Z"/><path fill="#FF4662" transform="scale(0.859375 0.859375)" d="M106.459 493.079C103.937 489.762 101.806 486.516 100.13 482.689C97.8666 477.413 96.5292 471.786 96.1768 466.055C95.1005 449.512 95.8746 432.746 95.9253 416.174L95.9825 332.708L95.9907 227.048C95.9885 212.593 95.0397 198.06 95.6225 183.624C95.86 177.742 96.5779 171.596 98.7751 166.089C103.033 155.418 111.09 148.165 121.467 143.626C115.393 151.083 110.198 155.967 108.092 165.786C107.398 169.025 107.144 173.045 105.834 176.05C105.414 177.787 104.996 178.695 106.018 180.379C106.25 180.763 106.517 181.126 106.773 181.495L106.768 232.082C106.783 240.727 107.64 250.443 106.301 258.978C105.967 260.883 105.862 262.013 106.699 263.837C105.958 282.903 106.572 302.195 106.556 321.287C106.55 328.581 107.213 336.689 106.367 343.909C106.15 345.653 106.098 346.684 106.739 348.336C105.934 361.643 106.657 375.297 106.609 388.642C106.564 401.047 105.688 413.839 106.495 426.196C106.478 427.716 106.319 429.349 106.699 430.819C105.469 451.472 106.676 472.392 106.459 493.079Z"/><path fill="#63B6FF" transform="scale(0.859375 0.859375)" d="M106.459 493.079C106.676 472.392 105.469 451.472 106.699 430.819C124.123 448.981 141.397 467.285 158.522 485.729C165.446 493.052 173.919 499.915 179.797 508.06C165.221 508.841 150.049 508.639 135.464 508.059C122.855 507.557 114.854 502.15 106.459 493.079Z"/><path transform="scale(0.859375 0.859375)" d="M106.495 426.196C124.522 443.777 141.383 462.91 158.612 481.295C164.509 487.587 179.284 501.873 183.058 508.193L179.797 508.06C173.919 499.915 165.446 493.052 158.522 485.729C141.397 467.285 124.123 448.981 106.699 430.819C106.319 429.349 106.478 427.716 106.495 426.196Z"/><path fill="#63B6FF" transform="scale(0.859375 0.859375)" d="M218.364 138.667C219.664 138.626 221.107 138.402 222.345 138.81C242.423 138.364 261.96 137.081 277.556 151.985C278.386 152.778 278.076 152.464 278.818 153.301C284.206 159.495 288 166.517 289.144 174.715C290.924 187.462 289.948 200.662 289.89 213.504L289.778 279.335L289.867 400.901L289.768 439.989C289.767 448.72 290.069 457.544 289.461 466.255C288.768 476.179 285.428 484.777 279.198 492.537C278.606 485.063 278.951 477.359 278.94 469.858C278.929 462.435 278.485 454.67 279.356 447.296C279.417 445.381 279.164 444.365 278.339 442.644C279.094 435.6 278.625 428.319 278.569 421.249L278.485 387.043C278.476 379.25 278.215 371.37 278.866 363.599C279.052 362.148 278.994 361.057 278.791 359.606C279.187 354.653 278.838 349.42 278.81 344.444L278.48 307.114C278.426 299.443 278.041 291.543 278.941 283.919C279.048 282.37 278.83 280.994 278.582 279.476C262.204 261.059 245.355 243.067 228.051 225.518C216.243 213.32 204.185 201.355 193.033 188.546C192.683 171.893 192.42 155.15 192.973 138.501C201.098 139.187 210.267 139.725 218.364 138.667Z"/><path fill="#FF4662" transform="scale(0.859375 0.859375)" d="M278.818 153.301C284.206 159.495 288 166.517 289.144 174.715C290.924 187.462 289.948 200.662 289.89 213.504L289.778 279.335L289.867 400.901L289.768 439.989C289.767 448.72 290.069 457.544 289.461 466.255C288.768 476.179 285.428 484.777 279.198 492.537C278.606 485.063 278.951 477.359 278.94 469.858C278.929 462.435 278.485 454.67 279.356 447.296C279.417 445.381 279.164 444.365 278.339 442.644C279.094 435.6 278.625 428.319 278.569 421.249L278.485 387.043C278.476 379.25 278.215 371.37 278.866 363.599C279.052 362.148 278.994 361.057 278.791 359.606C279.187 354.653 278.838 349.42 278.81 344.444L278.48 307.114C278.426 299.443 278.041 291.543 278.941 283.919C279.048 282.37 278.83 280.994 278.582 279.476L278.492 233.749C278.412 223.317 278.001 212.879 278.777 202.464C279.299 200.649 279.274 200.04 278.641 198.283L278.818 153.301Z"/><path fill="#63B6FF" transform="scale(0.859375 0.859375)" d="M222.345 138.81C242.423 138.364 261.96 137.081 277.556 151.985C278.386 152.778 278.076 152.464 278.818 153.301L278.641 198.283L222.345 138.81Z"/><path transform="scale(0.859375 0.859375)" d="M218.364 138.667C219.664 138.626 221.107 138.402 222.345 138.81L278.641 198.283C279.274 200.04 279.299 200.649 278.777 202.464C266.851 189.561 254.808 176.767 242.646 164.085C234.483 155.656 225.799 147.774 218.364 138.667Z"/><path fill="#63B6FF" transform="scale(0.859375 0.859375)" d="M193.027 272.776C208.487 289.727 224.506 306.22 240.237 322.925C253.061 336.543 265.501 350.501 278.866 363.599C278.215 371.37 278.476 379.25 278.485 387.043L278.569 421.249C278.625 428.319 279.094 435.6 278.339 442.644L192.831 351.435C192.44 325.216 192.505 298.993 193.027 272.776Z"/><path fill="#63B6FF" transform="scale(0.859375 0.859375)" d="M106.699 263.837C134.792 293.155 162.085 323.22 189.977 352.717L190.467 431.218C173.334 413.731 156.36 396.09 139.546 378.297C128.629 366.781 117.926 354.787 106.367 343.909C107.213 336.689 106.55 328.581 106.556 321.287C106.572 302.195 105.958 282.903 106.699 263.837Z"/><path fill="#63B6FF" transform="scale(0.859375 0.859375)" d="M193.024 193.093C222.181 222.965 250.652 253.238 278.941 283.919C278.041 291.543 278.426 299.443 278.48 307.114L278.81 344.444C278.838 349.42 279.187 354.653 278.791 359.606C262.066 342.967 246.382 325.466 230.198 308.317C217.77 295.147 204.714 282.582 193.046 268.711C192.736 243.519 193.02 218.289 193.024 193.093Z"/><path fill="#63B6FF" transform="scale(0.859375 0.859375)" d="M106.773 181.495L161.065 238.861C170.684 249.152 179.97 259.835 189.976 269.751L189.998 348.455C162.792 318.024 133.306 289.594 106.301 258.978C107.64 250.443 106.783 240.727 106.768 232.082L106.773 181.495Z"/><path fill="#63B6FF" transform="scale(0.859375 0.859375)" d="M192.808 355.729C199.966 362.207 206.566 369.923 213.24 376.918C226.269 390.557 239.187 404.301 251.994 418.149C261.022 427.916 269.881 437.961 279.356 447.296C278.485 454.67 278.929 462.435 278.94 469.858C278.951 477.359 278.606 485.063 279.198 492.537C275.539 496.789 271.669 499.938 266.961 503.002C265.364 504.042 263.466 504.933 261.973 506.088C257.882 498.311 243.035 485.318 236.289 478.401L193.04 433.85C192.736 407.81 192.659 381.769 192.808 355.729Z"/><path fill="#63B6FF" transform="scale(0.859375 0.859375)" d="M121.467 143.626C127.514 140.155 135.635 139.814 142.348 138.527C149.253 147.965 157.82 156.468 165.863 164.95C173.848 173.371 181.741 181.981 189.942 190.189L190.156 265.994C162.356 235.725 134.248 205.742 105.834 176.05C107.144 173.045 107.398 169.025 108.092 165.786C110.198 155.967 115.393 151.083 121.467 143.626Z"/><path fill="#63B6FF" transform="scale(0.859375 0.859375)" d="M192.964 437.691C215.473 460.477 237.358 483.884 259.909 506.628C247.618 510.695 220.165 508.437 206.25 508.13C201.805 508.032 197.177 508.447 192.768 508.093C193.572 500.188 193.019 491.755 193.014 483.804L192.964 437.691Z"/><path fill="#63B6FF" transform="scale(0.859375 0.859375)" d="M145.303 138.621C159.872 139.487 175.419 139.523 190.003 138.694L189.945 185.856C176.003 169.367 159.58 154.842 145.303 138.621Z"/><path fill="#A3A6BC" transform="scale(0.859375 0.859375)" d="M725.263 153.089C761.751 152.525 798.294 153.141 834.788 153.084L870.692 153.022C880.381 153.01 890.448 152.45 899.985 154.347C891.894 155.658 883.037 155.028 874.84 155.026L830.709 154.999L758.054 155.047C745.526 155.059 732.776 155.529 720.273 154.966C720.459 154.701 720.618 154.415 720.83 154.17C721.695 153.174 724.034 153.213 725.263 153.089Z"/><path fill="#8584A6" transform="scale(0.859375 0.859375)" d="M720.273 154.966C715.773 155.406 702.642 155.862 698.988 153.961C701.909 152.199 720.768 153.046 725.263 153.089C724.034 153.213 721.695 153.174 720.83 154.17C720.618 154.415 720.459 154.701 720.273 154.966Z"/><path fill="#F3C1A4" transform="scale(0.859375 0.859375)" d="M537.301 127.505C541.557 127.383 545.851 127.509 550.111 127.516C551.191 131.463 551.661 135.638 552.304 139.678C556.555 141.537 560.774 143.384 564.874 145.563C567.803 143.054 570.823 140.639 573.799 138.186C577.317 141.146 580.96 144.827 583.835 148.404C581.737 151.176 579.726 153.972 577.797 156.864C579.351 161.22 580.846 165.57 582.881 169.732C586.562 170.487 590.283 171.094 593.98 171.768L594.013 185.124C590.864 185.504 586.37 185.61 583.607 187.142C579.673 189.323 578.899 195.165 577.774 199.175L584.625 208.096L574.686 218.008C571.48 215.849 568.439 213.62 565.459 211.158C561.174 213.007 557.009 214.881 552.926 217.159C552.139 220.518 551.448 223.899 550.853 227.298C546.368 227.79 541.141 227.165 536.591 227.095C536.108 223.41 535.791 219.692 535.352 216L523.378 210.302C520.271 212.792 517.131 215.241 513.959 217.647C510.432 214.681 507.358 211.201 504.211 207.844C506.037 204.421 508.569 201.522 510.042 197.882C508.833 194.344 507.54 190.909 506.036 187.485C502.405 186.088 498.857 185.616 495.007 185.314C494.857 180.52 494.783 175.776 494.957 170.98L505.789 169.213C507.436 165.279 508.622 161.035 509.983 156.987C508.067 154.423 506.105 151.984 503.965 149.602C506.872 145.887 509.7 142.094 513.053 138.763C516.34 140.876 519.222 143.282 522.161 145.85L534.218 139.914C535.057 135.772 535.53 131.37 537.301 127.505ZM547.235 201.966C560.224 200.194 569.277 188.172 567.39 175.199C565.502 162.226 553.399 153.281 540.444 155.284C527.651 157.262 518.842 169.18 520.705 181.991C522.569 194.801 534.409 203.716 547.235 201.966Z"/><path fill="#63B6FF" transform="scale(0.859375 0.859375)" d="M372.375 409.519C375.917 409.384 379.489 409.507 383.035 409.54L386.693 420.331C390.472 421.692 394.08 423.594 397.694 425.342C400.484 423.363 403.199 421.35 405.842 419.179C409.14 422.167 412.391 425.208 415.591 428.3C413.528 430.914 411.654 433.621 409.791 436.38C411.709 440.576 413.329 444.776 414.869 449.121C418.472 450.49 422.209 451.594 425.872 452.797C425.746 456.103 425.879 459.362 426.041 462.665C421.877 464.059 417.564 464.885 413.613 466.868C412.334 471.183 410.776 475.288 409.026 479.434C411.291 482.274 413.475 484.814 415.25 488.016C412.401 490.874 408.994 493.393 405.947 496.061C403.303 493.967 400.764 491.759 398.215 489.55C393.952 491.304 389.629 492.906 385.252 494.354C384.501 497.562 384.149 501.179 382.878 504.216C379.162 504.427 375.521 504.493 371.815 504.121C371.006 500.764 370.442 497.326 369.735 493.943C365.509 492.766 360.96 491.565 357.022 489.642C354.677 492.114 352.217 494.237 349.549 496.354C346.455 493.385 343.14 490.641 340.137 487.578C342.266 484.559 344.098 481.292 346.006 478.128C343.868 474.549 342.345 470.716 340.75 466.878C337.217 465.6 333.661 464.391 330.082 463.251C329.703 459.696 329.661 456.38 329.847 452.806C333.113 451.431 336.731 450.524 340.119 449.456C341.315 444.806 343.22 440.599 345.245 436.26C343.236 433.677 341.223 431.105 339.34 428.428C342.309 425.42 345.331 422.464 348.402 419.561C351.146 421.681 353.91 423.774 356.694 425.841C360.662 423.376 364.962 421.691 369.273 419.939C370.473 416.526 371.172 412.946 372.375 409.519Z"/><path fill="#FEFEFE" transform="scale(0.859375 0.859375)" d="M375.338 435.786C386.925 434.267 397.571 442.371 399.192 453.944C400.814 465.517 392.805 476.234 381.247 477.958C369.543 479.704 358.66 471.572 357.018 459.853C355.376 448.134 363.605 437.324 375.338 435.786Z"/><path fill="#D9E3F0" transform="scale(0.859375 0.859375)" d="M666.043 208.56C670.582 208.435 675.122 208.398 679.662 208.447C681.323 213.397 682.906 215.941 687.604 218.566C690.258 217.349 692.902 216.109 695.535 214.848C704.54 222.511 699.391 226.327 702.983 233.528C703.986 235.538 706.612 236.128 708.585 236.853C709.775 239.855 710.95 242.863 712.109 245.877C710.94 247.581 709.469 249.052 708.134 250.627C706.758 252.248 705.288 254.217 705.734 256.484C706.221 258.958 708.73 260.206 710.647 261.509C708.737 265.577 706.666 269.568 704.439 273.472C702.789 272.905 700.977 272.139 699.204 272.201C697.581 272.258 696.163 272.809 695.106 274.08C692.914 276.714 693.735 280.711 694.096 283.798C690.14 285.743 686.166 287.653 682.176 289.527L676.238 282.445C672.769 284.57 669.696 286.695 666.752 289.517C663.018 288.79 659.351 287.429 655.728 286.269C655.013 282.207 654.041 278.618 652.368 274.844C648.484 275.164 644.642 275.863 640.8 276.495C638.609 273.123 636.145 269.917 633.926 266.553C636.711 263.701 638.621 261.103 640.291 257.513C637.864 253.275 635.723 251.81 631.348 249.915C631.308 246.058 631.467 242.196 631.575 238.34C634.284 237.639 637.363 236.799 639.826 235.449C641.64 234.455 643.111 233.058 643.667 231.013C644.434 228.189 642.985 225.461 641.712 223.037C644.83 219.894 648.03 216.614 651.8 214.263C653.24 215.331 654.694 216.428 656.326 217.189C657.635 217.798 659.254 218.122 660.617 217.488C663.774 216.019 664.792 211.494 666.043 208.56ZM676.726 270.483C687.994 267.839 694.983 256.559 692.335 245.292C689.687 234.025 678.404 227.04 667.138 229.693C655.879 232.344 648.899 243.619 651.546 254.88C654.192 266.14 665.465 273.125 676.726 270.483Z"/><path fill="#D9E3F0" transform="scale(0.859375 0.859375)" d="M669.694 233.607C678.858 232.453 687.243 238.892 688.492 248.044C689.74 257.195 683.387 265.646 674.249 266.988C668.254 267.869 662.247 265.462 658.52 260.685C654.792 255.907 653.917 249.496 656.229 243.895C658.54 238.293 663.682 234.365 669.694 233.607Z"/><path fill="#FF4662" transform="scale(0.859375 0.859375)" d="M723.236 198.029C724.356 197.986 725.433 198.057 726.55 198.134C727.645 198.774 728.063 199.229 728.629 200.367C729.197 201.509 729.788 202.64 730.368 203.776C731.947 203.274 733.611 202.674 735.261 202.48C742.408 201.644 740.579 209.586 742.755 213.684C743.41 214.919 745.394 216.188 746.522 217.072C746.614 219.284 746.549 221.52 746.55 223.735C744.099 224.887 741.827 226.319 739.524 227.736L742.091 232.752L738.7 236.075L731.505 235.991C730.453 237.007 729.497 238.243 728.526 239.344C727.141 240.387 726.44 240.604 724.769 240.399C723.183 239.304 722.47 237.636 721.575 235.986C718.818 235.956 716.06 235.912 713.303 235.851C712.366 233.097 712.115 230.312 710.869 227.631C709.375 226.499 708.843 226.488 707.039 226.227C705.378 224.704 704.82 221.7 704.135 219.586C705.27 219.093 707.016 218.525 707.942 217.72C710.847 215.192 708.06 211.914 708.527 208.763C709.424 202.709 714.543 205.872 717.948 203.709C720.055 202.37 720.929 199.553 723.236 198.029ZM728.777 230.055C733.776 228.737 737.228 224.174 737.137 219.005C737.076 215.568 735.444 212.349 732.707 210.269C729.971 208.189 726.432 207.477 723.105 208.338C717.094 209.893 713.488 216.032 715.057 222.039C716.626 228.046 722.773 231.638 728.777 230.055Z"/><path fill="#505E74" fill-opacity="0.92156863" transform="scale(0.859375 0.859375)" d="M385.943 94.2633C391.492 96.9205 396.032 100.962 398.061 106.952C399.766 112.055 399.329 117.632 396.848 122.406C394.419 126.997 390.909 129.336 386.546 131.779C385.228 163.637 386.383 195.786 386.381 227.673L386.254 284.859C386.223 296.206 385.97 307.606 386.418 318.946C391.651 323.304 395.173 327.976 395.777 334.975C396.298 341.008 394.726 346.239 390.697 350.794C388.712 353.038 386.436 354.436 383.969 356.04C384.065 350.031 386.176 339.271 381.469 334.663C379.85 333.079 377.181 332.257 374.943 332.457C373.236 332.61 371.845 333.437 370.786 334.769C366.959 339.581 368.072 349.48 368.272 355.395C363.134 352.186 359.266 347.877 357.781 341.855C356.483 336.593 357.508 331.022 360.327 326.422C363.225 321.692 367.422 319 372.472 316.99L373.655 317.375C370.551 319.647 366.934 320.276 364.073 323.163C360.315 326.957 358.377 331.973 358.479 337.302C358.613 344.252 362.085 349.066 366.962 353.596C367.554 347.504 365.776 338.872 369.978 333.839C371.303 332.252 373.122 331.462 375.167 331.377C377.673 331.272 380.292 331.909 382.159 333.66C387.188 338.375 384.974 348.107 385.009 354.294C386.854 353.013 388.645 351.655 390.121 349.952C393.807 345.7 395.368 340.766 394.896 335.16C394.305 328.141 390.53 323.542 385.305 319.269C384.618 289.242 385.153 259.103 385.243 229.065C385.065 196.408 385.091 163.749 385.32 131.092C389.959 129.179 393.605 126.432 396.004 121.924C398.433 117.314 398.829 111.899 397.097 106.985C395.622 102.823 391.855 98.4396 387.805 96.5636L387.012 96.8928C387.181 97.5502 387.218 97.6286 387.318 98.4094C387.872 102.747 387.808 111.545 384.843 114.901C383.171 116.794 380.518 117.977 378.005 118.037C376.085 118.084 374.402 117.498 373.062 116.083C369.105 111.9 370.429 101.17 370.456 95.7983L368.888 96.8556C366.066 98.7455 364.035 100.562 362.309 103.539C359.673 108.087 359.288 113.572 360.828 118.561C362.561 124.175 366.468 128.2 371.546 130.953L370.758 131.531C366.076 129.601 362.455 125.568 360.563 120.913C358.406 115.606 358.346 109.403 360.775 104.176C362.123 101.275 365.59 96.4142 368.923 95.5986C369.585 95.4367 369.659 95.4783 370.252 95.5167C371.244 96.3934 371.536 96.9519 371.686 98.2966C372.244 103.3 369.77 111.737 374.109 115.533C375.468 116.722 377.093 117.142 378.861 116.967C380.892 116.767 382.691 115.827 383.984 114.246C387.898 109.457 386.184 100.049 385.943 94.2633Z"/><path fill="#8584A6" fill-opacity="0.96078432" transform="scale(0.859375 0.859375)" d="M914.851 148.932C915.193 155.925 915.991 165.366 911.251 171.052C908.615 174.214 904.285 175.976 900.251 176.331C889.586 177.269 878.236 176.283 867.496 176.166C849.226 175.967 830.923 176.104 812.651 176.138C786.559 176.445 760.466 176.574 734.372 176.526C722.306 176.541 709.913 177.165 697.896 176.367C693.614 176.082 688.388 175.554 685.12 172.547C680.573 168.365 679.422 161.443 679.255 155.537C679.075 149.171 679.388 141.754 684.113 136.953C686.155 134.879 689.577 132.74 692.488 132.292C705.465 130.296 719.926 131.694 733.079 131.682L814.148 131.566L812.855 132.797C805.537 132.468 779.422 131.541 773.725 132.918C755.835 133.312 737.893 133.107 719.998 133.069C711.389 133.051 701.804 132.13 693.325 133.509C690.144 134.027 687.41 134.956 685.084 137.278C681.196 141.158 680.254 149.554 680.411 154.831C680.586 160.7 681.503 167.422 685.985 171.661C688.358 173.904 691.117 174.363 694.257 174.716C705.743 176.008 718.316 175.045 729.902 175.031L795.425 175.032C806.494 175.03 817.868 174.465 828.905 175.071C839.293 176.554 858.596 175.446 869.952 175.438C878.371 175.432 892.672 176.328 900.108 175.121C903.661 174.578 907.123 173.838 909.795 171.236C915.061 166.108 914.059 156.815 913.981 150.049L914.851 148.932Z"/><path fill="#A3A6BC" fill-opacity="0.50980395" transform="scale(0.859375 0.859375)" d="M420.081 172.231C421.254 179.331 419.887 186.66 420.951 193.763C421.569 213.876 421.001 234.139 420.944 254.266C420.91 266.393 421.628 278.667 421.095 290.771C415.149 294.137 410.158 297.646 408.347 304.682C408.069 305.763 407.909 306.883 407.753 307.988L407.012 305.182C407.094 304.803 407.172 304.423 407.278 304.05C409.238 297.122 414.065 293.34 420.078 290.066C419.583 250.789 419.584 211.508 420.081 172.231Z"/><path fill="#A3A6BC" fill-opacity="0.87058824" transform="scale(0.859375 0.859375)" d="M814.148 131.566C831.167 131.318 848.208 131.704 865.23 131.701C876.959 131.7 889.434 130.769 901.034 132.347C904.391 132.803 907.806 133.375 910.284 135.881C913.681 139.316 914.389 144.341 914.851 148.932L913.981 150.049C913.469 145.412 913.055 140.078 909.528 136.636C907.152 134.318 903.719 133.766 900.551 133.341C891.66 132.145 881.718 132.958 872.739 132.976C852.815 133.016 832.852 133.324 812.934 132.975L812.855 132.797L814.148 131.566Z"/><path fill="#505E74" fill-opacity="0.88235295" transform="scale(0.859375 0.859375)" d="M434.181 290.618C439.632 293.193 443.649 296.756 445.683 302.607C447.894 308.963 447.531 316.485 444.328 322.472C442.811 325.309 440.006 328.425 436.823 329.343C435.641 329.684 436.169 329.69 435.024 329.211C435.062 328.997 435.104 328.784 435.14 328.569C435.95 323.678 435.809 313.489 432.727 309.583C431.591 308.143 430.085 307.325 428.264 307.142C425.96 306.91 423.646 307.394 421.871 308.936C419.135 311.314 418.989 315.405 418.852 318.778C418.705 322.866 418.701 326.959 418.841 331.047C412.771 326.888 407.923 322.34 406.579 314.698C406.032 311.532 406.18 308.285 407.012 305.182L407.753 307.988C407.423 309.903 407.495 312.043 407.718 313.967C408.546 321.125 412.77 325.118 418.021 329.436C417.701 324.79 417.16 319.857 417.834 315.232C418.203 312.703 419.062 309.665 421.282 308.123C423.476 306.599 427.032 305.104 429.75 305.783C438.823 308.05 434.127 322.899 437.281 327.715L438.341 327.814C440.324 326.443 441.696 324.448 442.968 322.427C446.395 316.984 446.712 310.249 445.104 304.124C443.414 297.683 439.004 294.267 433.532 291.089L434.181 290.618Z"/><path fill="#505E74" fill-opacity="0.94509804" transform="scale(0.859375 0.859375)" d="M418.866 124.844C415.327 123.066 412.498 120.873 410.252 117.562C407.062 112.859 405.733 106.857 406.988 101.289C408.086 96.4188 411.275 90.8375 415.632 88.1938C417.118 87.2917 418.781 86.7858 420.504 87.1605C422.59 90.2372 420.869 96.2941 420.762 99.988C420.693 102.356 420.737 105.705 422.753 107.369C424.188 108.553 425.883 108.66 427.613 108.272C427.754 108.241 427.894 108.203 428.034 108.168L428.042 109.718C425.458 109.501 423.259 109.263 421.542 107.115C417.762 102.384 421.022 93.4835 419.856 87.7671C414.801 89.8372 411.104 93.125 409.072 98.2913C407.036 103.467 407.359 109.532 409.705 114.552C411.43 118.243 414.87 122.03 418.756 123.478C418.917 123.538 419.084 123.581 419.247 123.632L418.866 124.844Z"/><path fill="#8D959A" fill-opacity="0.47843137" transform="scale(0.859375 0.859375)" d="M433.078 161.326C432.429 156.628 432.896 151.218 432.906 146.455C432.921 139.149 432.628 131.69 433.12 124.404L433.72 125.419C435.106 132.038 433.954 152.317 433.972 160.747L434.002 213.574C433.995 222.202 434.506 231.181 433.845 239.771C432.689 233.963 433.433 226.593 433.451 220.648L433.575 184.61C433.6 176.903 433.946 168.991 433.078 161.326Z"/><path fill="#505E74" fill-opacity="0.83529413" transform="scale(0.859375 0.859375)" d="M434.772 85.3496C440.765 89.6975 445.671 94.5003 446.888 102.196C447.784 107.863 446.512 113.89 442.938 118.437C440.396 121.67 437.278 123.542 433.72 125.419L433.12 124.404C436.124 123.16 438.955 121.549 441.187 119.153C444.898 115.168 446.45 110.045 446.158 104.652C445.744 96.9882 441.632 91.994 436.105 87.2077C435.907 90.9703 436.185 94.7406 436.102 98.5066C436.031 101.704 435.648 105.844 433.063 108.08C431.631 109.319 429.91 109.85 428.042 109.718L428.034 108.168C429.506 108.568 430.409 108.759 431.784 107.88C434.057 106.426 434.581 103.194 434.869 100.739C435.463 95.6794 434.805 90.4343 434.772 85.3496Z"/><path fill="#BEC0D2" fill-opacity="0.69411767" transform="scale(0.859375 0.859375)" d="M372.701 240.662L372.927 240.562C372.991 249.198 372.023 268.049 373.445 275.644C373.706 281.001 373.442 286.368 373.56 291.728C373.675 296.915 374.863 312.926 373.655 317.375L372.472 316.99C371.638 304.771 372.423 292.038 372.39 279.758C373.102 266.83 372.644 253.621 372.701 240.662Z"/><path fill="#505E74" fill-opacity="0.627451" transform="scale(0.859375 0.859375)" d="M419.247 123.632L421.118 124.858C421.765 130.074 420.973 139.317 420.976 145.048C420.983 161.273 421.304 177.545 420.951 193.763C419.887 186.66 421.254 179.331 420.081 172.231C419.205 161.278 420.027 148.826 420.015 137.696C420.011 133.642 420.327 129.323 419.73 125.329L418.866 124.844L419.247 123.632Z"/><path fill="#BEC0D2" fill-opacity="0.031372551" transform="scale(0.859375 0.859375)" d="M373.317 148.385L374.185 151.145C372.767 166.822 374.167 186.581 373.955 202.802L373.854 202.378C373.4 200.388 373.263 198.443 373.123 196.413L373.422 197.666L373.136 196.637C373.165 196.904 373.199 197.171 373.225 197.439C373.45 199.726 373.201 202.354 372.945 204.642C372.528 202.638 372.591 200.479 372.517 198.436C373.292 191.79 372.708 184.473 372.718 177.751C373.575 168.101 372.903 158.1 373.317 148.385Z"/><path fill="#505E74" fill-opacity="0.71764708" transform="scale(0.859375 0.859375)" d="M371.872 199.867L372.517 198.436C372.591 200.479 372.528 202.638 372.945 204.642C372.99 211.207 372.455 218.084 373.299 224.577L372.931 225.838C371.914 230.323 372.641 236.026 372.701 240.662C372.644 253.621 373.102 266.83 372.39 279.758C371.236 272.373 372.127 263.817 372.114 256.291C372.08 237.493 372.266 218.658 371.872 199.867Z"/><path fill="#D9E3F0" fill-opacity="0.070588239" transform="scale(0.859375 0.859375)" d="M373.299 224.577C373.757 225.682 373.619 226.489 373.585 227.639C373.563 228.389 373.547 228.106 373.866 228.883C374.059 242.839 373.886 256.798 374.022 270.754C373.697 272.392 373.554 273.979 373.445 275.644C372.023 268.049 372.991 249.198 372.927 240.562C372.783 235.647 373.265 230.753 372.931 225.838L373.299 224.577Z"/><path fill="#A3A6BC" fill-opacity="0.52156866" transform="scale(0.859375 0.859375)" d="M371.546 130.953L372.751 131.665C373.937 136.826 373.639 143.085 373.317 148.385C372.903 158.1 373.575 168.101 372.718 177.751C371.863 170.657 372.949 163.407 372.037 156.301C371.734 151.905 373.051 135.667 371.749 132.582C371.561 132.138 371.088 131.881 370.758 131.531L371.546 130.953Z"/><path fill="#454E54" fill-opacity="0.98039216" transform="scale(0.859375 0.859375)" d="M433.078 161.326C433.946 168.991 433.6 176.903 433.575 184.61L433.451 220.648C433.433 226.593 432.689 233.963 433.845 239.771L434.195 241.997L433.315 242.053C432.025 233.949 432.903 224.395 432.907 216.132L433.078 161.326Z"/><path transform="scale(0.859375 0.859375)" d="M434.195 241.997C435.892 252.367 434.137 263.573 434.092 274.048C434.074 278.309 434.929 286.852 434.181 290.618L433.532 291.089C433.218 274.765 434.046 258.357 433.315 242.053L434.195 241.997Z"/><path transform="scale(0.859375 0.859375)" d="M372.037 156.301C372.949 163.407 371.863 170.657 372.718 177.751C372.708 184.473 373.292 191.79 372.517 198.436L371.872 199.867C371.648 199.012 371.812 197.929 371.689 197.029C370.782 190.388 371.57 185.349 371.699 178.743C371.846 171.267 371.609 163.766 372.037 156.301Z"/><path fill="#BEC0D2" fill-opacity="0.55686277" transform="scale(0.859375 0.859375)" d="M828.905 175.071C843.656 174.794 858.43 174.977 873.185 174.977C882.073 174.976 891.27 174.491 900.108 175.121C892.672 176.328 878.371 175.432 869.952 175.438C858.596 175.446 839.293 176.554 828.905 175.071Z"/><path transform="scale(0.859375 0.859375)" d="M374.185 151.145C374.903 152.402 374.877 153.584 374.945 154.988C373.493 166.7 374.516 179.43 374.548 191.241C374.56 195.617 374.755 200.201 374.111 204.534L373.955 202.802C374.167 186.581 372.767 166.822 374.185 151.145Z"/><path fill="#362E31" fill-opacity="0.3019608" transform="scale(0.859375 0.859375)" d="M374.945 154.988C375.149 159.784 375.554 206.864 374.285 208.275C374.136 207.032 373.891 205.779 374.111 204.534C374.755 200.201 374.56 195.617 374.548 191.241C374.516 179.43 373.493 166.7 374.945 154.988Z"/><path transform="scale(0.859375 0.859375)" d="M373.866 228.883L374.188 227.689L374.518 228.3C374.498 241.885 374.12 255.554 374.58 269.126C374.441 269.592 374.31 270.371 374.022 270.754C373.886 256.798 374.059 242.839 373.866 228.883Z"/><path fill="#362E31" fill-opacity="0.29803923" transform="scale(0.859375 0.859375)" d="M374.518 228.3C375.524 233.688 375.553 263.793 374.58 269.126C374.12 255.554 374.498 241.885 374.518 228.3Z"/><path fill="#BEC0D2" fill-opacity="0.74117649" transform="scale(0.859375 0.859375)" d="M773.725 132.918C779.422 131.541 805.537 132.468 812.855 132.797L812.934 132.975C799.94 133.438 786.736 133.088 773.725 132.918Z"/><path fill="#A3A6BC" fill-opacity="0.53725493" transform="scale(0.859375 0.859375)" d="M372.701 240.662C372.641 236.026 371.914 230.323 372.931 225.838C373.265 230.753 372.783 235.647 372.927 240.562L372.701 240.662Z"/></svg>