<svg xmlns="http://www.w3.org/2000/svg" xmlns:xlink="http://www.w3.org/1999/xlink" width="800" height="800" viewBox="0 0 800 800">
  <defs>
    <clipPath id="clip-Custom_Size_1">
      <rect width="800" height="800"/>
    </clipPath>
  </defs>
  <g id="Custom_Size_1" data-name="Custom Size – 1" clip-path="url(#clip-Custom_Size_1)">
    <g id="male" transform="translate(-44.285 -60.899)">
      <path id="Path_33" data-name="Path 33" d="M0,0H433V630H0Z" transform="translate(244.285 177.899)" fill="#fff"/>
      <path id="Path_1" data-name="Path 1" d="M594.483,113.192c.284-.023.567-.054.852-.07,22.827-1.273,44.644,2.624,61.891,18.709a68.547,68.547,0,0,1,20.645,39.018c1.152,7.322.964,15.057,1,22.462l.021,27.622.083,88.489.191,257.844c.033,42.8-1.243,85.819.182,128.592A177.444,177.444,0,0,1,705,718.244c17.059,17.62,31.665,38.674,35.116,63.5,1.066,7.667.958,15.527.826,23.254,19.046.729,38.438.478,57.5.215,7.276-.1,33.886-1.617,38.963-.2.9.251.986.465,1.412,1.225l-.413.561c-4.591,1.934-69,.906-78.461.9l-119.791-.073-342.515-.048c-11.929.427-23.955.1-35.894.086l-62.6.03-96.514.019c-13.976-.026-28.006.35-41.973.035-2.816-.064-9.274.336-11.371-1.276l.51-.682a15.068,15.068,0,0,1,5.172-1.2c4.367-.223,8.967.1,13.353.145l28.238.249,83.722.161a143.47,143.47,0,0,1,.653-17.318c4.732-40.332,30.5-66.94,60.624-90.928l0-364.251L241.541,227.9l-.078-32.338c-.017-8.069-.341-16.278.7-24.292a64.369,64.369,0,0,1,15.471-33.579,69.51,69.51,0,0,1,39.063-22.67c10.766-2.221,22.131-1.557,33.072-1.548l40.6.034L518.76,113.5l48.087.015C576,113.518,585.358,113.891,594.483,113.192ZM314.671,662.279c9.013-2.965,17.952-6.234,27.04-8.959-17.679-13.111-34.836-32.985-38.239-55.238a59.766,59.766,0,0,1,1.21-24.888c1.328-4.594,3.461-8.861,5.188-13.3,3.04-7.82,3.647-16.989,2.681-25.267-3.977-34.09-39.924-33.245-37.713-73.566a48.562,48.562,0,0,1,9.73-27.04c12.52-16.73,31.5-23.9,43.534-43.585,9.112-14.9,10.28-31.717,15.817-47.865,14.8-43.15,54.614-74.5,99.545-80.657a125.2,125.2,0,0,1,92.08,24.134,127.4,127.4,0,0,1,21.666,21.39c10.823,14.352,18.9,29.633,23.538,47.065,2.925,10.987,4.776,22.7,10.658,32.612,12.252,20.648,35.369,32.854,45.538,54.13a58.13,58.13,0,0,1,4.949,32.425c-3.127,22.169-24.939,32.263-31.2,52.74a46.6,46.6,0,0,0-2.177,17.775c.642,6.952,3.2,13.608,5.359,20.2,5.151,15.7,5.332,31.228-1.616,46.463-3.763,8.252-9.586,15.415-14.895,22.707q-7.545,10.279-14.469,20.994c7.813,2.856,15.685,5.608,23.384,8.763q.325-3.856.448-7.723c.122.063.243.126.365.188,7.035,3.542,14.973,6.011,22.207,9.427,16.543,7.808,32.338,17.733,47.159,28.424l-.072-333.09.03-76.605c.062-15.1,1.383-30.873-1.006-45.832-2.129-13.332-9.66-26.964-19.113-36.48-16.493-16.6-36.195-21.267-58.808-21.246l-190.3.119-62.846.035c-11.274.008-22.7-.474-33.947.2-17.779.764-35.7,8.748-47.8,21.889a72.25,72.25,0,0,0-17.822,38.358c-1.046,7.569-.732,15.368-.726,22.993l.034,31.711v106.3l-.04,191.124.006,62.419c0,11.7-.341,23.513.2,35.194q.094,2.081.273,4.156,8.763-6.2,17.92-11.813c6.419-3.9,45.274-26.105,50.391-25.395.438.061.48.118.74.517A11.548,11.548,0,0,1,314.671,662.279ZM509.56,602.452c24.928-14.976,41.844-38.385,48.775-66.5,3.677-14.916,2.88-30.169,2.851-45.4l-.065-42.715.043-28.632c.01-6.389.251-12.888-.391-19.25a23.424,23.424,0,0,0-3.231-10.635,28.357,28.357,0,0,0-18.016-12.792c-6.593-1.5-14.077-.925-20.82-.92l-26.241.034c-31.154.046-62.324-.234-93.477.131-10.744.142-22.169-.608-30.314,7.771a25.219,25.219,0,0,0-6.661,13.729c-1.176,6.659-.815,13.582-.773,20.317l.11,24.929c.015,20.947-.8,42.021-.313,62.948.715,30.971,9.813,61.575,32.75,83.476A95.547,95.547,0,0,0,462.13,616,101.139,101.139,0,0,0,509.56,602.452ZM373.444,567.093q-.691,39.792-.169,79.593l7.846-.26c.559,26.037,6.2,45.859,25.665,64.412,15.748,15.013,36.994,22.436,58.629,21.787a78.952,78.952,0,0,0,73.785-61.01c.505-3.639,1.208-23.39,2.266-24.9a3.1,3.1,0,0,1,.7-.555c2.327-.46,4.659.1,6.975.457,1.029-9.459.183-20.472.149-30.156-.061-16.669.258-33.438-.212-50.095-19.209,27.333-38.847,44.8-72.8,50.606a98.6,98.6,0,0,1-94.565-38.01C378.969,575.169,376.976,570.193,373.444,567.093Zm-62.528,93.776a375.96,375.96,0,0,0-45.523,23.6c-7.1,4.364-13.879,9.245-20.973,13.607l.1,66.246c0,12.037-.616,24.3.015,36.3a7.6,7.6,0,0,0,.872,4.039l.728.091c12.9.7,25.883.446,38.8.452,8.718,0,17.759.467,26.441-.231-.257-11.492.034-23.021.044-34.519l.046-69.57q-.009-11.871.15-23.741c.059-4.752.494-10.1-.124-14.8A2.254,2.254,0,0,0,310.915,660.869Zm298.223-1.8c-.792,16.644.107,33.614.123,50.3l.065,95.408c22.13,1.128,44.647.563,66.814.338.541-3.817.25-7.971.258-11.828l.017-21.57-.081-74.8C658.833,682.307,630.61,666.964,609.138,659.074Z"/>
      <path id="Path_2" data-name="Path 2" d="M400.905,493.427a14.312,14.312,0,1,1-11.626,16.566A14.312,14.312,0,0,1,400.905,493.427Z" fill="#dbe6e3"/>
      <path id="Path_3" data-name="Path 3" d="M515.941,493.8a14.172,14.172,0,1,1-11.831,16.109A14.173,14.173,0,0,1,515.941,493.8Z" fill="#dbe6e3"/>
      <path id="Path_4" data-name="Path 4" d="M509.7,441.788a10.349,10.349,0,1,1-9.453,11.242A10.35,10.35,0,0,1,509.7,441.788Z"/>
      <path id="Path_5" data-name="Path 5" d="M409.558,442.736A10.268,10.268,0,1,1,402.2,455.3,10.268,10.268,0,0,1,409.558,442.736Z"/>
      <path id="Path_6" data-name="Path 6" d="M457.219,435.487c.581.3,1.366.747,1.432,1.468.272,2.965-2.6,9.934-3.58,13.11-3.736,12.048-7.283,24.23-11.332,36.174-2.452,7.232-6.034,14.458-7.581,21.924-.5,2.4-.8,5.33.27,7.627,2.514,5.411,10.632,1.736,15.11,3.56l.309.784-.809.788-.516.139c-4.383,1.152-9.779,1.512-13.79-1.017a8.237,8.237,0,0,1-3.774-5.467,15.333,15.333,0,0,1,.569-6.914c2.388-8.535,5.925-16.882,8.654-25.338q4-12.526,7.782-25.12C451.756,451.206,453.92,440.506,457.219,435.487Z"/>
      <path id="Path_7" data-name="Path 7" d="M478.435,546.041l.688.222c.35.57.614.758.557,1.464-.223,2.753-3.16,5.911-5.214,7.532-4.027,3.178-10.638,4.568-15.581,3.83-5.786-.864-9.746-4.468-13.089-8.973a7.513,7.513,0,0,1-.569-2.887l.427-.339c2.9,1.15,5.454,5.494,8.182,7.4a14.554,14.554,0,0,0,11.563,2.349C471.6,555.308,475.121,551.029,478.435,546.041Z"/>
      <path id="Path_8" data-name="Path 8" d="M425.656,421.73c2.126-.007,3.337-.055,5,1.466l-.029.685c-2.969,1.5-27.913.688-33.267.654a14.258,14.258,0,0,1-3.771-.4,2.685,2.685,0,0,1-1.9-1.555C394.534,421.12,420.175,421.907,425.656,421.73Z"/>
      <path id="Path_9" data-name="Path 9" d="M522.6,421.751l2.046.144a4.991,4.991,0,0,1,3.218.916l-.011.682c-3.366,2.038-27.8,1.073-33.163,1.072-2.509.021-3.929.123-5.879-1.568l.1-.514C492.321,421.04,517.036,421.873,522.6,421.751Z"/>
      <path id="Path_10" data-name="Path 10" d="M335.038,116.235l267.823-.151c21.132.094,39.964,4.493,55.2,20.036,17.224,17.573,18.233,37.047,18.251,60.292q-.006,15.795-.272,31.587c-4.822-10.457-10.307-20.378-18.537-28.577-21.558-21.474-45.123-21.643-73.767-21.533l-187.137.2H343.309c-16.128-.02-34.171-1.841-49.793,2.692A69.183,69.183,0,0,0,251.4,214.219c-2.46,4.359-4.032,9.147-6.448,13.46l-.4.7q-.4-7.053-.451-14.12c-.205-30.163-3.654-55.864,19.548-79.183C284.1,114.522,308.312,116.341,335.038,116.235Z" fill="#dbe6e3"/>
      <path id="Path_11" data-name="Path 11" d="M341.312,131.653a14.092,14.092,0,1,1-12.1,15.945A14.093,14.093,0,0,1,341.312,131.653Z" fill="#f26f6e"/>
      <path id="Path_12" data-name="Path 12" d="M384.275,132.143a13.905,13.905,0,1,1-10.044,16.964A13.906,13.906,0,0,1,384.275,132.143Z" fill="#5677bb"/>
      <path id="Path_13" data-name="Path 13" d="M461.944,263.106c23.558,1.088,45.134,7.12,64.942,20.212a123.555,123.555,0,0,1,51.24,70.766c3.526,13.118,5.9,26.013,13.283,37.735,14.325,22.758,41.888,35.318,47.507,63.475a47.959,47.959,0,0,1-10.469,40.925c-4.618,5.516-9.958,10.325-13.923,16.387a51.485,51.485,0,0,0-6.648,42.448c2,6.9,4.946,13.5,6.359,20.57,3.285,16.453-1.471,31.4-10.525,45.1q-11.834,16.421-23.176,33.188-14.081-4.044-28.44-7c-.492-17.561-.206-35.106-.289-52.669-.046-9.958-1.034-21.628.355-31.4.8-5.643,3.563-10.882,5.546-16.176a89.04,89.04,0,0,0,5.245-23.306c1.116-13.036.582-26.385.563-39.468q-.278-30.718.232-61.437c.168-14.46,2.159-29.451-8.9-40.582-4.194-4.22-9.731-6.586-15.507-7.721-9.99-1.962-20.75-.846-30.883-.8l-46.561.036Z" fill="#f26f6e"/>
      <path id="Path_14" data-name="Path 14" d="M314.1,752.85l292.342.033c-.035,17.294.4,34.617.109,51.907l-292.444.035C313.931,787.508,314.1,770.169,314.1,752.85Z" fill="#5677bb"/>
      <path id="Path_15" data-name="Path 15" d="M314.1,695.244l76.61-.007c6.4,8.659,12.913,16.865,21.566,23.435a82.591,82.591,0,0,0,61.531,15.89c25.4-3.69,42.955-17.478,57.866-37.592l74.761.052.024,14.438q-.074,19.176.2,38.352l-292.553.4Z" fill="#5677bb"/>
      <path id="Path_16" data-name="Path 16" d="M679.328,752.841l48.245.005c9.378,15.785,10.436,34.092,10.65,51.976l-58.871-.017Z" fill="#5677bb"/>
      <path id="Path_17" data-name="Path 17" d="M194.148,752.958c15.836.474,31.745-.094,47.6.119l.185,51.739-10.111.011-48.771,0C182.851,786.186,186.7,769.98,194.148,752.958Z" fill="#5677bb"/>
      <path id="Path_18" data-name="Path 18" d="M543.128,648.237c7.3,1.541,14.7,2.539,21.966,4.3,14.189,3.441,27.754,8.507,41.346,13.759l.262,27.657-9.218-.008-63.9-.009C541.225,678.4,543,665.25,543.128,648.237Z" fill="#5677bb"/>
      <path id="Path_19" data-name="Path 19" d="M377.648,649c1.579.594,1.573,5.052,1.624,6.627.51,15.622,3.609,22.907,10.183,36.923-20.409-.735-41.059-.121-61.494-.113l-13.846.046-.011-26.563C334.321,657.554,355.86,651.4,377.648,649Z" fill="#5677bb"/>
      <path id="Path_20" data-name="Path 20" d="M679.347,699.681c16.246,8.891,36.8,34.138,46.648,50.117q-23.331-.05-46.659.24Z" fill="#5677bb"/>
      <path id="Path_21" data-name="Path 21" d="M240.7,701.233l.585.492c1.3,4.794.661,10.937.652,15.89-.02,10.812-.306,21.609-.385,32.418L198.881,750l-1.895-.214c-.423-.584-.519-.424-.372-1,.517-2.048,2.8-4.878,4.015-6.717A153.86,153.86,0,0,1,240.7,701.233Z" fill="#5677bb"/>
      <path id="Path_22" data-name="Path 22" d="M125.564,427.321a64.131,64.131,0,1,1-57.1,70.508A64.132,64.132,0,0,1,125.564,427.321Z"/>
      <path id="Path_23" data-name="Path 23" d="M128.624,429.869A61.334,61.334,0,1,1,71.1,494.779,61.335,61.335,0,0,1,128.624,429.869Z" fill="#dbe6e3"/>
      <path id="Path_24" data-name="Path 24" d="M127.942,453.534A37.768,37.768,0,1,1,94.561,495.1,37.768,37.768,0,0,1,127.942,453.534Z" fill="#f26f6e"/>
      <g id="Path_25" data-name="Path 25" fill="rgba(255,164,96,0.99)">
        <path d="M 742.863037109375 430.1391906738281 L 742.217529296875 429.7200012207031 C 738.1661987304688 427.0891723632812 734.517822265625 423.0483093261719 730.989501953125 419.1404724121094 C 729.7298583984375 417.7453308105469 728.5401000976562 416.4275512695312 727.3593139648438 415.2044677734375 C 722.0892333984375 409.6991577148438 716.6065673828125 404.2351989746094 711.0606079101562 398.9613647460938 L 710.3797607421875 398.3139343261719 L 710.9835205078125 397.5940856933594 C 714.5856323242188 393.2992858886719 718.6918334960938 389.2796630859375 722.6629028320312 385.3923950195312 C 723.9114379882812 384.1701965332031 725.2024536132812 382.9064025878906 726.44921875 381.6614685058594 C 727.7849731445312 380.3274536132812 729.1405029296875 378.9486083984375 730.451416015625 377.6151428222656 C 734.249755859375 373.75146484375 738.1774291992188 369.7562561035156 742.2975463867188 366.1566162109375 L 742.899169921875 365.6310119628906 L 743.544677734375 366.1016845703125 C 747.0826416015625 368.6815490722656 750.413818359375 372.271484375 753.6353759765625 375.7432250976562 C 755.00390625 377.2181091308594 756.2965698242188 378.6111755371094 757.5787963867188 379.9005126953125 C 759.5052490234375 381.8376159667969 761.5269165039062 383.7892456054688 763.48193359375 385.6766357421875 C 767.2176513671875 389.2829895019531 771.0805053710938 393.0121154785156 774.56201171875 396.9049072265625 L 775.1333618164062 397.5437316894531 L 774.5895385742188 398.2061157226562 C 772.3826904296875 400.8938598632812 769.8671264648438 403.4316101074219 767.4343872070312 405.8858337402344 C 766.4930419921875 406.8354797363281 765.5196533203125 407.8174438476562 764.5888061523438 408.7839965820312 C 758.031982421875 415.5935668945312 750.930908203125 422.8311767578125 743.4334716796875 429.6224670410156 L 742.863037109375 430.1391906738281 Z M 715.2288818359375 398.0271301269531 C 715.3985595703125 398.2072448730469 715.5816040039062 398.401611328125 715.777099609375 398.6091918945312 C 718.7161865234375 401.7301330566406 724.8319091796875 408.224365234375 730.552490234375 414.0306701660156 C 738.212158203125 421.8051452636719 741.3751831054688 424.49462890625 742.6805419921875 425.3902282714844 L 743.2545776367188 424.8439331054688 C 752.5238647460938 416.0227355957031 762.1011352539062 406.9083862304688 770.65625 397.3916931152344 C 765.1047973632812 392.212158203125 759.7072143554688 386.7510070800781 754.4798583984375 381.4621887207031 C 753.6276245117188 380.5998840332031 752.775146484375 379.7374267578125 751.9215698242188 378.8756103515625 C 751.0350952148438 377.9803466796875 750.1321411132812 377.024169921875 749.2589111328125 376.0994567871094 C 747.2347412109375 373.9559326171875 745.1483764648438 371.7465515136719 742.9533081054688 369.9430847167969 C 736.5464477539062 376.7031860351562 729.9878540039062 383.4529418945312 723.4495239257812 390.0152587890625 C 722.2882690429688 391.1758422851562 721.080810546875 392.3247985839844 719.9130249023438 393.4359130859375 C 718.3504028320312 394.9227905273438 716.7412719726562 396.4539184570312 715.2288818359375 398.0271301269531 Z" stroke="none"/>
        <path d="M 742.9555053710938 366.9096984863281 C 737.4391479492188 371.7291259765625 732.3403930664062 377.1913452148438 727.1558227539062 382.3691101074219 C 721.9737548828125 387.5434265136719 716.4556884765625 392.6257934570312 711.7496948242188 398.2366943359375 C 717.3193359375 403.5330505371094 722.764404296875 408.9583129882812 728.0787353515625 414.5099182128906 C 732.56640625 419.1582946777344 737.3944702148438 425.3956604003906 742.7621459960938 428.8813171386719 C 750.1253051757812 422.211669921875 756.9788818359375 415.2455444335938 763.8685302734375 408.09033203125 C 767.1856689453125 404.6459655761719 770.783935546875 401.2651672363281 773.816650390625 397.571533203125 C 768.534912109375 391.6658630371094 762.4668579101562 386.2337341308594 756.8697509765625 380.6056518554688 C 752.5384521484375 376.2503356933594 747.8900756835938 370.5079345703125 742.9555053710938 366.9096984863281 M 742.8214721679688 426.6366271972656 C 738.8820190429688 424.7717895507812 718.18212890625 402.6083679199219 713.8526000976562 398.0252685546875 C 716.6773681640625 395.0028381347656 719.8123779296875 392.2365112304688 722.7411499023438 389.3094482421875 C 729.5362548828125 382.4894104003906 736.2420043945312 375.5817260742188 742.8583984375 368.5889587402344 C 746.358642578125 371.2891235351562 749.5048217773438 375.013671875 752.632080078125 378.1719055175781 C 759.0361938476562 384.6378479003906 765.376708984375 391.1408081054688 772.0558471679688 397.3274841308594 C 762.9661865234375 407.5240173339844 752.7189331054688 417.2152404785156 742.8214721679688 426.6366271972656 M 742.8428955078125 364.3523254394531 L 744.1338500976562 365.293701171875 C 747.7499389648438 367.9304809570312 751.1145629882812 371.5564575195312 754.368408203125 375.0630493164062 C 755.7308959960938 376.5313720703125 757.017822265625 377.9182739257812 758.2879028320312 379.1953430175781 C 760.2071533203125 381.125244140625 762.22509765625 383.0733337402344 764.1765747070312 384.9572448730469 C 767.9252319335938 388.5761108398438 771.8014526367188 392.3181762695312 775.3074340820312 396.23828125 L 776.4500732421875 397.5159301757812 L 775.3623657226562 398.8406982421875 C 773.1258544921875 401.5645751953125 770.5936279296875 404.1192016601562 768.1447143554688 406.5897216796875 C 767.205810546875 407.5368957519531 766.2349853515625 408.5162963867188 765.30908203125 409.4776916503906 C 758.7400512695312 416.2999572753906 751.62451171875 423.5521850585938 744.1047973632812 430.3636169433594 L 742.9639282226562 431.3970336914062 L 741.6729125976562 430.5586853027344 C 737.5117797851562 427.8565063476562 733.8187255859375 423.7662353515625 730.247314453125 419.8106079101562 C 728.993408203125 418.4218444824219 727.80908203125 417.110107421875 726.639892578125 415.8990478515625 L 726.6339721679688 415.8929138183594 C 721.3777465820312 410.4020080566406 715.90625 404.94921875 710.3714599609375 399.6860046386719 L 709.0098266601562 398.3911437988281 L 710.2173461914062 396.9514465332031 C 713.8510131835938 392.6190490722656 717.9750366210938 388.5820007324219 721.9633178710938 384.6778259277344 C 723.2101440429688 383.4573059082031 724.4993896484375 382.1952514648438 725.74267578125 380.9538269042969 C 727.0751342773438 379.6231384277344 728.4290161132812 378.2459411621094 729.7383422851562 376.9140930175781 C 733.5497436523438 373.037109375 737.4909057617188 369.0281372070312 741.6396484375 365.4035339355469 L 742.8428955078125 364.3523254394531 Z M 769.2559204101562 397.4505615234375 C 763.9429321289062 392.4591674804688 758.7777709960938 387.2332153320312 753.768798828125 382.1653442382812 C 752.916748046875 381.30322265625 752.064453125 380.4409484863281 751.2111206054688 379.5793151855469 C 750.316162109375 378.675537109375 749.4091186523438 377.7149963378906 748.5319213867188 376.7860717773438 C 746.751220703125 374.9004211425781 744.9219360351562 372.9632568359375 743.0286865234375 371.3166809082031 C 736.82275390625 377.8536682128906 730.4813842773438 384.3743896484375 724.157958984375 390.7210693359375 C 722.986572265625 391.8917846679688 721.7745361328125 393.0450134277344 720.6024780273438 394.1602783203125 C 719.2755126953125 395.4229125976562 717.914794921875 396.7175903320312 716.6133422851562 398.03857421875 C 719.5899047851562 401.1992492675781 725.6212158203125 407.6006469726562 731.2645874023438 413.3285827636719 C 734.4400024414062 416.5516357421875 737.0952758789062 419.1584167480469 739.1566162109375 421.0765686035156 C 740.8270874023438 422.6310424804688 741.9092407226562 423.5474243164062 742.5994873046875 424.0868835449219 C 751.6073608398438 415.5144653320312 760.9049072265625 406.6647644042969 769.2559204101562 397.4505615234375 Z" stroke="none" fill="#ffa561"/>
      </g>
      <path id="Path_26" data-name="Path 26" d="M159.661,650.4a16.9,16.9,0,1,1-13.211,19.762A16.9,16.9,0,0,1,159.661,650.4Z" fill="#44d0b9"/>
      <g id="Path_27" data-name="Path 27" fill="rgba(213,226,252,0.93)">
        <path d="M 771.9953002929688 215.4696197509766 C 768.1775512695312 215.4696350097656 764.4779052734375 214.6711120605469 760.9990844726562 213.0962219238281 L 760.9946899414062 213.0942230224609 L 760.9902954101562 213.0921783447266 C 753.3406982421875 209.5397644042969 750.038330078125 203.1150970458984 746.8446044921875 196.9019622802734 C 744.5059814453125 192.3522644042969 742.0877075195312 187.6476745605469 737.9523315429688 184.1945037841797 C 735.9338989257812 182.5086975097656 733.569580078125 181.2049713134766 730.9249877929688 180.3194122314453 C 728.3815307617188 179.4677429199219 725.6871337890625 179.0359039306641 722.916748046875 179.0359039306641 C 721.8955078125 179.0359039306641 720.8658447265625 179.0966339111328 719.8562622070312 179.2164154052734 C 716.5571899414062 179.6081390380859 713.5882568359375 180.7540283203125 710.7798461914062 182.7196197509766 C 708.4141845703125 184.3753356933594 706.1629028320312 186.5982513427734 703.6949462890625 189.7152862548828 L 703.6212768554688 189.8083343505859 L 703.5278930664062 189.8815460205078 C 703.4288940429688 189.9591369628906 703.35888671875 190.0189819335938 703.3026123046875 190.0670623779297 C 703.1239013671875 190.2198028564453 702.8538208007812 190.4506225585938 702.3995971679688 190.4506378173828 C 702.2787475585938 190.4506530761719 702.1785278320312 190.4345855712891 702.0724487304688 190.4175720214844 C 701.9838256835938 190.4033508300781 701.8734741210938 190.3856506347656 701.7025146484375 190.3692321777344 L 700.7645263671875 190.2791595458984 L 700.7987670898438 189.3374786376953 C 700.8746337890625 187.25146484375 702.1627807617188 185.8659515380859 703.1978759765625 184.7526702880859 C 705.7899169921875 181.9649353027344 708.68408203125 179.8204498291016 711.7999877929688 178.3787689208984 C 714.9600830078125 176.9166412353516 718.4691772460938 176.1209411621094 722.2296752929688 176.0137634277344 C 722.6438598632812 176.0019836425781 723.0579833984375 175.9960174560547 723.460693359375 175.9960174560547 C 727.2312622070312 175.9960174560547 730.4577026367188 176.4971008300781 733.3244018554688 177.5279235839844 C 735.9150390625 178.4594879150391 738.1488647460938 179.8039855957031 740.1533813476562 181.6382598876953 C 743.8342895507812 185.0064849853516 746.1495361328125 189.5629730224609 748.3885498046875 193.9694366455078 C 750.7137451171875 198.5455932617188 753.1181640625 203.2775573730469 757.0782470703125 206.8350372314453 C 759.1026000976562 208.6538238525391 761.406494140625 210.0391693115234 763.9259643554688 210.9526519775391 C 766.35498046875 211.8333587646484 768.9930419921875 212.2799530029297 771.7669067382812 212.2800750732422 C 771.7671508789062 212.2800750732422 771.7673950195312 212.2800750732422 771.7676391601562 212.2800750732422 C 772.3789672851562 212.2800750732422 773.00537109375 212.258056640625 773.6295166015625 212.214599609375 C 778.5792846679688 211.8701019287109 782.3799438476562 210.2045745849609 785.5904541015625 206.9730224609375 C 788.489013671875 204.0554504394531 790.5320434570312 200.2613372802734 792.695068359375 196.2444458007812 C 794.7557983398438 192.4174499511719 796.88671875 188.4601287841797 799.8919677734375 185.1026458740234 C 802.6895751953125 181.9773254394531 805.8452758789062 179.7156677246094 809.5396118164062 178.1884918212891 C 812.8623046875 176.8148803710938 816.647216796875 176.0360870361328 821.1105346679688 175.8075561523438 L 821.1856079101562 175.8037261962891 L 821.2603149414062 175.8111419677734 C 822.0675659179688 175.8911590576172 822.55224609375 176.0685729980469 823.254638671875 176.3512573242188 L 824.7417602539062 176.9497528076172 L 823.55029296875 178.0221862792969 C 822.52392578125 178.9459991455078 820.3037719726562 179.2862091064453 817.0337524414062 179.6997833251953 C 815.5902099609375 179.8823699951172 814.2266845703125 180.0548400878906 813.4559936523438 180.2913970947266 C 810.5931396484375 181.1656036376953 807.9544677734375 182.5521087646484 805.61181640625 184.4127960205078 L 805.609619140625 184.4145660400391 L 805.6073608398438 184.4163208007812 C 801.4122924804688 187.7097320556641 798.9973754882812 192.2409210205078 796.4406127929688 197.0381622314453 C 794.55908203125 200.5684967041016 792.613525390625 204.2190246582031 789.8939819335938 207.3211822509766 C 785.6028442382812 212.2149047851562 780.0077514648438 215.0133666992188 773.7135009765625 215.4141693115234 C 773.1447143554688 215.4509429931641 772.5663452148438 215.4696044921875 771.9953002929688 215.4696197509766 Z" stroke="none"/>
        <path d="M 821.1616821289062 176.8062591552734 C 812.9872436523438 177.2247619628906 806.2041625976562 179.5502624511719 800.6370849609375 185.7696075439453 C 791.528564453125 195.9455261230469 790.529052734375 212.0408477783203 773.698974609375 213.2121887207031 C 767.2921752929688 213.6581726074219 761.2422485351562 211.9205322265625 756.4099731445312 207.5789489746094 C 744.5402221679688 196.9159698486328 746.6500854492188 176.9950408935547 723.460693359375 176.9960174560547 C 723.0677490234375 176.9960327148438 722.6658325195312 177.0017700195312 722.2581787109375 177.0133666992188 C 714.929443359375 177.2221984863281 708.927490234375 180.0590209960938 703.9302368164062 185.4335784912109 C 702.8499755859375 186.5954742431641 701.8582153320312 187.7203826904297 701.798095703125 189.3738250732422 C 702.6574096679688 189.4563446044922 702.2947998046875 189.5775909423828 702.9109497070312 189.0945281982422 C 707.3187255859375 183.5274810791016 712.3486328125 179.1007995605469 719.7384643554688 178.223388671875 C 726.3658447265625 177.4370574951172 733.4310302734375 179.1154022216797 738.59326171875 183.4269256591797 C 748.5328979492188 191.7268218994141 748.4984741210938 206.1884765625 761.4114990234375 212.1852264404297 C 765.24609375 213.9211730957031 769.44921875 214.6877746582031 773.6499633789062 214.4161834716797 C 779.77734375 214.0260162353516 785.114990234375 211.2545166015625 789.1420288085938 206.6619873046875 C 795.3475952148438 199.5832672119141 797.3929443359375 189.5938415527344 804.9898681640625 183.6297454833984 C 807.4210205078125 181.6987152099609 810.1934204101562 180.2420654296875 813.1625366210938 179.3354187011719 C 815.4107055664062 178.6453399658203 821.478759765625 178.5413513183594 822.8812866210938 177.2789306640625 C 822.2513427734375 177.0254058837891 821.8466186523438 176.8741455078125 821.1616821289062 176.8062591552734 M 821.20947265625 174.8011932373047 L 821.3590087890625 174.8160095214844 C 822.2943115234375 174.9087371826172 822.8894653320312 175.1262969970703 823.6279907226562 175.4235687255859 L 826.6022338867188 176.6205902099609 L 824.2192993164062 178.7654571533203 C 822.9733276367188 179.886962890625 820.7208251953125 180.2414245605469 817.1592407226562 180.6918792724609 C 815.8212280273438 180.8611145019531 814.4376831054688 181.0361175537109 813.7494506835938 181.2473754882812 C 811.0055541992188 182.0852508544922 808.4778442382812 183.4134216308594 806.2338256835938 185.1958465576172 L 806.2249145507812 185.202880859375 C 802.1956176757812 188.3661193847656 799.828857421875 192.8069305419922 797.3231201171875 197.5084838867188 C 795.4148559570312 201.0889739990234 793.441650390625 204.7913360595703 790.6459350585938 207.9804077148438 C 788.45263671875 210.4817047119141 785.9090576171875 212.4732818603516 783.0856323242188 213.9000244140625 C 780.2018432617188 215.3572540283203 777.0699462890625 216.2024688720703 773.7770385742188 216.4121398925781 C 773.187744140625 216.4502410888672 772.587646484375 216.4696197509766 771.9953002929688 216.4696197509766 C 768.0343017578125 216.4696197509766 764.1959228515625 215.6411590576172 760.586669921875 214.0072174072266 L 760.569091796875 213.9991760253906 C 752.6082763671875 210.3021697998047 749.22607421875 203.7223358154297 745.9552612304688 197.359130859375 C 743.556640625 192.6927795410156 741.291015625 188.2852325439453 737.3113403320312 184.9620819091797 C 735.3888549804688 183.3564147949219 733.1334228515625 182.1134796142578 730.6074829101562 181.2676696777344 C 728.1665649414062 180.4503326416016 725.5789794921875 180.0359039306641 722.916748046875 180.0359039306641 C 721.9347534179688 180.0359039306641 720.9447631835938 180.0942993164062 719.9740600585938 180.2094573974609 C 716.8430786132812 180.5812225341797 714.0230712890625 181.6702880859375 711.3532104492188 183.5389099121094 C 709.0693359375 185.1373901367188 706.8849487304688 187.2972412109375 704.4789428710938 190.3360290527344 L 704.3316040039062 190.5221557617188 L 704.144775390625 190.6686096191406 C 704.0625 190.7331085205078 704.0064697265625 190.7809906005859 703.9522705078125 190.8272857666016 C 703.7340087890625 191.0138244628906 703.222900390625 191.4506378173828 702.3995361328125 191.4506378173828 C 702.1990966796875 191.4506378173828 702.034423828125 191.4242401123047 701.9141845703125 191.4049530029297 C 701.8316650390625 191.3917388916016 701.7463989257812 191.3780517578125 701.6068725585938 191.3646545410156 L 699.73095703125 191.1845092773438 L 699.7993774414062 189.3011474609375 C 699.8887939453125 186.8431701660156 701.3780517578125 185.2413482666016 702.4655151367188 184.0717468261719 C 705.1464233398438 181.1884155273438 708.1456909179688 178.9676818847656 711.3800659179688 177.4712066650391 C 714.663818359375 175.9518737792969 718.3045654296875 175.1252136230469 722.2012329101562 175.0141906738281 C 722.6241455078125 175.0021514892578 723.0478515625 174.9960327148438 723.4606323242188 174.9960174560547 C 727.3485107421875 174.995849609375 730.6856079101562 175.5161285400391 733.6627197265625 176.5865631103516 C 736.3804321289062 177.5637359619141 738.724365234375 178.9747009277344 740.8284912109375 180.9000854492188 C 744.6434936523438 184.3910369873047 747.0005493164062 189.0299987792969 749.280029296875 193.5162353515625 C 751.563720703125 198.0107574462891 753.9251708984375 202.6582794189453 757.7465209960938 206.0911407470703 C 759.6749877929688 207.8237457275391 761.8687133789062 209.1430969238281 764.2667846679688 210.0126190185547 C 766.5863647460938 210.8536376953125 769.1097412109375 211.2800750732422 771.7669067382812 211.2800750732422 C 772.355712890625 211.2800750732422 772.9590454101562 211.2588500976562 773.56005859375 211.2170257568359 C 783.8838500976562 210.4985046386719 787.55908203125 203.6732788085938 791.8145751953125 195.7703552246094 C 793.9029541015625 191.8919830322266 796.0624389648438 187.881591796875 799.1468505859375 184.4356994628906 C 802.046875 181.1959533691406 805.3213500976562 178.8501892089844 809.1575317382812 177.2643127441406 C 812.5872802734375 175.8464813232422 816.4804077148438 175.0433044433594 821.0594482421875 174.8088684082031 L 821.20947265625 174.8011932373047 Z" stroke="none" fill="#d5e0f9"/>
      </g>
      <g id="Path_28" data-name="Path 28" fill="rgba(213,226,252,0.93)">
        <path d="M 771.6434936523438 270.3062133789062 C 767.8026123046875 270.3062133789062 764.0547485351562 269.4405212402344 760.8050537109375 267.8027038574219 C 753.4816284179688 264.1125793457031 750.0670166015625 257.5956115722656 746.7648315429688 251.293212890625 C 745.46484375 248.8121795654297 744.1206665039062 246.2466888427734 742.56494140625 243.9298706054688 C 740.8472900390625 241.3718719482422 739.0330810546875 239.3720550537109 737.0186767578125 237.816162109375 C 733.0716552734375 234.7677764892578 727.9745483398438 233.0889587402344 722.666259765625 233.0889587402344 C 718.156005859375 233.0889587402344 713.9077758789062 234.2926025390625 710.380859375 236.5697631835938 C 709.73388671875 236.9873657226562 708.9324340820312 237.6747283935547 708.0839233398438 238.4024200439453 C 706.2352905273438 239.9878234863281 704.32373046875 241.6272125244141 702.5410766601562 241.8898620605469 L 701.510009765625 242.0417785644531 L 701.4008178710938 241.0053100585938 C 701.2897338867188 239.9509429931641 701.8833618164062 239.2455749511719 702.3168334960938 238.7305450439453 C 702.388916015625 238.6448669433594 702.4569702148438 238.5639801025391 702.5220336914062 238.4824371337891 C 704.7843017578125 235.6458282470703 707.73779296875 233.5655517578125 711.5510864257812 232.1229553222656 C 714.5018310546875 231.0066528320312 717.8758544921875 230.2994689941406 722.1692504882812 229.8974304199219 L 722.2467041015625 229.8901672363281 L 722.3243408203125 229.8949890136719 C 726.45458984375 230.1511383056641 729.9546508789062 230.8465118408203 733.0244750976562 232.0207824707031 C 735.7998657226562 233.0824584960938 738.1593627929688 234.5140686035156 740.2377319335938 236.3974609375 C 744.0723876953125 239.8723602294922 746.3223266601562 244.3907623291016 748.4981689453125 248.7603759765625 C 749.9376831054688 251.6511993408203 751.4261474609375 254.6404571533203 753.3697509765625 257.3364868164062 C 755.5267944335938 260.3285827636719 758.0283813476562 262.6310119628906 761.0175170898438 264.3753662109375 C 764.132080078125 266.1929321289062 767.8240966796875 267.1536560058594 771.6943969726562 267.1536560058594 C 773.5927734375 267.1536560058594 775.47802734375 266.9203186035156 777.2977905273438 266.4601135253906 C 781.506591796875 265.3962097167969 784.7355346679688 263.4056091308594 787.4595336914062 260.195556640625 C 789.9221801757812 257.2934265136719 791.6661987304688 253.7681579589844 793.5126342773438 250.035888671875 C 794.7135009765625 247.6084442138672 795.955322265625 245.0983428955078 797.4462280273438 242.6760711669922 C 799.6649169921875 239.0708465576172 802.3732299804688 236.2909240722656 805.725830078125 234.1775054931641 C 808.751708984375 232.2701110839844 812.3661499023438 230.8802185058594 816.7757568359375 229.9284515380859 C 817.6148071289062 229.7474365234375 818.6939086914062 229.6436157226562 819.736572265625 229.6436157226562 C 820.9840087890625 229.6436157226562 822.7045288085938 229.7912902832031 823.8170166015625 230.4947204589844 L 824.8839111328125 231.1693267822266 L 823.9830932617188 232.0535736083984 C 823.5557250976562 232.4731292724609 822.7703857421875 232.6702575683594 817.9810791015625 233.5602874755859 C 815.37841796875 234.0439605712891 812.1393432617188 234.6459045410156 811.143798828125 235.0578155517578 C 808.2865600585938 236.2401580810547 806.14697265625 237.8797149658203 803.43115234375 240.3073272705078 C 800.6871337890625 243.4864501953125 798.8270263671875 247.3356018066406 797.02783203125 251.0586395263672 C 795.298583984375 254.6369781494141 793.5104370117188 258.3371276855469 790.915771484375 261.5559692382812 C 786.94580078125 266.4796447753906 781.19775390625 269.4582214355469 774.29296875 270.1697692871094 C 773.4158325195312 270.2602844238281 772.5244140625 270.3062133789062 771.6434936523438 270.3062133789062 Z" stroke="none"/>
        <path d="M 819.7366333007812 230.6436157226562 C 818.711669921875 230.6436157226562 817.7059936523438 230.7507629394531 816.9867553710938 230.9059448242188 C 808.8922729492188 232.653076171875 802.703857421875 236.040771484375 798.2978515625 243.2002563476562 C 792.3010864257812 252.9430389404297 790.37353515625 264.1863098144531 777.54296875 267.4295959472656 C 771.8917846679688 268.8587036132812 765.577880859375 268.1944580078125 760.5134887695312 265.2390441894531 C 743.2365112304688 255.1567840576172 750.2525024414062 232.6290283203125 722.262451171875 230.89306640625 C 715.2697143554688 231.5479125976562 707.9546508789062 233.2744140625 703.3037109375 239.1061401367188 C 702.8422241210938 239.6845092773438 702.3162841796875 240.1503295898438 702.3953247070312 240.9005432128906 C 704.6701049804688 240.5653686523438 707.7802124023438 237.0582275390625 709.8384399414062 235.7296752929688 C 718.1133422851562 230.386962890625 729.846435546875 231.0133056640625 737.6299438476562 237.0247192382812 C 748.0697021484375 245.0882873535156 748.4942016601562 260.4797973632812 761.255126953125 266.9096984863281 C 765.222900390625 268.909423828125 769.7861328125 269.6296081542969 774.1904907226562 269.1750183105469 C 780.4536743164062 268.5296020507812 786.1307373046875 265.8973388671875 790.13720703125 260.9283752441406 C 795.3785400390625 254.4263458251953 797.2150268554688 245.9450988769531 802.716796875 239.6046142578125 C 805.2459106445312 237.3410034179688 807.5860595703125 235.4477844238281 810.761474609375 234.1337890625 C 812.8987426757812 233.2494506835938 822.7222900390625 231.8899536132812 823.2825927734375 231.3399353027344 C 822.4767456054688 230.8303833007812 821.08984375 230.6436157226562 819.7366333007812 230.6436157226562 M 819.7366333007812 228.6436157226562 C 821.7431640625 228.6436157226562 823.2958374023438 228.9820556640625 824.3514404296875 229.6495056152344 L 826.4852294921875 230.9986877441406 L 824.6836547851562 232.7671813964844 C 824.208251953125 233.23388671875 823.630859375 233.4515075683594 821.8754272460938 233.8257446289062 C 820.8531494140625 234.0436706542969 819.5468139648438 234.2864074707031 818.1638793945312 234.5434265136719 C 815.741943359375 234.9935302734375 812.4249877929688 235.6099243164062 811.526123046875 235.9818420410156 C 808.8170166015625 237.1028747558594 806.758544921875 238.6775817871094 804.1461181640625 241.0095520019531 C 801.5123901367188 244.0769653320312 799.7709350585938 247.6806335449219 797.92822265625 251.4937438964844 C 796.1744384765625 255.1228179931641 794.3609619140625 258.87548828125 791.6942749023438 262.1835327148438 C 787.5531616210938 267.3195190429688 781.5714111328125 270.4250183105469 774.3955078125 271.1644897460938 C 773.4844360351562 271.2584838867188 772.5584106445312 271.3062133789062 771.6434936523438 271.3062133789062 C 767.6470336914062 271.3062133789062 763.7435302734375 270.4035034179688 760.35498046875 268.6956787109375 C 752.744873046875 264.8611450195312 749.2544555664062 258.1995544433594 745.8790283203125 251.7573089599609 C 743.2384033203125 246.7175598144531 740.7442626953125 241.9573364257812 736.4073486328125 238.6075439453125 C 732.634521484375 235.6936950683594 727.7545166015625 234.0889587402344 722.666259765625 234.0889587402344 C 718.348876953125 234.0889587402344 714.2882080078125 235.2373352050781 710.9232788085938 237.4098815917969 C 710.333251953125 237.7907104492188 709.5568237304688 238.4566040039062 708.7348022460938 239.1615600585938 C 706.7783813476562 240.8394165039062 704.7553100585938 242.5744018554688 702.6868286132812 242.8791809082031 L 700.6246948242188 243.1830139160156 L 700.4063110351562 241.1100769042969 C 700.2506713867188 239.6325988769531 701.0650634765625 238.6648864746094 701.5516967773438 238.086669921875 C 701.6194458007812 238.0061340332031 701.6834716796875 237.9300842285156 701.7403564453125 237.8587341308594 C 702.9749755859375 236.3106689453125 704.4468994140625 234.9464721679688 706.1148681640625 233.804443359375 C 707.6180419921875 232.7752075195312 709.3280029296875 231.8948059082031 711.197265625 231.1876525878906 C 714.234130859375 230.0387573242188 717.69091796875 229.3124084472656 722.0759887695312 228.9017944335938 L 722.2308959960938 228.8872680664062 L 722.38623046875 228.8969116210938 C 726.6192016601562 229.159423828125 730.2158203125 229.8757629394531 733.3817749023438 231.0867919921875 C 736.2750854492188 232.1935424804688 738.7373046875 233.6882934570312 740.9092407226562 235.6564331054688 C 744.883544921875 239.2579345703125 747.1761474609375 243.862060546875 749.393310546875 248.3146362304688 C 750.81494140625 251.1696014404297 752.2849731445312 254.1217651367188 754.180908203125 256.7516784667969 C 756.2833251953125 259.66796875 758.6158447265625 261.8160095214844 761.5215454101562 263.5116577148438 C 764.4832763671875 265.2400512695312 768.0010375976562 266.1536560058594 771.6943969726562 266.1536560058594 C 773.5101318359375 266.1536560058594 775.3129272460938 265.9306030273438 777.0526123046875 265.4906005859375 C 785.8515014648438 263.2664794921875 788.9863891601562 256.9297790527344 792.6163330078125 249.5924835205078 C 793.8272705078125 247.1446685791016 795.0794677734375 244.613525390625 796.5946655273438 242.1519165039062 C 798.895263671875 238.41357421875 801.7076416015625 235.5283813476562 805.1925659179688 233.3315734863281 C 808.3190307617188 231.3607482910156 812.0388793945312 229.9278259277344 816.5647583007812 228.9509582519531 C 817.4701538085938 228.755615234375 818.6261596679688 228.6436157226562 819.7366333007812 228.6436157226562 Z" stroke="none" fill="#d5e0f9"/>
      </g>
      <g id="Path_29" data-name="Path 29" fill="rgba(213,226,252,0.93)">
        <path d="M 771.6176147460938 322.9922180175781 C 769.7845458984375 322.9922790527344 767.9292602539062 322.8260192871094 766.1032104492188 322.4980773925781 C 763.5140991210938 322.0328979492188 761.2454833984375 321.2416381835938 759.1676635742188 320.0790710449219 C 757.30419921875 319.0364379882812 755.6385498046875 317.7170104980469 754.0755004882812 316.0453186035156 C 751.2085571289062 312.9791259765625 749.1956787109375 309.283935546875 747.064697265625 305.3717956542969 C 745.6236572265625 302.7263793945312 744.1336059570312 299.9908752441406 742.3497924804688 297.4550476074219 C 738.5401611328125 292.0394897460938 733.2534790039062 288.7676086425781 726.6365966796875 287.7303771972656 C 725.4778442382812 287.5490112304688 724.300537109375 287.4570007324219 723.1375732421875 287.4570007324219 C 720.4856567382812 287.4570007324219 717.8734741210938 287.9258728027344 715.3735961914062 288.8505859375 C 712.8839111328125 289.7715454101562 710.5606079101562 291.1239013671875 708.4682006835938 292.8701477050781 C 707.7543334960938 293.4657287597656 707.0665283203125 294.0965576171875 706.4014282226562 294.7066040039062 C 705.292724609375 295.7234497070312 704.1463623046875 296.77490234375 702.8241577148438 297.7185668945312 L 702.46826171875 297.9725952148438 L 702.0401000976562 297.8837890625 L 701.62158203125 297.7969665527344 L 700.2537231445312 297.5132446289062 L 700.9633178710938 296.3098754882812 C 701.5596313476562 295.2985534667969 702.0590209960938 294.5397338867188 702.58251953125 293.8494262695312 C 706.4806518554688 288.7017211914062 712.4561157226562 285.5430908203125 720.3425903320312 284.4618225097656 L 720.3878173828125 284.4556274414062 L 720.4334106445312 284.4535522460938 C 721.1189575195312 284.4227294921875 721.7992553710938 284.4070739746094 722.4555053710938 284.4070739746094 C 726.2174682617188 284.4070739746094 729.4562377929688 284.8986206054688 732.3568725585938 285.9098510742188 C 734.9737548828125 286.8221130371094 737.2510375976562 288.1379089355469 739.3189086914062 289.9324035644531 C 743.1185302734375 293.2297058105469 745.5955200195312 297.6794128417969 747.990966796875 301.9826354980469 C 749.7662963867188 305.1718444824219 751.60205078125 308.4696044921875 753.9714965820312 311.305908203125 C 756.5968017578125 314.448486328125 759.6181640625 316.6790161132812 763.208251953125 318.1249694824219 C 765.7717895507812 319.1570434570312 768.6696166992188 319.6803894042969 771.821044921875 319.6803894042969 C 772.8345336914062 319.6803894042969 773.8953247070312 319.6264343261719 774.9740600585938 319.5200805664062 C 786.0657348632812 318.4256896972656 790.05224609375 311.0891418457031 794.2728881835938 303.3218078613281 C 797.7398071289062 296.9415283203125 801.32470703125 290.3440551757812 809.0553588867188 287.3177795410156 C 813.595703125 285.5406494140625 817.1677856445312 284.6767578125 819.9757690429688 284.6767578125 C 821.3785400390625 284.6767578125 822.5881958007812 284.9028930664062 823.5711669921875 285.3488464355469 L 824.4928588867188 285.7669677734375 L 824.0636596679688 286.68359375 C 823.4893188476562 287.9100646972656 821.642822265625 288.1058044433594 820.1591186523438 288.2630615234375 C 819.862548828125 288.2944946289062 819.5824584960938 288.3241882324219 819.3817749023438 288.3568420410156 C 813.1207275390625 289.3710327148438 808.5264282226562 290.8125610351562 803.5894775390625 295.1718444824219 C 800.8713989257812 298.06201171875 798.9672241210938 301.6597290039062 797.1254272460938 305.1395263671875 C 794.6119995117188 309.8883361816406 792.0130004882812 314.7987976074219 787.284423828125 318.1918334960938 C 782.9083862304688 321.3321228027344 777.4909057617188 322.9920654296875 771.6176147460938 322.9922180175781 Z" stroke="none"/>
        <path d="M 722.4555053710938 285.4070739746094 C 721.815673828125 285.4070739746094 721.1563720703125 285.4220275878906 720.4783935546875 285.4525451660156 C 713.8345336914062 286.3634643554688 707.55078125 288.9450378417969 703.3793334960938 294.4536743164062 C 702.8078002929688 295.2073364257812 702.3051147460938 296.0031127929688 701.82470703125 296.8178100585938 L 702.2432250976562 296.9046325683594 C 704.2997436523438 295.4367980957031 705.9085083007812 293.7034301757812 707.8274536132812 292.1023864746094 C 713.141845703125 287.6671447753906 719.92333984375 285.6672973632812 726.7914428710938 286.742431640625 C 733.6114501953125 287.8115234375 739.1819458007812 291.2138061523438 743.167724609375 296.8796997070312 C 750.1244506835938 306.7694396972656 752.3519287109375 319.0113220214844 766.2799682617188 321.5138244628906 C 773.3096923828125 322.7762145996094 780.8369750976562 321.5877075195312 786.701416015625 317.3793640136719 C 794.6944580078125 311.6438598632812 796.3522338867188 301.3794250488281 802.8930053710938 294.4528198242188 C 807.9392700195312 289.9848937988281 812.7010498046875 288.4259643554688 819.22119140625 287.3698120117188 C 820.3040161132812 287.1936340332031 822.7334594726562 287.1661376953125 823.1580200195312 286.2594909667969 C 819.5133666992188 284.6060485839844 812.9812622070312 286.8550415039062 809.419921875 288.2489624023438 C 792.8915405273438 294.7192077636719 796.0892944335938 318.4415588378906 775.0722045898438 320.5152282714844 C 770.923828125 320.9242858886719 766.7344360351562 320.6226196289062 762.8346557617188 319.0525512695312 C 743.3781127929688 311.2162170410156 749.0447387695312 285.4070739746094 722.4555053710938 285.4070739746094 M 722.4555053710938 283.4070739746094 C 726.3313598632812 283.4070739746094 729.6777954101562 283.9168701171875 732.6860961914062 284.965576171875 C 735.4248657226562 285.9203796386719 737.8088989257812 287.2980041503906 739.974365234375 289.1771545410156 C 743.90673828125 292.5896911621094 746.42724609375 297.1174926757812 748.86474609375 301.4962463378906 C 750.6174926757812 304.6449584960938 752.429931640625 307.90087890625 754.7389526367188 310.664794921875 C 757.2908935546875 313.7195739746094 760.1007690429688 315.7953186035156 763.5818481445312 317.1973571777344 C 766.0260009765625 318.181396484375 768.7981567382812 318.6803894042969 771.821044921875 318.6803894042969 C 772.8018798828125 318.6803894042969 773.8296508789062 318.6280517578125 774.8759155273438 318.5248718261719 C 779.6731567382812 318.0515747070312 783.353759765625 316.3741149902344 786.4588623046875 313.2458801269531 C 789.294677734375 310.3888854980469 791.2859497070312 306.7242126464844 793.3942260742188 302.8443603515625 C 795.1258544921875 299.657470703125 796.91650390625 296.3621215820312 799.2460327148438 293.483154296875 C 801.9549560546875 290.1353454589844 805.0443725585938 287.8140563964844 808.6908569335938 286.3865966796875 C 813.3494262695312 284.5632019042969 817.0407104492188 283.6768188476562 819.9757690429688 283.6767578125 C 821.5219116210938 283.6767272949219 822.87060546875 283.9328918457031 823.9843139648438 284.4381408691406 L 825.8276977539062 285.2744445800781 L 824.96923828125 287.1076354980469 C 824.1557006835938 288.8450317382812 821.9066772460938 289.0834350585938 820.2644653320312 289.2575073242188 C 819.982177734375 289.2874145507812 819.715576171875 289.315673828125 819.5423583984375 289.3438415527344 C 813.4762573242188 290.3264465332031 809.0292358398438 291.7151184082031 804.2862548828125 295.8906555175781 C 801.6783447265625 298.6751098632812 799.895751953125 302.0431213378906 798.00927734375 305.6073608398438 C 795.4417724609375 310.4582214355469 792.786865234375 315.4742736816406 787.867431640625 319.0043029785156 C 785.5484008789062 320.66845703125 782.931396484375 321.9407958984375 780.089111328125 322.7859497070312 C 777.3973388671875 323.5863647460938 774.547119140625 323.9922180175781 771.6176147460938 323.9922180175781 C 769.7252197265625 323.9922180175781 767.8104248046875 323.8206787109375 765.9264526367188 323.4823303222656 C 763.2261962890625 322.9971618652344 760.855712890625 322.1694030761719 758.6793823242188 320.9517517089844 C 756.7244873046875 319.8580017089844 754.9796142578125 318.4764709472656 753.3450317382812 316.728271484375 C 750.3912353515625 313.5691833496094 748.253662109375 309.6450805664062 746.1865234375 305.8501586914062 C 744.7589721679688 303.2294006347656 743.2827758789062 300.5194702148438 741.5319213867188 298.0303955078125 C 737.8841552734375 292.8450012207031 732.820556640625 289.7119750976562 726.481689453125 288.7182922363281 C 725.3742065429688 288.5449523925781 724.2489013671875 288.4570007324219 723.1375732421875 288.4570007324219 C 720.6044311523438 288.4570007324219 718.1090087890625 288.9049682617188 715.7205200195312 289.7884826660156 C 713.3380126953125 290.6697692871094 711.1135864257812 291.9649047851562 709.1089477539062 293.6379089355469 C 708.4129638671875 294.2185668945312 707.76416015625 294.8136291503906 707.0772705078125 295.443603515625 C 705.9464111328125 296.4807739257812 704.777099609375 297.5532531738281 703.4050903320312 298.5325012207031 L 702.6932983398438 299.0405578613281 L 698.6827392578125 298.2086181640625 L 700.1019287109375 295.8019104003906 C 700.7186889648438 294.7559814453125 701.2379760742188 293.9674682617188 701.7857055664062 293.2451782226562 C 703.94287109375 290.3965759277344 706.7451782226562 288.1055297851562 710.1139526367188 286.436767578125 C 713.0440063476562 284.9853515625 716.4397583007812 283.9875793457031 720.2067260742188 283.4710693359375 L 720.2972412109375 283.4586791992188 L 720.3884887695312 283.4545593261719 C 721.0888061523438 283.4230346679688 721.7843017578125 283.4070739746094 722.4555053710938 283.4070739746094 Z" stroke="none" fill="#d5e0f9"/>
      </g>
      <g id="Path_30" data-name="Path 30" transform="translate(-20 -30)" fill="rgba(86,119,187,0.98)">
        <path d="M 175.319091796875 215.8406677246094 C 171.9143981933594 215.8406677246094 168.9446868896484 215.3180694580078 166.2403869628906 214.2430877685547 C 163.8084411621094 213.2763519287109 161.6527709960938 211.8837738037109 159.6501312255859 209.9857330322266 C 155.9826507568359 206.5097961425781 153.5037841796875 202.0005950927734 150.8793640136719 197.2266387939453 C 148.0125122070312 192.0116882324219 145.0480651855469 186.6192016601562 140.4148559570312 182.774169921875 C 136.7036285400391 179.6943511962891 131.9011688232422 178.0664367675781 126.5266799926758 178.0664367675781 C 125.6254653930664 178.0664367675781 124.7039337158203 178.1133880615234 123.7876663208008 178.2059631347656 C 119.9160766601562 178.5973205566406 116.7757263183594 179.6130523681641 113.9048309326172 181.4025421142578 C 111.3463287353516 182.9973449707031 108.9806747436523 185.2082977294922 106.2372055053711 188.5691833496094 L 105.8183975219727 189.1474304199219 L 105.5688323974609 189.4920196533203 L 105.1474838256836 189.5511474609375 L 104.4737167358398 189.6457061767578 L 103.3584136962891 189.8022003173828 L 103.3349609375 188.6762237548828 C 103.3039779663086 187.1881561279297 103.8576278686523 185.7585296630859 104.9805603027344 184.4270629882812 C 107.3740005493164 181.5885467529297 110.3086471557617 179.3271636962891 113.7029113769531 177.7058258056641 C 116.9610290527344 176.1495208740234 120.5382461547852 175.2295684814453 124.3351974487305 174.9715118408203 C 125.1993637084961 174.9129028320312 126.0516967773438 174.8831634521484 126.8686828613281 174.8831634521484 C 130.3278350830078 174.8831634521484 133.3289337158203 175.3927001953125 136.0435028076172 176.4408569335938 C 138.4913787841797 177.3860473632812 140.6474609375 178.7499847412109 142.6349334716797 180.6105804443359 C 146.2796630859375 184.0226898193359 148.7041320800781 188.4789276123047 151.2709655761719 193.1968383789062 C 154.1058959960938 198.4075317382812 157.037353515625 203.7956390380859 161.7856903076172 207.7768859863281 C 163.7517700195312 209.4253234863281 165.9546966552734 210.6795349121094 168.3332824707031 211.5046997070312 C 170.6284484863281 212.3009338378906 173.1046447753906 212.7047119140625 175.6930694580078 212.704833984375 C 175.6933441162109 212.704833984375 175.6936950683594 212.704833984375 175.6939697265625 212.704833984375 C 176.5917205810547 212.704833984375 177.5151062011719 212.6557006835938 178.438720703125 212.5588226318359 C 181.0000152587891 212.2900390625 183.2415466308594 211.6486663818359 185.2914123535156 210.5980834960938 C 187.1197662353516 209.6610107421875 188.7643432617188 208.4109954833984 190.3191070556641 206.7765960693359 C 193.2662811279297 203.6784973144531 195.3888702392578 199.7411499023438 197.6360626220703 195.5726013183594 C 199.5991821289062 191.9310607910156 201.6291198730469 188.16552734375 204.2892913818359 184.9292144775391 C 207.2198181152344 181.3632659912109 210.7960357666016 178.8164520263672 215.2221984863281 177.1432800292969 C 219.5498504638672 175.5073547363281 224.1882934570312 174.8893737792969 228.1648712158203 174.5037689208984 C 228.5765380859375 174.4053344726562 228.8886871337891 174.3629760742188 229.1972351074219 174.3629760742188 C 229.6650543212891 174.3629760742188 230.0841369628906 174.4680633544922 230.4673156738281 174.5816040039062 L 232.1757202148438 175.0878295898438 L 230.8536376953125 176.2823791503906 C 229.3773803710938 177.6162109375 226.9250946044922 177.9839630126953 223.8204040527344 178.4495849609375 C 219.6593017578125 179.0735931396484 214.4806823730469 179.8502349853516 210.4190063476562 183.4169158935547 C 206.3907775878906 186.9543304443359 203.9111785888672 191.5427398681641 201.2860107421875 196.4005279541016 C 199.3188781738281 200.0406494140625 197.2847595214844 203.8047180175781 194.5457916259766 207.0500030517578 C 190.1212158203125 212.2936706542969 184.3060302734375 215.3041381835938 177.7290191650391 215.755859375 C 176.9112854003906 215.8120422363281 176.1017150878906 215.840576171875 175.3228302001953 215.8406677246094 C 175.3215789794922 215.8406677246094 175.3203277587891 215.8406677246094 175.319091796875 215.8406677246094 Z" stroke="none"/>
        <path d="M 229.1972198486328 175.3629913330078 C 228.9418640136719 175.3629913330078 228.6790313720703 175.4062347412109 228.3320922851562 175.4922637939453 C 219.2544555664062 176.3679809570312 211.149658203125 178.1563568115234 205.0618133544922 185.5641937255859 C 196.5505218505859 195.9188842773438 194.6186370849609 211.8663940429688 178.5430603027344 213.5533447265625 C 172.1785430908203 214.2210845947266 166.1061096191406 212.7042846679688 161.1432189941406 208.5431671142578 C 147.2856903076172 196.9243469238281 148.7890472412109 174.3145751953125 124.4029693603516 175.9692230224609 C 117.1824645996094 176.4599304199219 110.4586791992188 179.4815216064453 105.7449951171875 185.0717620849609 C 104.8795928955078 186.0978851318359 104.306396484375 187.2941284179688 104.3347320556641 188.6553802490234 L 105.0085144042969 188.5608673095703 L 105.4442138671875 187.9592895507812 C 110.5437622070312 181.7064361572266 115.4147338867188 178.0472106933594 123.6871337890625 177.2110290527344 C 129.8867950439453 176.5845336914062 136.1790924072266 177.9595489501953 141.0534820556641 182.0046539306641 C 154.1343536376953 192.8602752685547 153.864013671875 214.8406524658203 175.3227081298828 214.8406524658203 C 176.0736999511719 214.8406524658203 176.8547821044922 214.8135681152344 177.6604919433594 214.7582092285156 C 184.1170043945312 214.3147583007812 189.6359558105469 211.3180999755859 193.7816009521484 206.405029296875 C 199.9691467285156 199.0736541748047 202.4312438964844 189.1005554199219 209.7591857910156 182.6655120849609 C 216.9169616699219 176.3800048828125 227.0653686523438 178.3574676513672 230.1832122802734 175.5404052734375 C 229.7832794189453 175.4218902587891 229.4953308105469 175.3629913330078 229.1972198486328 175.3629913330078 M 229.1972045898438 173.3629913330078 C 229.7925109863281 173.3629913330078 230.2960205078125 173.4878845214844 230.7514495849609 173.6228179931641 L 234.168212890625 174.6352996826172 L 231.5240325927734 177.0243835449219 C 229.8240051269531 178.5604248046875 227.1105651855469 178.9673461914062 223.9687042236328 179.4385375976562 C 221.9089660644531 179.7474212646484 219.5744476318359 180.0975189208984 217.3129425048828 180.8027191162109 C 214.8072662353516 181.5840606689453 212.7680816650391 182.6849517822266 211.078857421875 184.1683349609375 C 207.1853179931641 187.5874481201172 204.7471466064453 192.0992279052734 202.1657867431641 196.8759155273438 C 200.1745452880859 200.5606536865234 198.1155090332031 204.3708648681641 195.3099975585938 207.6949768066406 C 190.7067718505859 213.1503295898438 184.6510162353516 216.2827911376953 177.7975158691406 216.7534942626953 C 176.9559173583984 216.8113403320312 176.1232452392578 216.8406677246094 175.3227233886719 216.8406677246094 C 171.7876281738281 216.8406677246094 168.6959228515625 216.294677734375 165.8708953857422 215.1715087890625 C 163.3186798095703 214.1567840576172 161.0588531494141 212.6975860595703 158.9622650146484 210.7104949951172 C 155.1815643310547 207.1272430419922 152.5489959716797 202.3387298583984 150.0031280517578 197.7079010009766 C 147.1812438964844 192.5750427246094 144.2633056640625 187.2674560546875 139.7762451171875 183.5437164306641 C 136.2467041015625 180.6146392822266 131.6650695800781 179.0664215087891 126.5266418457031 179.0664215087891 C 125.6588134765625 179.0664215087891 124.7711181640625 179.1116638183594 123.8882293701172 179.2008972167969 C 120.1743774414062 179.5762939453125 117.1701507568359 180.5455322265625 114.4338073730469 182.2511901855469 C 111.9781494140625 183.7818603515625 109.6932067871094 185.9197540283203 107.0299835205078 189.1793975830078 L 106.1291351318359 190.4232177734375 L 102.3820648193359 190.9489135742188 L 102.3351745605469 188.697021484375 C 102.2989807128906 186.9586944580078 102.9318237304688 185.30517578125 104.2161407470703 183.7823486328125 C 109.0876312255859 178.0049743652344 116.2086639404297 174.5214996337891 124.2673797607422 173.9738311767578 C 125.154052734375 173.9136810302734 126.0291748046875 173.8831939697266 126.8686676025391 173.8831939697266 C 130.4532012939453 173.8831481933594 133.5721435546875 174.4145812988281 136.4036865234375 175.5079040527344 C 138.9735870361328 176.5001831054688 141.2353973388672 177.9304656982422 143.318359375 179.8804626464844 C 147.0809173583984 183.4028778076172 149.6575622558594 188.1388397216797 152.1493682861328 192.7188568115234 C 154.9397583007812 197.8477172851562 157.8251647949219 203.1511688232422 162.4281921386719 207.0105895996094 C 164.3009643554688 208.5807647705078 166.3979797363281 209.7750091552734 168.6610107421875 210.5601196289062 C 170.8504333496094 211.3197021484375 173.2163391113281 211.7048187255859 175.6930236816406 211.7048187255859 C 176.5566711425781 211.7048187255859 177.4453582763672 211.6575317382812 178.3343963623047 211.5642547607422 C 182.9197540283203 211.0830841064453 186.4977722167969 209.3427581787109 189.5945739746094 206.0873718261719 C 192.4495239257812 203.0862121582031 194.541259765625 199.2060546875 196.7558135986328 195.0980834960938 C 198.7415771484375 191.4145202636719 200.7949371337891 187.6055297851562 203.5167694091797 184.2942047119141 C 206.5612182617188 180.5896453857422 210.2744750976562 177.9445343017578 214.8685913085938 176.2078857421875 C 219.2813110351562 174.5398101806641 223.9740295410156 173.9073791503906 228.0013122558594 173.5149536132812 C 228.4601898193359 173.4088897705078 228.8247985839844 173.3629913330078 229.1972045898438 173.3629913330078 Z" stroke="none" fill="#d7e2fb"/>
      </g>
      <g id="Path_31" data-name="Path 31" transform="translate(-20 -30)" fill="rgba(86,119,187,0.98)">
        <path d="M 175.6837158203125 324.2540588378906 C 174.8859710693359 324.2540588378906 174.0866088867188 324.2100524902344 173.307861328125 324.123291015625 C 161.6707000732422 322.8259887695312 156.0506134033203 313.9861145019531 150.6155700683594 305.4373168945312 C 148.1418762207031 301.54638671875 145.5839385986328 297.5230407714844 142.5043487548828 294.3318786621094 C 140.8704071044922 292.6387634277344 139.2194213867188 291.302734375 137.4570770263672 290.2474670410156 C 135.4894409179688 289.0692749023438 133.4281768798828 288.26513671875 131.1555328369141 287.7890930175781 C 129.5901641845703 287.4612121582031 127.945556640625 287.2949523925781 126.2673797607422 287.2949523925781 C 123.3732299804688 287.2949523925781 120.4046630859375 287.7976684570312 117.6825790405273 288.7487182617188 C 114.8425598144531 289.7409973144531 112.3601455688477 291.1628112792969 110.304328918457 292.9746398925781 C 109.6200790405273 293.5777282714844 108.9992904663086 294.33642578125 108.3420791625977 295.1396789550781 C 107.4180450439453 296.26904296875 106.4625396728516 297.4368591308594 105.2510070800781 298.2315063476562 L 104.4761123657227 298.7397766113281 L 103.9104614257812 298.0057067871094 L 103.4601440429688 297.4213256835938 L 103.2412567138672 297.1372985839844 L 103.2527618408203 296.7788696289062 C 103.257209777832 296.6399536132812 103.258544921875 296.5164184570312 103.2598266601562 296.3969421386719 C 103.2676620483398 295.6698913574219 103.297477722168 295.1812744140625 103.7899627685547 294.3342895507812 C 104.5053253173828 293.1055908203125 105.6352767944336 291.8936767578125 107.1486740112305 290.7317504882812 C 108.4449462890625 289.7365417480469 110.0229415893555 288.775146484375 111.8388442993164 287.8742370605469 C 114.8363800048828 286.3871154785156 118.4458770751953 285.0978088378906 121.4942626953125 284.4253234863281 L 121.580207824707 284.4063415527344 L 121.6681442260742 284.4027099609375 L 121.9867401123047 284.3893737792969 C 123.2606964111328 284.3360595703125 124.578010559082 284.2808837890625 125.8807754516602 284.2808837890625 C 127.6769790649414 284.2808837890625 129.1691436767578 284.3846740722656 130.5767059326172 284.6074829101562 C 142.5128936767578 286.4955139160156 147.1856079101562 294.3092651367188 152.1326904296875 302.5818176269531 C 153.7105865478516 305.2203674316406 155.3422088623047 307.9487915039062 157.2516479492188 310.5472412109375 C 159.4112701416016 313.4860229492188 161.6640319824219 315.7392272949219 164.1386260986328 317.4356079101562 C 166.88330078125 319.317138671875 169.8125305175781 320.4559631347656 173.0937042236328 320.9171447753906 C 173.9764099121094 321.0411376953125 174.8903045654297 321.10400390625 175.8099212646484 321.10400390625 C 178.0861206054688 321.10400390625 180.4190673828125 320.72900390625 182.7439270019531 319.9894104003906 C 190.8710479736328 317.40283203125 194.7905578613281 310.8412475585938 198.9402160644531 303.8944091796875 C 202.1315002441406 298.5519104003906 205.4314270019531 293.0275268554688 210.8216094970703 289.2758483886719 C 212.7649230957031 287.9232788085938 215.5689239501953 286.6976318359375 218.7170715332031 285.8247375488281 C 221.7855529785156 284.9739379882812 224.9877624511719 284.5054016113281 227.7338104248047 284.5054016113281 C 228.85205078125 284.5054016113281 229.8872222900391 284.5829162597656 230.8106231689453 284.7358093261719 L 231.4722595214844 284.8453674316406 L 231.6220245361328 285.4990539550781 L 231.7114105224609 285.8891906738281 L 231.8749237060547 286.6029052734375 L 231.2439117431641 286.9743041992188 C 229.5247497558594 287.9862060546875 227.409423828125 288.1982421875 224.9600982666016 288.4437866210938 C 221.0189361572266 288.8388671875 216.1140594482422 289.3306579589844 210.7262115478516 293.4970703125 L 210.2659149169922 293.8582763671875 C 206.5965728759766 297.0552062988281 204.0770263671875 301.4319763183594 201.6404571533203 305.6647033691406 C 198.5756988525391 310.9887084960938 195.4066009521484 316.4939880371094 189.8855895996094 319.9194641113281 C 185.3141479492188 322.7551879882812 180.4032440185547 324.2540283203125 175.6837158203125 324.2540588378906 Z" stroke="none"/>
        <path d="M 125.8806915283203 285.2808837890625 C 124.492919921875 285.2808837890625 123.1023864746094 285.3439025878906 121.7096862792969 285.4018249511719 C 116.5559997558594 286.5387573242188 107.4113311767578 290.1017761230469 104.6544342041016 294.8369445800781 C 104.1912231445312 295.6336059570312 104.2805938720703 295.9266357421875 104.2522277832031 296.8109436035156 L 104.7025604248047 297.3953247070312 C 106.5932006835938 296.1552429199219 107.8977203369141 293.7627258300781 109.6431274414062 292.2244262695312 C 115.3133239746094 287.2271423339844 123.9879608154297 285.2659912109375 131.3605194091797 286.8103332519531 C 151.8370056152344 291.0995178222656 151.7725219726562 320.7163391113281 173.4185943603516 323.1294555664062 C 178.9952087402344 323.7507934570312 184.6438140869141 321.9942626953125 189.3583679199219 319.0697326660156 C 199.0332641601562 313.0669860839844 201.1971740722656 300.4160461425781 209.6285705566406 293.0872802734375 L 210.1115417480469 292.7082824707031 C 218.9983825683594 285.8341064453125 226.579833984375 288.5591735839844 230.7366638183594 286.1125183105469 L 230.6472778320312 285.7223815917969 C 225.1300354003906 284.8088989257812 216.01806640625 286.8773803710938 211.3928680419922 290.0966186523438 C 199.3409271240234 298.4850158691406 198.0063018798828 316.1813659667969 183.0470733642578 320.9423522949219 C 179.8055267333984 321.9735412597656 176.3319091796875 322.3818359375 172.9545288085938 321.9074096679688 C 165.8070678710938 320.9028015136719 160.5880279541016 316.7760620117188 156.4458312988281 311.1393737792969 C 148.5696105957031 300.4212036132812 145.6382598876953 288.0022888183594 130.4203643798828 285.5951843261719 C 128.9096527099609 285.3560485839844 127.3967742919922 285.2808837890625 125.8806915283203 285.2808837890625 M 125.8806915283203 283.2808837890625 C 127.7306518554688 283.2808837890625 129.2725219726562 283.3885803222656 130.7330780029297 283.6197814941406 C 133.7117309570312 284.0909118652344 136.3332672119141 284.9241333007812 138.747314453125 286.1670227050781 C 140.923583984375 287.2874755859375 142.8775939941406 288.7163696289062 144.7210388183594 290.5353393554688 C 148.0700836181641 293.8399047851562 150.4603424072266 297.8368835449219 152.9909210205078 302.0685424804688 C 154.5568542480469 304.6871337890625 156.1761016845703 307.3948669433594 158.0574951171875 309.955078125 C 160.1494903564453 312.8018493652344 162.3235931396484 314.9789733886719 164.7040557861328 316.6108093261719 C 167.3183746337891 318.4029846191406 170.1082000732422 319.4877014160156 173.23291015625 319.9268798828125 C 174.0695953369141 320.0444030761719 174.9366912841797 320.10400390625 175.8099365234375 320.10400390625 C 177.9831085205078 320.10400390625 180.2140350341797 319.7448425292969 182.4407653808594 319.0364379882812 C 190.2068023681641 316.5648193359375 194.0319671630859 310.1611938476562 198.0817108154297 303.3815612792969 C 201.3272857666016 297.9481811523438 204.6833801269531 292.3298034667969 210.2503356933594 288.455078125 C 214.3706665039062 285.5872802734375 221.7235107421875 283.505615234375 227.7337341308594 283.5054016113281 C 228.9061889648438 283.5053405761719 229.9963684082031 283.5873718261719 230.9739685058594 283.7492370605469 L 232.2972412109375 283.9683532714844 L 233.0131530761719 287.0933227539062 L 231.7511444091797 287.8361206054688 C 229.8428497314453 288.9593200683594 227.6263427734375 289.1815185546875 225.0598449707031 289.4388122558594 C 223.1287536621094 289.6323852539062 220.9400329589844 289.851806640625 218.6358947753906 290.5218200683594 C 216.0187377929688 291.2828369140625 213.6320953369141 292.514404296875 211.33984375 294.2866821289062 L 210.9037780761719 294.6288757324219 C 207.3715515136719 297.7134094238281 205.0083618164062 301.8185119628906 202.5071258544922 306.16357421875 C 199.380615234375 311.5948486328125 196.1476898193359 317.2109985351562 190.4127807617188 320.7691955566406 C 185.6828155517578 323.7032470703125 180.5896301269531 325.2540588378906 175.6837005615234 325.2540588378906 C 174.8491668701172 325.2540588378906 174.0125579833984 325.2080078125 173.1971435546875 325.1171569824219 C 167.7294464111328 324.5076293945312 163.0478515625 322.2351684570312 158.8847503662109 318.169921875 C 155.3002166748047 314.669677734375 152.4896697998047 310.2489929199219 149.7716827392578 305.9738464355469 C 144.7689666748047 298.1050109863281 140.0436706542969 290.6725769042969 130.9504852294922 288.767822265625 C 129.4524536132812 288.4540710449219 127.8768157958984 288.2949523925781 126.2673797607422 288.2949523925781 C 123.4842376708984 288.2949523925781 120.6296997070312 288.7783203125 118.0124206542969 289.6927490234375 C 115.3331604003906 290.6288452148438 112.8963775634766 292.0231323242188 110.9654998779297 293.7248840332031 C 110.3423767089844 294.2740478515625 109.7466735839844 295.0021362304688 109.1159973144531 295.77294921875 C 108.1441955566406 296.960693359375 107.1393127441406 298.1888732910156 105.7994689941406 299.0676879882812 L 104.2496948242188 300.084228515625 L 102.2302703857422 297.4636535644531 L 102.2532653808594 296.746826171875 C 102.2573852539062 296.6185302734375 102.2586517333984 296.5004272460938 102.2598876953125 296.3861694335938 C 102.2689361572266 295.5450744628906 102.3219909667969 294.8694763183594 102.9254760742188 293.8316345214844 C 104.3661499023438 291.3571472167969 107.21533203125 289.0517272949219 111.3944091796875 286.9784240722656 C 114.4605407714844 285.457275390625 118.1556549072266 284.1377868652344 121.2788391113281 283.4487915039062 L 121.4507293701172 283.4108581542969 L 121.9449920654297 283.3902587890625 C 123.2291412353516 283.3364868164062 124.5570220947266 283.2808837890625 125.8806915283203 283.2808837890625 Z" stroke="none" fill="#d7e2fb"/>
      </g>
      <g id="Path_32" data-name="Path 32" transform="translate(-20 -30)" fill="rgba(149,182,254,0.98)">
        <path d="M 174.7033233642578 271.0199890136719 C 171.5396728515625 271.0201416015625 168.7529907226562 270.4880065917969 166.1840057373047 269.3930969238281 C 163.8835296630859 268.4126892089844 161.8180084228516 267.002685546875 159.8693695068359 265.0825500488281 C 156.3079528808594 261.5732421875 153.6735687255859 256.8139343261719 151.1259307861328 252.2113342285156 C 147.8359375 246.2675628662109 144.4339141845703 240.1214447021484 138.9410247802734 236.2607421875 C 135.4282684326172 233.7913360595703 131.0841979980469 232.4861297607422 126.3784027099609 232.4861297607422 C 124.9285202026367 232.4861297607422 123.4600372314453 232.61328125 122.0137557983398 232.8640747070312 L 122.010368347168 232.8646545410156 L 122.006965637207 232.865234375 C 119.0737686157227 233.3530731201172 116.3109512329102 234.4045257568359 113.7952499389648 235.9903564453125 C 111.2797164916992 237.5761260986328 109.1394348144531 239.6153869628906 107.4338836669922 242.0515594482422 C 106.8481369018555 242.8807067871094 106.3002166748047 243.6249389648438 105.5002212524414 244.3719787597656 L 105.09033203125 244.7547302246094 L 104.5500183105469 244.6045989990234 L 103.8788528442383 244.4181060791016 L 102.9234390258789 244.1526489257812 L 103.1808395385742 243.1950378417969 C 103.6316528320312 241.5177764892578 104.6813201904297 240.0643157958984 105.6486511230469 238.8637237548828 C 109.9754028320312 233.4937133789062 115.9555511474609 230.4289093017578 123.9308166503906 229.4942321777344 L 123.9629821777344 229.4904632568359 L 123.9953155517578 229.48876953125 C 124.8352661132812 229.4451293945312 125.6857223510742 229.4229888916016 126.5230331420898 229.4229888916016 C 126.7783889770508 229.4229888916016 127.0370559692383 229.4250640869141 127.2918548583984 229.4291229248047 L 127.2967529296875 229.42919921875 L 127.3016662597656 229.4293212890625 C 130.6867370605469 229.5165405273438 133.6400909423828 230.1070709228516 136.3304595947266 231.2346496582031 C 138.7482147216797 232.2479553222656 140.8934173583984 233.6734466552734 142.8886566162109 235.5925445556641 C 146.5458068847656 239.1101531982422 149.0320587158203 243.6245880126953 151.6642913818359 248.4040985107422 C 154.0964813232422 252.8203887939453 156.6114959716797 257.3870544433594 160.1279144287109 261.0696716308594 C 162.2118530273438 263.2518310546875 164.5674133300781 264.9159851074219 167.1291656494141 266.0158386230469 C 169.6711883544922 267.1072082519531 172.5012359619141 267.6795959472656 175.5406951904297 267.7170715332031 C 175.6902313232422 267.7189025878906 175.8421020507812 267.7198486328125 175.9893035888672 267.7198486328125 C 179.27099609375 267.7198486328125 182.0613555908203 267.2755126953125 184.5198059082031 266.3614807128906 C 186.6977081298828 265.5517578125 188.5816040039062 264.3804016113281 190.2791748046875 262.7804870605469 C 193.5028686523438 259.7422485351562 195.5855407714844 255.5954132080078 197.7904815673828 251.2051086425781 C 200.2485961914062 246.3107299804688 202.7904052734375 241.2497253417969 207.1705932617188 237.1497497558594 C 209.7888488769531 234.6992034912109 213.2629089355469 232.6981201171875 217.2171783447266 231.3628082275391 C 220.8666229248047 230.1304321289062 224.8390655517578 229.4790496826172 228.7050933837891 229.4790496826172 C 229.2330627441406 229.4790496826172 229.7633972167969 229.4915008544922 230.2813262939453 229.5160675048828 L 230.8973083496094 229.5452880859375 L 231.1477508544922 230.1088104248047 L 231.2989959716797 230.4491271972656 L 231.690185546875 231.3293151855469 L 230.8252716064453 231.7532043457031 C 229.3823089599609 232.4604034423828 227.8644409179688 232.6240997314453 226.3965301513672 232.7823791503906 C 226.0574340820312 232.8189392089844 225.706787109375 232.8567657470703 225.3684692382812 232.9005584716797 C 218.2355194091797 233.8260650634766 213.2236938476562 235.3190307617188 208.71728515625 240.2099609375 L 208.3068237304688 240.6622009277344 C 205.6417083740234 243.7579345703125 203.7493286132812 247.5019378662109 201.9193420410156 251.1226196289062 C 200.4239349365234 254.0813140869141 198.8776397705078 257.1407165527344 196.8973236083984 259.9016418457031 C 194.8310089111328 262.7820129394531 192.3426971435547 265.1565551757812 189.5014953613281 266.9593505859375 C 186.60498046875 268.7972412109375 183.3836212158203 270.0133056640625 179.9268798828125 270.5737609863281 C 178.1014099121094 270.8697509765625 176.3439331054688 271.0198974609375 174.7033233642578 271.0199890136719 Z" stroke="none"/>
        <path d="M 126.5224151611328 230.4230041503906 C 125.6971588134766 230.4230041503906 124.8713684082031 230.4446105957031 124.0472106933594 230.4874267578125 C 117.0664672851562 231.3055419921875 110.9536895751953 233.8734130859375 106.4273376464844 239.4911499023438 C 105.486328125 240.6590576171875 104.5401458740234 241.990234375 104.1465454101562 243.45458984375 L 104.8177185058594 243.64111328125 C 105.5447540283203 242.9621887207031 106.0397644042969 242.2918701171875 106.6146850585938 241.47802734375 C 110.1957244873047 236.363037109375 115.6837005615234 232.9031372070312 121.8428802490234 231.8787841796875 C 127.9238433837891 230.8243408203125 134.4121856689453 231.8547058105469 139.5160522460938 235.442626953125 C 155.0089569091797 246.3318481445312 153.8608245849609 273.7870483398438 179.7668304443359 269.5866394042969 C 186.5035095214844 268.494384765625 192.1212615966797 264.8437194824219 196.084716796875 259.3187866210938 C 200.4538269042969 253.2274932861328 202.6220397949219 245.726806640625 207.5574645996094 239.9999084472656 L 207.9794158935547 239.5350036621094 C 212.8658447265625 234.2300415039062 218.3847961425781 232.7983093261719 225.2400665283203 231.9088439941406 C 226.9923400878906 231.6819763183594 228.7807006835938 231.6416015625 230.3851776123047 230.8552551269531 L 230.2339172363281 230.5149536132812 C 222.5716247558594 230.15185546875 213.5550689697266 232.5439453125 207.8539428710938 237.8798217773438 C 195.7664947509766 249.1940612792969 197.7718200683594 268.7198486328125 175.9893188476562 268.7198486328125 C 175.8380432128906 268.7198486328125 175.6819458007812 268.7188720703125 175.5283660888672 268.7169799804688 C 169.1827087402344 268.6387634277344 163.7986907958984 266.3614196777344 159.4046630859375 261.7602844238281 C 148.3684997558594 250.2024841308594 147.3871002197266 230.9472045898438 127.2759094238281 230.4290161132812 C 127.0247802734375 230.4249877929688 126.773681640625 230.4230041503906 126.5224151611328 230.4230041503906 M 126.5224151611328 228.4230041503906 C 126.7834320068359 228.4230041503906 127.0476989746094 228.4251098632812 127.3079071044922 228.4292602539062 L 127.3274078369141 228.4296569824219 C 130.8387603759766 228.5201416015625 133.9101257324219 229.135986328125 136.7169952392578 230.3123779296875 C 139.2505950927734 231.3742370605469 141.4961242675781 232.8656616210938 143.5818634033203 234.871826171875 C 147.3484802246094 238.4947204589844 149.98779296875 243.287109375 152.5402221679688 247.9216918945312 C 154.9415435791016 252.2819213867188 157.4246368408203 256.7906188964844 160.8511352539062 260.3790893554688 C 162.8414459228516 262.4631958007812 165.08642578125 264.050537109375 167.5236663818359 265.096923828125 C 169.9442443847656 266.1361694335938 172.6457061767578 266.6812744140625 175.5530090332031 266.7171020507812 C 175.6985168457031 266.7189331054688 175.84619140625 266.7198486328125 175.9893035888672 266.7198486328125 C 181.8921051025391 266.7198486328125 186.2148742675781 265.2368469238281 189.5933074951172 262.0527648925781 C 192.6885070800781 259.1356201171875 194.732666015625 255.0654449462891 196.8968658447266 250.7562866210938 C 199.3943176269531 245.7835693359375 201.9768218994141 240.6415405273438 206.4871978759766 236.419677734375 C 209.2089233398438 233.872314453125 212.8086547851562 231.7961120605469 216.8972473144531 230.4154663085938 C 220.6483459472656 229.1488037109375 224.7313995361328 228.4791870117188 228.7049865722656 228.4790649414062 C 229.2484436035156 228.4790344238281 229.7947387695312 228.4918823242188 230.3287200927734 228.5172119140625 L 231.5605926513672 228.57568359375 L 232.9952545166016 231.8033447265625 L 231.2653503417969 232.6511535644531 C 229.6644134521484 233.435791015625 227.9852294921875 233.6168518066406 226.5037384033203 233.7766418457031 C 226.1544799804688 233.8143005371094 225.8246154785156 233.8498840332031 225.4968719482422 233.8922729492188 C 222.7259521484375 234.2518005371094 219.5027770996094 234.7744750976562 216.6104125976562 235.9245910644531 C 213.8278961181641 237.031005859375 211.5538482666016 238.6075134277344 209.4543151855469 240.8858337402344 L 209.0559387207031 241.3247680664062 C 206.4752349853516 244.3255310058594 204.6956329345703 247.8464965820312 202.8118133544922 251.5736846923828 C 201.2992858886719 254.5662841796875 199.7352447509766 257.6607666015625 197.7098846435547 260.4844665527344 C 195.5685272216797 263.469482421875 192.9871063232422 265.9319763183594 190.0372619628906 267.8037109375 C 187.0258026123047 269.7145385742188 183.6780395507812 270.9786376953125 180.0869293212891 271.5608520507812 C 178.2081298828125 271.865478515625 176.3967742919922 272.0199584960938 174.7032470703125 272.0199584960938 C 168.5006713867188 272.0199584960938 163.4188842773438 269.9835815429688 159.1675262451172 265.7943725585938 C 155.5031280517578 262.18359375 152.8331451416016 257.3600769042969 150.2510833740234 252.6954040527344 C 147.0158843994141 246.8507995605469 143.6705627441406 240.8072204589844 138.3659973144531 237.0789184570312 C 135.0224456787109 234.7284545898438 130.8772735595703 233.4861145019531 126.3784027099609 233.4861145019531 C 124.985595703125 233.4861145019531 123.5746002197266 233.6083374023438 122.1846008300781 233.849365234375 L 122.1710205078125 233.8516845703125 C 119.3697052001953 234.3175659179688 116.7311248779297 235.3217468261719 114.3285217285156 236.8363037109375 C 111.9260711669922 238.3507690429688 109.8819732666016 240.2984008789062 108.2530670166016 242.6250610351562 L 108.2481994628906 242.6320190429688 C 107.6325073242188 243.5035705566406 107.0521087646484 244.2910461425781 106.1827239990234 245.1028747558594 L 105.3629455566406 245.868408203125 L 101.7003173828125 244.8506164550781 L 102.215087890625 242.9354553222656 C 102.7141418457031 241.0787658691406 103.8372039794922 239.5180969238281 104.8699645996094 238.236328125 C 107.2174530029297 235.3228149414062 110.1009368896484 233.0199584960938 113.4403533935547 231.3917541503906 C 116.4832763671875 229.9080810546875 119.8766479492188 228.9625244140625 123.8144073486328 228.5010375976562 L 123.8787536621094 228.4934997558594 L 123.9434509277344 228.4901123046875 C 124.8008117675781 228.4455871582031 125.6685028076172 228.4230041503906 126.5224151611328 228.4230041503906 Z" stroke="none" fill="#d7e2fb"/>
      </g>
    </g>
  </g>
</svg>
