<?xml version="1.0" encoding="utf-8" ?><svg xmlns="http://www.w3.org/2000/svg" xmlns:xlink="http://www.w3.org/1999/xlink" width="880" height="880" viewBox="0 0 880 880"><path fill="white" transform="scale(0.859375 0.859375)" d="M392.025 433.714L391.835 392.732C391.563 367.33 388.888 345.967 408.305 326.271C422.849 311.519 440.169 310.014 459.773 309.993L559.5 310.03C572.538 310.036 598.358 308.674 610.035 311.201C620.302 313.423 629.365 318.477 636.799 325.889C644.928 333.986 650.154 344.542 651.664 355.915C653.605 370.038 652.475 392.408 652.478 407.198L652.531 504.605L653.096 827.015C653.036 844.042 648.852 860.268 636.491 872.579C633.983 875.07 631.241 877.313 628.303 879.277C625.707 881.014 618.935 883.634 617.432 885.677C626.221 887.052 637.673 886.274 646.716 886.322C657.588 886.379 668.844 887.06 679.668 886.351C681.526 886.23 683.239 885.856 684.97 885.169C686.935 882.371 688.131 879.678 689.079 876.384L690.179 875.991C689.683 878.666 689.218 881.345 688.783 884.03C689.888 884.064 690.993 884.088 692.098 884.102L788.111 884.023L818.985 883.998C826.142 883.962 833.577 884.284 840.639 883.036C847.04 881.905 852.246 879.489 856.88 874.905C862.857 868.994 866.904 859.961 866.804 851.496C866.695 842.358 862.666 833.204 856.113 826.857C850.733 821.647 843.933 818.863 836.628 817.597C821.624 814.998 802.143 816.853 786.622 816.892C754.599 816.773 722.576 816.913 690.556 817.312C690.505 820.526 690.607 823.719 690.734 826.93L689.594 828.892C689.389 825.83 689.627 820.545 688.03 817.923C687.009 817.674 686.058 817.383 685.076 817.01C684.52 815.775 684.53 815.751 684.866 814.437C687.04 812.447 690.661 812.926 693.412 812.947C689.585 811.105 685.587 809.419 681.983 807.167C674.318 802.339 668.889 794.66 666.892 785.825C664.971 777.518 666.514 768.787 671.167 761.642C677.926 751.317 686.884 748.557 698.412 746.137C698.621 745.773 698.837 745.414 699.06 745.059C700.612 742.634 702.505 742.471 705.114 741.887C707.848 728.835 709.693 698.651 707.066 685.762C706.31 682.053 702.088 679.16 701.741 676.657C702.919 675.647 704.17 675.547 705.669 675.478C712.095 675.184 718.687 675.746 725.134 675.799L772.941 675.843C784.223 675.849 795.942 676.28 807.163 675.255L807.757 675.196C807.496 675.008 807.237 674.817 806.973 674.632C803.049 671.871 798.125 670.148 793.937 667.741C779.649 659.53 770.218 646.773 767.033 630.559C764.898 619.692 765.461 608.159 765.471 597.121L765.515 557.896L765.44 528.57C765.425 522.129 765.079 515.522 766.011 509.137C766.857 503.132 769.037 497.393 772.391 492.34C780.046 480.941 793.681 474.147 806.877 471.658C824.021 468.425 843.536 471.998 857.932 482.014C870.007 490.415 878.965 502.734 881.45 517.387C882.923 526.074 882.532 535.025 882.525 543.807L882.491 574.958C882.471 591.796 883.914 616.723 881.308 632.639C880.006 640.594 877.107 648.449 872.396 655.026C867.19 662.294 860.562 667.486 852.803 671.769C850.623 672.972 848.088 673.957 846.026 675.311L855.634 676.879C869.441 677.348 901.135 675.224 912.431 678.487C917.945 680.093 922.921 683.164 926.83 687.373C932.946 693.911 935.942 703.129 935.568 712.014C935.215 720.414 931.772 728.296 925.556 734.005C921.592 737.645 916.748 739.769 912.506 742.938C915.377 742.683 920.357 741.92 922.78 743.804C922.901 743.897 922.998 744.018 923.107 744.125C923.05 745.265 922.989 745.408 922.119 746.239C921.264 747.057 920.168 747.642 919.157 748.246C918.627 754.893 918.644 761.727 918.928 768.391L917.362 768.928C917.119 761.792 916.991 754.653 916.976 747.513C883.089 747.189 849.2 747.063 815.311 747.137C803.48 747.148 781.373 745.906 770.54 747.966C763.788 749.249 757.246 752.318 752.313 757.154C746.388 762.962 742.826 771.521 742.792 779.826C742.757 788.431 746.431 796.705 752.473 802.773C763.78 814.13 779.232 812.575 794.01 812.487L875.714 812.056C889.486 812.024 903.796 812.923 917.477 811.878C917.68 811.596 917.946 811.339 918.047 811.007L919.098 810.465L919.755 811.74L920.441 811.943C921.906 812.387 923.155 812.648 924.27 813.761C924.575 814.637 924.886 815.507 925.156 816.395C935.113 820.929 943.694 827.383 947.634 837.97C950.953 846.891 950.188 857.662 946.2 866.242C941.948 875.261 934.269 882.208 924.871 885.539C921.506 886.718 918.079 887.298 914.528 887.54C903.659 888.28 892.671 887.408 881.78 887.554C868.952 887.726 850.665 889.122 838.457 887.789C829.61 888.123 820.581 887.617 811.709 887.597L751.733 887.649L511.163 887.948L424.885 888.079C415.67 888.111 390.284 889.366 382.346 887.354C383.274 886.076 383.405 885.802 384.851 885.225C388.558 884.934 392.173 884.996 395.887 885.14C396.069 863.828 395.576 842.565 395.419 821.259C395.366 814.033 394.836 806.575 395.119 799.376C395.206 797.152 395.156 792.445 396.561 790.741C397.904 794.019 397.501 873.38 397.539 885.361C406.874 885.481 416.21 885.537 425.546 885.529C430.566 885.529 435.96 885.117 440.94 885.621L442.824 885.197C448.026 885.985 454.037 885.411 459.338 885.38L494.09 885.101L561.01 885.065C573.366 885.085 585.785 885.371 598.133 885.053C612.486 884.683 625.219 879.542 635.169 869.018C641.785 862.02 646.132 853.469 648.201 844.088C651.599 828.684 649.978 798.469 649.765 781.667C649.486 759.675 649.723 737.595 649.079 715.616C641.695 715.167 634.154 715.429 626.753 715.439C613.337 715.405 599.922 715.508 586.508 715.75C561.7 715.963 536.892 716.034 512.083 715.962L485.945 716.041C480.139 716.065 474.069 716.421 468.313 715.578C464.15 714.969 460.177 713.345 457.137 710.373C454.017 707.321 452.726 703.333 452.012 699.137C450.629 691.013 451.463 682.27 451.489 674.041C451.596 658.481 451.559 642.922 451.378 627.363C434.597 633.232 415.71 633.142 398.374 630.115C397.347 660.031 398.028 690.164 398.064 720.102C419.139 732.785 434.282 753.354 440.131 777.246C440.572 779.178 440.973 781.118 441.334 783.067L439.965 784.615C437.812 774.063 434.681 764.192 429.335 754.786C416.054 731.42 396.736 719.581 371.473 712.633C366.805 712.467 362.137 712.121 357.475 711.835C347.972 711.532 338.462 711.6 328.965 712.04L329.093 695.115C322.967 695.111 318.213 694.328 312.614 691.783C312.271 698.488 312.09 705.201 312.071 711.914C307.41 711.889 302.735 711.938 298.08 711.676C293.249 711.643 288.417 711.697 283.588 711.839C281.265 712.079 278.827 711.926 276.489 711.921C275.26 716.062 273.839 719.318 271.278 722.83C266.037 730.019 258.976 736.222 252.884 742.723L223.864 773.828C215.258 782.976 206.44 791.941 198.673 801.828C198.052 814.037 193.672 827.074 196.529 839.2C198.098 845.912 202.311 851.706 208.212 855.267C214.688 859.186 222.494 860.258 229.786 858.23C246.298 853.804 248.039 837.93 249.603 823.626C250.357 816.316 251.059 809.001 251.71 801.682C252.079 797.737 252.03 792.348 254.046 788.918L254.61 789.025C254.915 790.691 254.931 792.273 254.82 793.959C254.406 800.204 253.193 806.461 252.567 812.7C251.174 826.609 251.938 845.154 240.202 854.982C234.346 859.885 226.479 861.687 218.983 860.878C211.498 860.1 204.643 856.34 199.965 850.446C189.981 837.631 194.881 818.285 196.664 803.585C189.109 810.877 181.197 823.615 169.805 824.988C166.226 825.419 162.833 824.518 160.03 822.226C157.131 819.86 155.367 816.379 155.175 812.642C154.972 808.344 157.256 805.231 159.655 801.899C165.279 794.085 172.137 787.17 178.642 780.097C185.447 772.62 192.202 765.098 198.909 757.533L231.028 721.605C237.614 714.222 244.029 706.403 251.171 699.56C255.301 695.603 260.549 694.911 265.078 691.811C269.383 688.864 272.831 684.001 276.331 680.145C276.142 679.602 266.505 674.104 264.769 670.957C261.804 665.583 261.025 658.194 262.513 652.338C263.945 646.475 267.666 641.431 272.845 638.332C279.124 634.623 287.147 634.292 294.077 636.092C294.677 633.131 295.187 630.047 296.091 627.163C298.449 619.64 303.445 613.135 310.553 609.526C319.418 605.025 327.96 606.434 336.961 609.2C340.093 606.167 343.477 603.202 346.265 599.85C327.917 579.824 318.348 553.288 319.689 526.161C320.782 499.033 332.657 473.463 352.68 455.127C363.843 444.874 377.354 437.521 392.025 433.714ZM505.775 584.32C525.224 584.917 544.752 584.566 564.212 584.569L649.036 584.512C649.375 574.168 649.061 563.729 649.107 553.372L649.049 472.86L649.085 402.66C649.091 390.468 649.372 378.193 649.005 366.009C648.551 350.957 644.283 337.507 632.992 326.974C628.041 322.355 620.469 317.305 613.875 315.623C599.058 311.843 582.417 313.081 567.254 313.329C555.483 313.522 543.667 313.481 531.892 313.487L478.791 313.493C469.286 313.496 459.667 313.205 450.176 313.634C434.183 314.355 420.5 318.348 409.506 330.533C404.146 336.473 400.263 343.067 398.019 350.766C393.596 365.942 394.999 383.701 395.062 399.4C395.107 410.692 394.98 422.036 395.512 433.317C417.908 426.822 443.921 429.892 464.76 440.006C487.887 451.229 505.996 472.706 514.211 496.944C524.411 527.04 519.463 556.378 505.775 584.32ZM350.929 627.342C352.459 633.74 350.752 640.825 347.317 646.337C345.137 649.835 342.29 652.566 339.26 655.309C340.313 656.528 341.331 657.817 342.156 659.202C345.645 665.067 346.551 672.114 344.659 678.671C342.582 686.143 337.767 690.921 331.188 694.624C330.978 699.723 331.015 704.847 330.957 709.95C355.31 709.887 371.894 708.317 394.883 718.597C395.265 708.525 395.018 698.35 395.021 688.266L394.86 629.097C383.827 625.586 373.73 620.729 363.503 615.371C359.38 619.432 355.188 623.423 350.929 627.342ZM284.767 685.528C287.144 682.365 290.656 675.983 294.716 675.217C298.572 675.88 302.309 681.907 304.967 684.74C300.93 690.2 294.408 693.844 289.204 698.137C284.923 701.668 281.159 705.669 277.465 709.796C288.417 709.296 299.459 709.521 310.424 709.479C310.639 703.217 310.966 696.96 311.406 690.71C310.1 689.357 308.784 687.996 307.711 686.446C303.228 679.964 303.211 672.046 304.515 664.594C300.238 665.52 298.075 668.057 295.484 671.395C290.62 670.056 286.633 669.84 281.986 672.302C280.08 673.312 278.526 674.779 278.072 676.951C277.741 678.538 278.228 679.611 279.137 680.891C281.055 682.377 282.897 683.981 284.767 685.528ZM320.004 651.546C313.958 654.32 309.447 658.444 306.998 664.782C304.875 670.402 305.126 676.643 307.692 682.074C309.801 686.571 313.39 690.133 318.107 691.811C321.905 693.162 325.602 693.181 329.548 692.619C334.924 690.6 339.102 687.068 341.554 681.803C344.158 676.151 344.378 669.689 342.163 663.873C340.223 658.917 336.388 654.777 331.405 652.814C327.555 651.298 324.047 651.408 320.004 651.546ZM781.98 679.239C765.319 679.568 748.655 679.674 731.992 679.557C723.844 679.566 715.489 679.225 707.367 679.858C709.171 700.16 711.036 722.298 706.872 742.465L798.875 742.768C811.171 742.746 843.193 744.011 853.705 740.858C858.634 739.36 863.109 736.651 866.721 732.978C872.683 726.946 876.005 718.794 875.957 710.313C875.852 701.918 872.061 693.547 865.998 687.771C862.407 684.299 857.992 681.797 853.168 680.5C840.753 677.257 820.977 678.966 807.734 679.132C799.157 679.24 790.549 679.01 781.98 679.239ZM415.461 440.769C365.523 443.275 327.091 485.821 329.66 535.756C332.228 585.69 374.822 624.069 424.753 621.438C474.597 618.813 512.893 576.31 510.329 526.463C507.766 476.616 465.31 438.267 415.461 440.769Z"/><path fill="white" transform="scale(0.859375 0.859375)" d="M598.31 387.39C598.912 387.959 598.653 387.572 598.833 388.684C596.011 394.609 559.365 429.275 551.645 436.62C550.962 435.95 551.218 436.386 551.076 435.216C555.431 429.179 562.253 423.806 567.528 418.479C577.784 408.121 587.681 397.365 598.31 387.39Z"/><path fill="white" transform="scale(0.859375 0.859375)" d="M623.985 439.346L624.819 439.788C624.026 443.051 589.992 475.971 584.929 480.652L584.291 480.35C585.218 475.224 618.033 444.332 623.985 439.346Z"/><path fill="white" transform="scale(0.859375 0.859375)" d="M510.453 393.797L511.281 394.157C510.46 397.192 484.963 422.27 480.885 425.456L480.467 425.389L480.212 424.749C489.008 413.461 500.101 403.661 510.453 393.797Z"/><path fill="white" transform="scale(0.859375 0.859375)" d="M534.275 451.376L534.787 452.032C533.535 456.805 515.662 473.001 511.162 477.069L510.804 476.618C511.235 471.924 530.261 455.214 534.275 451.376Z"/><path fill="white" transform="scale(0.859375 0.859375)" d="M569.265 495.517C569.275 495.635 569.307 495.754 569.295 495.873C568.956 499.174 549.18 518.081 545.401 520.957C545.313 520.408 545.209 520.255 545.372 519.753C546.615 515.927 565.342 497.5 569.265 495.517Z"/><path fill="#74B4F5" transform="scale(0.859375 0.859375)" d="M505.775 584.32C525.224 584.917 544.752 584.566 564.212 584.569L649.036 584.512L649.003 657.498L542.325 657.681L510.983 657.493C502.051 657.435 492.96 656.833 484.202 658.844C498.073 662.211 514.201 660.006 528.415 659.989L605.528 660.192C619.991 660.216 634.559 659.462 648.989 660.55L649.079 715.616C641.695 715.167 634.154 715.429 626.753 715.439C613.337 715.405 599.922 715.508 586.508 715.75C561.7 715.963 536.892 716.034 512.083 715.962L485.945 716.041C480.139 716.065 474.069 716.421 468.313 715.578C464.15 714.969 460.177 713.345 457.137 710.373C454.017 707.321 452.726 703.333 452.012 699.137C450.629 691.013 451.463 682.27 451.489 674.041C451.596 658.481 451.559 642.922 451.378 627.363C474.26 619.825 492.71 604.283 505.775 584.32Z"/><path fill="#C9DEF6" transform="scale(0.859375 0.859375)" d="M807.757 675.196C807.496 675.008 807.237 674.817 806.973 674.632C803.049 671.871 798.125 670.148 793.937 667.741C779.649 659.53 770.218 646.773 767.033 630.559C764.898 619.692 765.461 608.159 765.471 597.121L765.515 557.896L765.44 528.57C765.425 522.129 765.079 515.522 766.011 509.137C766.857 503.132 769.037 497.393 772.391 492.34C780.046 480.941 793.681 474.147 806.877 471.658C824.021 468.425 843.536 471.998 857.932 482.014C870.007 490.415 878.965 502.734 881.45 517.387C882.923 526.074 882.532 535.025 882.525 543.807L882.491 574.958C882.471 591.796 883.914 616.723 881.308 632.639C880.006 640.594 877.107 648.449 872.396 655.026C867.19 662.294 860.562 667.486 852.803 671.769C850.623 672.972 848.088 673.957 846.026 675.311C840.85 676.724 833.86 675.962 828.48 675.942L828.488 663.486C838.988 654.62 850.375 645.632 858.643 634.585C847.417 641.892 838.024 651.878 828.531 661.249C828.253 640.414 828.245 619.576 828.508 598.741C838.456 591.444 849.173 582.603 856.127 572.377C846.084 578.19 836.992 588.5 828.538 596.461C828.248 574.572 828.233 552.68 828.495 530.79C835.158 524.87 854.828 509.216 857.916 502.276C851.275 506.415 846.106 512.093 840.394 517.374C836.618 520.865 832.593 524.04 828.49 527.132C828.472 522.256 828.71 517.378 828.667 512.502C828.648 510.348 828.796 507.248 827.193 505.685L826.612 506.121C825.49 512.672 825.756 519.708 825.705 526.341C825.602 539.947 826.005 553.549 825.87 567.156C817.438 557.858 808.465 548.826 797.952 541.884C805.693 552.985 817.899 560.119 825.92 570.917C826.427 590.923 826.065 610.899 825.765 630.906C817.794 622.356 809.35 612.935 799.313 606.831C806.443 616.722 816.831 625.319 825.587 633.832C826.407 647.784 825.993 661.929 825.981 675.908C821.587 675.945 811.467 676.84 807.757 675.196Z"/><path fill="#74B4F5" transform="scale(0.859375 0.859375)" d="M925.156 816.395C935.113 820.929 943.694 827.383 947.634 837.97C950.953 846.891 950.188 857.662 946.2 866.242C941.948 875.261 934.269 882.208 924.871 885.539C921.506 886.718 918.079 887.298 914.528 887.54C903.659 888.28 892.671 887.408 881.78 887.554C868.952 887.726 850.665 889.122 838.457 887.789C839.17 887.72 839.168 887.734 839.999 887.572C850.313 885.559 859.474 879.981 865.178 871.069C870.377 862.9 872.094 852.99 869.944 843.548C867.074 830.711 858.82 823.223 848.11 816.493C873.531 817.675 899.755 817.72 925.156 816.395Z"/><path fill="#EF5E5B" transform="scale(0.859375 0.859375)" d="M698.412 746.137C705.355 747.15 712.919 746.577 719.945 746.565L760.439 746.515C750.377 753.45 741.747 761.119 739.444 773.727C737.758 783.212 739.976 792.975 745.593 800.8C749.159 805.805 753.809 809.581 758.736 813.17C746.239 813.326 733.742 813.39 721.244 813.36C711.963 813.377 702.672 813.664 693.412 812.947C689.585 811.105 685.587 809.419 681.983 807.167C674.318 802.339 668.889 794.66 666.892 785.825C664.971 777.518 666.514 768.787 671.167 761.642C677.926 751.317 686.884 748.557 698.412 746.137Z"/><path fill="#EF5E5B" transform="scale(0.859375 0.859375)" d="M855.634 676.879C869.441 677.348 901.135 675.224 912.431 678.487C917.945 680.093 922.921 683.164 926.83 687.373C932.946 693.911 935.942 703.129 935.568 712.014C935.215 720.414 931.772 728.296 925.556 734.005C921.592 737.645 916.748 739.769 912.506 742.938C898.456 744.689 874.719 743.573 860.382 742.898C865.72 738.979 870.748 734.906 874.335 729.246C879.378 721.211 881.009 711.497 878.865 702.255C875.739 689.011 866.395 683.538 855.634 676.879Z"/><path fill="#EF5E5B" transform="scale(0.859375 0.859375)" d="M294.077 636.092C294.677 633.131 295.187 630.047 296.091 627.163C298.449 619.64 303.445 613.135 310.553 609.526C319.418 605.025 327.96 606.434 336.961 609.2C343.946 614.187 347.521 619.524 350.929 627.342C352.459 633.74 350.752 640.825 347.317 646.337C345.137 649.835 342.29 652.566 339.26 655.309C333.811 651.355 328.201 648.423 321.205 649.472C315.609 650.31 311.071 653.799 307.846 658.322C306.472 660.248 305.406 662.405 304.515 664.594C300.238 665.52 298.075 668.057 295.484 671.395C290.62 670.056 286.633 669.84 281.986 672.302C280.08 673.312 278.526 674.779 278.072 676.951C277.741 678.538 278.228 679.611 279.137 680.891L276.331 680.145C276.142 679.602 266.505 674.104 264.769 670.957C261.804 665.583 261.025 658.194 262.513 652.338C263.945 646.475 267.666 641.431 272.845 638.332C279.124 634.623 287.147 634.292 294.077 636.092Z"/><path fill="#EF5E5B" transform="scale(0.859375 0.859375)" d="M421.902 461.139C425.649 460.915 429.644 461.82 432.816 463.872C436.268 466.105 437.604 469.063 438.473 472.949C440.63 482.593 440.911 527.285 439.56 538.019C439.218 540.737 438.701 543.102 437.152 545.422C434.334 549.644 430.458 551.504 425.624 552.545C421.492 552.625 417.392 551.999 413.857 549.696C409.982 547.172 408.803 543.273 407.996 538.964C406.218 529.47 407.421 519.603 407.449 510.001C407.481 499.142 406.563 488.308 407.816 477.473C408.202 474.133 408.81 469.783 410.816 467.028C413.474 463.379 417.605 461.863 421.902 461.139Z"/><path fill="#EF5E5B" transform="scale(0.859375 0.859375)" d="M419.421 568.71C428.712 566.484 438.038 572.249 440.199 581.555C442.361 590.861 436.531 600.147 427.21 602.244C417.981 604.32 408.806 598.559 406.665 589.344C404.525 580.13 410.222 570.915 419.421 568.71Z"/><path fill="white" transform="scale(0.859375 0.859375)" d="M215.03 299.966C214.828 288.952 213.009 266.629 215.119 256.785C215.825 253.33 217.472 250.137 219.878 247.558C224.654 242.462 232.326 240.211 239.179 240.139C246.403 240.063 254.256 242.395 259.427 247.6C262.454 250.647 264.015 254.237 264.563 258.463C265.728 267.458 265.075 277.2 265.045 286.271L264.969 333.201L264.996 422.264C265.012 435.436 265.555 448.652 265.226 461.815C265.022 469.998 264.74 477.155 258.331 483.182C254.768 486.532 250.48 487.684 245.74 488.262C237.577 489.259 229.175 488.776 220.967 488.716L183.762 488.562L122.852 488.626C113.403 488.639 103.823 489.127 94.3966 488.719C87.0889 488.403 79.7356 487.422 74.5354 481.753C71.3374 478.266 69.4344 473.81 68.7489 469.157C67.4189 460.129 68.0994 450.417 68.2123 441.318C68.3688 428.625 68.453 415.932 68.4649 403.239C68.5947 392.593 68.5969 381.947 68.4716 371.302C68.2883 361.414 67.6514 351.294 68.3273 341.425C68.7237 335.64 70.26 330.422 74.8686 326.586C77.6674 324.257 80.9859 322.751 84.502 321.871C92.8894 319.77 112.571 319.557 121.252 320.935C121.909 321.039 122.434 321.234 123.052 321.467C123.594 314.885 123.141 308.084 123.274 301.465L123.132 299.548C123.44 291.327 124.219 283.432 130.77 277.571C135.196 273.611 141.002 271.878 146.884 272.287C153.142 272.721 158.981 275.561 162.974 280.431C167.511 285.966 168.694 292.69 168.59 299.634L168.776 299.843C184.121 300.539 199.659 299.96 215.03 299.966ZM123.244 323.525C118.265 321.02 88.3409 322.081 82.5152 324.117C77.9282 325.72 74.0165 329.035 71.9743 333.484C70.1465 337.466 69.8812 341.936 69.6685 346.25C69.3312 353.087 69.2982 360.1 69.6132 366.936C69.8484 372.039 70.4627 377.141 70.3957 382.253L70.0783 430.104C70.0865 438.486 69.6018 447.2 70.578 455.522C75.8187 449.269 80.9042 446.087 89.1548 445.319C100.309 444.282 111.766 445.362 122.959 445.486C123.28 404.842 122.562 364.159 123.244 323.525ZM216.501 266.683C216.011 287.09 215.848 307.504 216.013 327.916C216.192 345.94 216.819 363.987 216.848 382.008C216.869 395.096 217.039 408.261 216.854 421.346C216.742 429.327 215.862 437.913 216.737 445.832C228.61 445.35 249.089 442.79 258.478 451.205C260.418 452.944 261.952 455.182 263.482 457.281L263.566 330.978C263.633 317.102 264.017 303.235 264.004 289.356C263.997 282.106 264.601 272.846 262.703 265.864C257.711 272.498 252.053 276.578 243.592 277.74C235.984 278.786 228.266 277.299 222.091 272.543C219.961 270.903 218.233 268.725 216.501 266.683ZM152.75 486.972L216.397 486.995C225.562 487.01 239.528 488.146 248.221 486.357C251.925 485.564 255.303 483.671 257.913 480.926C261.841 476.837 263.864 471.281 263.485 465.623C263.17 460.304 260.698 455.068 256.623 451.603C254.487 449.787 252.018 448.437 249.243 447.943C239.693 446.245 228.833 447.351 219.151 447.395C207.122 447.449 195.09 447.072 183.057 447.25L117.394 447.475C107.564 447.48 93.7756 446.315 84.5116 447.916C81.2073 448.487 78.2139 450.161 75.8214 452.486C72.1875 456.017 69.9985 460.9 70.0842 465.991C70.2066 472.057 72.8308 477.802 77.3352 481.866C80.3474 484.535 83.6356 485.694 87.5218 486.389C94.9327 487.714 103.223 487.039 110.749 487.032L152.75 486.972ZM216.186 263.146C220.655 269.54 225.236 274.496 233.295 276.033C236.626 276.668 240.001 276.545 243.362 276.288C250.191 274.42 256.978 272.332 260.836 265.82C262.64 262.839 263.149 259.252 262.245 255.888C260.911 250.818 257.002 246.885 252.465 244.488C247.741 241.993 241.835 240.988 236.532 241.63C229.887 243.066 222.827 245.362 218.963 251.419C216.572 255.167 216.27 258.811 216.186 263.146Z"/><path fill="#EF5E5B" transform="scale(0.859375 0.859375)" d="M168.609 321.637C184.126 321.116 199.5 321.569 215.009 321.526C215.514 362.958 215.68 404.393 215.508 445.828C199.943 445.922 184.029 445.223 168.512 446.224C153.767 447.17 137.729 446.616 122.959 445.486C123.28 404.842 122.562 364.159 123.244 323.525C131.932 326.189 158.423 325.037 168.514 324.988L168.529 323.024L168.609 321.637Z"/><path fill="#74B4F5" transform="scale(0.859375 0.859375)" d="M123.244 323.525C131.932 326.189 158.423 325.037 168.514 324.988C169.827 340.255 169.007 356.157 168.998 371.497C168.983 396.372 169.201 421.363 168.512 446.224C153.767 447.17 137.729 446.616 122.959 445.486C123.28 404.842 122.562 364.159 123.244 323.525Z"/><path fill="white" transform="scale(0.859375 0.859375)" d="M145.58 348.246C145.72 348.353 145.875 348.444 146.001 348.568C148.003 350.525 147.27 425.213 146.806 432.47C146.03 431.179 145.744 430.269 145.6 428.764C144.657 418.898 145.405 408.828 145.429 398.925C145.36 382.032 145.41 365.139 145.58 348.246Z"/><path fill="white" transform="scale(0.859375 0.859375)" d="M191.605 360.371C191.704 360.48 191.82 360.576 191.903 360.699C193.534 363.137 193.052 428.767 192.05 435.251C189.664 430.72 190.057 366.817 191.605 360.371Z"/><path fill="#74B4F5" transform="scale(0.859375 0.859375)" d="M123.132 299.548C123.44 291.327 124.219 283.432 130.77 277.571C135.196 273.611 141.002 271.878 146.884 272.287C153.142 272.721 158.981 275.561 162.974 280.431C167.511 285.966 168.694 292.69 168.59 299.634L168.776 299.843L168.455 300.935C153.401 301.246 138.335 301.133 123.274 301.465L123.132 299.548Z"/><path fill="white" transform="scale(0.859375 0.859375)" d="M123.132 299.548C137.995 299.065 153.807 297.658 168.59 299.634L168.776 299.843L168.455 300.935C153.401 301.246 138.335 301.133 123.274 301.465L123.132 299.548Z"/><path fill="#74B4F5" transform="scale(0.859375 0.859375)" d="M123.274 301.465C138.335 301.133 153.401 301.246 168.455 300.935C168.651 307.329 168.903 313.758 168.37 320.143L168.609 321.637L168.529 323.024C159.38 322.856 129.532 324.623 123.052 321.467C123.594 314.885 123.141 308.084 123.274 301.465Z"/><path fill="#EF5E5B" transform="scale(0.859375 0.859375)" d="M168.455 300.935L168.776 299.843C184.121 300.539 199.659 299.96 215.03 299.966L215.036 319.977C199.51 319.477 183.872 318.948 168.37 320.143C168.903 313.758 168.651 307.329 168.455 300.935Z"/><path fill="white" transform="scale(0.859375 0.859375)" d="M243.339 308.728C245.921 313.622 244.128 342.221 243.848 349.099C241.435 341.892 241.574 316.361 243.339 308.728Z"/><path fill="white" transform="scale(0.859375 0.859375)" d="M243.022 394.325L243.617 394.915C244.975 400.788 245.314 423.15 243.789 428.761C240.667 422.934 242.082 401.623 243.022 394.325Z"/><path fill="white" transform="scale(0.859375 0.859375)" d="M109.642 465.742C114.614 465.702 119.583 466.039 124.504 466.75C117.507 467.972 110.494 467.93 103.417 467.962C99.577 467.887 95.4763 467.842 91.7559 466.816C96.319 464.836 104.625 465.781 109.642 465.742Z"/><path fill="#74B4F5" transform="scale(0.859375 0.859375)" d="M354.82 766.706C360.421 766.138 363.956 764.194 369.614 766.325C371.174 766.474 372.686 766.526 374.252 766.518L381.724 766.524C382.795 792.944 382.461 819.546 382.546 845.987C382.546 853.903 382.604 861.819 382.719 869.734C382.798 874.641 383.172 879.694 382.774 884.579C383.63 885.173 383.849 885.154 384.851 885.225C383.405 885.802 383.274 886.076 382.346 887.354C374.018 885.625 364.006 886.549 355.449 886.621C340.792 886.82 326.133 886.94 311.474 886.982C299.519 886.991 287.571 886.673 275.616 886.607C269.784 886.575 263.834 886.312 258.024 886.856L257.512 885.293C260.447 872.534 260.903 858.556 262.466 845.52C264.214 831.943 266.057 818.378 267.994 804.827C269.732 791.885 271.174 778.893 273.277 766.003C288.799 767.253 304.343 766.947 319.903 766.997C331.426 767.034 343.332 767.564 354.82 766.706Z"/><path fill="white" transform="scale(0.859375 0.859375)" d="M289.94 770.354C292.141 771.132 294.209 772.182 295.463 774.253C296.329 775.683 296.523 777.378 296.093 778.985C295.357 781.734 293.32 783.071 290.948 784.343C290.672 784.291 290.395 784.244 290.119 784.188C287.962 783.749 285.899 782.858 284.702 780.907C283.844 779.507 283.805 777.889 284.26 776.346C285.165 773.274 287.299 771.899 289.94 770.354Z"/><path fill="white" transform="scale(0.859375 0.859375)" d="M363.298 770.301C365.504 770.781 367.621 771.574 369.072 773.409C370.161 774.785 370.569 776.487 370.325 778.218C369.912 781.144 368.093 782.652 365.813 784.272C363.713 784.174 361.504 783.761 359.953 782.213C358.776 781.038 358.413 779.512 358.521 777.908C358.753 774.453 360.789 772.419 363.298 770.301Z"/><path fill="white" fill-opacity="0.98431373" transform="scale(0.859375 0.859375)" d="M409.962 131.771C414.164 131.502 418.637 130.953 422.832 131.277C424.82 131.43 426.826 131.98 428.119 133.6C430.612 136.723 429.989 142.133 429.708 145.892C432.961 146.952 435.989 148.244 439.081 149.706C442.675 146.103 446.187 142.52 449.463 138.618C455.523 143.691 461.442 148.931 467.213 154.33C464.076 158.325 460.891 162.177 457.475 165.939C458.994 169.004 460.224 172.25 461.54 175.409C466.356 174.97 471.498 174.668 476.324 175.015C477.536 182.816 477.601 190.409 477.427 198.271C472.883 198.535 468.355 198.907 463.806 199.115C462.339 202.406 461.173 205.893 459.896 209.265C463.349 212.311 466.734 215.433 470.048 218.63C467.953 222.329 464.997 226.32 462.2 229.531C460.473 231.513 458.566 233.15 455.819 233.241C451.66 233.378 447.081 228.08 444.213 225.411C441.318 226.826 438.477 228.11 435.436 229.18C435.56 232.419 436.088 236.292 435.49 239.464C435.103 241.517 434.271 242.36 432.607 243.461C427.951 243.878 422.519 244.974 417.895 244.569C415.971 244.4 414.092 243.821 412.9 242.199C410.605 239.075 411.407 233.715 411.87 230.096L404.206 227.41C400.534 231.54 397.013 235.408 392.508 238.64C386.799 234.649 381.555 229.303 376.983 224.081C379.24 220.284 382.192 216.876 385.048 213.526L379.223 203.971C374.532 204.122 369.87 204.269 365.176 204.095C364.091 196.349 364.02 188.798 364.022 180.995C368.645 181.02 373.161 180.789 377.765 180.397C379.177 177.149 380.165 173.997 380.914 170.54C378.135 166.774 374.217 163.978 370.554 161.128C374.71 154.586 380.035 149.003 385.332 143.394C388.951 146.297 392.563 149.593 396.57 151.937C399.276 150.088 401.977 148.484 404.889 146.979C405.224 142.04 404.727 136.965 404.484 132.023L409.962 131.771ZM405.926 133.7C406.271 138.579 406.501 143.466 406.617 148.356C403.137 150.157 399.761 152.035 396.424 154.089C392.703 151.377 389.001 148.641 385.317 145.879C380.929 150.487 376.564 155.331 372.87 160.521L383.038 170.159C381.182 173.996 379.937 177.769 379.07 181.946C374.591 182.145 370.095 182.438 365.613 182.522C365.382 189.443 365.429 196.062 366.353 202.949C371.075 202.787 375.813 202.535 380.538 202.542C382.438 206.399 384.347 210.019 387.308 213.188C384.536 216.722 381.371 220.195 378.898 223.925C383.134 228.551 388.021 233.031 392.897 236.978C396.475 233.065 399.985 228.778 404.018 225.331C407.15 226.674 410.13 227.54 413.449 228.294C413.361 232.455 412.415 238.502 414.782 242.029C418.189 244.42 427.384 242.254 431.638 241.818C432.953 241.102 433.41 241.072 433.795 239.531C434.658 236.083 433.914 231.613 433.889 228.064C437.653 226.796 440.908 225.036 444.402 223.187C448.111 226.852 451.538 230.495 456.168 233.029C460.528 228.64 463.873 223.465 467.994 218.889C464.701 215.869 461.31 212.888 458.222 209.658C459.719 205.821 460.958 201.888 461.932 197.887C466.578 197.617 471.386 197.678 475.986 197.037C476.093 190.149 476.155 183.329 475.245 176.482C470.284 176.472 465.413 176.452 460.475 177.015C458.928 173.213 457.453 169.359 455.644 165.674C458.857 161.993 462.337 158.369 465.203 154.414C465.06 154.304 464.916 154.196 464.774 154.084C462.064 151.955 453.003 141.599 450.086 142.274C446.466 143.111 442.318 148.809 439.667 151.464C435.828 150.027 432.206 148.687 428.124 148.118C427.889 143.109 427.552 138.082 427.455 133.069C422.242 133.043 416.984 132.877 411.78 133.217L405.926 133.7Z"/><path fill="white" fill-opacity="0.98431373" transform="scale(0.859375 0.859375)" d="M419.019 166.685C430.168 165.746 439.987 173.978 441.009 185.119C442.032 196.261 433.875 206.142 422.741 207.249C411.488 208.368 401.477 200.104 400.444 188.842C399.41 177.58 407.749 167.633 419.019 166.685ZM422.205 205.772C432.559 204.954 440.293 195.902 439.485 185.547C438.677 175.192 429.632 167.45 419.276 168.249C408.906 169.048 401.152 178.108 401.961 188.476C402.771 198.845 411.837 206.591 422.205 205.772Z"/><path fill="#B9E0FF" fill-opacity="0.96470588" transform="scale(0.859375 0.859375)" d="M818.108 166.432C832.739 173.278 846.068 183.298 859.623 192.036C867.934 197.394 877.868 202.518 885.108 209.179L885.17 189.214C886.607 195.363 885.199 202.22 885.829 208.511C885.817 209.243 885.656 210.303 885.818 210.996C885.513 221.285 885.678 231.597 885.69 241.89C885.696 247.206 886.037 252.791 885.404 258.063C884.772 251.464 885.261 244.613 885.131 237.974L663.814 238.113L663.631 237.334C668.074 235.818 704.503 236.867 711.085 236.873C731.789 236.889 752.812 236.098 773.486 236.99C750.578 216.429 730.745 192.093 707.145 172.304C701.566 177.283 696.474 183.111 691.217 188.442C682.036 197.75 672.708 206.923 663.618 216.318C663.261 215.267 663.21 214.061 663.065 212.959L662.966 208.5L664.074 208.5C663.99 209.904 663.68 211.437 664.384 212.711C665.508 212.686 665.678 212.589 666.527 211.893C668.611 210.184 670.257 207.711 672.148 205.761C678.088 199.635 701.941 174.193 707.333 171.373C714.792 175.973 727.46 190.171 734.223 196.849C747.565 210.023 761.455 222.775 774.236 236.491C789.762 213.787 802.529 189.109 818.108 166.432ZM775.897 236.545C798.113 237.395 820.508 236.898 842.75 236.881C856.883 236.885 871.101 236.555 885.224 236.961C885.192 227.829 885.443 218.6 884.989 209.483C879.178 206.514 873.641 202.541 868.161 198.971C851.884 188.369 835.741 176.354 818.284 167.805L775.897 236.545Z"/><path fill="white" transform="scale(0.859375 0.859375)" d="M776.404 325.195C777.786 325.043 779.08 324.98 780.447 325.328C790.141 327.793 804.244 338.317 813.392 343.705C820.757 348.043 828.647 351.961 835.653 356.841C837.495 358.125 839.399 359.435 840.49 361.448C842.014 364.263 842.701 368.371 841.609 371.446C839.164 378.33 822.1 385.26 815.815 388.348C806.811 392.8 794.475 401.378 785.297 403.885C781.72 404.861 777.934 405.079 774.671 403.093C771.839 401.369 769.724 398.902 768.957 395.644C766.696 386.045 764.892 348.708 765.637 338.461C765.825 335.869 766.03 333.207 767.468 330.968C769.473 327.845 772.845 325.944 776.404 325.195ZM770.789 397.443C773.567 400.523 775.795 402.643 780.195 402.821C789.287 403.188 806.509 390.558 815.336 386.288C822.458 382.976 837.71 377.721 840.33 369.783C840.977 367.822 840.886 366.007 840.507 364.011C838.833 361.538 836.562 359.622 834.12 357.937C826.553 352.714 817.954 348.618 809.991 343.987C801.758 339.2 793.866 333.78 785.489 329.25C783.574 328.215 781.394 326.958 779.228 326.602C778.577 326.495 777.961 326.485 777.302 326.481C773.833 327.864 769.86 329.301 768.304 333.041C765.061 340.831 768.572 388.303 770.789 397.443Z"/><path fill="white" transform="scale(0.859375 0.859375)" d="M793.588 355.463C794.933 355.309 796.422 355.285 797.759 355.537C800.048 355.969 802.265 357.613 803.545 359.525C805.032 361.744 805.4 364.5 804.756 367.073C803.901 370.491 801.854 372.079 798.94 373.78C796.602 373.896 794.519 373.498 792.245 373.051C791.059 371.993 789.867 370.949 789.029 369.582C787.61 367.268 786.906 364.211 787.713 361.562C788.681 358.385 790.75 356.892 793.588 355.463ZM798.255 371.409C801.915 370.352 804.133 366.642 803.331 362.918C802.529 359.193 798.982 356.724 795.21 357.267C792.528 357.653 790.284 359.503 789.394 362.062C788.504 364.622 789.116 367.465 790.981 369.432C792.845 371.399 795.651 372.161 798.255 371.409Z"/><path fill="white" transform="scale(0.859375 0.859375)" d="M134.885 594.782C141.459 593.094 148.149 597.09 149.779 603.679C151.408 610.268 147.353 616.922 140.75 618.493C134.229 620.045 127.676 616.051 126.067 609.544C124.457 603.037 128.393 596.449 134.885 594.782ZM140.246 616.944C145.803 615.77 149.428 610.401 148.44 604.808C147.453 599.216 142.209 595.413 136.586 596.213C132.777 596.755 129.567 599.33 128.212 602.93C126.857 606.53 127.573 610.582 130.079 613.501C132.585 616.419 136.483 617.739 140.246 616.944Z"/><path fill="#EF5E5B" transform="scale(0.859375 0.859375)" d="M283.588 711.839C288.417 711.697 293.249 711.643 298.08 711.676C297.427 726.803 298.006 742.189 298.008 757.345C299.005 758.263 300.209 759.225 301.052 760.282C301.84 761.271 301.978 761.85 301.861 763.075C301.025 763.824 300.264 764.197 299.207 764.53C295.368 765.739 285.06 766.853 281.574 764.489C280.463 763.736 280.516 763.122 280.386 761.921C280.996 759.971 282.433 758.844 283.871 757.487C285.315 744.47 283.654 725.562 283.588 711.839Z"/><path fill="#EF5E5B" transform="scale(0.859375 0.859375)" d="M357.475 711.835C362.137 712.121 366.805 712.467 371.473 712.633C371.473 720.966 371.425 729.299 371.328 737.632C371.232 744.441 370.747 751.512 371.663 758.277C373.1 759.769 374.888 761.221 374.806 763.475C374.769 764.494 374.501 765.532 374.252 766.518C372.686 766.526 371.174 766.474 369.614 766.325C363.956 764.194 360.421 766.138 354.82 766.706C354.45 765.569 353.846 764.108 353.982 762.898C354.248 760.527 355.884 759.511 357.609 758.093L357.475 711.835Z"/><path fill="#CC6A69" transform="scale(0.859375 0.859375)" d="M371.663 758.277C373.1 759.769 374.888 761.221 374.806 763.475C374.769 764.494 374.501 765.532 374.252 766.518C372.686 766.526 371.174 766.474 369.614 766.325L370.53 765.808C371.407 763.454 371.431 760.766 371.663 758.277Z"/><path fill="white" transform="scale(0.859375 0.859375)" d="M258.024 886.856C250.081 888.876 213.632 887.11 203.24 887.099L150.557 887.127C135.47 887.264 120.38 887.768 105.288 887.53C102.058 887.479 98.7719 887.373 95.64 886.52L95.6832 886.03C97.1853 885.397 98.5056 885.053 100.141 884.962C108.607 884.49 117.289 884.82 125.773 884.822L176.788 884.965L226.971 884.965C237.113 884.966 247.395 884.629 257.512 885.293L258.024 886.856Z"/><path fill="white" fill-opacity="0.98039216" transform="scale(0.859375 0.859375)" d="M144.006 573.658C149.591 574.364 154.837 576.723 159.071 580.432C165.523 585.99 169.673 594.665 170.277 603.138C171.367 618.418 160.567 630.171 151.85 641.453C147.121 647.573 142.503 653.85 137.402 659.667C130.145 652.76 113.227 630.084 108.38 621.421C106.854 618.713 105.738 615.794 105.066 612.759C103.179 604.43 104.941 595.086 109.597 587.956C114.804 579.983 122.334 575.685 131.5 573.74C132.501 574.647 133.061 574.923 134.383 575.2C125.267 576.455 117.459 580.242 111.853 587.732C107.073 594.014 104.986 601.939 106.053 609.76C106.578 613.376 107.78 616.726 109.472 619.955C113.853 628.313 130.614 651.146 137.458 657.211C142.162 651.496 146.562 645.497 151.048 639.609C159.305 628.771 169.86 617.112 168.539 602.468C167.834 594.662 163.854 586.879 157.79 581.897C153.37 578.266 148.497 576.265 142.892 575.272L144.006 573.658Z"/><path fill="#AAD4FF" fill-opacity="0.94117647" transform="scale(0.859375 0.859375)" d="M662.844 263.407C663.195 262.726 663.387 261.868 663.628 261.135L664.025 262.408C666.277 263.217 669.192 262.978 671.574 262.992L813.911 262.628C821.971 262.631 881.924 263.839 885.505 262.535L886.343 263.477C885.789 263.732 885.121 263.917 884.511 263.964C878.345 264.446 871.837 264.017 865.632 264.017L827.225 264.016L704.202 264.01C699.106 264.01 664.631 264.579 663.495 263.991C663.236 263.857 663.061 263.602 662.844 263.407Z"/><path fill="#BAD1F9" fill-opacity="0.79215688" transform="scale(0.859375 0.859375)" d="M662.556 134.019C670.44 132.634 680.8 133.571 688.91 133.581L743.658 133.669L826.633 133.605C839.866 133.577 858.93 132.246 871.594 134.634C868.825 134.851 866.046 135.16 863.271 134.907C858.007 133.671 667.748 134.706 667.197 134.925L663.772 135.035C663.634 136.214 663.488 137.259 663.142 138.401L662.556 134.019Z"/><path fill="white" fill-opacity="0.96862745" transform="scale(0.859375 0.859375)" d="M441.334 783.067C443.972 804.292 442.559 825.426 442.491 846.742C442.44 854.75 442.467 862.759 442.571 870.767C442.664 875.556 443.09 880.414 442.824 885.197L440.94 885.621C441.625 871.63 440.999 857.338 441.019 843.315C441.046 823.689 441.63 804.196 439.965 784.615L441.334 783.067Z"/><path fill="#C9DEF6" fill-opacity="0.6156863" transform="scale(0.859375 0.859375)" d="M667.197 134.925C667.748 134.706 858.007 133.671 863.271 134.907L730.39 134.962C709.326 135.113 688.261 135.101 667.197 134.925Z"/><path fill="#C9DEF6" fill-opacity="0.90980393" transform="scale(0.859375 0.859375)" d="M885.17 189.214L885.256 148.799C885.255 144.428 884.238 138.266 885.33 134.136L885.878 133.84C887.308 138.871 886.109 149.253 886.121 155.024C886.156 172.731 887.217 190.875 885.829 208.511C885.199 202.22 886.607 195.363 885.17 189.214Z"/><path fill="white" fill-opacity="0.95686275" transform="scale(0.859375 0.859375)" d="M690.734 826.93C691.702 842.979 692.696 860.064 690.179 875.991L689.079 876.384C691.466 863.428 690.316 842.392 689.594 828.892L690.734 826.93Z"/><path fill="white" fill-opacity="0.98039216" transform="scale(0.859375 0.859375)" d="M917.362 768.928L918.928 768.391C919.372 775.935 918.956 783.577 919.045 791.139C919.112 796.841 920.142 805.008 919.098 810.465L918.047 811.007C918.067 796.993 917.491 782.949 917.362 768.928Z"/><path fill="#82BEFF" fill-opacity="0.82745099" transform="scale(0.859375 0.859375)" d="M663.235 151.651C663.845 155.693 663.736 159.92 663.925 164.009L664.074 208.5L662.966 208.5L662.904 192.196C663.348 178.716 662.184 165.094 663.235 151.651Z"/><path fill="#C9DEF6" fill-opacity="0.85490197" transform="scale(0.859375 0.859375)" d="M663.065 212.959C663.21 214.061 663.261 215.267 663.618 216.318C664.269 223.258 663.901 230.38 663.631 237.334L663.814 238.113C663.812 245.651 664.383 253.668 663.628 261.135C663.387 261.868 663.195 262.726 662.844 263.407C661.757 257.511 662.428 250.487 662.528 244.491L663.065 212.959Z"/><path fill="#C9DEF6" fill-opacity="0.28627452" transform="scale(0.859375 0.859375)" d="M662.904 192.196C661.854 178.564 662.382 164.437 662.423 150.752C662.439 145.344 661.761 139.315 662.556 134.019L663.142 138.401C663.488 137.259 663.634 136.214 663.772 135.035C664.392 144.351 664.618 154.716 663.925 164.009C663.736 159.92 663.845 155.693 663.235 151.651C662.184 165.094 663.348 178.716 662.904 192.196Z"/><path fill="#C9DEF6" fill-opacity="0.90196079" transform="scale(0.859375 0.859375)" d="M885.818 210.996C886.789 224.213 886.344 237.846 886.177 251.105C886.125 255.224 886.595 259.368 886.343 263.477L885.505 262.535C885.347 261.048 885.394 259.556 885.404 258.063C886.037 252.791 885.696 247.206 885.69 241.89C885.678 231.597 885.513 221.285 885.818 210.996Z"/><path fill="white" transform="scale(0.859375 0.859375)" d="M950.998 884.725C953.584 884.292 959.118 884.42 961.369 885.72C960.192 886.58 958.784 886.513 957.381 886.625C952.489 886.858 947.967 886.451 943.155 885.563C945.715 884.965 948.381 884.905 950.998 884.725Z"/><path fill="white" transform="scale(0.859375 0.859375)" d="M131.5 573.74C135.749 573.257 139.752 573.111 144.006 573.658L142.892 575.272C139.996 574.995 137.283 575.025 134.383 575.2C133.061 574.923 132.501 574.647 131.5 573.74Z"/></svg>