<?xml version="1.0" encoding="utf-8" ?><svg xmlns="http://www.w3.org/2000/svg" xmlns:xlink="http://www.w3.org/1999/xlink" width="880" height="880" viewBox="0 0 880 880"><path transform="scale(0.859375 0.859375)" d="M269.452 596.802C270.193 578.099 269.418 559.117 269.49 540.376L269.393 395.701L269.378 354.308C269.295 345.316 268.317 335.743 269.607 326.829C270.639 319.698 273.675 313.394 278.676 308.2C286.629 299.942 296.31 298.22 307.32 298.002C351.707 297.123 396.286 298.009 440.693 298.049L480.057 298.028C489.802 297.986 499.979 297.389 509.614 298.94C516.808 300.097 522.691 302.993 527.915 308.088C535.184 315.177 538.795 324.118 540.549 333.959C542.55 345.181 542.128 356.006 542.109 367.322L542.09 404.373L542.535 533.739C552.095 520.587 562.219 507.848 572.075 494.916C588.933 472.85 605.673 450.693 622.295 428.448C630.531 417.474 639.211 406.709 647.015 395.43C631.429 386.223 614.358 379.777 598.815 370.598C607.843 366.728 617.617 364.387 626.965 361.382L681.627 343.902C697.571 338.943 713.369 331.974 729.855 329.098C730.219 338.112 731.504 347.282 732.159 356.316C734.248 385.622 736.681 414.902 739.46 444.15L716.66 432.515C697.322 455.798 678.908 479.9 659.847 503.421L622.197 550.006C614.762 559.152 607.051 568.114 599.892 577.478C623.924 577.495 649.719 576.418 673.481 577.537C673.474 550.945 682.642 518.72 701.722 499.451C711.369 489.709 724.318 481.613 738.433 481.562C746.453 481.532 754.149 484.351 759.863 490.061C768.352 498.543 770.596 511.492 770.407 523.031C770.21 535.114 768.021 547.347 765.017 559.042C792.975 507.378 827.458 454.37 877.63 421.819C887.498 415.416 897.911 409.46 909.225 406.045C921.275 402.407 935.456 401.253 946.897 407.434C955.455 412.057 960.908 419.869 963.604 429.096C975.28 469.047 949.998 524.552 930.785 559.132C922.133 574.594 912.567 589.526 902.138 603.848C894.788 613.979 886.58 623.882 880.086 634.557C896.154 624.515 917.879 614.314 937.248 618.722C946.616 620.861 954.716 626.708 959.697 634.925C967.15 646.993 968.263 663.256 964.985 676.818C959.236 700.608 940.222 717.818 920.013 730.048C908.511 737.009 895.63 742.943 885.137 751.373C898.639 755.923 911.806 761.673 918.472 775.156C923.386 785.094 923.032 796.368 919.445 806.662C913.249 824.441 899.914 840.04 885.326 851.595C879.297 856.371 872.618 860.689 867.136 866.102C866.381 872.507 863.01 876.639 858.368 880.794C865.906 881.195 873.639 880.532 881.202 880.515L927.192 880.537C941.342 880.423 957.064 878.015 970.59 882.748C959.905 881.949 949.246 882.107 938.539 882.081L893.706 882.059C844.534 882.476 795.36 882.63 746.186 882.521L261.421 882.915C214.877 883.03 168.334 882.871 121.793 882.435L87.4416 882.33C77.5561 882.382 67.019 883.173 57.2905 881.237C70.0605 880.077 82.9242 880.514 95.7335 880.551C109.838 880.591 123.954 880.39 138.051 880.933C137.353 865.821 138.308 850.363 138.456 835.218C138.621 818.215 137.751 801.14 138.686 784.157C140.149 757.566 144.353 731.29 148.681 705.045C151.712 686.661 154.591 668.239 158.736 650.066C155.993 650.068 153.251 650.049 150.508 650.01C142.605 649.856 135.736 648.395 130.088 642.305C124.472 636.249 122.941 627.812 123.393 619.812C124.495 600.294 143.311 579.098 157.326 566.525C169.922 555.226 186.015 545.888 203.479 546.888C233.639 548.615 251.331 576.368 269.452 596.802ZM522.864 880.709C526.996 880.856 531.115 880.981 535.25 880.946L595.874 880.894C591.367 878.46 587.181 875.606 585.569 870.448C582.06 859.217 584.425 820.009 584.405 806.035L584.347 644.857C584.362 635.58 585.677 604.783 583.768 598.359C578.591 603.275 546.927 641.971 543.876 647.772C542.609 650.183 542.504 653.347 542.428 656.029C541.077 703.748 542.486 751.631 542.558 799.365L542.572 831.354C542.565 839.851 543.044 848.646 541.432 857.025C540.149 863.692 536.331 870.012 531.44 874.655C528.833 877.13 525.973 878.926 522.864 880.709Z"/><path fill="#54A8FD" transform="scale(0.859375 0.859375)" d="M765.017 559.042C792.975 507.378 827.458 454.37 877.63 421.819C887.498 415.416 897.911 409.46 909.225 406.045C921.275 402.407 935.456 401.253 946.897 407.434C955.455 412.057 960.908 419.869 963.604 429.096C975.28 469.047 949.998 524.552 930.785 559.132C922.133 574.594 912.567 589.526 902.138 603.848C894.788 613.979 886.58 623.882 880.086 634.557C896.154 624.515 917.879 614.314 937.248 618.722C946.616 620.861 954.716 626.708 959.697 634.925C967.15 646.993 968.263 663.256 964.985 676.818C959.236 700.608 940.222 717.818 920.013 730.048C908.511 737.009 895.63 742.943 885.137 751.373C898.639 755.923 911.806 761.673 918.472 775.156C923.386 785.094 923.032 796.368 919.445 806.662C913.249 824.441 899.914 840.04 885.326 851.595C879.297 856.371 872.618 860.689 867.136 866.102C865.889 859.354 866.559 851.801 866.559 844.94L866.539 810.576L866.528 655.921L866.569 614.188C866.609 606.675 867.395 598.29 866.318 590.896C865.803 587.358 864.361 583.968 861.749 581.467C858.859 578.701 855.522 578.159 851.707 577.754C845.02 577.043 838.011 577.498 831.279 577.498L794.178 577.49L673.481 577.537C673.474 550.945 682.642 518.72 701.722 499.451C711.369 489.709 724.318 481.613 738.433 481.562C746.453 481.532 754.149 484.351 759.863 490.061C768.352 498.543 770.596 511.492 770.407 523.031C770.21 535.114 768.021 547.347 765.017 559.042Z"/><path fill="#FEFDFD" transform="scale(0.859375 0.859375)" d="M895.028 436.705L896.751 438.013C897.427 439.579 897.212 440.279 896.834 441.918C895.131 449.296 891.884 456.556 889.414 463.732C885.301 475.679 881.44 487.713 877.256 499.636C888.172 489.122 899.414 478.973 910.56 468.707C916.072 463.629 921.301 458.007 927.157 453.332C928.849 451.981 930.936 450.14 933.174 450.396L933.329 451.516C930.21 457.451 896.466 486.708 889.429 493.195C878.971 502.755 868.732 512.551 858.721 522.578C862.06 522.504 865.415 522.206 868.75 521.99L898.822 520.005C903.974 519.661 909.648 518.741 914.761 519.322C916.205 519.486 917.799 519.607 918.739 520.752C914.675 524.712 864.229 525.876 855.511 525.919C850.222 530.758 837.278 545.016 831.591 546.99L830.842 546.618C830.68 541.714 848.01 527.136 851.882 523.557C857.758 518.125 864.985 512.579 869.639 506.117C877.551 495.128 880.372 479.086 884.347 466.281C887.385 456.242 890.95 446.369 895.028 436.705Z"/><path fill="#FEFDFD" transform="scale(0.859375 0.859375)" d="M498.426 319.229C507.908 318.819 517.411 319.626 525.296 325.382C531.478 329.894 534.993 336.534 536.101 343.993C537.142 350.997 536.728 358.575 536.791 365.658C536.908 379.402 536.934 393.146 536.868 406.889L536.619 532.654L536.7 739.973L536.885 809.701C536.918 822.488 537.472 835.476 536.719 848.23C536.284 855.594 534.877 861.733 530.301 867.67C525.106 874.41 517.574 878.153 509.237 879.209C495.408 880.96 480.567 879.956 466.623 879.926L392.274 879.772L336.649 880.021C326.424 880.05 315.641 880.691 305.492 879.36C298.654 878.463 293.857 875.894 288.529 871.741C287.452 870.728 286.37 869.706 285.385 868.602C281.345 864.075 278.912 858.876 277.955 852.882C276.636 844.62 277.124 836.157 277.159 827.824L277.177 793.129L276.988 728.884C276.908 714.822 276.335 700.903 277.06 686.84C280.808 681.353 286.463 676.625 291.225 672.002L312.249 651.498C301.16 635.981 288.602 621.589 277.05 606.423C276.324 585.103 276.943 563.766 276.916 542.437L276.805 433.206L276.971 386.102C276.908 373.814 276.113 361.141 277.838 348.944C278.877 341.595 281.621 334.94 286.722 329.459C291.372 324.461 297.195 321.459 303.885 320.286C311 319.039 318.49 319.484 325.69 319.482L358.492 319.478L445.782 319.506C463.304 319.513 480.915 319.867 498.426 319.229Z"/><path fill="#FE6826" transform="scale(0.859375 0.859375)" d="M401.458 550C401.195 541.322 399.456 515.797 402.567 508.804C404.479 507.784 406.78 507.637 408.918 507.484C416.122 506.968 423.515 507.505 430.748 507.503C438.682 507.5 459.602 506.151 466.248 508.047C467.41 508.378 468.101 508.764 468.66 509.878C469.509 511.569 469.493 514.579 469.561 516.508C469.837 524.402 469.541 532.392 469.521 540.295L469.462 586.231L469.22 771.085C446.662 770.907 424.103 770.964 401.545 771.256C389.529 771.365 377.505 771.02 365.487 771.096C354.762 771.164 343.236 772.553 332.671 770.354C330.367 758.919 331.8 746.516 331.907 734.894L331.956 688.947L331.812 601.342C331.768 584.275 331.086 567.306 332.106 550.251C341.617 549.736 351.178 549.995 360.7 550.012L401.458 550Z"/><path fill="#74D76E" transform="scale(0.859375 0.859375)" d="M332.106 550.251C341.617 549.736 351.178 549.995 360.7 550.012L401.458 550L401.545 771.256C389.529 771.365 377.505 771.02 365.487 771.096C354.762 771.164 343.236 772.553 332.671 770.354C330.367 758.919 331.8 746.516 331.907 734.894L331.956 688.947L331.812 601.342C331.768 584.275 331.086 567.306 332.106 550.251Z"/><path fill="#54A8FD" transform="scale(0.859375 0.859375)" d="M433.607 392.379C434.639 392.425 435.628 392.566 436.606 392.907C440.748 394.353 471.955 425.581 477.049 431.537C478.704 433.471 480.017 435.361 481.102 437.674C476.619 445.007 469.6 450.618 463.645 456.724C455.114 465.47 446.818 475.215 436.977 482.517C435.206 482.822 433.748 482.851 432.097 482.013C430.339 481.12 397.468 448.715 394.122 444.612C392.339 442.425 390.967 440.25 390.193 437.525C390.611 432.014 426.867 398.23 433.607 392.379Z"/><path fill="#54A8FD" transform="scale(0.859375 0.859375)" d="M394.798 846.018C401.429 845.88 419.001 844.337 424.799 846.801C425.793 848.159 425.514 849.915 425.506 851.524C418.641 851.786 401.603 853.47 395.595 851.077C394.619 849.625 394.824 847.713 394.798 846.018Z"/><path fill="#FEFDFD" transform="scale(0.859375 0.859375)" d="M604.319 579.702C604.448 579.685 604.578 579.663 604.708 579.652C616.883 578.609 629.837 579.515 642.073 579.514L719.185 579.552L805.839 579.61C820.641 579.601 835.805 578.724 850.554 579.697C853.898 579.918 857.425 580.646 860.055 582.862C862.746 585.129 864.116 588.606 864.351 592.055C865.501 608.92 864.637 626.158 864.545 643.063L864.51 723.568L864.578 815.871C864.598 830.71 865.502 845.785 864.65 860.587C864.355 865.713 864.472 871.356 860.818 875.384C857.326 879.234 852.225 879.508 847.392 879.84C794.285 880.475 741.114 879.979 688 879.995L638.257 880.034C626.52 880.1 614.684 880.713 602.973 879.665C598.902 879.301 595.726 878.484 592.421 875.912C588.401 872.783 587.395 868.419 586.803 863.591C585.175 850.315 586.341 836.579 586.458 823.241L586.505 759.956L586.524 649.841C586.527 632.766 585.523 615.363 586.415 598.339C586.664 593.598 586.836 588.884 589.997 585.08C593.638 580.696 599.04 580.177 604.319 579.702Z"/><path fill="#FE6826" transform="scale(0.859375 0.859375)" d="M645.378 765.226C680.026 764.454 714.804 764.947 749.465 764.932L788.18 764.925C795.879 764.926 803.739 764.611 811.414 765.219C814.62 765.473 818.364 765.703 820.912 767.85C823.569 770.088 824.426 773.868 824.735 777.165C825.204 782.182 824.834 787.448 824.92 792.497C825.058 800.653 826.306 809.569 824.965 817.618C824.477 820.543 823.541 823.481 821.564 825.756C818.101 829.742 814.006 830.007 809.097 830.237C771.753 829.548 734.276 829.959 696.922 830.031C680 830.064 662.577 830.955 645.697 829.885C642.568 829.687 636.807 829.436 634.326 827.479C630.832 824.723 628.843 819.823 628.25 815.534C626.961 806.213 626.056 777.978 631.814 770.81C635.283 766.491 640.197 765.65 645.378 765.226Z"/><path fill="#FEFDFD" transform="scale(0.859375 0.859375)" d="M796.578 767.772C802.681 767.464 813.939 766.386 818.889 770.743C821.176 772.757 821.958 775.828 822.107 778.767C822.436 785.263 821.943 791.91 821.997 798.425C822.05 804.683 823.059 811.492 822.026 817.674C821.615 820.136 820.68 822.484 818.966 824.331C816.595 826.887 812.359 827.113 809.049 827.386C795.827 828.476 782.146 827.363 768.87 827.312L693.112 827.015C680.316 827.013 667.41 826.676 654.629 827.273C648.578 827.593 639.375 828.219 634.441 824.109C631.379 821.557 630.337 817.734 629.985 813.905C629.167 804.99 627.803 778.583 633.422 772.319C635.345 770.175 638.422 768.833 641.246 768.512C647.965 767.746 654.84 768.135 661.586 768.23C670.202 768.312 678.818 768.348 687.434 768.338C723.53 768.365 760.537 768.893 796.578 767.772Z"/><path transform="scale(0.859375 0.859375)" d="M724.74 683.99C720.249 675.012 718.674 665.253 721.847 655.56C724.88 646.584 731.345 639.174 739.828 634.951C748.548 630.574 759.338 629.81 768.58 632.978C774.388 634.969 778.835 638.312 783.431 642.291C791.214 638.959 798.824 636.907 807.159 640.104C813.249 642.481 818.151 647.17 820.797 653.148C823.585 659.534 823.665 666.777 821.018 673.222C818.604 679.264 814.072 684.38 808.042 686.965C800.717 690.105 792.512 689.054 785.261 686.305C779.191 694.584 771.868 700.206 761.505 701.82C752.118 703.243 742.552 700.85 734.941 695.173C731.333 692.531 728.385 689.364 725.764 685.75L724.74 683.99Z"/><path fill="#FE6826" transform="scale(0.859375 0.859375)" d="M753.16 633.177L753.96 633.124C765.079 632.42 773.279 636.401 781.489 643.661C780.013 645.036 778.434 646.393 777.151 647.956C772.731 653.337 770.494 659.875 771.365 666.845C772.39 675.038 777.22 680.222 783.416 685.076C778.262 692.58 772.028 696.737 763.385 699.34C753.287 700.73 744.017 699.617 735.704 693.286C728.503 687.776 723.793 679.624 722.616 670.634C721.508 661.945 723.881 653.171 729.218 646.225C735.077 638.728 743.805 634.304 753.16 633.177Z"/><path fill="#FEFDFD" transform="scale(0.859375 0.859375)" d="M796.32 640.608C799.066 640.365 802.455 640.977 805.082 641.807C811.072 643.685 815.995 647.999 818.643 653.691C821.313 659.445 821.506 666.041 819.178 671.942C816.414 679.096 811.433 682.776 804.654 685.697C798.212 687.283 792.59 686.335 786.484 684.147C787.798 681.465 789.136 678.683 790.043 675.832C793.809 663.99 790.232 654.65 784.757 644.072C788.533 642.495 792.303 641.372 796.32 640.608Z"/><path fill="#FE6826" transform="scale(0.859375 0.859375)" d="M784.455 683.419C783.051 682.396 781.717 681.325 780.478 680.103C775.914 675.654 773.374 669.529 773.45 663.157C773.603 655.254 777.968 650.1 783.39 644.975C784.713 647.066 785.8 649.182 786.862 651.409C789.949 658.749 790.964 666.167 788.643 673.927C787.591 677.216 785.951 680.313 784.455 683.419Z"/><path fill="#FEFDFD" transform="scale(0.859375 0.859375)" d="M786.862 651.409C789.949 658.749 790.964 666.167 788.643 673.927C786.461 669.658 786.033 656.187 786.862 651.409Z"/><path fill="#FE6826" transform="scale(0.859375 0.859375)" d="M677.033 728.731C706.846 728.142 736.756 728.736 766.583 728.533L799.705 728.322C805.024 728.32 810.979 727.83 816.207 728.798C817.311 729.003 818.752 729.115 819.388 730.076C815.277 732.101 782.674 731.054 775.499 731.047L681.949 731.075C667.841 731.101 646.379 732.245 633.063 730.294L632.909 729.746C633.278 729.508 633.606 729.19 634.016 729.033C636.19 728.202 671.71 728.896 677.033 728.731Z"/><path fill="#FE6826" transform="scale(0.859375 0.859375)" d="M618.801 687.974C618.939 687.74 619.075 687.505 619.215 687.273C625.286 677.229 637.304 669.299 648.591 666.496C668.362 661.586 677.369 671.221 693.068 680.478C703.532 686.647 713.195 686.888 724.74 683.99L725.764 685.75C692.746 694.099 689.307 671.771 664.345 667.644C652.911 665.754 640.415 669.559 631.516 676.886C627.345 680.32 623.807 684.486 619.362 687.589L618.801 687.974Z"/><path fill="#FEFDFD" transform="scale(0.859375 0.859375)" d="M726.654 332.064C727.049 332.129 727.371 332.423 727.71 332.635C729.944 344.063 730.19 356.725 731.166 368.345L736.84 440.191C729.926 437.011 723.228 433.289 716.559 429.631C706.701 440.265 698.336 452.018 689.312 463.334L642.747 521.332C628.765 538.865 615.096 557.012 600.263 573.824C596.768 577.786 591.564 580.11 588.196 584.122C584.762 588.212 584.115 593.967 580.886 598.32C568.767 614.654 554.972 629.801 542.555 645.945L542.507 620.75L542.622 537.392C553.923 520.686 567.38 505.057 579.611 489.004L650.517 394.494C635.798 385.549 619.245 379.663 604.297 371.003C621.829 363.89 640.628 359.057 658.669 353.328C681.243 346.16 703.752 338.11 726.654 332.064Z"/><path fill="#FEFDFD" transform="scale(0.859375 0.859375)" d="M161.197 650.1C174.279 649.775 187.419 650.006 200.507 650.003C213.98 650 227.511 649.751 240.973 650.33C242.248 666.884 242.155 683.736 242.627 700.339C243.83 742.666 244.842 786.055 251.492 827.938L204.211 827.979C202.506 818.925 201.623 809.52 200.509 800.369C198.067 780.335 196.081 760.248 194.551 740.124C194.453 734.796 193.966 729.436 193.728 724.108C193.385 716.413 193.53 708.367 191.679 700.86C189.013 713.146 188.984 726.638 188.34 739.194C186.821 768.82 186.465 798.205 186.485 827.865C171.384 828.323 156.177 827.879 141.072 827.639C138.472 787.305 144.543 746.594 150.632 706.828C153.525 687.932 156.073 668.538 161.197 650.1Z"/><path fill="#54A8FD" transform="scale(0.859375 0.859375)" d="M196.568 549.188C200.131 548.761 204.024 548.926 207.573 549.441C237.323 553.756 257.466 586.243 274.812 607.77C286.447 622.208 298.259 636.479 309.294 651.389C296.44 663.653 283.818 676.157 271.433 688.895C262.261 676.667 252.457 664.861 242.995 652.851C244.274 647.853 245.597 642.839 245.842 637.66C246.214 629.781 243.948 621.753 238.417 615.952C227.513 604.514 210.541 606.039 196.146 606.227C188.571 606.35 180.995 606.347 173.42 606.22L164.41 605.759C159.243 612.048 153.681 618.341 150.633 625.974C156.761 621.826 160.843 614.135 164.854 608.074C173.398 608.405 181.949 608.539 190.499 608.477C201.19 608.384 213.029 606.897 223.407 609.827C230.663 611.876 237.235 616.51 240.862 623.228C245.178 631.221 244.279 639.684 241.799 648L178.87 648.008C167.184 648.037 155.239 649.224 143.647 647.289C140.099 646.696 136.991 645.37 134.186 643.092C129.045 638.916 126.314 632.596 125.598 626.123C123.743 609.348 135.021 595.245 144.932 582.982C157.65 567.245 175.607 551.433 196.568 549.188Z"/><path fill="#FEFDFD" transform="scale(0.859375 0.859375)" d="M243.542 658.206C250.706 663.096 264.026 682.918 269.483 690.607C269.786 726.583 269.792 762.561 269.502 798.536C269.494 817.983 268.544 837.325 270.767 856.688C270.736 856.695 270.706 856.708 270.674 856.709C268.493 856.75 264.789 853.082 263.228 851.499C259.574 847.794 257.047 844.321 255.606 839.248C252.678 828.946 252.093 817.671 251.06 807.03C248.824 783.167 247.256 759.246 246.357 735.296C245.195 709.601 243.407 683.94 243.542 658.206Z"/><path fill="#FEFDFD" transform="scale(0.859375 0.859375)" d="M191.233 732.888C191.375 733.112 191.543 733.322 191.659 733.561C193.121 736.574 194.024 760.979 194.395 765.484C196.235 786.169 198.766 806.786 201.983 827.302C203.347 836.379 205.245 845.477 206.309 854.584C206.501 856.231 206.662 857.68 206.221 859.295L205.251 859.35C200.357 855.742 194.672 851.998 191.404 846.753C189.534 843.752 189.002 840.286 188.669 836.824C187.715 826.899 188.455 816.483 188.484 806.503C188.393 790.13 188.737 773.758 189.517 757.403C189.82 749.429 189.627 740.665 191.233 732.888Z"/><path fill="#FEFDFD" transform="scale(0.859375 0.859375)" d="M388.386 308.128C396.376 307.69 404.426 307.846 412.426 307.829C417.78 307.819 423.831 307.336 429.096 308.252C429.777 309.525 429.515 310.036 429.326 311.438C416.67 311.883 401.557 313.287 389.191 311.274C388.235 310.177 388.464 309.525 388.386 308.128Z"/><path fill="#FEFDFD" transform="scale(0.859375 0.859375)" d="M446.091 307.117C447.047 307.146 448.077 307.133 449.016 307.313C450.329 307.565 450.916 308.043 451.695 309.071C451.509 310.297 451.311 310.727 450.451 311.621C449.415 311.609 448.262 311.65 447.248 311.433C445.858 311.137 445.093 310.548 444.328 309.411C444.775 308.14 445.035 307.986 446.091 307.117Z"/><path transform="scale(0.859375 0.859375)" d="M683.967 138.693C691.637 137.772 700.399 139.223 707.389 142.512C722.651 149.693 728.122 162.317 733.487 177.301C738.461 167.7 744.053 159.249 753.283 153.287C762.22 147.577 773.075 145.691 783.414 148.053C794.034 150.388 803.387 156.535 809.271 165.749C816.603 177.231 816.661 189.296 813.889 202.214C817.739 200.652 821.533 199.12 825.612 198.27C836.341 195.969 847.543 198.116 856.661 204.221C865.713 210.35 871.89 219.891 873.777 230.659C875.814 242.279 873.135 254.231 866.334 263.871C862.81 268.901 858.212 273.563 852.697 276.386C844.877 280.39 835.692 281.358 827.269 283.609C810.285 288.146 793.876 293.643 776.479 296.666C736.848 302.396 696.775 302.822 657.376 294.99C647.347 292.996 637.604 289.8 627.634 287.546C614.036 284.47 599.824 283.253 587.943 275.288C577.115 268.023 569.654 256.717 567.233 243.904C564.552 230.275 566.42 216.256 574.288 204.614C581.036 194.46 591.582 187.445 603.555 185.147C618.787 182.306 631.067 187.363 643.465 195.776L643.376 195.182C641.331 181.3 642.817 167.85 651.501 156.37C659.54 145.743 671.054 140.578 683.967 138.693ZM646.309 200.792C646.011 200.631 645.711 200.475 645.415 200.311C642.058 198.441 639.188 195.411 635.968 193.235C625.988 186.492 613.041 184.741 601.45 187.727C590.049 190.697 580.343 198.168 574.552 208.428C567.975 219.95 566.252 233.615 569.762 246.41C573.199 258.681 581.296 269.124 592.325 275.507C603.695 281.95 617.481 283.201 630.021 286.027C640.023 288.28 649.809 291.575 659.859 293.576C697.281 301.028 738.308 301.323 775.882 294.714C792.145 291.634 807.497 286.804 823.441 282.535C833.044 279.964 843.861 278.631 852.676 273.906C857.595 271.269 861.55 267.18 864.661 262.597C871.008 253.247 874.043 241.467 871.829 230.273C869.841 220.334 864.02 211.577 855.625 205.898C846.957 200.163 836.368 198.102 826.182 200.165C820.444 201.376 815.131 203.767 809.819 206.182C814.241 195.793 815.517 184.357 811.16 173.722C807.239 164.016 799.585 156.29 789.916 152.278C780.18 148.313 769.357 148.158 759.645 152.259C749.415 156.58 742.528 164.69 737.604 174.417C736.05 177.488 734.823 180.767 733.139 183.761L732.862 183.099C730.871 178.278 729.963 173.153 728.225 168.258C724.337 157.301 715.319 148.128 704.702 143.558C699.185 141.184 694.025 140.42 688.06 140.214C675.376 141.412 663.034 145.855 654.697 155.934C647.051 165.176 643.537 177.649 644.776 189.531C645.168 193.293 645.763 197.049 646.309 200.792Z"/><path transform="scale(0.859375 0.859375)" d="M172.111 282.186C214.39 278.887 251.319 310.532 254.537 352.817C257.756 395.102 226.041 431.971 183.75 435.109C141.572 438.238 104.824 406.627 101.614 364.456C98.4048 322.284 129.945 285.476 172.111 282.186Z"/><path fill="#FECF2D" transform="scale(0.859375 0.859375)" d="M171.296 284.75C212.142 280.948 248.317 311.023 252.038 351.876C255.758 392.73 225.61 428.845 184.749 432.484C144.004 436.112 108.013 406.068 104.303 365.33C100.594 324.592 130.566 288.541 171.296 284.75Z"/><path fill="#FEFDFD" transform="scale(0.859375 0.859375)" d="M174.946 321.563C177.032 321.426 180.282 320.842 182.087 322.099C183.953 323.399 183.888 326.266 184.101 328.317C188.387 330.612 192.433 332.617 195.56 336.475C197.689 339.102 199.424 342.754 198.956 346.216C198.697 348.142 197.729 349.813 196.112 350.916C194.629 351.928 192.668 352.302 190.947 351.725C187.177 350.46 185.142 343.976 183.604 340.586C183.319 345.315 183.057 349.962 183.294 354.702C189.305 356.562 194.83 358.972 197.899 364.868C200.084 369.064 200.268 374.119 198.649 378.539C196.093 385.517 190.441 388.824 184.137 391.862C184.072 393.498 183.938 394.928 183.529 396.515C182.472 397.91 181.522 398.097 179.92 398.523L173.169 397.907L172.961 391.832C167.14 389.649 162.364 386.29 158.893 381.059C157.097 378.351 155.457 374.751 156.28 371.428C156.718 369.681 157.879 368.203 159.472 367.362C161.086 366.531 162.825 366.505 164.513 367.153C169.44 369.043 171.217 375.429 173.331 379.819C173.638 375.012 173.509 370.157 173.504 365.341C168.138 363.252 163.313 360.952 160.023 355.965C157.44 352.094 156.632 347.306 157.803 342.803C159.84 334.798 163.924 333.234 170.125 329.48C172.104 328.281 172.659 327.696 173.198 325.408C173.591 323.743 173.913 322.914 174.946 321.563Z"/><path fill="#FECF2D" transform="scale(0.859375 0.859375)" d="M173.195 340.296C173.306 340.395 173.43 340.482 173.527 340.595C174.879 342.177 174.525 346.609 174.141 348.55C173.854 350.004 173.654 350.421 172.423 351.233C171.458 349.964 170.366 348.605 170.195 346.958C169.899 344.103 171.427 342.316 173.195 340.296Z"/><path fill="#FECF2D" transform="scale(0.859375 0.859375)" d="M183.724 368.265C184.809 368.991 186.023 370.149 186.503 371.383C187.357 373.578 186.325 375.802 185.577 377.859C184.989 377.929 184.61 377.822 184.039 377.694C182.345 375.034 183.348 371.221 183.724 368.265Z"/><path transform="scale(0.859375 0.859375)" d="M339.986 142.149C375.747 138.724 407.534 164.888 411.049 200.64C414.563 236.392 388.479 268.244 352.736 271.848C316.866 275.465 284.876 249.268 281.349 213.39C277.823 177.511 304.099 145.587 339.986 142.149Z"/><path fill="#FECF2D" transform="scale(0.859375 0.859375)" d="M338.303 144.733C372.75 140.319 404.224 164.743 408.501 199.208C412.778 233.672 388.229 265.049 353.748 269.189C319.459 273.306 288.296 248.924 284.044 214.652C279.791 180.381 304.049 149.121 338.303 144.733Z"/><path fill="#FEFDFD" transform="scale(0.859375 0.859375)" d="M344.327 174.782C351.106 175.449 347.221 177.543 350.404 180.378C354.361 183.904 360.098 184.336 364.581 189.206C366.101 190.858 367.242 192.824 366.988 195.146C366.798 196.88 365.814 198.844 364.358 199.833C361.867 201.525 358.348 200.743 355.561 200.403C354.122 196.943 352.386 193.908 350.067 190.967L350.017 203.804C352.411 204.478 354.877 205.281 357.091 206.433C361.258 208.602 364.744 212.147 366.062 216.732C367.147 220.507 366.677 224.559 364.758 227.985C361.571 233.684 356.077 235.623 350.146 237.189L349.233 242.477C347.977 242.512 346.721 242.458 345.465 242.428C343.337 241.121 343.372 238.919 341.569 237.394C336.617 233.204 328.277 231.182 326.662 223.944C326.195 221.85 326.555 218.857 327.987 217.17C329.351 215.563 332.354 215.074 334.349 215.28C338.053 215.663 339.764 221.909 341.542 224.663L342.072 224.429C342.801 221.004 342.553 217.444 342.506 213.962C341.472 213.591 340.448 213.193 339.435 212.767C334.554 210.69 330.129 207.569 328.162 202.429C326.794 198.867 326.941 194.901 328.569 191.45C331.384 185.451 336.718 183.244 342.599 181.261C342.691 178.816 343.204 176.952 344.327 174.782Z"/><path fill="#FECF2D" transform="scale(0.859375 0.859375)" d="M350.229 215.306C351.722 216.325 353.289 217.393 353.785 219.25C354.396 221.535 353.149 223.683 352.234 225.698C351.725 225.809 351.259 225.74 350.743 225.708C350.627 225.572 350.492 225.452 350.396 225.301C348.893 222.934 349.963 217.997 350.229 215.306Z"/><path fill="#FECF2D" transform="scale(0.859375 0.859375)" d="M341.828 192.281C343.206 193.688 343.214 195.658 343.163 197.575C343.114 199.417 343.06 200.487 341.737 201.759C340.756 200.694 339.666 199.444 339.436 197.959C339.085 195.698 340.589 193.979 341.828 192.281Z"/><path transform="scale(0.859375 0.859375)" d="M487.235 156.245C517.068 155.11 542.2 178.315 543.445 208.144C544.689 237.972 521.576 263.19 491.752 264.543C461.774 265.904 436.396 242.645 435.146 212.661C433.895 182.678 457.247 157.386 487.235 156.245Z"/><path fill="#FECF2D" transform="scale(0.859375 0.859375)" d="M485.198 158.746C513.739 156.409 538.776 177.639 541.137 206.178C543.498 234.717 522.29 259.772 493.753 262.157C465.181 264.545 440.09 243.305 437.726 214.732C435.362 186.159 456.623 161.085 485.198 158.746Z"/><path fill="#FEFDFD" transform="scale(0.859375 0.859375)" d="M487.582 183.789C488.519 183.866 489.258 183.945 490.149 184.28C491.096 184.637 491.467 185.273 491.881 186.18C493.977 190.765 498.612 190.438 502.016 193.484C504.011 195.269 506 198.07 505.977 200.857C505.964 202.473 505.217 203.796 504.001 204.841C501.823 206.712 498.598 205.787 496.064 205.363C494.938 202.442 493.476 199.707 492.034 196.935C492.402 200.568 492.408 204.176 492.419 207.825C494.529 208.467 496.644 209.1 498.597 210.147C503.46 212.755 505.281 216.793 506.777 221.818C503.585 235.141 499.305 229.052 492.927 234.673C491.46 235.966 491.351 238.389 489.485 239.978C489.146 239.934 488.794 239.955 488.47 239.848C486.989 239.36 486.598 238.059 485.983 236.797C483.243 231.172 476.981 232.645 473.559 227.731C472.346 225.99 471.463 223.521 472.002 221.383C472.431 219.679 473.316 218.256 474.981 217.491C476.404 216.837 478.082 217.015 479.463 217.679C483.528 219.631 484.708 224.056 485.989 227.979L485.996 216.639C480.942 214.315 475.629 211.823 473.355 206.343C472.179 203.508 472.237 200.456 473.551 197.683C475.909 192.704 480.945 190.628 485.764 188.792L487.582 183.789Z"/><path fill="#FECF2D" transform="scale(0.859375 0.859375)" d="M485.143 197.814C486.247 198.872 486.367 200.391 486.502 201.85C486.675 203.722 486.734 206.011 485.5 207.53C484.667 206.372 483.827 205.066 483.523 203.649C483.018 201.297 483.841 199.71 485.143 197.814Z"/><path fill="#FECF2D" transform="scale(0.859375 0.859375)" d="M492.21 217.778C493.519 218.579 494.351 219.022 494.969 220.512C495.042 222.262 494.349 223.301 493.523 224.765L492.876 225.216L492.16 224.759C491.673 222.453 492.022 220.108 492.21 217.778Z"/><path transform="scale(0.859375 0.859375)" d="M811.814 352.199C821.027 350.779 830.29 354.441 836.042 361.778C841.793 369.114 843.137 378.984 839.558 387.591C835.978 396.199 828.033 402.206 818.775 403.301C804.805 404.954 792.087 395.108 790.189 381.17C788.29 367.231 797.911 354.342 811.814 352.199Z"/><path fill="#FECF2D" transform="scale(0.859375 0.859375)" d="M812.662 354.181C825.648 352.438 837.577 361.583 839.265 374.577C840.953 387.57 831.757 399.46 818.757 401.093C805.835 402.715 794.032 393.587 792.354 380.671C790.676 367.756 799.754 355.914 812.662 354.181Z"/><path transform="scale(0.859375 0.859375)" d="M198.648 499.281C205.944 497.662 213.545 500.114 218.52 505.691C223.495 511.269 225.066 519.1 222.626 526.165C220.186 533.229 214.118 538.422 206.761 539.741C195.705 541.724 185.094 534.499 182.885 523.486C180.676 512.473 187.682 501.715 198.648 499.281ZM205.774 537.883C216.013 536.368 223.081 526.835 221.557 516.598C220.032 506.36 210.493 499.3 200.257 500.833C190.034 502.364 182.984 511.889 184.507 522.114C186.029 532.339 195.548 539.397 205.774 537.883Z"/></svg>