<?xml version="1.0" encoding="utf-8" ?><svg xmlns="http://www.w3.org/2000/svg" xmlns:xlink="http://www.w3.org/1999/xlink" width="880" height="880" viewBox="0 0 880 880"><path fill="#191818" transform="scale(0.859375 0.859375)" d="M726.054 338.636C725.268 330.743 729.416 322.358 732.213 315.124C742.445 288.662 754.422 264.06 772.493 242.005C793.459 216.417 822.213 197.735 855.596 194.36C876.835 192.213 897.858 196.449 914.583 210.258C931.027 223.834 939.733 242.586 941.589 263.641C944.367 295.149 935.222 325.952 925.952 355.682C920.077 374.858 913.554 393.829 906.394 412.563C901.588 425.26 896.143 437.941 891.917 450.831C908.489 452.209 923.315 458.295 934.201 471.214C944.923 483.938 949.335 501.811 947.895 518.192C945.95 540.324 935.398 559.66 921.611 576.655C918.358 580.664 915.093 584.899 911.082 588.18C908.708 590.123 907.095 591.08 904.024 591.293C901.633 594.846 889.831 601.765 889.415 605.428C889.318 608.967 886.366 611.144 883.923 613.444C871.34 625.293 857.667 636.195 844.695 647.651C826.557 663.671 808.634 680.506 789.58 695.411C789.825 706.262 790.074 717.088 789.806 727.941C789.135 731.797 789.767 736.259 789.874 740.174C789.988 745.329 790.007 750.486 789.934 755.642C789.662 778.818 789.522 801.995 789.514 825.172C789.496 833.873 788.592 847.022 789.685 855.213C790.037 863.315 789.748 871.498 789.69 879.608C789.592 893.312 791.367 908.156 781.145 919.013C776.285 924.175 769.63 926.88 762.735 927.936C754.705 929.166 746.12 928.569 737.999 928.538L701.987 928.514L562.755 928.707C552.836 928.814 544.463 927.811 537.102 920.524C532.343 915.813 529.686 910.14 528.971 903.492C528.145 895.805 528.646 888.132 528.795 880.427C528.888 872.758 528.921 865.087 528.894 857.417C528.699 823.589 528.685 789.761 528.853 755.933L528.524 458.083C528.406 442.589 525.696 419.719 537.501 407.906C542.002 403.402 547.741 399.618 554.08 398.467C562.793 396.884 571.948 397.733 580.752 397.893L614.096 398.404C646.699 398.854 679.34 398.532 711.946 398.5C712.24 395.439 712.553 392.38 712.884 389.323C713.438 384.299 714.006 376.625 718.189 373.278C719.237 370.985 719.491 365.33 720.09 362.525C721.817 354.499 723.806 346.532 726.054 338.636Z"/><path fill="#FEFEFE" transform="scale(0.859375 0.859375)" d="M726.054 338.636C727.599 338.149 728.455 337.74 729.201 336.231C731.011 332.568 732.17 328.139 733.537 324.261C736.353 316.273 739.193 308.306 742.457 300.486C758.954 260.957 787.501 220.818 828.743 204.955C846.315 198.196 867.55 195.589 885.981 200.261C862.403 256.256 839.382 312.484 816.922 368.937L799.956 410.925C796.369 419.781 792.347 428.781 789.665 437.957C789.014 426.762 787.75 414.636 778.81 406.706C767.91 397.038 752.316 398.351 738.779 398.444L715.696 398.497C716.87 392.116 720.461 379.108 718.189 373.278C719.237 370.985 719.491 365.33 720.09 362.525C721.817 354.499 723.806 346.532 726.054 338.636Z"/><path fill="#FEFEFE" transform="scale(0.859375 0.859375)" d="M907.484 457.684C909.026 458.262 910.557 458.869 912.077 459.503C924.832 465.011 934.851 475.394 939.9 488.337C950.808 515.597 939.841 548.962 921.662 570.556C916.327 576.892 907.403 583.233 904.199 590.856C904.138 591 904.083 591.147 904.024 591.293C901.633 594.846 889.831 601.765 889.415 605.428C887.048 605.635 885.621 606.495 883.757 607.903C873.683 615.512 864.482 624.916 854.957 633.245L789.669 690.255C789.005 669.224 789.418 648.087 789.532 627.044L907.484 457.684Z"/><path fill="#8BA1EC" transform="scale(0.859375 0.859375)" d="M532.97 452.01L678.25 452.501C692.158 452.474 706.065 452.364 719.971 452.172C729.923 452.033 740.085 451.459 749.987 452.585L750.043 729.037C750.047 777.402 749.158 825.924 750.431 874.265L532.986 874.021L532.988 826.492C532.623 804.158 532.581 781.82 532.865 759.485L532.97 452.01Z"/><path fill="#FEFEFE" transform="scale(0.859375 0.859375)" d="M540.249 759.547C544.051 754.743 554.365 739.646 560.627 738.794C561.867 739.376 562.154 739.623 562.581 740.948C564.373 746.513 563.019 753.312 562.999 759.084L641.897 759.215C657.275 759.242 674.308 757.382 689.338 760.776C694.411 761.921 699.08 764.839 702.745 768.492C708.967 774.691 712.769 783.413 712.762 792.223C712.755 801.301 708.717 810.28 702.291 816.633C698.61 820.273 693.939 823.189 688.88 824.382C675.502 827.539 654.261 825.99 640.111 825.979L563.444 826.021C563.693 830.43 565.327 844.456 562.759 847.877C562.34 848.435 561.884 848.23 561.252 848.241C554.413 844.913 546.413 832.879 541.918 826.49L532.988 826.492C532.623 804.158 532.581 781.82 532.865 759.485L540.249 759.547Z"/><path fill="#B8C7E4" transform="scale(0.859375 0.859375)" d="M614.582 799.589C621.715 799.255 629.076 799.755 636.248 799.681C651.662 799.521 667.628 798.959 682.981 800.143C685.11 800.307 687.274 800.466 689.165 801.528L689.394 802.409C688.381 803.595 686.804 803.671 685.349 803.971L684.656 803.989C670.453 804.339 656.165 803.884 641.949 803.953C632.921 803.997 622.67 805.033 613.746 803.792C612.294 803.59 611.548 803.433 610.48 802.421L610.732 801.482C611.894 800.35 613.079 800.051 614.582 799.589Z"/><path fill="#B8C7E4" transform="scale(0.859375 0.859375)" d="M610.156 778.485C617.537 778.483 685.131 778.154 687.45 779.018C688.852 779.54 689.134 780.835 689.749 782.075C685.322 783.115 616.337 782.825 611.401 781.957C610.323 780.902 610.418 779.946 610.156 778.485Z"/><path fill="#B8C7E4" transform="scale(0.859375 0.859375)" d="M614.285 789.237L659.75 789.258C666.829 789.223 673.944 788.862 681.018 788.961C683.398 788.994 687.274 788.879 688.999 790.665L688.958 791.665C687.981 792.561 687.413 792.481 686.125 792.677C676.61 792.963 614.014 794.461 610.231 791.225L610.479 790.479C611.824 789.543 612.664 789.367 614.285 789.237Z"/><path fill="#FEFEFE" transform="scale(0.859375 0.859375)" d="M645.415 579.204C650.152 578.914 654.726 578.846 659.411 579.714C665.769 582.204 671.56 585.95 676.437 590.728C701.69 615.519 705.086 662.578 705.499 696.169C667.909 697.248 630.102 696.504 592.501 696.002C592.131 666.034 596.931 624.061 614.46 599.108C622.264 587.998 632.054 581.52 645.415 579.204Z"/><path fill="#FEFEFE" transform="scale(0.859375 0.859375)" d="M618.388 542.893C618.769 534.693 621.358 527.442 627.568 521.748C633.722 516.17 641.809 513.213 650.11 513.506C658.551 513.945 666.465 517.746 672.085 524.058C677.527 530.211 680.308 538.27 679.819 546.469C679.534 551.357 678.024 555.157 676.297 559.649C675.666 564.04 672.075 567.412 668.643 569.958C664.834 572.785 660.459 575.007 656.123 576.902C657.385 577.577 658.981 578.038 659.614 579.335L659.411 579.714C654.726 578.846 650.152 578.914 645.415 579.204C639.585 577.176 634.333 575.301 629.343 571.535C622.621 566.462 618.481 559.984 617.303 551.627C616.946 549.093 616.224 544.424 617.792 542.359L618.388 542.893Z"/><path fill="#191818" transform="scale(0.859375 0.859375)" d="M618.388 542.893C618.763 547.144 619.296 551.389 622.745 554.358C624.144 555.562 626.151 556.862 628.081 556.713C629.605 556.595 630.732 555.539 631.539 554.331C634.652 549.665 634.402 537.748 637.599 535.216C638.906 535.21 639.367 535.359 640.326 536.285C641.976 537.879 642.875 540.418 643.809 542.469C648.052 551.779 652.01 561.789 663.996 562.149C668.209 562.276 672.385 561.111 676.297 559.649C675.666 564.04 672.075 567.412 668.643 569.958C664.834 572.785 660.459 575.007 656.123 576.902C657.385 577.577 658.981 578.038 659.614 579.335L659.411 579.714C654.726 578.846 650.152 578.914 645.415 579.204C639.585 577.176 634.333 575.301 629.343 571.535C622.621 566.462 618.481 559.984 617.303 551.627C616.946 549.093 616.224 544.424 617.792 542.359L618.388 542.893Z"/><path fill="#FEFEFE" transform="scale(0.859375 0.859375)" d="M638.541 538.699C644.09 542.607 644.969 554.255 650.91 559.617C656.73 564.869 663.851 564.702 671.165 564.442C664.816 570.49 657.986 574.386 649.354 575.99C646.339 576.035 643.334 575.622 640.443 574.764C630.105 571.634 624.285 563.98 619.474 554.854C621.56 556.283 623.814 557.907 626.373 558.266C628.394 558.549 630.4 558.129 632.035 556.879C637.052 553.045 637.701 544.522 638.541 538.699Z"/><path fill="#FEFEFE" transform="scale(0.859375 0.859375)" d="M889.995 201.329C891.465 201.877 892.927 202.446 894.381 203.035C911.664 209.935 925.38 223.593 932.355 240.847C948.664 280.549 927.682 340.326 914.461 378.738C906.28 403.099 897.167 427.137 887.143 450.799C877.581 451.271 868.196 452.101 858.951 454.758C824.857 464.56 805.927 487.267 789.487 517.15L789.478 472.55C789.127 464.352 788.269 455.783 790.054 447.703C793.043 434.176 800.085 421.122 805.251 408.287C815.517 382.961 825.582 357.553 835.446 332.067C847.671 325.969 859.247 318.358 870.829 311.133C877.547 306.941 884.516 303.047 891.171 298.788C893.305 297.422 895.108 296.254 895.647 293.668L894.94 293.071C888.835 293.483 846.302 321.232 837.777 326.36C856.486 285.298 871.091 242.3 889.995 201.329Z"/><path fill="#FEFEFE" transform="scale(0.859375 0.859375)" d="M734.701 402.585C745.171 402.095 756.958 401.798 767.014 405.092C773.735 407.293 778.606 411.321 781.76 417.694C784.642 423.519 785.483 429.272 785.752 435.704C786.574 455.387 785.712 475.257 785.704 494.964L785.658 617.766L786.009 811.063L786.078 857.536C786.098 868.824 787.547 896.832 784.02 906.635C781.068 914.839 774.638 919.21 767.173 922.766C756.954 924.831 746.423 924.299 736.068 923.959C741.045 921.466 746.006 918.701 749.498 914.231C753.497 909.112 754.066 903.03 754.367 896.78C754.857 886.623 754.096 876.37 754.039 866.2L754.091 806.969L753.99 610.596L753.96 490.746L754.011 455.736C754.024 447.332 754.381 438.714 753.246 430.372C751.554 417.947 744.301 409.975 734.701 402.585Z"/><path fill="#191818" transform="scale(0.859375 0.859375)" d="M767.196 483.123C768.56 483.402 769.461 483.526 770.472 484.579C772.017 491.415 770.885 505.647 770.892 513.248C770.903 525.567 772.498 540.622 770.487 552.654C769.6 552.54 768.829 552.308 767.981 552.027C765.471 548.504 766.824 492.699 767.196 483.123Z"/><path fill="#191818" transform="scale(0.859375 0.859375)" d="M767.045 579.146C768.298 579.31 769.105 579.41 770.22 580.061C772.471 587.529 770.821 625.491 770.419 635.794C769.425 635.915 768.966 635.811 768.049 635.415C765.417 630.871 766.927 586.938 767.045 579.146Z"/><path fill="#FEFEFE" transform="scale(0.859375 0.859375)" d="M884.285 454.715C890.611 454.166 897.283 455.225 903.582 455.858C897.718 466.457 889.962 476.02 883.023 485.936L845.255 540.156C846.915 529.895 849.742 515.109 849.323 504.986C849.233 502.805 849.128 500.698 847.448 499.18L846.544 499.34C842.532 504.332 843.769 535.606 840.797 544.625C836.83 556.666 823.183 571.861 815.719 582.762C806.535 594.879 798.359 607.81 789.507 620.177L789.458 555.125C789.445 548.037 788.45 531.078 789.986 525.074C791.714 518.32 807.3 494.825 812.003 489.316C830.88 467.207 855.767 456.909 884.285 454.715Z"/><path fill="#FEFEFE" transform="scale(0.859375 0.859375)" d="M644.074 902.281C650.061 901.821 657.385 901.374 663.244 902.608C664.81 902.937 666.1 903.343 667.021 904.742C667 905.437 667.172 905.863 666.64 906.39C664.817 908.196 659.588 907.808 657.13 907.934C651.525 908.03 645.604 908.412 640.04 907.792C637.855 907.549 635.664 907.323 634.231 905.499C634.28 904.18 634.363 904.152 635.219 903.131C637.769 901.944 641.264 902.361 644.074 902.281Z"/><path fill="#FEFEFE" transform="scale(0.859375 0.859375)" d="M648.825 424.219C652.361 424.108 656.015 423.94 659.534 424.398C661.936 424.711 664.627 425.162 666.156 427.157L665.684 427.968C661.467 430.273 655.938 429.644 651.25 429.619C646.97 429.725 642.293 430.134 638.057 429.38C636.353 429.077 634.189 428.638 633.163 427.124L633.65 426.209C637.993 423.768 643.985 424.343 648.825 424.219Z"/><path fill="#191818" transform="scale(0.859375 0.859375)" d="M125.402 434.419C121.688 432.7 120.257 428.974 118.915 425.333C116.807 419.611 115.233 413.59 113.535 407.731C102.925 371.103 97.822 328.959 114.546 293.338C124.602 271.92 141.826 254.43 164.349 246.447C186.122 238.729 209.599 240.857 230.273 250.833C276.269 273.027 306.81 326.552 322.781 373.029C325.427 380.728 327.562 388.589 329.768 396.422L379.886 396.347C391.827 396.243 406.827 394.524 418.294 397.11C423.99 398.39 429.204 401.263 433.33 405.393C442.519 414.531 443.19 425.667 443.136 437.949L443.126 760.982L443.225 857.527L443.233 885.519C443.252 891.605 443.568 897.857 442.932 903.916C442.321 909.74 439.439 915.883 435.264 920.022C426.867 928.347 416.125 928.667 405.012 928.353C383.451 927.943 361.886 927.842 340.323 928.048L239.03 928.072L202.838 928.045C194.723 928.093 186.002 928.864 177.987 927.605C171.559 926.594 165.835 923.7 161.369 918.972C146.753 903.503 154.513 872.202 152.519 852.311C148.252 844.39 144.886 835.706 141.291 827.452C131.899 805.424 122.939 783.214 114.416 760.835C97.5758 716.809 81.7411 671.912 70.5799 626.066C67.1264 611.88 63.4816 597.098 62.5418 582.479C61.8238 571.31 62.3894 560.066 67.0842 549.737C71.2454 540.583 78.0636 533.901 87.5616 530.48C104.176 524.494 122.251 529.962 137.435 537.438C142.585 539.973 147.476 543.013 152.654 545.485C151.877 530.261 155.534 511.49 151.487 496.87C148.106 484.659 136.862 473.899 135.431 461.244C135.719 460.612 135.811 460.158 135.712 459.438C135.277 456.266 127.456 435.982 125.402 434.419Z"/><path fill="#8BA1EC" transform="scale(0.859375 0.859375)" d="M152.519 852.311C148.252 844.39 144.886 835.706 141.291 827.452C131.899 805.424 122.939 783.214 114.416 760.835C97.5758 716.809 81.7411 671.912 70.5799 626.066C67.1264 611.88 63.4816 597.098 62.5418 582.479C61.8238 571.31 62.3894 560.066 67.0842 549.737C71.2454 540.583 78.0636 533.901 87.5616 530.48C104.176 524.494 122.251 529.962 137.435 537.438C142.585 539.973 147.476 543.013 152.654 545.485C153.854 560.447 152.87 577.792 152.908 593.018C152.929 601.298 154.068 626.473 152.514 632.712C152.638 636.384 152.755 639.994 152.461 643.659C152.497 649.672 152.107 656.106 152.754 662.06C153.369 665.015 153.568 847.391 152.519 852.311Z"/><path fill="#FEFEFE" transform="scale(0.859375 0.859375)" d="M152.461 643.659C149.891 640.202 126.482 566.063 126.625 560.75C126.656 559.597 126.696 558.844 127.586 558.052C128.957 558.748 129.684 560.041 130.286 561.433C132.901 567.477 134.541 574.321 136.533 580.627C142 597.935 146.83 615.482 152.514 632.712C152.638 636.384 152.755 639.994 152.461 643.659Z"/><path fill="#FEFEFE" transform="scale(0.859375 0.859375)" d="M97.329 631.911C97.0079 631.252 97.1361 630.597 97.1479 629.877L98.3387 629.151C100.026 629.226 101.286 629.856 102.753 630.666C108.078 633.608 112.977 637.459 118.131 640.713C129.609 647.931 141.15 655.047 152.754 662.06C152.655 663.217 152.481 664.234 152.177 665.354C149.546 665.805 103.278 635.761 97.329 631.911Z"/><path fill="#FEFEFE" transform="scale(0.859375 0.859375)" d="M125.402 434.419C125.421 434.261 125.442 434.102 125.458 433.943C125.908 429.594 118.547 410.305 116.911 404.544C103.572 357.598 100.594 298.826 141.772 264.298C147.205 259.815 153.154 255.996 159.493 252.921C177.724 293.37 196.45 333.552 214.161 374.245C203.151 367.991 164.931 342.479 155.407 341.836L154.741 342.127C155.478 344.08 157.835 345.566 159.52 346.736C167.264 352.111 175.889 356.41 184.072 361.091C194.797 367.225 205.333 373.603 216.169 379.551C218.973 385.063 221.349 390.826 223.572 396.595C209.89 396.439 185.754 394.317 173.55 397.88C168.983 399.171 164.814 401.591 161.428 404.917C152.983 413.365 152.327 424.845 152.553 436.089C152.898 453.443 152.888 470.803 152.521 488.157C149.239 483.263 141.195 461.738 136.794 460.674L135.431 461.244C135.719 460.612 135.811 460.158 135.712 459.438C135.277 456.266 127.456 435.982 125.402 434.419Z"/><path fill="#FEFEFE" transform="scale(0.859375 0.859375)" d="M156.971 451.796C188.842 451.027 220.914 451.637 252.801 451.606L439.013 451.52L439.047 757.261L439.032 831.006L439.04 873.925L156.991 874.019L156.971 451.796Z"/><path fill="#8BA1EC" transform="scale(0.859375 0.859375)" d="M402.827 735.394C410.093 741.474 415.808 749.716 421.698 757.109L439.047 757.261L439.032 831.006C433.965 830.856 428.886 830.903 423.817 830.883C420.17 834.439 407.459 850.959 404.335 851.91C403.53 852.155 403.323 851.784 402.66 851.393C400.013 846.084 401.68 836.598 402.027 830.722C369.058 830.33 336.086 830.282 303.117 830.579C292.752 830.657 282.386 830.68 272.021 830.648C265.133 830.616 258.048 830.895 251.247 829.675C244.285 828.426 238.361 825.579 233.285 820.631C226.166 813.693 222.425 804.326 222.375 794.427C222.336 784.228 226.419 774.446 233.696 767.3C238.148 762.893 243.862 759.512 250.034 758.295C262.815 755.774 285.992 757.094 299.654 757.073L402.411 757.257C402.078 749.834 401.472 742.76 402.827 735.394Z"/><path fill="#FEFEFE" transform="scale(0.859375 0.859375)" d="M314.768 798.215C319.622 798.019 326.023 797.182 330.762 798.545C332.039 798.912 332.419 799.227 333.01 800.385L332.442 801.648C329.858 803.256 277.436 802.697 270.375 802.548C265.847 802.549 255.918 803.599 252.036 800.966L251.984 800.052C253.143 799 254.127 798.587 255.676 798.455C260.86 798.016 266.461 798.455 271.691 798.469C285.995 798.505 300.489 799.008 314.768 798.215Z"/><path fill="#FEFEFE" transform="scale(0.859375 0.859375)" d="M251.302 782.514L300.692 782.47C310.933 782.409 321.428 781.77 331.634 782.675C332.751 783.857 332.659 784.933 332.926 786.514L283.094 786.518C273.21 786.516 262.65 787.169 252.87 785.755C251.69 784.753 251.705 783.983 251.302 782.514Z"/><path fill="#191818" transform="scale(0.859375 0.859375)" d="M278.782 495.106C294.738 494.717 310.621 494.84 326.571 494.774C341.929 494.71 357.214 494.441 372.573 494.989C379.667 501.489 383.828 507.45 385.155 517.138C385.987 519.162 384.95 522.668 384.142 524.623C382.939 527.531 381.133 530.384 378.863 532.56C369.214 541.813 354.402 549.165 342.919 556.259C333.666 561.975 324.817 568.377 314.979 573.079L314.98 581.703C329.439 573.394 353.541 554.968 368.585 551.381C371.388 552.088 373.819 552.723 376.255 554.39C381.45 557.946 383.472 563.06 384.665 568.989C385.736 573.233 384.467 578.258 382.339 581.974C380.285 585.559 376.772 588.12 373.478 590.504C363.8 597.508 352.776 603.081 342.588 609.353C333.46 614.971 324.405 621.709 314.993 626.721L314.978 634.193C324.354 628.564 358.637 605.601 366.66 604.77C370.478 604.374 374.099 606.198 376.91 608.64C381.563 612.683 384.204 618.09 384.53 624.209C385.145 628.222 383.352 632.742 381.037 635.952C374.978 644.351 327.747 669.499 315.019 677.147L315.136 685.916C282.168 686.317 249.138 685.855 216.165 685.865C215.881 674.306 213.982 659.489 218.315 648.67C221.235 641.378 226.663 637.887 233.571 635.002C227.683 632.379 222.954 629.41 219.801 623.513C215.941 616.293 215.569 605.806 218.196 598.097C220.951 590.011 226.765 586.28 234.024 582.759C228.968 580.794 223.803 577.623 220.763 573.037C216.252 566.234 215.894 555.261 217.665 547.473C218.419 544.154 219.623 541.274 221.793 538.635C231.404 526.945 246.314 518.522 258.528 509.724C265.266 504.87 271.744 499.512 278.782 495.106Z"/><path fill="#FF8456" transform="scale(0.859375 0.859375)" d="M314.891 583.893C323.316 578.634 331.86 573.565 340.264 568.273C346.663 564.243 352.972 559.818 359.64 556.251C364.025 553.905 367.727 552.41 372.701 554.065C379.662 556.382 381.176 562.38 384.221 568.157L384.665 568.989C385.736 573.233 384.467 578.258 382.339 581.974C380.285 585.559 376.772 588.12 373.478 590.504C363.8 597.508 352.776 603.081 342.588 609.353C333.46 614.971 324.405 621.709 314.993 626.721L314.891 583.893Z"/><path fill="#FF8456" transform="scale(0.859375 0.859375)" d="M372.055 496.76C377.505 501.389 380.38 505.334 383.044 511.982C383.657 513.512 384.483 515.231 384.665 516.87C384.691 517.104 384.705 517.34 384.726 517.576L385.155 517.138C385.987 519.162 384.95 522.668 384.142 524.623C382.939 527.531 381.133 530.384 378.863 532.56C369.214 541.813 354.402 549.165 342.919 556.259C333.666 561.975 324.817 568.377 314.979 573.079C314.762 559.609 314.942 546.107 314.981 532.634C334.014 520.686 353.239 509.05 372.055 496.76Z"/><path fill="#FF8456" transform="scale(0.859375 0.859375)" d="M314.922 636.439C315.495 636.013 316.064 635.591 316.657 635.192C327.654 627.797 353.528 610.101 364.931 606.697C366.644 606.186 368.478 606.224 370.211 606.63C376.746 608.162 380.279 613.177 382.46 619.134C383 620.61 383.354 622.327 384.178 623.661C384.292 623.846 384.413 624.026 384.53 624.209C385.145 628.222 383.352 632.742 381.037 635.952C374.978 644.351 327.747 669.499 315.019 677.147C314.386 663.678 314.928 649.938 314.922 636.439Z"/><path fill="#FFB736" transform="scale(0.859375 0.859375)" d="M249.628 583.758C256.491 583.178 263.585 583.462 270.479 583.47C284.819 583.488 299.164 583.789 313.503 583.961L313.524 634.506L280.74 634.484C273.283 634.452 265.825 634.469 258.367 634.537C247.838 634.581 233.402 636.337 225.136 628.355C220.081 623.474 218.308 616.792 218.139 609.976C217.96 602.735 219.431 595.343 224.736 590.029C231.807 582.945 240.479 583.848 249.628 583.758Z"/><path fill="#FFB736" transform="scale(0.859375 0.859375)" d="M241.176 533.278C249.75 532.76 258.444 532.961 267.035 532.968C282.528 532.942 298.021 533.127 313.509 533.523L313.51 582.509L289.713 582.507L261.796 582.535C253.696 582.616 245.153 583.368 237.156 581.832C231.114 580.671 225.389 577.849 221.966 572.543C217.76 566.022 216.959 554.788 218.789 547.308C220.457 540.487 224.961 536.88 230.718 533.521C234.205 533.484 237.691 533.403 241.176 533.278Z"/><path fill="#FFB736" transform="scale(0.859375 0.859375)" d="M235.959 636.108C261.597 634.745 287.81 635.945 313.518 635.961L313.514 684.122C307.596 684.026 301.669 684.078 295.75 684.058L217.568 684.076C217.417 672.744 215.214 656.647 220.823 646.497C224.177 640.425 229.577 637.851 235.959 636.108Z"/><path fill="#FFB736" transform="scale(0.859375 0.859375)" d="M299.152 496.243C322.842 495.709 346.607 496.431 370.302 496.469C350.973 507.563 332.712 520.541 313.454 531.765C309.868 531.839 306.23 531.613 302.642 531.515C278.742 531.492 254.658 530.804 230.788 532.056C239.775 525.129 249.086 518.59 258.21 511.842C265.213 506.662 272.097 500.936 279.604 496.513C286.121 496.554 292.639 496.464 299.152 496.243Z"/><path fill="#FEFEFE" transform="scale(0.859375 0.859375)" d="M187.393 245.694C204.485 243.284 224.915 251.52 239.146 260.286C283.027 287.317 313.791 347.679 325.377 396.501L301.75 396.508L227.95 396.515C207.1 347.788 185.487 299.392 163.119 251.343C170.972 248.087 179.036 246.839 187.393 245.694Z"/><path fill="#FF8456" transform="scale(0.859375 0.859375)" d="M180.895 400.686C182.953 400.412 185.135 400.479 187.211 400.459C238.328 399.955 289.528 400.496 340.652 400.489L389.276 400.448C397.751 400.437 406.944 399.709 415.328 400.818C421.259 401.603 426.245 404.08 430.477 408.299C440.826 418.615 439.071 434.151 439.019 447.503L414.75 447.499L157.033 447.781C155.676 436.145 155.019 419.723 162.6 409.908C167.335 403.779 173.561 401.72 180.895 400.686Z"/><path fill="#191818" transform="scale(0.859375 0.859375)" d="M295.574 420.75C299.969 420.557 307.031 420.123 310.902 422.319C311.835 422.848 311.532 422.537 311.867 423.588C311.764 423.715 311.677 423.857 311.558 423.97C308.505 426.873 298.812 425.981 294.677 425.992C290.349 426.025 285.386 426.18 281.208 424.952C280 424.597 279.091 424.402 278.494 423.239C278.586 423.126 278.664 423 278.771 422.899C281.777 420.052 291.489 420.811 295.574 420.75Z"/><path fill="#FF8456" transform="scale(0.859375 0.859375)" d="M157.019 878.499L439.248 878.514C439.698 892.268 440.994 905.32 432.036 916.805C428.118 920.034 423.474 922.66 418.375 923.326C407.309 924.772 395.51 924.04 384.346 924.037L327.186 924.006L230.927 923.975C214.849 923.974 198.586 924.541 182.533 923.92C175.401 923.645 168.482 921.153 163.664 915.697C154.962 905.844 156.23 890.665 157.019 878.499Z"/><path fill="#191818" transform="scale(0.859375 0.859375)" d="M282.872 899.589C291.516 900.287 300.595 898.279 309.129 899.942C310.742 900.257 311.66 900.581 312.59 901.946C312.071 903.391 311.608 903.517 310.382 904.382C304.613 904.354 284.091 906.092 280.33 903.232C279.626 902.697 279.803 902.511 279.729 901.721C280.827 900.369 281.306 900.232 282.872 899.589Z"/><path fill="#191818" fill-opacity="0.98431373" transform="scale(0.859375 0.859375)" d="M491.413 143.228C500.252 142.872 509.554 144.141 518.145 146.157C541.227 151.573 560.506 167.034 572.848 187.02C585.448 207.841 589.355 232.783 583.723 256.46C577.19 284.137 561.458 302.335 537.693 317.031C542.73 320.681 548.66 323.245 553.862 326.765C569.597 337.412 584.253 354.827 589.863 373.16L589.184 373.977L589.98 373.667L589.959 374.692C586.479 370.668 584.478 363.92 581.763 359.199C571.025 340.528 555.165 326.465 535.156 318.258C524.725 323.174 514.007 325.842 502.619 327.382C485.298 328.798 468.6 324.893 452.891 317.803C434.332 330.031 421.276 338.03 410.241 358.321C407.154 363.997 404.712 370.021 401.74 375.766C402.073 374.337 402.437 372.916 402.831 371.503C409.869 346.694 429.481 329.356 451.229 317.264C445.757 313.736 440.334 310.178 435.337 305.986C416.494 290.402 404.698 267.906 402.595 243.545C400.459 218.521 408.497 193.692 424.893 174.668C442.037 154.804 465.603 145.124 491.413 143.228Z"/><path fill="#FEFEFE" transform="scale(0.859375 0.859375)" d="M492.72 144.746C542.739 143.843 584.038 183.621 585.012 233.638C585.986 283.655 546.266 325.01 496.25 326.054C446.135 327.1 404.68 287.284 403.704 237.168C402.728 187.051 442.602 145.652 492.72 144.746Z"/><path fill="#FFB736" transform="scale(0.859375 0.859375)" d="M488.361 191.215C512.131 187.888 534.094 204.47 537.402 228.243C540.71 252.016 524.109 273.965 500.334 277.253C476.586 280.538 454.668 263.96 451.364 240.216C448.06 216.471 464.619 194.539 488.361 191.215Z"/><path fill="#FEFEFE" transform="scale(0.859375 0.859375)" d="M494.092 206.179C495.685 206.484 496.419 206.791 497.412 208.034C497.672 213.587 501.683 213.5 505.002 217.392C506.188 218.782 507.064 220.495 506.664 222.377C506.314 224.025 505.341 225.239 503.926 226.086C500.129 225.492 500.207 221.127 497.483 219.225C496.554 218.576 495.093 218.535 494.042 218.817C492.247 219.3 490.651 220.68 489.814 222.327C485.822 230.18 505.376 233.963 507.422 241.887C509.989 251.825 501.28 252.693 497.698 259.065C497.652 260.394 497.58 261.44 497.195 262.728C496.061 263.873 495.471 263.993 493.953 264.277C493.053 263.576 492.454 262.854 491.767 261.947C491.377 255.454 485.767 256.35 482.705 251.882C481.443 250.041 481.267 248.121 481.615 245.979C482.382 244.758 482.837 244.325 484.135 243.693C487.54 244.002 488.767 248.015 491.168 250.103C492.22 251.018 493.41 251.454 494.809 251.282C496.726 251.045 499.006 249.106 499.941 247.481C503.436 241.404 487.1 235.181 483.63 230.726C482.456 229.219 481.945 227.319 481.387 225.521C483.04 218.84 485.865 216.62 491.253 212.718C492.04 210.392 492.818 208.302 494.092 206.179Z"/><path fill="#8BA1EC" transform="scale(0.859375 0.859375)" d="M789.806 727.941C789.994 727.803 790.184 727.666 790.371 727.526C792.241 726.117 793.798 724.051 795.463 722.394C797.612 720.255 800.104 718.428 802.576 716.68C821.256 703.469 846.427 698.21 868.98 701.063C892.841 704.17 914.509 716.578 929.267 735.584C944.69 755.258 951.577 780.295 948.386 805.088C945.255 829.5 932.487 850.721 912.982 865.585C893.637 880.328 869.661 887.03 845.519 883.708C833.606 882.139 822.145 878.123 811.859 871.912C808.734 870.045 805.719 868.002 802.828 865.791C800.362 863.906 791.525 855.511 789.685 855.213C788.592 847.022 789.496 833.873 789.514 825.172C789.522 801.995 789.662 778.818 789.934 755.642C790.007 750.486 789.988 745.329 789.874 740.174C789.767 736.259 789.135 731.797 789.806 727.941Z"/><path fill="#8BA1EC" transform="scale(0.859375 0.859375)" d="M677.757 143.143C700.474 141.877 719.911 159.279 721.154 181.998C722.396 204.717 704.973 224.136 682.252 225.354C659.566 226.571 640.183 209.179 638.942 186.494C637.701 163.809 655.073 144.407 677.757 143.143Z"/><path fill="#FFB736" transform="scale(0.859375 0.859375)" d="M292.479 165.095C311 163.728 327.143 177.589 328.593 196.104C330.043 214.62 316.255 230.825 297.746 232.357C279.12 233.9 262.79 220.005 261.331 201.372C259.872 182.739 273.839 166.471 292.479 165.095Z"/></svg>